<?xml version="1.0" encoding="UTF-8" standalone="no"?>
<!DOCTYPE svg PUBLIC "-//W3C//DTD SVG 1.0//EN" "http://www.w3.org/TR/2001/PR-SVG-20010719/DTD/svg10.dtd">
<svg width="42cm" height="36cm" viewBox="41 -523 821 705" xmlns="http://www.w3.org/2000/svg" xmlns:xlink="http://www.w3.org/1999/xlink">
  <g>
    <g>
      <rect style="fill: #ffffff" x="200" y="40" width="60" height="100"/>
      <rect style="fill: none; fill-opacity:0; stroke-width: 2; stroke: #000000" x="200" y="40" width="60" height="100"/>
    </g>
    <g>
      <rect style="fill: #ffffff" x="260" y="40" width="60" height="100"/>
      <rect style="fill: none; fill-opacity:0; stroke-width: 2; stroke: #000000" x="260" y="40" width="60" height="100"/>
    </g>
    <g>
      <rect style="fill: #ffffff" x="320" y="40" width="60" height="100"/>
      <rect style="fill: none; fill-opacity:0; stroke-width: 2; stroke: #000000" x="320" y="40" width="60" height="100"/>
    </g>
    <g>
      <rect style="fill: #ffffff" x="380" y="40" width="60" height="100"/>
      <rect style="fill: none; fill-opacity:0; stroke-width: 2; stroke: #000000" x="380" y="40" width="60" height="100"/>
    </g>
    <g>
      <rect style="fill: #ffffff" x="440" y="40" width="60" height="100"/>
      <rect style="fill: none; fill-opacity:0; stroke-width: 2; stroke: #000000" x="440" y="40" width="60" height="100"/>
    </g>
    <g>
      <rect style="fill: #ffffff" x="500" y="40" width="60" height="100"/>
      <rect style="fill: none; fill-opacity:0; stroke-width: 2; stroke: #000000" x="500" y="40" width="60" height="100"/>
    </g>
    <g>
      <rect style="fill: #ffffff" x="560" y="40" width="60" height="100"/>
      <rect style="fill: none; fill-opacity:0; stroke-width: 2; stroke: #000000" x="560" y="40" width="60" height="100"/>
    </g>
    <g>
      <rect style="fill: #ffffff" x="620" y="40" width="60" height="100"/>
      <rect style="fill: none; fill-opacity:0; stroke-width: 2; stroke: #000000" x="620" y="40" width="60" height="100"/>
    </g>
    <g>
      <rect style="fill: #ffffff" x="680" y="40" width="60" height="100"/>
      <rect style="fill: none; fill-opacity:0; stroke-width: 2; stroke: #000000" x="680" y="40" width="60" height="100"/>
    </g>
    <g>
      <rect style="fill: #ffffff" x="740" y="40" width="60" height="100"/>
      <rect style="fill: none; fill-opacity:0; stroke-width: 2; stroke: #000000" x="740" y="40" width="60" height="100"/>
    </g>
  </g>
  <text font-size="39.5111" style="fill: #000000;text-anchor:start;font-family:sans-serif;font-style:normal;font-weight:normal" x="200" y="-440">
    <tspan x="200" y="-440">copy( dst , src )</tspan>
    <tspan x="200" y="-390.611">{</tspan>
    <tspan x="200" y="-341.222">    ...</tspan>
    <tspan x="200" y="-291.833">}</tspan>
  </text>
  <g>
    <g>
      <rect style="fill: #ffffff" x="200" y="-160" width="60" height="100"/>
      <rect style="fill: none; fill-opacity:0; stroke-width: 2; stroke: #000000" x="200" y="-160" width="60" height="100"/>
    </g>
    <text font-size="39.5111" style="fill: #000000;text-anchor:start;font-family:sans-serif;font-style:normal;font-weight:normal" x="217" y="-97">
      <tspan x="217" y="-97">h</tspan>
    </text>
    <g>
      <g>
        <rect style="fill: #ffffff" x="260" y="-160" width="60" height="100"/>
        <rect style="fill: none; fill-opacity:0; stroke-width: 2; stroke: #000000" x="260" y="-160" width="60" height="100"/>
      </g>
      <text font-size="39.5111" style="fill: #000000;text-anchor:start;font-family:sans-serif;font-style:normal;font-weight:normal" x="277" y="-97">
        <tspan x="277" y="-97">e</tspan>
      </text>
    </g>
    <g>
      <g>
        <rect style="fill: #ffffff" x="320" y="-160" width="60" height="100"/>
        <rect style="fill: none; fill-opacity:0; stroke-width: 2; stroke: #000000" x="320" y="-160" width="60" height="100"/>
      </g>
      <text font-size="39.5111" style="fill: #000000;text-anchor:start;font-family:sans-serif;font-style:normal;font-weight:normal" x="343" y="-98">
        <tspan x="343" y="-98">l</tspan>
      </text>
    </g>
    <g>
      <g>
        <rect style="fill: #ffffff" x="380" y="-160" width="60" height="100"/>
        <rect style="fill: none; fill-opacity:0; stroke-width: 2; stroke: #000000" x="380" y="-160" width="60" height="100"/>
      </g>
      <text font-size="39.5111" style="fill: #000000;text-anchor:start;font-family:sans-serif;font-style:normal;font-weight:normal" x="403" y="-98">
        <tspan x="403" y="-98">l</tspan>
      </text>
    </g>
    <g>
      <g>
        <rect style="fill: #ffffff" x="440" y="-160" width="60" height="100"/>
        <rect style="fill: none; fill-opacity:0; stroke-width: 2; stroke: #000000" x="440" y="-160" width="60" height="100"/>
      </g>
      <text font-size="39.5111" style="fill: #000000;text-anchor:start;font-family:sans-serif;font-style:normal;font-weight:normal" x="457" y="-97">
        <tspan x="457" y="-97">o</tspan>
      </text>
    </g>
    <g>
      <g>
        <rect style="fill: #ffffff" x="497" y="-160" width="60" height="100"/>
        <rect style="fill: none; fill-opacity:0; stroke-width: 2; stroke: #000000" x="497" y="-160" width="60" height="100"/>
      </g>
      <text font-size="39.5111" style="fill: #000000;text-anchor:start;font-family:sans-serif;font-style:normal;font-weight:normal" x="512" y="-99">
        <tspan x="512" y="-99">\0</tspan>
      </text>
    </g>
  </g>
  <text font-size="39.5111" style="fill: #000000;text-anchor:start;font-family:sans-serif;font-style:normal;font-weight:normal" x="200" y="-180">
    <tspan x="200" y="-180">a_string</tspan>
  </text>
  <text font-size="39.5111" style="fill: #000000;text-anchor:start;font-family:sans-serif;font-style:normal;font-weight:normal" x="200" y="20">
    <tspan x="200" y="20">another_string</tspan>
  </text>
  <rect style="fill: none; fill-opacity:0; stroke-width: 4; stroke: #000000" x="160" y="-240" width="700" height="420"/>
  <rect style="fill: none; fill-opacity:0; stroke-width: 4; stroke: #0000ff" x="311.112" y="-482.018" width="76.672" height="60"/>
  <rect style="fill: none; fill-opacity:0; stroke-width: 4; stroke: #0000ff" x="409.584" y="-481.714" width="76.672" height="60"/>
  <g>
    <path style="fill: none; fill-opacity:0; stroke-width: 4; stroke: #0000ff" d="M 349.448 -422.018 C 355.424,-422.018 107.77,-365.062 71.0008,-298.594 C 34.2312,-232.126 34.2312,-25.65 68.1724,11.1195 C 102.113,47.889 180,80 189.292,84.6459"/>
    <polygon style="fill: #0000ff" points="196,88 184.82,88 189.292,84.6459 189.292,79.0557 "/>
    <polygon style="fill: none; fill-opacity:0; stroke-width: 4; stroke: #0000ff" points="196,88 184.82,88 189.292,84.6459 189.292,79.0557 "/>
  </g>
  <g>
    <path style="fill: none; fill-opacity:0; stroke-width: 4; stroke: #0000ff" d="M 447.92 -421.714 C 442.172,-422.442 178.481,-308.492 141.711,-242.024 C 104.942,-175.557 103.528,-171.314 136.055,-134.544 C 168.582,-97.775 186.966,-110.503 188.037,-110.462"/>
    <polygon style="fill: #0000ff" points="195.531,-110.172 185.346,-105.562 188.037,-110.462 185.731,-115.554 "/>
    <polygon style="fill: none; fill-opacity:0; stroke-width: 4; stroke: #0000ff" points="195.531,-110.172 185.346,-105.562 188.037,-110.462 185.731,-115.554 "/>
  </g>
  <rect style="fill: none; fill-opacity:0; stroke-width: 4; stroke: #000000" x="160" y="-520" width="700" height="280"/>
  <text font-size="39.5111" style="fill: #000000;text-anchor:start;font-family:sans-serif;font-style:normal;font-weight:normal" x="680" y="-200">
    <tspan x="680" y="-200">Aufrufer</tspan>
  </text>
  <text font-size="39.5111" style="fill: #000000;text-anchor:start;font-family:sans-serif;font-style:normal;font-weight:normal" x="580" y="-260">
    <tspan x="580" y="-260">Aufgerufener</tspan>
  </text>
</svg>
