<?xml version="1.0" encoding="UTF-8" standalone="no"?>
<!DOCTYPE svg PUBLIC "-//W3C//DTD SVG 1.0//EN" "http://www.w3.org/TR/2001/PR-SVG-20010719/DTD/svg10.dtd">
<svg width="34cm" height="37cm" viewBox="92 -15 668 738" xmlns="http://www.w3.org/2000/svg" xmlns:xlink="http://www.w3.org/1999/xlink">
  <g>
    <g>
      <rect style="fill: #ffffff" x="402" y="83" width="60" height="100"/>
      <rect style="fill: none; fill-opacity:0; stroke-width: 2; stroke: #000000" x="402" y="83" width="60" height="100"/>
    </g>
    <text font-size="39.5111" style="fill: #000000;text-anchor:start;font-family:sans-serif;font-style:normal;font-weight:normal" x="419" y="146">
      <tspan x="419" y="146">h</tspan>
    </text>
  </g>
  <g>
    <g>
      <rect style="fill: #ffffff" x="462" y="83" width="60" height="100"/>
      <rect style="fill: none; fill-opacity:0; stroke-width: 2; stroke: #000000" x="462" y="83" width="60" height="100"/>
    </g>
    <text font-size="39.5111" style="fill: #000000;text-anchor:start;font-family:sans-serif;font-style:normal;font-weight:normal" x="479" y="146">
      <tspan x="479" y="146">e</tspan>
    </text>
  </g>
  <g>
    <g>
      <rect style="fill: #ffffff" x="522" y="83" width="60" height="100"/>
      <rect style="fill: none; fill-opacity:0; stroke-width: 2; stroke: #000000" x="522" y="83" width="60" height="100"/>
    </g>
    <text font-size="39.5111" style="fill: #000000;text-anchor:start;font-family:sans-serif;font-style:normal;font-weight:normal" x="545" y="145">
      <tspan x="545" y="145">l</tspan>
    </text>
  </g>
  <g>
    <g>
      <rect style="fill: #ffffff" x="582" y="83" width="60" height="100"/>
      <rect style="fill: none; fill-opacity:0; stroke-width: 2; stroke: #000000" x="582" y="83" width="60" height="100"/>
    </g>
    <text font-size="39.5111" style="fill: #000000;text-anchor:start;font-family:sans-serif;font-style:normal;font-weight:normal" x="605" y="145">
      <tspan x="605" y="145">l</tspan>
    </text>
  </g>
  <g>
    <g>
      <rect style="fill: #ffffff" x="642" y="83" width="60" height="100"/>
      <rect style="fill: none; fill-opacity:0; stroke-width: 2; stroke: #000000" x="642" y="83" width="60" height="100"/>
    </g>
    <text font-size="39.5111" style="fill: #000000;text-anchor:start;font-family:sans-serif;font-style:normal;font-weight:normal" x="659" y="146">
      <tspan x="659" y="146">o</tspan>
    </text>
  </g>
  <g>
    <g>
      <rect style="fill: #ffffff" x="699" y="83" width="60" height="100"/>
      <rect style="fill: none; fill-opacity:0; stroke-width: 2; stroke: #000000" x="699" y="83" width="60" height="100"/>
    </g>
    <text font-size="39.5111" style="fill: #000000;text-anchor:start;font-family:sans-serif;font-style:normal;font-weight:normal" x="714" y="144">
      <tspan x="714" y="144">\0</tspan>
    </text>
  </g>
  <text font-size="33.9118" style="fill: #000000;text-anchor:start;font-family:sans-serif;font-style:normal;font-weight:normal" x="140" y="144">
    <tspan x="140" y="144">_c_str</tspan>
  </text>
  <g>
    <line style="fill: none; fill-opacity:0; stroke-width: 2; stroke: #000000" x1="253.95" y1="133.695" x2="392.264" y2="133.046"/>
    <polygon style="fill: #000000" points="399.764,133.01 389.788,138.057 392.264,133.046 389.741,128.058 "/>
    <polygon style="fill: none; fill-opacity:0; stroke-width: 2; stroke: #000000" points="399.764,133.01 389.788,138.057 392.264,133.046 389.741,128.058 "/>
  </g>
  <rect style="fill: none; fill-opacity:0; stroke-width: 2; stroke: #000000" x="94" y="-13" width="188" height="294"/>
  <text font-size="33.9118" style="fill: #000000;text-anchor:start;font-family:sans-serif;font-style:normal;font-weight:normal" x="101.2" y="18.65">
    <tspan x="101.2" y="18.65">String</tspan>
  </text>
  <rect style="fill: none; fill-opacity:0; stroke-width: 2; stroke: #000000" x="125" y="101" width="128" height="66"/>
  <text font-size="33.9118" style="fill: #000000;text-anchor:start;font-family:sans-serif;font-style:normal;font-weight:normal" x="139.822" y="585.714">
    <tspan x="139.822" y="585.714">_c_str</tspan>
  </text>
  <rect style="fill: none; fill-opacity:0; stroke-width: 2; stroke: #000000" x="93.8216" y="428.714" width="188" height="294"/>
  <text font-size="33.9118" style="fill: #000000;text-anchor:start;font-family:sans-serif;font-style:normal;font-weight:normal" x="101.022" y="460.364">
    <tspan x="101.022" y="460.364">String</tspan>
  </text>
  <rect style="fill: none; fill-opacity:0; stroke-width: 2; stroke: #000000" x="124.822" y="542.714" width="128" height="66"/>
  <g>
    <line style="fill: none; fill-opacity:0; stroke-width: 2; stroke: #000000" x1="207.501" y1="541.708" x2="399.528" y2="192.117"/>
    <polygon style="fill: #000000" points="403.138,185.543 402.706,196.715 399.528,192.117 393.942,191.901 "/>
    <polygon style="fill: none; fill-opacity:0; stroke-width: 2; stroke: #000000" points="403.138,185.543 402.706,196.715 399.528,192.117 393.942,191.901 "/>
  </g>
  <g>
    <line style="fill: none; fill-opacity:0; stroke-width: 2; stroke: #ff0000" x1="187.94" y1="281.984" x2="187.885" y2="417.994"/>
    <polygon style="fill: #ff0000" points="187.882,425.494 182.886,415.492 187.885,417.994 192.886,415.496 "/>
    <polygon style="fill: none; fill-opacity:0; stroke-width: 2; stroke: #ff0000" points="187.882,425.494 182.886,415.492 187.885,417.994 192.886,415.496 "/>
  </g>
  <text font-size="33.9118" style="fill: #ff0000;text-anchor:start;font-family:sans-serif;font-style:normal;font-weight:normal" x="93.5322" y="360.332">
    <tspan x="93.5322" y="360.332">copy</tspan>
  </text>
</svg>
