<?xml version="1.0" encoding="UTF-8" standalone="no"?>
<!DOCTYPE svg PUBLIC "-//W3C//DTD SVG 1.0//EN" "http://www.w3.org/TR/2001/PR-SVG-20010719/DTD/svg10.dtd">
<svg width="40cm" height="42cm" viewBox="71 -18 789 824" xmlns="http://www.w3.org/2000/svg" xmlns:xlink="http://www.w3.org/1999/xlink">
  <g>
    <g>
      <rect style="fill: #ffffff" x="402" y="83" width="60" height="100"/>
      <rect style="fill: none; fill-opacity:0; stroke-width: 2; stroke: #000000" x="402" y="83" width="60" height="100"/>
    </g>
    <text font-size="39.5111" style="fill: #000000;text-anchor:start;font-family:sans-serif;font-style:normal;font-weight:normal" x="419" y="146">
      <tspan x="419" y="146">h</tspan>
    </text>
  </g>
  <g>
    <g>
      <rect style="fill: #ffffff" x="462" y="83" width="60" height="100"/>
      <rect style="fill: none; fill-opacity:0; stroke-width: 2; stroke: #000000" x="462" y="83" width="60" height="100"/>
    </g>
    <text font-size="39.5111" style="fill: #000000;text-anchor:start;font-family:sans-serif;font-style:normal;font-weight:normal" x="479" y="146">
      <tspan x="479" y="146">e</tspan>
    </text>
  </g>
  <g>
    <g>
      <rect style="fill: #ffffff" x="522" y="83" width="60" height="100"/>
      <rect style="fill: none; fill-opacity:0; stroke-width: 2; stroke: #000000" x="522" y="83" width="60" height="100"/>
    </g>
    <text font-size="39.5111" style="fill: #000000;text-anchor:start;font-family:sans-serif;font-style:normal;font-weight:normal" x="545" y="145">
      <tspan x="545" y="145">l</tspan>
    </text>
  </g>
  <g>
    <g>
      <rect style="fill: #ffffff" x="582" y="83" width="60" height="100"/>
      <rect style="fill: none; fill-opacity:0; stroke-width: 2; stroke: #000000" x="582" y="83" width="60" height="100"/>
    </g>
    <text font-size="39.5111" style="fill: #000000;text-anchor:start;font-family:sans-serif;font-style:normal;font-weight:normal" x="605" y="145">
      <tspan x="605" y="145">l</tspan>
    </text>
  </g>
  <g>
    <g>
      <rect style="fill: #ffffff" x="642" y="83" width="60" height="100"/>
      <rect style="fill: none; fill-opacity:0; stroke-width: 2; stroke: #000000" x="642" y="83" width="60" height="100"/>
    </g>
    <text font-size="39.5111" style="fill: #000000;text-anchor:start;font-family:sans-serif;font-style:normal;font-weight:normal" x="659" y="146">
      <tspan x="659" y="146">o</tspan>
    </text>
  </g>
  <g>
    <g>
      <rect style="fill: #ffffff" x="699" y="83" width="60" height="100"/>
      <rect style="fill: none; fill-opacity:0; stroke-width: 2; stroke: #000000" x="699" y="83" width="60" height="100"/>
    </g>
    <text font-size="39.5111" style="fill: #000000;text-anchor:start;font-family:sans-serif;font-style:normal;font-weight:normal" x="714" y="144">
      <tspan x="714" y="144">\0</tspan>
    </text>
  </g>
  <text font-size="33.9118" style="fill: #000000;text-anchor:start;font-family:sans-serif;font-style:normal;font-weight:normal" x="140" y="144">
    <tspan x="140" y="144">_c_str</tspan>
  </text>
  <g>
    <line style="fill: none; fill-opacity:0; stroke-width: 2; stroke: #000000" x1="253.95" y1="133.695" x2="392.264" y2="133.046"/>
    <polygon style="fill: #000000" points="399.764,133.01 389.788,138.057 392.264,133.046 389.741,128.058 "/>
    <polygon style="fill: none; fill-opacity:0; stroke-width: 2; stroke: #000000" points="399.764,133.01 389.788,138.057 392.264,133.046 389.741,128.058 "/>
  </g>
  <rect style="fill: none; fill-opacity:0; stroke-width: 2; stroke: #000000" x="94" y="-13" width="188" height="294"/>
  <text font-size="33.9118" style="fill: #000000;text-anchor:start;font-family:sans-serif;font-style:normal;font-weight:normal" x="101.2" y="18.65">
    <tspan x="101.2" y="18.65">String</tspan>
  </text>
  <rect style="fill: none; fill-opacity:0; stroke-width: 2; stroke: #000000" x="125" y="101" width="128" height="66"/>
  <g>
    <g>
      <rect style="fill: #ffffff" x="400.89" y="570.598" width="60" height="100"/>
      <rect style="fill: none; fill-opacity:0; stroke-width: 2; stroke: #000000" x="400.89" y="570.598" width="60" height="100"/>
    </g>
    <text font-size="39.5111" style="fill: #000000;text-anchor:start;font-family:sans-serif;font-style:normal;font-weight:normal" x="417.89" y="633.598">
      <tspan x="417.89" y="633.598">h</tspan>
    </text>
  </g>
  <g>
    <g>
      <rect style="fill: #ffffff" x="460.89" y="570.598" width="60" height="100"/>
      <rect style="fill: none; fill-opacity:0; stroke-width: 2; stroke: #000000" x="460.89" y="570.598" width="60" height="100"/>
    </g>
    <text font-size="39.5111" style="fill: #000000;text-anchor:start;font-family:sans-serif;font-style:normal;font-weight:normal" x="477.89" y="633.598">
      <tspan x="477.89" y="633.598">e</tspan>
    </text>
  </g>
  <g>
    <g>
      <rect style="fill: #ffffff" x="520.89" y="570.598" width="60" height="100"/>
      <rect style="fill: none; fill-opacity:0; stroke-width: 2; stroke: #000000" x="520.89" y="570.598" width="60" height="100"/>
    </g>
    <text font-size="39.5111" style="fill: #000000;text-anchor:start;font-family:sans-serif;font-style:normal;font-weight:normal" x="543.89" y="632.598">
      <tspan x="543.89" y="632.598">l</tspan>
    </text>
  </g>
  <g>
    <g>
      <rect style="fill: #ffffff" x="580.89" y="570.598" width="60" height="100"/>
      <rect style="fill: none; fill-opacity:0; stroke-width: 2; stroke: #000000" x="580.89" y="570.598" width="60" height="100"/>
    </g>
    <text font-size="39.5111" style="fill: #000000;text-anchor:start;font-family:sans-serif;font-style:normal;font-weight:normal" x="603.89" y="632.598">
      <tspan x="603.89" y="632.598">l</tspan>
    </text>
  </g>
  <g>
    <g>
      <rect style="fill: #ffffff" x="640.89" y="570.598" width="60" height="100"/>
      <rect style="fill: none; fill-opacity:0; stroke-width: 2; stroke: #000000" x="640.89" y="570.598" width="60" height="100"/>
    </g>
    <text font-size="39.5111" style="fill: #000000;text-anchor:start;font-family:sans-serif;font-style:normal;font-weight:normal" x="657.89" y="633.598">
      <tspan x="657.89" y="633.598">o</tspan>
    </text>
  </g>
  <g>
    <g>
      <rect style="fill: #ffffff" x="697.89" y="570.598" width="60" height="100"/>
      <rect style="fill: none; fill-opacity:0; stroke-width: 2; stroke: #000000" x="697.89" y="570.598" width="60" height="100"/>
    </g>
    <text font-size="39.5111" style="fill: #000000;text-anchor:start;font-family:sans-serif;font-style:normal;font-weight:normal" x="712.89" y="631.598">
      <tspan x="712.89" y="631.598">\0</tspan>
    </text>
  </g>
  <text font-size="33.9118" style="fill: #000000;text-anchor:start;font-family:sans-serif;font-style:normal;font-weight:normal" x="138.89" y="631.598">
    <tspan x="138.89" y="631.598">_c_str</tspan>
  </text>
  <g>
    <line style="fill: none; fill-opacity:0; stroke-width: 2; stroke: #000000" x1="252.84" y1="621.293" x2="391.154" y2="620.644"/>
    <polygon style="fill: #000000" points="398.654,620.608 388.678,625.655 391.154,620.644 388.631,615.656 "/>
    <polygon style="fill: none; fill-opacity:0; stroke-width: 2; stroke: #000000" points="398.654,620.608 388.678,625.655 391.154,620.644 388.631,615.656 "/>
  </g>
  <rect style="fill: none; fill-opacity:0; stroke-width: 2; stroke: #000000" x="92.8896" y="474.598" width="188" height="294"/>
  <text font-size="33.9118" style="fill: #000000;text-anchor:start;font-family:sans-serif;font-style:normal;font-weight:normal" x="100.09" y="506.248">
    <tspan x="100.09" y="506.248">String</tspan>
  </text>
  <rect style="fill: none; fill-opacity:0; stroke-width: 2; stroke: #000000" x="123.89" y="588.598" width="128" height="66"/>
  <line style="fill: none; fill-opacity:0; stroke-width: 12; stroke: #ff0000" x1="81.8568" y1="792.898" x2="296.686" y2="450.48"/>
  <line style="fill: none; fill-opacity:0; stroke-width: 12; stroke: #ff0000" x1="79.6758" y1="453.75" x2="301.048" y2="797.26"/>
  <g>
    <line style="fill: none; fill-opacity:0; stroke-width: 2; stroke: #ff0000" x1="187.636" y1="303.26" x2="187.636" y2="430.928"/>
    <polygon style="fill: #ff0000" points="187.636,438.428 182.636,428.428 187.636,430.928 192.636,428.428 "/>
    <polygon style="fill: none; fill-opacity:0; stroke-width: 2; stroke: #ff0000" points="187.636,438.428 182.636,428.428 187.636,430.928 192.636,428.428 "/>
  </g>
  <text font-size="33.9118" style="fill: #ff0000;text-anchor:start;font-family:sans-serif;font-style:normal;font-weight:normal" x="216.208" y="384.002">
    <tspan x="216.208" y="384.002">dtor</tspan>
  </text>
  <rect style="fill: none; fill-opacity:0; stroke-width: 12; stroke: #ff0000" x="356.664" y="487.556" width="497.272" height="269.355"/>
  <text font-size="33.9118" style="fill: #ff0000;text-anchor:start;font-family:sans-serif;font-style:normal;font-weight:normal" x="675.312" y="538.854">
    <tspan x="675.312" y="538.854">LEAKED!</tspan>
  </text>
</svg>
