<?xml version="1.0" encoding="UTF-8" standalone="no"?>
<!DOCTYPE svg PUBLIC "-//W3C//DTD SVG 1.0//EN" "http://www.w3.org/TR/2001/PR-SVG-20010719/DTD/svg10.dtd">
<svg width="20cm" height="11cm" viewBox="98 178 383 203" xmlns="http://www.w3.org/2000/svg" xmlns:xlink="http://www.w3.org/1999/xlink">
  <g>
    <line style="fill: none; fill-opacity:0; stroke-width: 2; stroke: #000000" x1="140.991" y1="360" x2="230.264" y2="360"/>
    <polygon style="fill: #000000" points="237.764,360 227.764,365 230.264,360 227.764,355 "/>
    <polygon style="fill: none; fill-opacity:0; stroke-width: 2; stroke: #000000" points="237.764,360 227.764,365 230.264,360 227.764,355 "/>
  </g>
  <g>
    <g>
      <rect style="fill: #ffffff" x="100" y="180" width="40" height="40"/>
      <rect style="fill: none; fill-opacity:0; stroke-width: 2; stroke: #000000" x="100" y="180" width="40" height="40"/>
    </g>
    <text font-size="22.5778" style="fill: #000000;text-anchor:start;font-family:sans-serif;font-style:normal;font-weight:normal" x="115" y="207">
      <tspan x="115" y="207">a</tspan>
    </text>
  </g>
  <g>
    <g>
      <rect style="fill: #ffffff" x="100" y="340" width="40" height="40"/>
      <rect style="fill: none; fill-opacity:0; stroke-width: 2; stroke: #000000" x="100" y="340" width="40" height="40"/>
    </g>
    <text font-size="22.5778" style="fill: #000000;text-anchor:start;font-family:sans-serif;font-style:normal;font-weight:normal" x="115" y="367">
      <tspan x="115" y="367">b</tspan>
    </text>
  </g>
  <g>
    <line style="fill: none; fill-opacity:0; stroke-width: 2; stroke: #000000" x1="140.993" y1="200" x2="229.264" y2="200"/>
    <polygon style="fill: #000000" points="236.764,200 226.764,205 229.264,200 226.764,195 "/>
    <polygon style="fill: none; fill-opacity:0; stroke-width: 2; stroke: #000000" points="236.764,200 226.764,205 229.264,200 226.764,195 "/>
  </g>
  <g>
    <line style="fill: none; fill-opacity:0; stroke-width: 2; stroke: #000000" x1="330" y1="220.977" x2="330" y2="249.287"/>
    <polygon style="fill: #000000" points="330,256.787 325,246.787 330,249.287 335,246.787 "/>
    <polygon style="fill: none; fill-opacity:0; stroke-width: 2; stroke: #000000" points="330,256.787 325,246.787 330,249.287 335,246.787 "/>
  </g>
  <g>
    <rect style="fill: #ffffff" x="300" y="260" width="60" height="40"/>
    <rect style="fill: none; fill-opacity:0; stroke-width: 2; stroke: #000000" x="300" y="260" width="60" height="40"/>
  </g>
  <text font-size="22.5778" style="fill: #000000;text-anchor:start;font-family:sans-serif;font-style:normal;font-weight:normal" x="322" y="287">
    <tspan x="322" y="287">1</tspan>
  </text>
  <g>
    <rect style="fill: #ffffff" x="360" y="260" width="60" height="40"/>
    <rect style="fill: none; fill-opacity:0; stroke-width: 2; stroke: #000000" x="360" y="260" width="60" height="40"/>
  </g>
  <text font-size="22.5778" style="fill: #000000;text-anchor:start;font-family:sans-serif;font-style:normal;font-weight:normal" x="382" y="287">
    <tspan x="382" y="287">2</tspan>
  </text>
  <g>
    <rect style="fill: #ffffff" x="420" y="260" width="60" height="40"/>
    <rect style="fill: none; fill-opacity:0; stroke-width: 2; stroke: #000000" x="420" y="260" width="60" height="40"/>
  </g>
  <text font-size="22.5778" style="fill: #000000;text-anchor:start;font-family:sans-serif;font-style:normal;font-weight:normal" x="442" y="287">
    <tspan x="442" y="287">3</tspan>
  </text>
  <g>
    <g>
      <g>
        <rect style="fill: #ffffff" x="360" y="180" width="60" height="40"/>
        <rect style="fill: none; fill-opacity:0; stroke-width: 2; stroke: #000000" x="360" y="180" width="60" height="40"/>
      </g>
      <text font-size="22.5778" style="fill: #000000;text-anchor:start;font-family:sans-serif;font-style:normal;font-weight:normal" x="382" y="207">
        <tspan x="382" y="207">2</tspan>
      </text>
    </g>
    <g>
      <g>
        <rect style="fill: #ffffff" x="240" y="180" width="60" height="40"/>
        <rect style="fill: none; fill-opacity:0; stroke-width: 2; stroke: #000000" x="240" y="180" width="60" height="40"/>
      </g>
      <text font-size="22.5778" style="fill: #000000;text-anchor:start;font-family:sans-serif;font-style:normal;font-weight:normal" x="264" y="208">
        <tspan x="264" y="208">1</tspan>
      </text>
    </g>
    <g>
      <rect style="fill: #ffffff" x="300" y="180" width="60" height="40"/>
      <rect style="fill: none; fill-opacity:0; stroke-width: 2; stroke: #000000" x="300" y="180" width="60" height="40"/>
    </g>
  </g>
  <g>
    <g>
      <g>
        <rect style="fill: #ffffff" x="360" y="340" width="60" height="40"/>
        <rect style="fill: none; fill-opacity:0; stroke-width: 2; stroke: #000000" x="360" y="340" width="60" height="40"/>
      </g>
      <text font-size="22.5778" style="fill: #000000;text-anchor:start;font-family:sans-serif;font-style:normal;font-weight:normal" x="382" y="367">
        <tspan x="382" y="367">2</tspan>
      </text>
    </g>
    <g>
      <g>
        <rect style="fill: #ffffff" x="240" y="340" width="60" height="40"/>
        <rect style="fill: none; fill-opacity:0; stroke-width: 2; stroke: #000000" x="240" y="340" width="60" height="40"/>
      </g>
      <text font-size="22.5778" style="fill: #000000;text-anchor:start;font-family:sans-serif;font-style:normal;font-weight:normal" x="264" y="368">
        <tspan x="264" y="368">1</tspan>
      </text>
    </g>
    <g>
      <rect style="fill: #ffffff" x="300" y="340" width="60" height="40"/>
      <rect style="fill: none; fill-opacity:0; stroke-width: 2; stroke: #000000" x="300" y="340" width="60" height="40"/>
    </g>
  </g>
  <g>
    <line style="fill: none; fill-opacity:0; stroke-width: 2; stroke: #000000" x1="330" y1="340" x2="330" y2="310.727"/>
    <polygon style="fill: #000000" points="330,303.227 335,313.227 330,310.727 325,313.227 "/>
    <polygon style="fill: none; fill-opacity:0; stroke-width: 2; stroke: #000000" points="330,303.227 335,313.227 330,310.727 325,313.227 "/>
  </g>
</svg>
