<?xml version="1.0" encoding="UTF-8" standalone="no"?>
<!DOCTYPE svg PUBLIC "-//W3C//DTD SVG 1.0//EN" "http://www.w3.org/TR/2001/PR-SVG-20010719/DTD/svg10.dtd">
<svg width="22cm" height="6cm" viewBox="118 23 431 118" xmlns="http://www.w3.org/2000/svg" xmlns:xlink="http://www.w3.org/1999/xlink">
  <g>
    <g>
      <rect style="fill: #ffffff" x="420" y="60" width="80" height="40"/>
      <rect style="fill: none; fill-opacity:0; stroke-width: 2; stroke: #000000" x="420" y="60" width="80" height="40"/>
    </g>
    <line style="fill: none; fill-opacity:0; stroke-width: 2; stroke: #000000" x1="440" y1="60" x2="440" y2="99.0088"/>
    <line style="fill: none; fill-opacity:0; stroke-width: 2; stroke: #000000" x1="480" y1="60" x2="480" y2="99.0088"/>
    <line style="fill: none; fill-opacity:0; stroke-width: 2; stroke: #000000" x1="460" y1="60" x2="460" y2="100"/>
  </g>
  <g>
    <rect style="fill: #ffffff" x="120" y="60" width="160" height="40"/>
    <rect style="fill: none; fill-opacity:0; stroke-width: 2; stroke: #000000" x="120" y="60" width="160" height="40"/>
  </g>
  <line style="fill: none; fill-opacity:0; stroke-width: 2; stroke: #000000" x1="140" y1="60" x2="140" y2="99.0088"/>
  <line style="fill: none; fill-opacity:0; stroke-width: 2; stroke: #000000" x1="180" y1="60" x2="180" y2="99.0088"/>
  <line style="fill: none; fill-opacity:0; stroke-width: 2; stroke: #000000" x1="160" y1="60" x2="160" y2="100"/>
  <line style="fill: none; fill-opacity:0; stroke-width: 2; stroke: #000000" x1="200" y1="60" x2="200" y2="100"/>
  <line style="fill: none; fill-opacity:0; stroke-width: 2; stroke: #000000" x1="220" y1="60" x2="220" y2="100"/>
  <line style="fill: none; fill-opacity:0; stroke-width: 2; stroke: #000000" x1="240" y1="60" x2="240" y2="100"/>
  <g>
    <path style="fill: none; fill-opacity:0; stroke-width: 2; stroke: #000000" d="M 200 100 C 200,100 296.666,140 340,140 C 383.334,140 440,120 453.116,106.884"/>
    <polygon style="fill: #000000" points="458.419,101.581 454.883,112.188 453.116,106.884 447.812,105.117 "/>
    <polygon style="fill: none; fill-opacity:0; stroke-width: 2; stroke: #000000" points="458.419,101.581 454.883,112.188 453.116,106.884 447.812,105.117 "/>
  </g>
  <text font-size="12.8" style="fill: #000000;text-anchor:start;font-family:sans-serif;font-style:normal;font-weight:normal" x="422" y="36.7348">
    <tspan x="422" y="36.7348">Adresse:</tspan>
    <tspan x="422" y="52.7348">0xfeedbabedeadbeef</tspan>
  </text>
  <text font-size="12.8" style="fill: #000000;text-anchor:start;font-family:sans-serif;font-style:normal;font-weight:normal" x="124" y="84.3516">
    <tspan x="124" y="84.3516">fe</tspan>
  </text>
  <text font-size="12.8" style="fill: #000000;text-anchor:start;font-family:sans-serif;font-style:normal;font-weight:normal" x="142.405" y="84.5946">
    <tspan x="142.405" y="84.5946">ed</tspan>
  </text>
  <text font-size="12.8" style="fill: #000000;text-anchor:start;font-family:sans-serif;font-style:normal;font-weight:normal" x="163" y="84">
    <tspan x="163" y="84">ba</tspan>
  </text>
  <text font-size="12.8" style="fill: #000000;text-anchor:start;font-family:sans-serif;font-style:normal;font-weight:normal" x="183" y="84.0548">
    <tspan x="183" y="84.0548">be</tspan>
  </text>
  <text font-size="12.8" style="fill: #000000;text-anchor:start;font-family:sans-serif;font-style:normal;font-weight:normal" x="203" y="83.6484">
    <tspan x="203" y="83.6484">de</tspan>
  </text>
  <text font-size="12.8" style="fill: #000000;text-anchor:start;font-family:sans-serif;font-style:normal;font-weight:normal" x="222.352" y="83.3516">
    <tspan x="222.352" y="83.3516">ad</tspan>
  </text>
  <text font-size="12.8" style="fill: #000000;text-anchor:start;font-family:sans-serif;font-style:normal;font-weight:normal" x="243.054" y="83.2968">
    <tspan x="243.054" y="83.2968">be</tspan>
  </text>
  <text font-size="12.8" style="fill: #000000;text-anchor:start;font-family:sans-serif;font-style:normal;font-weight:normal" x="264.352" y="83.2968">
    <tspan x="264.352" y="83.2968">ef</tspan>
  </text>
  <line style="fill: none; fill-opacity:0; stroke-width: 2; stroke: #000000" x1="260" y1="60" x2="260" y2="100"/>
  <text font-size="12.8" style="fill: #000000;text-anchor:start;font-family:sans-serif;font-style:normal;font-weight:normal" x="309.868" y="81.0206">
    <tspan x="309.868" y="81.0206">....................</tspan>
  </text>
  <text font-size="22.5778" style="fill: #000000;text-anchor:start;font-family:sans-serif;font-style:normal;font-weight:normal" x="427.598" y="88.1558">
    <tspan x="427.598" y="88.1558">35129</tspan>
  </text>
</svg>
