<?xml version="1.0" encoding="UTF-8" standalone="no"?>
<!DOCTYPE svg PUBLIC "-//W3C//DTD SVG 1.0//EN" "http://www.w3.org/TR/2001/PR-SVG-20010719/DTD/svg10.dtd">
<svg width="17cm" height="9cm" viewBox="145 -2 325 173" xmlns="http://www.w3.org/2000/svg" xmlns:xlink="http://www.w3.org/1999/xlink">
  <g>
    <path style="fill: none; fill-opacity:0; stroke-width: 2; stroke: #000000" d="M 350 30.75 C 361,47.75 367.209,73.7442 371.481,97.4129"/>
    <polygon style="fill: #000000" points="372.812,104.794 366.116,95.8405 371.481,97.4129 375.957,94.0647 "/>
    <polygon style="fill: none; fill-opacity:0; stroke-width: 2; stroke: #000000" points="372.812,104.794 366.116,95.8405 371.481,97.4129 375.957,94.0647 "/>
  </g>
  <text font-size="12.8" style="fill: #000000;text-anchor:start;font-family:sans-serif;font-style:normal;font-weight:normal" x="317" y="168">
    <tspan x="317" y="168">a[0]</tspan>
  </text>
  <text font-size="12.8" style="fill: #000000;text-anchor:start;font-family:sans-serif;font-style:normal;font-weight:normal" x="357" y="168">
    <tspan x="357" y="168">a[1]</tspan>
  </text>
  <text font-size="12.8" style="fill: #000000;text-anchor:start;font-family:sans-serif;font-style:normal;font-weight:normal" x="397" y="168">
    <tspan x="397" y="168">a[2]</tspan>
  </text>
  <text font-size="22.5778" style="fill: #000000;text-anchor:start;font-family:sans-serif;font-style:normal;font-weight:normal" x="284" y="135">
    <tspan x="284" y="135">a</tspan>
  </text>
  <g>
    <g>
      <rect style="fill: #ffffff" x="317" y="108" width="40" height="40"/>
      <rect style="fill: none; fill-opacity:0; stroke-width: 2; stroke: #000000" x="317" y="108" width="40" height="40"/>
    </g>
    <g>
      <rect style="fill: #ffffff" x="397" y="108" width="40" height="40"/>
      <rect style="fill: none; fill-opacity:0; stroke-width: 2; stroke: #000000" x="397" y="108" width="40" height="40"/>
    </g>
    <g>
      <rect style="fill: #ffffff" x="357" y="108" width="40" height="40"/>
      <rect style="fill: none; fill-opacity:0; stroke-width: 2; stroke: #000000" x="357" y="108" width="40" height="40"/>
    </g>
  </g>
  <g>
    <path style="fill: none; fill-opacity:0; stroke-width: 2; stroke: #000000" d="M 225.996 95.9355 C 245.996,79.5855 251,74.75 283,74.75 C 315,74.75 316.079,78.7481 324.272,98.037"/>
    <polygon style="fill: #000000" points="327.205,104.94 318.693,97.6908 324.272,98.037 327.897,93.7811 "/>
    <polygon style="fill: none; fill-opacity:0; stroke-width: 2; stroke: #000000" points="327.205,104.94 318.693,97.6908 324.272,98.037 327.897,93.7811 "/>
  </g>
  <g>
    <rect style="fill: #ffffff" x="185" y="93.1" width="40" height="40"/>
    <rect style="fill: none; fill-opacity:0; stroke-width: 2; stroke: #000000" x="185" y="93.1" width="40" height="40"/>
  </g>
  <text font-size="22.5778" style="fill: #000000;text-anchor:start;font-family:sans-serif;font-style:normal;font-weight:normal" x="145" y="121.85">
    <tspan x="145" y="121.85">pa</tspan>
  </text>
  <text font-size="22.5778" style="fill: #000000;text-anchor:start;font-family:sans-serif;font-style:normal;font-weight:normal" x="302" y="21.75">
    <tspan x="302" y="21.75">pa+1</tspan>
  </text>
  <text font-size="22.5778" style="fill: #000000;text-anchor:start;font-family:sans-serif;font-style:normal;font-weight:normal" x="408" y="19.75">
    <tspan x="408" y="19.75">pa+2</tspan>
  </text>
  <g>
    <path style="fill: none; fill-opacity:0; stroke-width: 2; stroke: #000000" d="M 433.382 30.2328 C 429,45.75 420.192,71.7464 418.743,97.276"/>
    <polygon style="fill: #000000" points="418.318,104.764 413.893,94.4968 418.743,97.276 423.877,95.0633 "/>
    <polygon style="fill: none; fill-opacity:0; stroke-width: 2; stroke: #000000" points="418.318,104.764 413.893,94.4968 418.743,97.276 423.877,95.0633 "/>
  </g>
</svg>
