<?xml version="1.0" encoding="UTF-8" standalone="no"?>
<!DOCTYPE svg PUBLIC "-//W3C//DTD SVG 1.0//EN" "http://www.w3.org/TR/2001/PR-SVG-20010719/DTD/svg10.dtd">
<svg width="17cm" height="8cm" viewBox="145 81 337 143" xmlns="http://www.w3.org/2000/svg" xmlns:xlink="http://www.w3.org/1999/xlink">
  <text font-size="22.5778" style="fill: #000000;text-anchor:start;font-family:sans-serif;font-style:normal;font-weight:normal" x="296" y="147">
    <tspan x="296" y="147">a</tspan>
  </text>
  <g>
    <g>
      <rect style="fill: #ffffff" x="360" y="120" width="40" height="40"/>
      <rect style="fill: none; fill-opacity:0; stroke-width: 2; stroke: #000000" x="360" y="120" width="40" height="40"/>
    </g>
    <g>
      <rect style="fill: #ffffff" x="440" y="120" width="40" height="40"/>
      <rect style="fill: none; fill-opacity:0; stroke-width: 2; stroke: #000000" x="440" y="120" width="40" height="40"/>
    </g>
    <g>
      <rect style="fill: #ffffff" x="400" y="120" width="40" height="40"/>
      <rect style="fill: none; fill-opacity:0; stroke-width: 2; stroke: #000000" x="400" y="120" width="40" height="40"/>
    </g>
  </g>
  <g>
    <path style="fill: none; fill-opacity:0; stroke-width: 2; stroke-dasharray: 4; stroke: #ff0000" d="M 225.008 93.2593 C 249.008,83.1593 309.343,93.1134 321.015,110.965"/>
    <polygon style="fill: #ff0000" points="325.12,117.242 315.462,111.608 321.015,110.965 323.832,106.136 "/>
    <polygon style="fill: none; fill-opacity:0; stroke-width: 2; stroke: #ff0000" points="325.12,117.242 315.462,111.608 321.015,110.965 323.832,106.136 "/>
  </g>
  <g>
    <rect style="fill: #ffffff" x="184" y="82.1" width="40" height="40"/>
    <rect style="fill: none; fill-opacity:0; stroke-width: 2; stroke-dasharray: 4; stroke: #000000" x="184" y="82.1" width="40" height="40"/>
  </g>
  <text font-size="22.5778" style="fill: #000000;text-anchor:start;font-family:sans-serif;font-style:normal;font-weight:normal" x="145" y="121.85">
    <tspan x="145" y="121.85">pa</tspan>
  </text>
  <g>
    <rect style="fill: #ffffff" x="182.1" y="182.6" width="40" height="40"/>
    <rect style="fill: none; fill-opacity:0; stroke-width: 2; stroke: #000000" x="182.1" y="182.6" width="40" height="40"/>
  </g>
  <g>
    <path style="fill: none; fill-opacity:0; stroke-width: 2; stroke: #00ff00" d="M 223.104 201.25 C 248.004,199.65 402.006,181.986 407.171,169.935"/>
    <polygon style="fill: #00ff00" points="410.125,163.041 410.782,174.202 407.171,169.935 401.59,170.263 "/>
    <polygon style="fill: none; fill-opacity:0; stroke-width: 2; stroke: #00ff00" points="410.125,163.041 410.782,174.202 407.171,169.935 401.59,170.263 "/>
  </g>
  <text font-size="19.7556" style="fill: #000000;text-anchor:start;font-family:sans-serif;font-style:normal;font-weight:normal" x="181" y="158.038">
    <tspan x="181" y="158.038">pa += 2</tspan>
  </text>
  <g>
    <line style="fill: none; fill-opacity:0; stroke-width: 2; stroke: #000000" x1="173" y1="140" x2="173" y2="160.264"/>
    <polygon style="fill: #000000" points="173,167.764 168,157.764 173,160.264 178,157.764 "/>
    <polygon style="fill: none; fill-opacity:0; stroke-width: 2; stroke: #000000" points="173,167.764 168,157.764 173,160.264 178,157.764 "/>
  </g>
  <text font-size="22.5778" style="fill: #000000;text-anchor:start;font-family:sans-serif;font-style:normal;font-weight:normal" x="145" y="209.138">
    <tspan x="145" y="209.138">pa</tspan>
  </text>
  <g>
    <rect style="fill: #ffffff" x="320" y="120" width="40" height="40"/>
    <rect style="fill: none; fill-opacity:0; stroke-width: 2; stroke-dasharray: 4; stroke: #ff0000" x="320" y="120" width="40" height="40"/>
  </g>
</svg>
