<?xml version="1.0" encoding="UTF-8" standalone="no"?>
<!DOCTYPE svg PUBLIC "-//W3C//DTD SVG 1.0//EN" "http://www.w3.org/TR/2001/PR-SVG-20010719/DTD/svg10.dtd">
<svg width="26cm" height="16cm" viewBox="196 -5 514 306" xmlns="http://www.w3.org/2000/svg" xmlns:xlink="http://www.w3.org/1999/xlink">
  <g>
    <path style="fill: none; fill-opacity:0; stroke-width: 2; stroke: #000000" d="M 350 30.75 C 361,47.75 359,65.5 363.271,89.1687"/>
    <polygon style="fill: #000000" points="364.603,96.5495 357.907,87.5963 363.271,89.1687 367.748,85.8205 "/>
    <polygon style="fill: none; fill-opacity:0; stroke-width: 2; stroke: #000000" points="364.603,96.5495 357.907,87.5963 363.271,89.1687 367.748,85.8205 "/>
  </g>
  <g>
    <g>
      <rect style="fill: #ffffff" x="320" y="100" width="40" height="40"/>
      <rect style="fill: none; fill-opacity:0; stroke-width: 2; stroke: #000000" x="320" y="100" width="40" height="40"/>
    </g>
    <g>
      <rect style="fill: #ffffff" x="400" y="100" width="40" height="40"/>
      <rect style="fill: none; fill-opacity:0; stroke-width: 2; stroke: #000000" x="400" y="100" width="40" height="40"/>
    </g>
    <g>
      <rect style="fill: #ffffff" x="360" y="100" width="40" height="40"/>
      <rect style="fill: none; fill-opacity:0; stroke-width: 2; stroke: #000000" x="360" y="100" width="40" height="40"/>
    </g>
  </g>
  <g>
    <path style="fill: none; fill-opacity:0; stroke-width: 2; stroke: #000000" d="M 280.981 82.8481 C 300.981,66.4981 308,71.75 316.194,91.0389"/>
    <polygon style="fill: #000000" points="319.126,97.9419 310.614,90.6927 316.194,91.0389 319.818,86.783 "/>
    <polygon style="fill: none; fill-opacity:0; stroke-width: 2; stroke: #000000" points="319.126,97.9419 310.614,90.6927 316.194,91.0389 319.818,86.783 "/>
  </g>
  <g>
    <rect style="fill: #ffffff" x="240" y="80" width="40" height="40"/>
    <rect style="fill: none; fill-opacity:0; stroke-width: 2; stroke: #000000" x="240" y="80" width="40" height="40"/>
  </g>
  <text font-size="22.5778" style="fill: #000000;text-anchor:start;font-family:sans-serif;font-style:normal;font-weight:normal" x="200" y="110">
    <tspan x="200" y="110">pi</tspan>
  </text>
  <text font-size="22.5778" style="fill: #000000;text-anchor:start;font-family:sans-serif;font-style:normal;font-weight:normal" x="302" y="21.75">
    <tspan x="302" y="21.75">pi+1</tspan>
  </text>
  <text font-size="22.5778" style="fill: #000000;text-anchor:start;font-family:sans-serif;font-style:normal;font-weight:normal" x="408" y="19.75">
    <tspan x="408" y="19.75">pi+2</tspan>
  </text>
  <g>
    <path style="fill: none; fill-opacity:0; stroke-width: 2; stroke: #000000" d="M 433.382 30.2328 C 429,45.75 402,64.75 400.552,90.2796"/>
    <polygon style="fill: #000000" points="400.127,97.7675 395.701,87.5003 400.552,90.2796 405.685,88.0668 "/>
    <polygon style="fill: none; fill-opacity:0; stroke-width: 2; stroke: #000000" points="400.127,97.7675 395.701,87.5003 400.552,90.2796 405.685,88.0668 "/>
  </g>
  <text font-size="22.5778" style="fill: #000000;text-anchor:start;font-family:sans-serif;font-style:normal;font-weight:normal" x="459" y="126">
    <tspan x="459" y="126">int[]</tspan>
  </text>
  <text font-size="12.8" style="fill: #000000;text-anchor:start;font-family:sans-serif;font-style:normal;font-weight:normal" x="680" y="220">
    <tspan x="680" y="220"></tspan>
  </text>
  <text font-size="22.5778" style="fill: #000000;text-anchor:start;font-family:sans-serif;font-style:normal;font-weight:normal" x="572" y="284">
    <tspan x="572" y="284">struct point[]</tspan>
  </text>
  <g>
    <rect style="fill: #ffffff" x="240" y="240" width="40" height="40"/>
    <rect style="fill: none; fill-opacity:0; stroke-width: 2; stroke: #000000" x="240" y="240" width="40" height="40"/>
  </g>
  <g>
    <path style="fill: none; fill-opacity:0; stroke-width: 2; stroke: #000000" d="M 280.981 242.848 C 300.981,226.498 308,231.75 316.194,251.039"/>
    <polygon style="fill: #000000" points="319.126,257.942 310.614,250.693 316.194,251.039 319.818,246.783 "/>
    <polygon style="fill: none; fill-opacity:0; stroke-width: 2; stroke: #000000" points="319.126,257.942 310.614,250.693 316.194,251.039 319.818,246.783 "/>
  </g>
  <g>
    <g>
      <g>
        <rect style="fill: #ffffff" x="480" y="260" width="80" height="40"/>
        <rect style="fill: none; fill-opacity:0; stroke-width: 2; stroke: #000000" x="480" y="260" width="80" height="40"/>
      </g>
      <line style="fill: none; fill-opacity:0; stroke-width: 2; stroke-dasharray: 4; stroke: #000000" x1="520" y1="260" x2="520" y2="300"/>
    </g>
    <g>
      <g>
        <rect style="fill: #ffffff" x="400" y="260" width="80" height="40"/>
        <rect style="fill: none; fill-opacity:0; stroke-width: 2; stroke: #000000" x="400" y="260" width="80" height="40"/>
      </g>
      <line style="fill: none; fill-opacity:0; stroke-width: 2; stroke-dasharray: 4; stroke: #000000" x1="440" y1="260" x2="440" y2="300"/>
    </g>
    <g>
      <g>
        <rect style="fill: #ffffff" x="320" y="260" width="80" height="40"/>
        <rect style="fill: none; fill-opacity:0; stroke-width: 2; stroke: #000000" x="320" y="260" width="80" height="40"/>
      </g>
      <line style="fill: none; fill-opacity:0; stroke-width: 2; stroke-dasharray: 4; stroke: #000000" x1="360" y1="260" x2="360" y2="300"/>
    </g>
  </g>
  <text font-size="22.5778" style="fill: #000000;text-anchor:start;font-family:sans-serif;font-style:normal;font-weight:normal" x="196" y="237.75">
    <tspan x="196" y="237.75">pp</tspan>
  </text>
  <g>
    <path style="fill: none; fill-opacity:0; stroke-width: 2; stroke: #000000" d="M 425 205.75 C 436,222.75 394,226.75 398.271,250.419"/>
    <polygon style="fill: #000000" points="399.603,257.799 392.907,248.846 398.271,250.419 402.748,247.07 "/>
    <polygon style="fill: none; fill-opacity:0; stroke-width: 2; stroke: #000000" points="399.603,257.799 392.907,248.846 398.271,250.419 402.748,247.07 "/>
  </g>
  <text font-size="22.5778" style="fill: #000000;text-anchor:start;font-family:sans-serif;font-style:normal;font-weight:normal" x="385" y="196.75">
    <tspan x="385" y="196.75">pp+1</tspan>
  </text>
  <text font-size="22.5778" style="fill: #000000;text-anchor:start;font-family:sans-serif;font-style:normal;font-weight:normal" x="494" y="193.75">
    <tspan x="494" y="193.75">pp+2</tspan>
  </text>
  <g>
    <path style="fill: none; fill-opacity:0; stroke-width: 2; stroke: #000000" d="M 521 202.75 C 532,219.75 474,226.75 478.271,250.419"/>
    <polygon style="fill: #000000" points="479.603,257.799 472.907,248.846 478.271,250.419 482.748,247.07 "/>
    <polygon style="fill: none; fill-opacity:0; stroke-width: 2; stroke: #000000" points="479.603,257.799 472.907,248.846 478.271,250.419 482.748,247.07 "/>
  </g>
</svg>
