<?xml version="1.0" encoding="UTF-8" standalone="no"?>
<!DOCTYPE svg PUBLIC "-//W3C//DTD SVG 1.0//EN" "http://www.w3.org/TR/2001/PR-SVG-20010719/DTD/svg10.dtd">
<svg width="17cm" height="9cm" viewBox="145 -2 325 173" xmlns="http://www.w3.org/2000/svg" xmlns:xlink="http://www.w3.org/1999/xlink">
  <text font-size="12.8" style="fill: #000000;text-anchor:start;font-family:sans-serif;font-style:normal;font-weight:normal" x="317" y="168">
    <tspan x="317" y="168">a[0]</tspan>
  </text>
  <text font-size="12.8" style="fill: #000000;text-anchor:start;font-family:sans-serif;font-style:normal;font-weight:normal" x="357" y="168">
    <tspan x="357" y="168">a[1]</tspan>
  </text>
  <text font-size="12.8" style="fill: #000000;text-anchor:start;font-family:sans-serif;font-style:normal;font-weight:normal" x="397" y="168">
    <tspan x="397" y="168">a[2]</tspan>
  </text>
  <text font-size="22.5778" style="fill: #000000;text-anchor:start;font-family:sans-serif;font-style:normal;font-weight:normal" x="284" y="135">
    <tspan x="284" y="135">a</tspan>
  </text>
  <g>
    <g>
      <rect style="fill: #ffffff" x="317" y="108" width="40" height="40"/>
      <rect style="fill: none; fill-opacity:0; stroke-width: 2; stroke: #000000" x="317" y="108" width="40" height="40"/>
    </g>
    <g>
      <rect style="fill: #ffffff" x="397" y="108" width="40" height="40"/>
      <rect style="fill: none; fill-opacity:0; stroke-width: 2; stroke: #000000" x="397" y="108" width="40" height="40"/>
    </g>
    <g>
      <rect style="fill: #ffffff" x="357" y="108" width="40" height="40"/>
      <rect style="fill: none; fill-opacity:0; stroke-width: 2; stroke: #000000" x="357" y="108" width="40" height="40"/>
    </g>
  </g>
  <g>
    <path style="fill: none; fill-opacity:0; stroke-width: 2; stroke: #000000" d="M 225.996 95.9355 C 245.996,79.5855 251,74.75 283,74.75 C 315,74.75 316.079,78.7481 324.272,98.037"/>
    <polygon style="fill: #000000" points="327.205,104.94 318.693,97.6908 324.272,98.037 327.897,93.7811 "/>
    <polygon style="fill: none; fill-opacity:0; stroke-width: 2; stroke: #000000" points="327.205,104.94 318.693,97.6908 324.272,98.037 327.897,93.7811 "/>
  </g>
  <g>
    <rect style="fill: #ffffff" x="185" y="93.1" width="40" height="40"/>
    <rect style="fill: none; fill-opacity:0; stroke-width: 2; stroke: #000000" x="185" y="93.1" width="40" height="40"/>
  </g>
  <text font-size="22.5778" style="fill: #000000;text-anchor:start;font-family:sans-serif;font-style:normal;font-weight:normal" x="145" y="121.85">
    <tspan x="145" y="121.85">pa</tspan>
  </text>
  <text font-size="22.5778" style="fill: #ff0000;text-anchor:start;font-family:sans-serif;font-style:normal;font-weight:normal" x="408" y="19.75">
    <tspan x="408" y="19.75">pa+3</tspan>
  </text>
  <g>
    <path style="fill: none; fill-opacity:0; stroke-width: 2; stroke: #ff0000" d="M 433.382 30.2328 C 434,48 460,98.75 458.552,124.28"/>
    <polygon style="fill: #ff0000" points="458.127,131.768 453.701,121.5 458.552,124.28 463.685,122.067 "/>
    <polygon style="fill: none; fill-opacity:0; stroke-width: 2; stroke: #ff0000" points="458.127,131.768 453.701,121.5 458.552,124.28 463.685,122.067 "/>
  </g>
</svg>
