<?xml version="1.0" encoding="UTF-8" standalone="no"?>
<!DOCTYPE svg PUBLIC "-//W3C//DTD SVG 1.0//EN" "http://www.w3.org/TR/2001/PR-SVG-20010719/DTD/svg10.dtd">
<svg width="15cm" height="9cm" viewBox="145 62 294 162" xmlns="http://www.w3.org/2000/svg" xmlns:xlink="http://www.w3.org/1999/xlink">
  <text font-size="22.5778" style="fill: #000000;text-anchor:start;font-family:sans-serif;font-style:normal;font-weight:normal" x="284" y="135">
    <tspan x="284" y="135">a</tspan>
  </text>
  <g>
    <g>
      <rect style="fill: #ffffff" x="317" y="108" width="40" height="40"/>
      <rect style="fill: none; fill-opacity:0; stroke-width: 2; stroke: #000000" x="317" y="108" width="40" height="40"/>
    </g>
    <g>
      <rect style="fill: #ffffff" x="397" y="108" width="40" height="40"/>
      <rect style="fill: none; fill-opacity:0; stroke-width: 2; stroke: #000000" x="397" y="108" width="40" height="40"/>
    </g>
    <g>
      <rect style="fill: #ffffff" x="357" y="108" width="40" height="40"/>
      <rect style="fill: none; fill-opacity:0; stroke-width: 2; stroke: #000000" x="357" y="108" width="40" height="40"/>
    </g>
  </g>
  <g>
    <path style="fill: none; fill-opacity:0; stroke-width: 2; stroke-dasharray: 4; stroke: #000000" d="M 224.999 84.9329 C 244.999,68.5829 269,60.7878 303,63.7878 C 337,66.7878 356.096,78.7875 364.289,98.0764"/>
    <polygon style="fill: #000000" points="367.221,104.979 358.71,97.7303 364.289,98.0764 367.914,93.8206 "/>
    <polygon style="fill: none; fill-opacity:0; stroke-width: 2; stroke: #000000" points="367.221,104.979 358.71,97.7303 364.289,98.0764 367.914,93.8206 "/>
  </g>
  <g>
    <rect style="fill: #ffffff" x="184" y="82.1" width="40" height="40"/>
    <rect style="fill: none; fill-opacity:0; stroke-width: 2; stroke-dasharray: 4; stroke: #000000" x="184" y="82.1" width="40" height="40"/>
  </g>
  <text font-size="22.5778" style="fill: #000000;text-anchor:start;font-family:sans-serif;font-style:normal;font-weight:normal" x="145" y="121.85">
    <tspan x="145" y="121.85">pa</tspan>
  </text>
  <g>
    <rect style="fill: #ffffff" x="182.1" y="182.6" width="40" height="40"/>
    <rect style="fill: none; fill-opacity:0; stroke-width: 2; stroke: #000000" x="182.1" y="182.6" width="40" height="40"/>
  </g>
  <g>
    <path style="fill: none; fill-opacity:0; stroke-width: 2; stroke: #000000" d="M 223.104 201.25 C 248.004,199.65 318.997,170.006 324.162,157.955"/>
    <polygon style="fill: #000000" points="327.117,151.061 327.773,162.222 324.162,157.955 318.582,158.283 "/>
    <polygon style="fill: none; fill-opacity:0; stroke-width: 2; stroke: #000000" points="327.117,151.061 327.773,162.222 324.162,157.955 318.582,158.283 "/>
  </g>
  <text font-size="19.7556" style="fill: #000000;text-anchor:start;font-family:sans-serif;font-style:normal;font-weight:normal" x="198" y="160.038">
    <tspan x="198" y="160.038">--pa</tspan>
  </text>
  <g>
    <line style="fill: none; fill-opacity:0; stroke-width: 2; stroke: #000000" x1="184" y1="138.038" x2="184" y2="158.302"/>
    <polygon style="fill: #000000" points="184,165.802 179,155.802 184,158.302 189,155.802 "/>
    <polygon style="fill: none; fill-opacity:0; stroke-width: 2; stroke: #000000" points="184,165.802 179,155.802 184,158.302 189,155.802 "/>
  </g>
  <text font-size="22.5778" style="fill: #000000;text-anchor:start;font-family:sans-serif;font-style:normal;font-weight:normal" x="145" y="209.138">
    <tspan x="145" y="209.138">pa</tspan>
  </text>
</svg>
