<?xml version="1.0" encoding="UTF-8" standalone="no"?>
<!DOCTYPE svg PUBLIC "-//W3C//DTD SVG 1.0//EN" "http://www.w3.org/TR/2001/PR-SVG-20010719/DTD/svg10.dtd">
<svg width="19cm" height="15cm" viewBox="178 338 363 283" xmlns="http://www.w3.org/2000/svg" xmlns:xlink="http://www.w3.org/1999/xlink">
  <g>
    <ellipse style="fill: #ffffff" cx="220" cy="400" rx="20" ry="20"/>
    <ellipse style="fill: none; fill-opacity:0; stroke-width: 2; stroke: #000000" cx="220" cy="400" rx="20" ry="20"/>
    <ellipse style="fill: none; fill-opacity:0; stroke-width: 2; stroke: #000000" cx="220" cy="400" rx="20" ry="20"/>
  </g>
  <g>
    <ellipse style="fill: #ffffff" cx="520" cy="400" rx="20" ry="20"/>
    <ellipse style="fill: none; fill-opacity:0; stroke-width: 2; stroke: #000000" cx="520" cy="400" rx="20" ry="20"/>
    <ellipse style="fill: none; fill-opacity:0; stroke-width: 2; stroke: #000000" cx="520" cy="400" rx="20" ry="20"/>
  </g>
  <g>
    <ellipse style="fill: #ffffff" cx="320" cy="400" rx="20" ry="20"/>
    <ellipse style="fill: none; fill-opacity:0; stroke-width: 2; stroke: #000000" cx="320" cy="400" rx="20" ry="20"/>
    <ellipse style="fill: none; fill-opacity:0; stroke-width: 2; stroke: #000000" cx="320" cy="400" rx="20" ry="20"/>
  </g>
  <g>
    <ellipse style="fill: #ffffff" cx="420" cy="400" rx="20" ry="20"/>
    <ellipse style="fill: none; fill-opacity:0; stroke-width: 2; stroke: #000000" cx="420" cy="400" rx="20" ry="20"/>
    <ellipse style="fill: none; fill-opacity:0; stroke-width: 2; stroke: #000000" cx="420" cy="400" rx="20" ry="20"/>
  </g>
  <g>
    <line style="fill: none; fill-opacity:0; stroke-width: 2; stroke: #000000" x1="241.002" y1="400" x2="289.262" y2="400"/>
    <polygon style="fill: #000000" points="296.762,400 286.762,405 289.262,400 286.762,395 "/>
    <polygon style="fill: none; fill-opacity:0; stroke-width: 2; stroke: #000000" points="296.762,400 286.762,405 289.262,400 286.762,395 "/>
  </g>
  <g>
    <line style="fill: none; fill-opacity:0; stroke-width: 2; stroke: #000000" x1="180" y1="340" x2="202.954" y2="374.431"/>
    <polygon style="fill: #000000" points="207.114,380.671 197.407,375.124 202.954,374.431 205.727,369.577 "/>
    <polygon style="fill: none; fill-opacity:0; stroke-width: 2; stroke: #000000" points="207.114,380.671 197.407,375.124 202.954,374.431 205.727,369.577 "/>
  </g>
  <g>
    <line style="fill: none; fill-opacity:0; stroke-width: 2; stroke: #000000" x1="341.002" y1="400" x2="389.262" y2="400"/>
    <polygon style="fill: #000000" points="396.762,400 386.762,405 389.262,400 386.762,395 "/>
    <polygon style="fill: none; fill-opacity:0; stroke-width: 2; stroke: #000000" points="396.762,400 386.762,405 389.262,400 386.762,395 "/>
  </g>
  <g>
    <line style="fill: none; fill-opacity:0; stroke-width: 2; stroke: #000000" x1="441.002" y1="400" x2="489.262" y2="400"/>
    <polygon style="fill: #000000" points="496.762,400 486.762,405 489.262,400 486.762,395 "/>
    <polygon style="fill: none; fill-opacity:0; stroke-width: 2; stroke: #000000" points="496.762,400 486.762,405 489.262,400 486.762,395 "/>
  </g>
  <g>
    <line style="fill: none; fill-opacity:0; stroke-width: 2; stroke: #0000ff" x1="320" y1="460" x2="320" y2="430.727"/>
    <polygon style="fill: #0000ff" points="320,423.227 325,433.227 320,430.727 315,433.227 "/>
    <polygon style="fill: none; fill-opacity:0; stroke-width: 2; stroke: #0000ff" points="320,423.227 325,433.227 320,430.727 315,433.227 "/>
  </g>
  <g>
    <ellipse style="fill: #ffffff" cx="220" cy="520" rx="20" ry="20"/>
    <ellipse style="fill: none; fill-opacity:0; stroke-width: 2; stroke: #000000" cx="220" cy="520" rx="20" ry="20"/>
    <ellipse style="fill: none; fill-opacity:0; stroke-width: 2; stroke: #000000" cx="220" cy="520" rx="20" ry="20"/>
  </g>
  <g>
    <ellipse style="fill: #ffffff" cx="520" cy="520" rx="20" ry="20"/>
    <ellipse style="fill: none; fill-opacity:0; stroke-width: 2; stroke: #000000" cx="520" cy="520" rx="20" ry="20"/>
    <ellipse style="fill: none; fill-opacity:0; stroke-width: 2; stroke: #000000" cx="520" cy="520" rx="20" ry="20"/>
  </g>
  <g>
    <ellipse style="fill: #ffffff" cx="320" cy="520" rx="20" ry="20"/>
    <ellipse style="fill: none; fill-opacity:0; stroke-width: 2; stroke: #000000" cx="320" cy="520" rx="20" ry="20"/>
    <ellipse style="fill: none; fill-opacity:0; stroke-width: 2; stroke: #000000" cx="320" cy="520" rx="20" ry="20"/>
  </g>
  <g>
    <ellipse style="fill: #ffffff" cx="420" cy="520" rx="20" ry="20"/>
    <ellipse style="fill: none; fill-opacity:0; stroke-width: 2; stroke: #000000" cx="420" cy="520" rx="20" ry="20"/>
    <ellipse style="fill: none; fill-opacity:0; stroke-width: 2; stroke: #000000" cx="420" cy="520" rx="20" ry="20"/>
  </g>
  <g>
    <line style="fill: none; fill-opacity:0; stroke-width: 2; stroke: #000000" x1="229.385" y1="538.77" x2="246.261" y2="572.522"/>
    <polygon style="fill: #000000" points="249.615,579.23 240.671,572.522 246.261,572.522 249.615,568.05 "/>
    <polygon style="fill: none; fill-opacity:0; stroke-width: 2; stroke: #000000" points="249.615,579.23 240.671,572.522 246.261,572.522 249.615,568.05 "/>
  </g>
  <g>
    <line style="fill: none; fill-opacity:0; stroke-width: 2; stroke: #000000" x1="180" y1="460" x2="202.954" y2="494.431"/>
    <polygon style="fill: #000000" points="207.114,500.671 197.407,495.124 202.954,494.431 205.727,489.577 "/>
    <polygon style="fill: none; fill-opacity:0; stroke-width: 2; stroke: #000000" points="207.114,500.671 197.407,495.124 202.954,494.431 205.727,489.577 "/>
  </g>
  <g>
    <line style="fill: none; fill-opacity:0; stroke-width: 2; stroke: #000000" x1="341.002" y1="520" x2="389.262" y2="520"/>
    <polygon style="fill: #000000" points="396.762,520 386.762,525 389.262,520 386.762,515 "/>
    <polygon style="fill: none; fill-opacity:0; stroke-width: 2; stroke: #000000" points="396.762,520 386.762,525 389.262,520 386.762,515 "/>
  </g>
  <g>
    <line style="fill: none; fill-opacity:0; stroke-width: 2; stroke: #000000" x1="441.002" y1="520" x2="489.262" y2="520"/>
    <polygon style="fill: #000000" points="496.762,520 486.762,525 489.262,520 486.762,515 "/>
    <polygon style="fill: none; fill-opacity:0; stroke-width: 2; stroke: #000000" points="496.762,520 486.762,525 489.262,520 486.762,515 "/>
  </g>
  <g>
    <ellipse style="fill: #ffffff" cx="260" cy="600" rx="20" ry="20"/>
    <ellipse style="fill: none; fill-opacity:0; stroke-width: 2; stroke: #0000ff" cx="260" cy="600" rx="20" ry="20"/>
    <ellipse style="fill: none; fill-opacity:0; stroke-width: 2; stroke: #0000ff" cx="260" cy="600" rx="20" ry="20"/>
  </g>
  <g>
    <line style="fill: none; fill-opacity:0; stroke-width: 2; stroke: #000000" x1="272.601" y1="583.198" x2="301.557" y2="544.591"/>
    <polygon style="fill: #000000" points="306.057,538.591 304.057,549.591 301.557,544.591 296.057,543.591 "/>
    <polygon style="fill: none; fill-opacity:0; stroke-width: 2; stroke: #000000" points="306.057,538.591 304.057,549.591 301.557,544.591 296.057,543.591 "/>
  </g>
</svg>
