<?xml version="1.0" encoding="UTF-8" standalone="no"?>
<!DOCTYPE svg PUBLIC "-//W3C//DTD SVG 1.0//EN" "http://www.w3.org/TR/2001/PR-SVG-20010719/DTD/svg10.dtd">
<svg width="17cm" height="15cm" viewBox="198 76 325 300" xmlns="http://www.w3.org/2000/svg" xmlns:xlink="http://www.w3.org/1999/xlink">
  <g>
    <g>
      <rect style="fill: #ffffff" x="200" y="140" width="40" height="40"/>
      <rect style="fill: none; fill-opacity:0; stroke-width: 2; stroke: #000000" x="200" y="140" width="40" height="40"/>
    </g>
    <g>
      <rect style="fill: #ffffff" x="280" y="140" width="40" height="40"/>
      <rect style="fill: none; fill-opacity:0; stroke-width: 2; stroke: #000000" x="280" y="140" width="40" height="40"/>
    </g>
    <g>
      <rect style="fill: #ffffff" x="240" y="140" width="40" height="40"/>
      <rect style="fill: none; fill-opacity:0; stroke-width: 2; stroke: #000000" x="240" y="140" width="40" height="40"/>
    </g>
  </g>
  <text font-size="12.8" style="fill: #000000;text-anchor:start;font-family:sans-serif;font-style:normal;font-weight:normal" x="140" y="160">
    <tspan x="140" y="160"></tspan>
  </text>
  <text font-size="22.5778" style="fill: #000000;text-anchor:start;font-family:sans-serif;font-style:normal;font-weight:normal" x="254.2" y="165.2">
    <tspan x="254.2" y="165.2">3</tspan>
  </text>
  <text font-size="22.5778" style="fill: #000000;text-anchor:start;font-family:sans-serif;font-style:normal;font-weight:normal" x="215.2" y="165.2">
    <tspan x="215.2" y="165.2">9</tspan>
  </text>
  <text font-size="22.5778" style="fill: #000000;text-anchor:start;font-family:sans-serif;font-style:normal;font-weight:normal" x="286.4" y="166.4">
    <tspan x="286.4" y="166.4">40</tspan>
  </text>
  <g>
    <rect style="fill: #ffffff" x="320" y="140" width="40" height="40"/>
    <rect style="fill: none; fill-opacity:0; stroke-width: 2; stroke-dasharray: 4; stroke: #000000" x="320" y="140" width="40" height="40"/>
  </g>
  <g>
    <rect style="fill: #ffffff" x="401" y="335" width="40" height="40"/>
    <rect style="fill: none; fill-opacity:0; stroke-width: 2; stroke-dasharray: 4; stroke: #000000" x="401" y="335" width="40" height="40"/>
  </g>
  <g>
    <rect style="fill: #ffffff" x="361" y="335" width="40" height="40"/>
    <rect style="fill: none; fill-opacity:0; stroke-width: 2; stroke: #000000" x="361" y="335" width="40" height="40"/>
  </g>
  <g>
    <g>
      <rect style="fill: #ffffff" x="202" y="240" width="40" height="40"/>
      <rect style="fill: none; fill-opacity:0; stroke-width: 2; stroke: #000000" x="202" y="240" width="40" height="40"/>
    </g>
    <g>
      <rect style="fill: #ffffff" x="282" y="240" width="40" height="40"/>
      <rect style="fill: none; fill-opacity:0; stroke-width: 2; stroke: #000000" x="282" y="240" width="40" height="40"/>
    </g>
    <g>
      <rect style="fill: #ffffff" x="242" y="240" width="40" height="40"/>
      <rect style="fill: none; fill-opacity:0; stroke-width: 2; stroke: #000000" x="242" y="240" width="40" height="40"/>
    </g>
  </g>
  <text font-size="22.5778" style="fill: #000000;text-anchor:start;font-family:sans-serif;font-style:normal;font-weight:normal" x="256.2" y="265.2">
    <tspan x="256.2" y="265.2">3</tspan>
  </text>
  <text font-size="22.5778" style="fill: #000000;text-anchor:start;font-family:sans-serif;font-style:normal;font-weight:normal" x="217.2" y="265.2">
    <tspan x="217.2" y="265.2">9</tspan>
  </text>
  <text font-size="22.5778" style="fill: #000000;text-anchor:start;font-family:sans-serif;font-style:normal;font-weight:normal" x="288.4" y="266.4">
    <tspan x="288.4" y="266.4">40</tspan>
  </text>
  <g>
    <rect style="fill: #ffffff" x="322" y="240" width="40" height="40"/>
    <rect style="fill: none; fill-opacity:0; stroke-width: 2; stroke: #000000" x="322" y="240" width="40" height="40"/>
  </g>
  <text font-size="22.5778" style="fill: #000000;text-anchor:start;font-family:sans-serif;font-style:normal;font-weight:normal" x="199.2" y="220.2">
    <tspan x="199.2" y="220.2">push_back(7)</tspan>
  </text>
  <text font-size="22.5778" style="fill: #000000;text-anchor:start;font-family:sans-serif;font-style:normal;font-weight:normal" x="336.4" y="266.4">
    <tspan x="336.4" y="266.4">7</tspan>
  </text>
  <text font-size="22.5778" style="fill: #000000;text-anchor:start;font-family:sans-serif;font-style:normal;font-weight:normal" x="198" y="316">
    <tspan x="198" y="316">push_back(2)</tspan>
  </text>
  <g>
    <g>
      <rect style="fill: #ffffff" x="201" y="335" width="40" height="40"/>
      <rect style="fill: none; fill-opacity:0; stroke-width: 2; stroke: #000000" x="201" y="335" width="40" height="40"/>
    </g>
    <g>
      <rect style="fill: #ffffff" x="281" y="335" width="40" height="40"/>
      <rect style="fill: none; fill-opacity:0; stroke-width: 2; stroke: #000000" x="281" y="335" width="40" height="40"/>
    </g>
    <g>
      <rect style="fill: #ffffff" x="241" y="335" width="40" height="40"/>
      <rect style="fill: none; fill-opacity:0; stroke-width: 2; stroke: #000000" x="241" y="335" width="40" height="40"/>
    </g>
  </g>
  <text font-size="22.5778" style="fill: #000000;text-anchor:start;font-family:sans-serif;font-style:normal;font-weight:normal" x="255.2" y="360.2">
    <tspan x="255.2" y="360.2">3</tspan>
  </text>
  <text font-size="22.5778" style="fill: #000000;text-anchor:start;font-family:sans-serif;font-style:normal;font-weight:normal" x="216.2" y="360.2">
    <tspan x="216.2" y="360.2">9</tspan>
  </text>
  <text font-size="22.5778" style="fill: #000000;text-anchor:start;font-family:sans-serif;font-style:normal;font-weight:normal" x="287.4" y="361.4">
    <tspan x="287.4" y="361.4">40</tspan>
  </text>
  <g>
    <rect style="fill: #ffffff" x="321" y="335" width="40" height="40"/>
    <rect style="fill: none; fill-opacity:0; stroke-width: 2; stroke: #000000" x="321" y="335" width="40" height="40"/>
  </g>
  <text font-size="22.5778" style="fill: #000000;text-anchor:start;font-family:sans-serif;font-style:normal;font-weight:normal" x="335.4" y="361.4">
    <tspan x="335.4" y="361.4">7</tspan>
  </text>
  <g>
    <rect style="fill: #ffffff" x="441" y="335" width="40" height="40"/>
    <rect style="fill: none; fill-opacity:0; stroke-width: 2; stroke-dasharray: 4; stroke: #000000" x="441" y="335" width="40" height="40"/>
  </g>
  <g>
    <rect style="fill: #ffffff" x="481" y="335" width="40" height="40"/>
    <rect style="fill: none; fill-opacity:0; stroke-width: 2; stroke-dasharray: 4; stroke: #000000" x="481" y="335" width="40" height="40"/>
  </g>
  <text font-size="22.5778" style="fill: #000000;text-anchor:start;font-family:sans-serif;font-style:normal;font-weight:normal" x="372" y="360">
    <tspan x="372" y="360">2</tspan>
  </text>
  <text font-size="22.5778" style="fill: #000000;text-anchor:start;font-family:sans-serif;font-style:normal;font-weight:normal" x="202.2" y="97.2">
    <tspan x="202.2" y="97.2">size() -&gt; 3</tspan>
    <tspan x="202.2" y="125.422">capacity() -&gt; 4</tspan>
  </text>
</svg>
