<?xml version="1.0" encoding="UTF-8" standalone="no"?>
<!DOCTYPE svg PUBLIC "-//W3C//DTD SVG 1.0//EN" "http://www.w3.org/TR/2001/PR-SVG-20010719/DTD/svg10.dtd">
<svg width="38cm" height="13cm" viewBox="85 12 756 250" xmlns="http://www.w3.org/2000/svg" xmlns:xlink="http://www.w3.org/1999/xlink">
  <text font-size="12.8" style="fill: #000000;text-anchor:start;font-family:sans-serif;font-style:normal;font-weight:normal" x="140" y="160">
    <tspan x="140" y="160"></tspan>
  </text>
  <g>
    <line style="fill: none; fill-opacity:0; stroke-width: 2; stroke: #000000" x1="360" y1="100" x2="277.805" y2="135.38"/>
    <polygon style="fill: #000000" points="270.916,138.345 278.124,129.798 277.805,135.38 282.078,138.984 "/>
    <polygon style="fill: none; fill-opacity:0; stroke-width: 2; stroke: #000000" points="270.916,138.345 278.124,129.798 277.805,135.38 282.078,138.984 "/>
  </g>
  <g>
    <line style="fill: none; fill-opacity:0; stroke-width: 2; stroke: #000000" x1="268.862" y1="179.229" x2="317.166" y2="214.98"/>
    <polygon style="fill: #000000" points="323.195,219.442 312.182,217.512 317.166,214.98 318.131,209.474 "/>
    <polygon style="fill: none; fill-opacity:0; stroke-width: 2; stroke: #000000" points="323.195,219.442 312.182,217.512 317.166,214.98 318.131,209.474 "/>
  </g>
  <g>
    <line style="fill: none; fill-opacity:0; stroke-width: 2; stroke: #000000" x1="194.554" y1="179.229" x2="162.622" y2="214.339"/>
    <polygon style="fill: #000000" points="157.576,219.888 160.605,209.126 162.622,214.339 168.003,215.854 "/>
    <polygon style="fill: none; fill-opacity:0; stroke-width: 2; stroke: #000000" points="157.576,219.888 160.605,209.126 162.622,214.339 168.003,215.854 "/>
  </g>
  <g>
    <line style="fill: none; fill-opacity:0; stroke-width: 2; stroke: #000000" x1="423.314" y1="100" x2="643.632" y2="136.112"/>
    <polygon style="fill: #000000" points="651.033,137.325 640.356,140.642 643.632,136.112 641.974,130.773 "/>
    <polygon style="fill: none; fill-opacity:0; stroke-width: 2; stroke: #000000" points="651.033,137.325 640.356,140.642 643.632,136.112 641.974,130.773 "/>
  </g>
  <g>
    <line style="fill: none; fill-opacity:0; stroke-width: 2; stroke: #000000" x1="653.24" y1="177.687" x2="676.801" y2="209.833"/>
    <polygon style="fill: #000000" points="681.234,215.882 671.29,210.772 676.801,209.833 679.356,204.861 "/>
    <polygon style="fill: none; fill-opacity:0; stroke-width: 2; stroke: #000000" points="681.234,215.882 671.29,210.772 676.801,209.833 679.356,204.861 "/>
  </g>
  <g>
    <line style="fill: none; fill-opacity:0; stroke-width: 2; stroke: #000000" x1="587.134" y1="177.687" x2="541.024" y2="214.679"/>
    <polygon style="fill: #000000" points="535.174,219.373 539.845,209.215 541.024,214.679 546.103,217.015 "/>
    <polygon style="fill: none; fill-opacity:0; stroke-width: 2; stroke: #000000" points="535.174,219.373 539.845,209.215 541.024,214.679 546.103,217.015 "/>
  </g>
  <g>
    <g>
      <rect style="fill: #ffffff" x="340" y="60" width="40" height="40"/>
      <rect style="fill: none; fill-opacity:0; stroke-width: 2; stroke: #000000" x="340" y="60" width="40" height="40"/>
    </g>
    <g>
      <rect style="fill: #ffffff" x="380" y="60" width="86.6293" height="40"/>
      <rect style="fill: none; fill-opacity:0; stroke-width: 2; stroke: #000000" x="380" y="60" width="86.6293" height="40"/>
    </g>
    <text font-size="12.8" style="fill: #000000;text-anchor:start;font-family:sans-serif;font-style:normal;font-weight:normal" x="349.296" y="85.7608">
      <tspan x="349.296" y="85.7608">103</tspan>
    </text>
    <text font-size="12.8" style="fill: #000000;text-anchor:start;font-family:sans-serif;font-style:normal;font-weight:normal" x="385.36" y="85.8358">
      <tspan x="385.36" y="85.8358">hundertdrei</tspan>
    </text>
  </g>
  <g>
    <g>
      <rect style="fill: #ffffff" x="567.134" y="137.687" width="40" height="40"/>
      <rect style="fill: none; fill-opacity:0; stroke-width: 2; stroke: #000000" x="567.134" y="137.687" width="40" height="40"/>
    </g>
    <g>
      <rect style="fill: #ffffff" x="607.134" y="137.687" width="92.2102" height="40"/>
      <rect style="fill: none; fill-opacity:0; stroke-width: 2; stroke: #000000" x="607.134" y="137.687" width="92.2102" height="40"/>
    </g>
    <text font-size="12.8" style="fill: #000000;text-anchor:start;font-family:sans-serif;font-style:normal;font-weight:normal" x="570.178" y="161.43">
      <tspan x="570.178" y="161.43">1001</tspan>
    </text>
    <text font-size="12.8" style="fill: #000000;text-anchor:start;font-family:sans-serif;font-style:normal;font-weight:normal" x="616.85" y="161.82">
      <tspan x="616.85" y="161.82">tausendeins</tspan>
    </text>
  </g>
  <g>
    <g>
      <rect style="fill: #ffffff" x="174.554" y="139.229" width="40" height="40"/>
      <rect style="fill: none; fill-opacity:0; stroke-width: 2; stroke: #000000" x="174.554" y="139.229" width="40" height="40"/>
    </g>
    <g>
      <rect style="fill: #ffffff" x="214.554" y="139.229" width="108.617" height="40"/>
      <rect style="fill: none; fill-opacity:0; stroke-width: 2; stroke: #000000" x="214.554" y="139.229" width="108.617" height="40"/>
    </g>
    <text font-size="12.8" style="fill: #000000;text-anchor:start;font-family:sans-serif;font-style:normal;font-weight:normal" x="188.526" y="164.15">
      <tspan x="188.526" y="164.15">51</tspan>
    </text>
    <text font-size="12.8" style="fill: #000000;text-anchor:start;font-family:sans-serif;font-style:normal;font-weight:normal" x="223.718" y="162.694">
      <tspan x="223.718" y="162.694">einundfuenfzig</tspan>
    </text>
  </g>
  <g>
    <g>
      <rect style="fill: #ffffff" x="86.0714" y="221.542" width="40" height="40"/>
      <rect style="fill: none; fill-opacity:0; stroke-width: 2; stroke: #000000" x="86.0714" y="221.542" width="40" height="40"/>
    </g>
    <g>
      <rect style="fill: #ffffff" x="126.071" y="221.542" width="60" height="40"/>
      <rect style="fill: none; fill-opacity:0; stroke-width: 2; stroke: #000000" x="126.071" y="221.542" width="60" height="40"/>
    </g>
    <text font-size="12.8" style="fill: #000000;text-anchor:start;font-family:sans-serif;font-style:normal;font-weight:normal" x="103.677" y="246.366">
      <tspan x="103.677" y="246.366">2</tspan>
    </text>
    <text font-size="12.8" style="fill: #000000;text-anchor:start;font-family:sans-serif;font-style:normal;font-weight:normal" x="141.201" y="245.452">
      <tspan x="141.201" y="245.452">zwei</tspan>
    </text>
  </g>
  <g>
    <g>
      <rect style="fill: #ffffff" x="229.108" y="220.772" width="40" height="40"/>
      <rect style="fill: none; fill-opacity:0; stroke-width: 2; stroke: #000000" x="229.108" y="220.772" width="40" height="40"/>
    </g>
    <g>
      <rect style="fill: #ffffff" x="269.108" y="220.772" width="111.772" height="40"/>
      <rect style="fill: none; fill-opacity:0; stroke-width: 2; stroke: #000000" x="269.108" y="220.772" width="111.772" height="40"/>
    </g>
    <text font-size="12.8" style="fill: #000000;text-anchor:start;font-family:sans-serif;font-style:normal;font-weight:normal" x="238.6" y="246.162">
      <tspan x="238.6" y="246.162">54</tspan>
    </text>
    <text font-size="12.8" style="fill: #000000;text-anchor:start;font-family:sans-serif;font-style:normal;font-weight:normal" x="277.36" y="246.094">
      <tspan x="277.36" y="246.094">vierundfuenfzig</tspan>
    </text>
  </g>
  <g>
    <g>
      <rect style="fill: #ffffff" x="400.772" y="220.772" width="40" height="40"/>
      <rect style="fill: none; fill-opacity:0; stroke-width: 2; stroke: #000000" x="400.772" y="220.772" width="40" height="40"/>
    </g>
    <g>
      <rect style="fill: #ffffff" x="440.772" y="220.772" width="185.319" height="40"/>
      <rect style="fill: none; fill-opacity:0; stroke-width: 2; stroke: #000000" x="440.772" y="220.772" width="185.319" height="40"/>
    </g>
    <text font-size="12.8" style="fill: #000000;text-anchor:start;font-family:sans-serif;font-style:normal;font-weight:normal" x="409.168" y="245.832">
      <tspan x="409.168" y="245.832">346</tspan>
    </text>
    <text font-size="12.8" style="fill: #000000;text-anchor:start;font-family:sans-serif;font-style:normal;font-weight:normal" x="449.94" y="244.616">
      <tspan x="449.94" y="244.616">dreihundertsechsundvierzig</tspan>
    </text>
  </g>
  <g>
    <g>
      <rect style="fill: #ffffff" x="662.556" y="217.686" width="40" height="40"/>
      <rect style="fill: none; fill-opacity:0; stroke-width: 2; stroke: #000000" x="662.556" y="217.686" width="40" height="40"/>
    </g>
    <g>
      <rect style="fill: #ffffff" x="702.556" y="217.686" width="91.634" height="40"/>
      <rect style="fill: none; fill-opacity:0; stroke-width: 2; stroke: #000000" x="702.556" y="217.686" width="91.634" height="40"/>
    </g>
    <text font-size="12.8" style="fill: #000000;text-anchor:start;font-family:sans-serif;font-style:normal;font-weight:normal" x="667.222" y="243.856">
      <tspan x="667.222" y="243.856">1002</tspan>
    </text>
    <text font-size="12.8" style="fill: #000000;text-anchor:start;font-family:sans-serif;font-style:normal;font-weight:normal" x="710.118" y="240.824">
      <tspan x="710.118" y="240.824">tausendzwei</tspan>
    </text>
  </g>
  <text font-size="22.5778" style="fill: #000000;text-anchor:start;font-family:sans-serif;font-style:normal;font-weight:normal" x="587.016" y="36.875">
    <tspan x="587.016" y="36.875">std::pair&lt;int,std::string&gt;</tspan>
  </text>
  <g>
    <line style="fill: none; fill-opacity:0; stroke-width: 2; stroke-dasharray: 20 8 4 8; stroke: #000000" x1="575.702" y1="38.2892" x2="476.179" y2="58.0993"/>
    <polygon style="fill: #000000" points="468.823,59.5635 477.655,52.7075 476.179,58.0993 479.607,62.5151 "/>
    <polygon style="fill: none; fill-opacity:0; stroke-width: 2; stroke: #000000" points="468.823,59.5635 477.655,52.7075 476.179,58.0993 479.607,62.5151 "/>
  </g>
</svg>
