<?xml version="1.0" encoding="UTF-8" standalone="no"?>
<!DOCTYPE svg PUBLIC "-//W3C//DTD SVG 1.0//EN" "http://www.w3.org/TR/2001/PR-SVG-20010719/DTD/svg10.dtd">
<svg width="33cm" height="5cm" viewBox="118 104 643 97" xmlns="http://www.w3.org/2000/svg" xmlns:xlink="http://www.w3.org/1999/xlink">
  <g>
    <rect style="fill: #ff0000" x="480" y="140" width="80" height="40"/>
    <rect style="fill: none; fill-opacity:0; stroke-width: 2; stroke: #000000" x="480" y="140" width="80" height="40"/>
  </g>
  <g>
    <rect style="fill: #00ff00" x="560" y="140" width="40" height="40"/>
    <rect style="fill: none; fill-opacity:0; stroke-width: 2; stroke: #000000" x="560" y="140" width="40" height="40"/>
  </g>
  <rect style="fill: none; fill-opacity:0; stroke-width: 2; stroke: #000000" x="600" y="140" width="40" height="40"/>
  <g>
    <rect style="fill: #ff0000" x="160" y="140" width="320" height="40"/>
    <rect style="fill: none; fill-opacity:0; stroke-width: 2; stroke: #000000" x="160" y="140" width="320" height="40"/>
  </g>
  <line style="fill: none; fill-opacity:0; stroke-width: 2; stroke-dasharray: 4; stroke: #000000" x1="280" y1="120" x2="280" y2="200"/>
  <line style="fill: none; fill-opacity:0; stroke-width: 2; stroke-dasharray: 4; stroke: #000000" x1="440" y1="120" x2="440" y2="200"/>
  <line style="fill: none; fill-opacity:0; stroke-width: 2; stroke-dasharray: 4; stroke: #000000" x1="600" y1="120" x2="600" y2="200"/>
  <text font-size="19.7556" style="fill: #000000;text-anchor:start;font-family:sans-serif;font-style:normal;font-weight:normal" x="134" y="128">
    <tspan x="134" y="128">0</tspan>
  </text>
  <text font-size="19.7556" style="fill: #000000;text-anchor:start;font-family:sans-serif;font-style:normal;font-weight:normal" x="292.5" y="125.85">
    <tspan x="292.5" y="125.85">4</tspan>
  </text>
  <text font-size="19.7556" style="fill: #000000;text-anchor:start;font-family:sans-serif;font-style:normal;font-weight:normal" x="458" y="126.259">
    <tspan x="458" y="126.259">8</tspan>
  </text>
  <text font-size="19.7556" style="fill: #000000;text-anchor:start;font-family:sans-serif;font-style:normal;font-weight:normal" x="604.5" y="128.85">
    <tspan x="604.5" y="128.85">12</tspan>
  </text>
  <text font-size="19.7556" style="fill: #000000;text-anchor:start;font-family:sans-serif;font-style:normal;font-weight:normal" x="310.486" y="165.891">
    <tspan x="310.486" y="165.891">cat</tspan>
  </text>
  <g>
    <rect style="fill: #00ff00" x="120" y="140" width="40" height="40"/>
    <rect style="fill: none; fill-opacity:0; stroke-width: 2; stroke: #000000" x="120" y="140" width="40" height="40"/>
  </g>
  <rect style="fill: none; fill-opacity:0; stroke-width: 2; stroke: #000000" x="640" y="140" width="40" height="40"/>
  <rect style="fill: none; fill-opacity:0; stroke-width: 2; stroke: #000000" x="680" y="140" width="40" height="40"/>
  <rect style="fill: none; fill-opacity:0; stroke-width: 2; stroke: #000000" x="720" y="140" width="40" height="40"/>
  <text font-size="19.7556" style="fill: #000000;text-anchor:start;font-family:sans-serif;font-style:normal;font-weight:normal" x="121.717" y="166.617">
    <tspan x="121.717" y="166.617">dog</tspan>
  </text>
  <text font-size="19.7556" style="fill: #000000;text-anchor:start;font-family:sans-serif;font-style:normal;font-weight:normal" x="565.112" y="165.665">
    <tspan x="565.112" y="165.665">fox</tspan>
  </text>
  <text font-size="19.7556" style="fill: #000000;text-anchor:start;font-family:sans-serif;font-style:normal;font-weight:normal" x="506.54" y="165.623">
    <tspan x="506.54" y="165.623">pig</tspan>
  </text>
</svg>
