<?xml version="1.0" encoding="UTF-8" standalone="no"?>
<!DOCTYPE svg PUBLIC "-//W3C//DTD SVG 1.0//EN" "http://www.w3.org/TR/2001/PR-SVG-20010719/DTD/svg10.dtd">
<svg width="33cm" height="5cm" viewBox="118 107 643 94" xmlns="http://www.w3.org/2000/svg" xmlns:xlink="http://www.w3.org/1999/xlink">
  <rect style="fill: none; fill-opacity:0; stroke-width: 2; stroke: #000000" x="120" y="140" width="40" height="40"/>
  <rect style="fill: none; fill-opacity:0; stroke-width: 2; stroke: #000000" x="160" y="140" width="40" height="40"/>
  <rect style="fill: none; fill-opacity:0; stroke-width: 2; stroke: #000000" x="200" y="140" width="40" height="40"/>
  <rect style="fill: none; fill-opacity:0; stroke-width: 2; stroke: #000000" x="240" y="140" width="40" height="40"/>
  <g>
    <rect style="fill: #00ff00" x="280" y="140" width="80" height="40"/>
    <rect style="fill: none; fill-opacity:0; stroke-width: 2; stroke: #000000" x="280" y="140" width="80" height="40"/>
  </g>
  <g>
    <rect style="fill: #00ff00" x="440" y="140" width="320" height="40"/>
    <rect style="fill: none; fill-opacity:0; stroke-width: 2; stroke: #000000" x="440" y="140" width="320" height="40"/>
  </g>
  <line style="fill: none; fill-opacity:0; stroke-width: 2; stroke-dasharray: 4; stroke: #000000" x1="280" y1="120" x2="280" y2="200"/>
  <line style="fill: none; fill-opacity:0; stroke-width: 2; stroke-dasharray: 4; stroke: #000000" x1="440" y1="120" x2="440" y2="200"/>
  <line style="fill: none; fill-opacity:0; stroke-width: 2; stroke-dasharray: 4; stroke: #000000" x1="600" y1="120" x2="600" y2="200"/>
  <text font-size="19.7556" style="fill: #000000;text-anchor:start;font-family:sans-serif;font-style:normal;font-weight:normal" x="134" y="128">
    <tspan x="134" y="128">0</tspan>
  </text>
  <text font-size="19.7556" style="fill: #000000;text-anchor:start;font-family:sans-serif;font-style:normal;font-weight:normal" x="292.5" y="125.85">
    <tspan x="292.5" y="125.85">4</tspan>
  </text>
  <text font-size="19.7556" style="fill: #000000;text-anchor:start;font-family:sans-serif;font-style:normal;font-weight:normal" x="458" y="127.35">
    <tspan x="458" y="127.35">8</tspan>
  </text>
  <text font-size="19.7556" style="fill: #000000;text-anchor:start;font-family:sans-serif;font-style:normal;font-weight:normal" x="604.5" y="128.85">
    <tspan x="604.5" y="128.85">12</tspan>
  </text>
  <g>
    <rect style="fill: #00ff00" x="360" y="140" width="80" height="40"/>
    <rect style="fill: none; fill-opacity:0; stroke-width: 2; stroke: #000000" x="360" y="140" width="80" height="40"/>
  </g>
  <text font-size="19.7556" style="fill: #000000;text-anchor:start;font-family:sans-serif;font-style:normal;font-weight:normal" x="294" y="165">
    <tspan x="294" y="165">short</tspan>
  </text>
  <text font-size="19.7556" style="fill: #000000;text-anchor:start;font-family:sans-serif;font-style:normal;font-weight:normal" x="375.5" y="164.85">
    <tspan x="375.5" y="164.85">short</tspan>
  </text>
  <text font-size="19.7556" style="fill: #000000;text-anchor:start;font-family:sans-serif;font-style:normal;font-weight:normal" x="580" y="167">
    <tspan x="580" y="167">long</tspan>
  </text>
</svg>
