<?xml version="1.0" encoding="UTF-8" standalone="no"?>
<!DOCTYPE svg PUBLIC "-//W3C//DTD SVG 1.0//EN" "http://www.w3.org/TR/2001/PR-SVG-20010719/DTD/svg10.dtd">
<svg width="35cm" height="15cm" viewBox="52 59 689 282" xmlns="http://www.w3.org/2000/svg" xmlns:xlink="http://www.w3.org/1999/xlink">
  <polyline style="fill: none; fill-opacity:0; stroke-width: 2; stroke: #000000" points="100,100 100,200 340,200 340,100 "/>
  <rect style="fill: none; fill-opacity:0; stroke-width: 2; stroke: #000000" x="100" y="200" width="240" height="140"/>
  <g>
    <line style="fill: none; fill-opacity:0; stroke-width: 2; stroke: #000000" x1="60" y1="120" x2="60" y2="290.264"/>
    <polygon style="fill: #000000" points="60,297.764 55,287.764 60,290.264 65,287.764 "/>
    <polygon style="fill: none; fill-opacity:0; stroke-width: 2; stroke: #000000" points="60,297.764 55,287.764 60,290.264 65,287.764 "/>
  </g>
  <text font-size="22.5778" style="fill: #000000;text-anchor:start;font-family:sans-serif;font-style:normal;font-weight:normal" x="169.25" y="87.568">
    <tspan x="169.25" y="87.568">Call stack</tspan>
  </text>
  <g>
    <text font-size="22.5778" style="fill: #000000;text-anchor:start;font-family:sans-serif;font-style:normal;font-weight:normal" x="125.682" y="243.568">
      <tspan x="125.682" y="243.568">*str</tspan>
    </text>
    <rect style="fill: none; fill-opacity:0; stroke-width: 2; stroke: #000000" x="125" y="255" width="80" height="40"/>
  </g>
  <g>
    <g>
      <rect style="fill: none; fill-opacity:0; stroke-width: 2; stroke: #000000" x="520" y="120" width="40" height="40"/>
      <rect style="fill: none; fill-opacity:0; stroke-width: 2; stroke: #000000" x="680" y="120" width="40" height="40"/>
      <rect style="fill: none; fill-opacity:0; stroke-width: 2; stroke: #000000" x="640" y="120" width="40" height="40"/>
      <rect style="fill: none; fill-opacity:0; stroke-width: 2; stroke: #000000" x="600" y="120" width="40" height="40"/>
      <rect style="fill: none; fill-opacity:0; stroke-width: 2; stroke: #000000" x="560" y="120" width="40" height="40"/>
      <text font-size="22.5778" style="fill: #000000;text-anchor:start;font-family:sans-serif;font-style:normal;font-weight:normal" x="534.114" y="147.568">
        <tspan x="534.114" y="147.568">b</tspan>
      </text>
      <text font-size="22.5778" style="fill: #000000;text-anchor:start;font-family:sans-serif;font-style:normal;font-weight:normal" x="578.022" y="148.342">
        <tspan x="578.022" y="148.342">l</tspan>
      </text>
      <text font-size="22.5778" style="fill: #000000;text-anchor:start;font-family:sans-serif;font-style:normal;font-weight:normal" x="614.18" y="147.98">
        <tspan x="614.18" y="147.98">a</tspan>
      </text>
      <text font-size="22.5778" style="fill: #000000;text-anchor:start;font-family:sans-serif;font-style:normal;font-weight:normal" x="655.022" y="148.094">
        <tspan x="655.022" y="148.094">h</tspan>
      </text>
      <text font-size="22.5778" style="fill: #000000;text-anchor:start;font-family:sans-serif;font-style:normal;font-weight:normal" x="686.316" y="149.232">
        <tspan x="686.316" y="149.232">\0</tspan>
      </text>
    </g>
    <rect style="fill: none; fill-opacity:0; stroke-width: 2; stroke: #000000" x="500" y="100" width="240" height="240"/>
    <text font-size="22.5778" style="fill: #000000;text-anchor:start;font-family:sans-serif;font-style:normal;font-weight:normal" x="591" y="248">
      <tspan x="591" y="248">. . . .</tspan>
    </text>
  </g>
  <g>
    <path style="fill: none; fill-opacity:0; stroke-width: 2; stroke: #000000" d="M 205.986 275 C 211.962,275 324.166,262.5 360,240 C 395.834,217.5 340.834,185.833 400,160 C 459.166,134.167 514.024,140 510.264,140"/>
    <polygon style="fill: #000000" points="517.764,140 507.764,145 510.264,140 507.764,135 "/>
    <polygon style="fill: none; fill-opacity:0; stroke-width: 2; stroke: #000000" points="517.764,140 507.764,145 510.264,140 507.764,135 "/>
  </g>
  <text font-size="22.5778" style="fill: #000000;text-anchor:start;font-family:sans-serif;font-style:normal;font-weight:normal" x="515" y="80">
    <tspan x="515" y="80">Read-only memory</tspan>
  </text>
</svg>
