<?xml version="1.0" encoding="UTF-8" standalone="no"?>
<!DOCTYPE svg PUBLIC "-//W3C//DTD SVG 1.0//EN" "http://www.w3.org/TR/2001/PR-SVG-20010719/DTD/svg10.dtd">
<svg width="37cm" height="6cm" viewBox="418 73 723 108" xmlns="http://www.w3.org/2000/svg" xmlns:xlink="http://www.w3.org/1999/xlink">
  <rect style="fill: none; fill-opacity:0; stroke-width: 2; stroke: #000000" x="420" y="120" width="60" height="40"/>
  <rect style="fill: none; fill-opacity:0; stroke-width: 2; stroke: #000000" x="480" y="120" width="60" height="40"/>
  <rect style="fill: none; fill-opacity:0; stroke-width: 2; stroke: #000000" x="540" y="120" width="60" height="40"/>
  <rect style="fill: none; fill-opacity:0; stroke-width: 2; stroke: #000000" x="600" y="120" width="60" height="40"/>
  <rect style="fill: none; fill-opacity:0; stroke-width: 2; stroke: #000000" x="660" y="120" width="60" height="40"/>
  <rect style="fill: none; fill-opacity:0; stroke-width: 2; stroke: #000000" x="720" y="120" width="60" height="40"/>
  <rect style="fill: none; fill-opacity:0; stroke-width: 2; stroke: #000000" x="780" y="120" width="60" height="40"/>
  <rect style="fill: none; fill-opacity:0; stroke-width: 2; stroke: #000000" x="840" y="120" width="60" height="40"/>
  <rect style="fill: none; fill-opacity:0; stroke-width: 2; stroke: #000000" x="900" y="120" width="60" height="40"/>
  <rect style="fill: none; fill-opacity:0; stroke-width: 2; stroke: #000000" x="960" y="120" width="60" height="40"/>
  <rect style="fill: none; fill-opacity:0; stroke-width: 2; stroke: #000000" x="1020" y="120" width="60" height="40"/>
  <rect style="fill: none; fill-opacity:0; stroke-width: 2; stroke: #000000" x="1080" y="120" width="60" height="40"/>
  <line style="fill: none; fill-opacity:0; stroke-width: 2; stroke-dasharray: 4; stroke: #000000" x1="600" y1="100" x2="600" y2="180"/>
  <line style="fill: none; fill-opacity:0; stroke-width: 2; stroke-dasharray: 4; stroke: #000000" x1="960" y1="100" x2="960" y2="180"/>
  <line style="fill: none; fill-opacity:0; stroke-width: 2; stroke-dasharray: 4; stroke: #000000" x1="780" y1="100" x2="780" y2="180"/>
  <text font-size="22.5778" style="fill: #000000;text-anchor:start;font-family:sans-serif;font-style:normal;font-weight:normal" x="474.658" y="95.5">
    <tspan x="474.658" y="95.5">row #0</tspan>
  </text>
  <text font-size="22.5778" style="fill: #000000;text-anchor:start;font-family:sans-serif;font-style:normal;font-weight:normal" x="651.658" y="94.5">
    <tspan x="651.658" y="94.5">row #1</tspan>
  </text>
  <text font-size="22.5778" style="fill: #000000;text-anchor:start;font-family:sans-serif;font-style:normal;font-weight:normal" x="834.658" y="96.5">
    <tspan x="834.658" y="96.5">row #2</tspan>
  </text>
  <text font-size="22.5778" style="fill: #000000;text-anchor:start;font-family:sans-serif;font-style:normal;font-weight:normal" x="1007.56" y="95">
    <tspan x="1007.56" y="95">row #3</tspan>
  </text>
  <g>
    <path style="fill: none; fill-opacity:0; stroke-width: 2; stroke: #00ff00" d="M 450,160 A 32.5,32.5 0 0 0 505.151,168.083"/>
    <polygon style="fill: #00ff00" points="509.14,162.064 509.909,173.218 506.255,168.987 500.678,169.372 "/>
    <polygon style="fill: none; fill-opacity:0; stroke-width: 2; stroke: #00ff00" points="509.14,162.064 509.909,173.218 506.255,168.987 500.678,169.372 "/>
  </g>
  <g>
    <path style="fill: none; fill-opacity:0; stroke-width: 2; stroke: #00ff00" d="M 510,160 A 32.5,32.5 0 0 0 565.151,168.083"/>
    <polygon style="fill: #00ff00" points="569.14,162.064 569.909,173.218 566.255,168.987 560.678,169.372 "/>
    <polygon style="fill: none; fill-opacity:0; stroke-width: 2; stroke: #00ff00" points="569.14,162.064 569.909,173.218 566.255,168.987 560.678,169.372 "/>
  </g>
  <g>
    <path style="fill: none; fill-opacity:0; stroke-width: 2; stroke: #00ff00" d="M 870,160 A 32.5,32.5 0 0 0 925.151,168.083"/>
    <polygon style="fill: #00ff00" points="929.14,162.064 929.909,173.218 926.255,168.987 920.678,169.372 "/>
    <polygon style="fill: none; fill-opacity:0; stroke-width: 2; stroke: #00ff00" points="929.14,162.064 929.909,173.218 926.255,168.987 920.678,169.372 "/>
  </g>
  <g>
    <path style="fill: none; fill-opacity:0; stroke-width: 2; stroke: #00ff00" d="M 630,160 A 32.5,32.5 0 0 0 685.151,168.083"/>
    <polygon style="fill: #00ff00" points="689.14,162.064 689.909,173.218 686.255,168.987 680.678,169.372 "/>
    <polygon style="fill: none; fill-opacity:0; stroke-width: 2; stroke: #00ff00" points="689.14,162.064 689.909,173.218 686.255,168.987 680.678,169.372 "/>
  </g>
  <g>
    <path style="fill: none; fill-opacity:0; stroke-width: 2; stroke: #00ff00" d="M 990,160 A 32.5,32.5 0 0 0 1045.15,168.083"/>
    <polygon style="fill: #00ff00" points="1049.14,162.064 1049.91,173.218 1046.26,168.987 1040.68,169.372 "/>
    <polygon style="fill: none; fill-opacity:0; stroke-width: 2; stroke: #00ff00" points="1049.14,162.064 1049.91,173.218 1046.26,168.987 1040.68,169.372 "/>
  </g>
  <g>
    <path style="fill: none; fill-opacity:0; stroke-width: 2; stroke: #00ff00" d="M 810,160 A 32.5,32.5 0 0 0 865.151,168.083"/>
    <polygon style="fill: #00ff00" points="869.14,162.064 869.909,173.218 866.255,168.987 860.678,169.372 "/>
    <polygon style="fill: none; fill-opacity:0; stroke-width: 2; stroke: #00ff00" points="869.14,162.064 869.909,173.218 866.255,168.987 860.678,169.372 "/>
  </g>
  <g>
    <path style="fill: none; fill-opacity:0; stroke-width: 2; stroke: #00ff00" d="M 570,160 A 32.5,32.5 0 0 0 625.151,168.083"/>
    <polygon style="fill: #00ff00" points="629.14,162.064 629.909,173.218 626.255,168.987 620.678,169.372 "/>
    <polygon style="fill: none; fill-opacity:0; stroke-width: 2; stroke: #00ff00" points="629.14,162.064 629.909,173.218 626.255,168.987 620.678,169.372 "/>
  </g>
  <g>
    <path style="fill: none; fill-opacity:0; stroke-width: 2; stroke: #00ff00" d="M 930,160 A 32.5,32.5 0 0 0 985.151,168.083"/>
    <polygon style="fill: #00ff00" points="989.14,162.064 989.909,173.218 986.255,168.987 980.678,169.372 "/>
    <polygon style="fill: none; fill-opacity:0; stroke-width: 2; stroke: #00ff00" points="989.14,162.064 989.909,173.218 986.255,168.987 980.678,169.372 "/>
  </g>
  <g>
    <path style="fill: none; fill-opacity:0; stroke-width: 2; stroke: #00ff00" d="M 750,160 A 32.5,32.5 0 0 0 805.151,168.083"/>
    <polygon style="fill: #00ff00" points="809.14,162.064 809.909,173.218 806.255,168.987 800.678,169.372 "/>
    <polygon style="fill: none; fill-opacity:0; stroke-width: 2; stroke: #00ff00" points="809.14,162.064 809.909,173.218 806.255,168.987 800.678,169.372 "/>
  </g>
  <g>
    <path style="fill: none; fill-opacity:0; stroke-width: 2; stroke: #00ff00" d="M 690,160 A 32.5,32.5 0 0 0 745.151,168.083"/>
    <polygon style="fill: #00ff00" points="749.14,162.064 749.909,173.218 746.255,168.987 740.678,169.372 "/>
    <polygon style="fill: none; fill-opacity:0; stroke-width: 2; stroke: #00ff00" points="749.14,162.064 749.909,173.218 746.255,168.987 740.678,169.372 "/>
  </g>
  <g>
    <path style="fill: none; fill-opacity:0; stroke-width: 2; stroke: #00ff00" d="M 1050,160 A 32.5,32.5 0 0 0 1105.15,168.083"/>
    <polygon style="fill: #00ff00" points="1109.14,162.064 1109.91,173.218 1106.26,168.987 1100.68,169.372 "/>
    <polygon style="fill: none; fill-opacity:0; stroke-width: 2; stroke: #00ff00" points="1109.14,162.064 1109.91,173.218 1106.26,168.987 1100.68,169.372 "/>
  </g>
</svg>
