<?xml version="1.0" encoding="UTF-8" standalone="no"?>
<!DOCTYPE svg PUBLIC "-//W3C//DTD SVG 1.0//EN" "http://www.w3.org/TR/2001/PR-SVG-20010719/DTD/svg10.dtd">
<svg width="37cm" height="10cm" viewBox="418 73 723 181" xmlns="http://www.w3.org/2000/svg" xmlns:xlink="http://www.w3.org/1999/xlink">
  <rect style="fill: none; fill-opacity:0; stroke-width: 2; stroke: #000000" x="420" y="120" width="60" height="40"/>
  <rect style="fill: none; fill-opacity:0; stroke-width: 2; stroke: #000000" x="480" y="120" width="60" height="40"/>
  <rect style="fill: none; fill-opacity:0; stroke-width: 2; stroke: #000000" x="540" y="120" width="60" height="40"/>
  <rect style="fill: none; fill-opacity:0; stroke-width: 2; stroke: #000000" x="600" y="120" width="60" height="40"/>
  <rect style="fill: none; fill-opacity:0; stroke-width: 2; stroke: #000000" x="660" y="120" width="60" height="40"/>
  <rect style="fill: none; fill-opacity:0; stroke-width: 2; stroke: #000000" x="720" y="120" width="60" height="40"/>
  <rect style="fill: none; fill-opacity:0; stroke-width: 2; stroke: #000000" x="780" y="120" width="60" height="40"/>
  <rect style="fill: none; fill-opacity:0; stroke-width: 2; stroke: #000000" x="840" y="120" width="60" height="40"/>
  <rect style="fill: none; fill-opacity:0; stroke-width: 2; stroke: #000000" x="900" y="120" width="60" height="40"/>
  <rect style="fill: none; fill-opacity:0; stroke-width: 2; stroke: #000000" x="960" y="120" width="60" height="40"/>
  <rect style="fill: none; fill-opacity:0; stroke-width: 2; stroke: #000000" x="1020" y="120" width="60" height="40"/>
  <rect style="fill: none; fill-opacity:0; stroke-width: 2; stroke: #000000" x="1080" y="120" width="60" height="40"/>
  <line style="fill: none; fill-opacity:0; stroke-width: 2; stroke-dasharray: 4; stroke: #000000" x1="600" y1="100" x2="600" y2="180"/>
  <line style="fill: none; fill-opacity:0; stroke-width: 2; stroke-dasharray: 4; stroke: #000000" x1="960" y1="100" x2="960" y2="180"/>
  <line style="fill: none; fill-opacity:0; stroke-width: 2; stroke-dasharray: 4; stroke: #000000" x1="780" y1="100" x2="780" y2="180"/>
  <text font-size="22.5778" style="fill: #000000;text-anchor:start;font-family:sans-serif;font-style:normal;font-weight:normal" x="474.658" y="95.5">
    <tspan x="474.658" y="95.5">row #0</tspan>
  </text>
  <text font-size="22.5778" style="fill: #000000;text-anchor:start;font-family:sans-serif;font-style:normal;font-weight:normal" x="651.658" y="94.5">
    <tspan x="651.658" y="94.5">row #1</tspan>
  </text>
  <text font-size="22.5778" style="fill: #000000;text-anchor:start;font-family:sans-serif;font-style:normal;font-weight:normal" x="834.658" y="96.5">
    <tspan x="834.658" y="96.5">row #2</tspan>
  </text>
  <text font-size="22.5778" style="fill: #000000;text-anchor:start;font-family:sans-serif;font-style:normal;font-weight:normal" x="1007.56" y="95">
    <tspan x="1007.56" y="95">row #3</tspan>
  </text>
  <g>
    <path style="fill: none; fill-opacity:0; stroke-width: 2; stroke: #ff0000" d="M 450,160 A 212.5,212.5 0 0 0 621.095,163.917"/>
    <polygon style="fill: #ff0000" points="627.974,160.947 621.033,169.712 621.18,164.124 616.798,160.653 "/>
    <polygon style="fill: none; fill-opacity:0; stroke-width: 2; stroke: #ff0000" points="627.974,160.947 621.033,169.712 621.18,164.124 616.798,160.653 "/>
  </g>
  <g>
    <path style="fill: none; fill-opacity:0; stroke-width: 2; stroke: #ff0000" d="M 630,160 A 212.5,212.5 0 0 0 801.095,163.917"/>
    <polygon style="fill: #ff0000" points="807.974,160.947 801.033,169.712 801.18,164.124 796.798,160.653 "/>
    <polygon style="fill: none; fill-opacity:0; stroke-width: 2; stroke: #ff0000" points="807.974,160.947 801.033,169.712 801.18,164.124 796.798,160.653 "/>
  </g>
  <g>
    <path style="fill: none; fill-opacity:0; stroke-width: 2; stroke: #ff0000" d="M 810,160 A 212.5,212.5 0 0 0 981.095,163.917"/>
    <polygon style="fill: #ff0000" points="987.974,160.947 981.033,169.712 981.18,164.124 976.798,160.653 "/>
    <polygon style="fill: none; fill-opacity:0; stroke-width: 2; stroke: #ff0000" points="987.974,160.947 981.033,169.712 981.18,164.124 976.798,160.653 "/>
  </g>
  <g>
    <path style="fill: none; fill-opacity:0; stroke-width: 2; stroke: #ff0000" d="M 517.266,166.476 A 354.007,354.007 0 0 0 985,163"/>
    <polygon style="fill: #ff0000" points="511.649,161.511 522.399,164.58 517.178,166.577 515.644,171.953 "/>
    <polygon style="fill: none; fill-opacity:0; stroke-width: 2; stroke: #ff0000" points="511.649,161.511 522.399,164.58 517.178,166.577 515.644,171.953 "/>
  </g>
  <g>
    <path style="fill: none; fill-opacity:0; stroke-width: 2; stroke: #ff0000" d="M 510,160 A 136.118,136.118 0 0 0 682.485,166.161"/>
    <polygon style="fill: #ff0000" points="688.322,161.478 684.126,171.841 682.696,166.437 677.514,164.339 "/>
    <polygon style="fill: none; fill-opacity:0; stroke-width: 2; stroke: #ff0000" points="688.322,161.478 684.126,171.841 682.696,166.437 677.514,164.339 "/>
  </g>
  <g>
    <path style="fill: none; fill-opacity:0; stroke-width: 2; stroke: #ff0000" d="M 690,160 A 136.118,136.118 0 0 0 862.485,166.161"/>
    <polygon style="fill: #ff0000" points="868.322,161.478 864.126,171.841 862.696,166.437 857.514,164.339 "/>
    <polygon style="fill: none; fill-opacity:0; stroke-width: 2; stroke: #ff0000" points="868.322,161.478 864.126,171.841 862.696,166.437 857.514,164.339 "/>
  </g>
  <g>
    <path style="fill: none; fill-opacity:0; stroke-width: 2; stroke: #ff0000" d="M 870,160 A 136.118,136.118 0 0 0 1042.49,166.161"/>
    <polygon style="fill: #ff0000" points="1048.32,161.478 1044.13,171.841 1042.7,166.437 1037.51,164.339 "/>
    <polygon style="fill: none; fill-opacity:0; stroke-width: 2; stroke: #ff0000" points="1048.32,161.478 1044.13,171.841 1042.7,166.437 1037.51,164.339 "/>
  </g>
  <g>
    <path style="fill: none; fill-opacity:0; stroke-width: 2; stroke: #ff0000" d="M 577.35,166.381 A 360.519,360.519 0 0 0 1050,160"/>
    <polygon style="fill: #ff0000" points="571.669,161.489 582.459,164.415 577.265,166.481 575.802,171.877 "/>
    <polygon style="fill: none; fill-opacity:0; stroke-width: 2; stroke: #ff0000" points="571.669,161.489 582.459,164.415 577.265,166.481 575.802,171.877 "/>
  </g>
  <g>
    <path style="fill: none; fill-opacity:0; stroke-width: 2; stroke: #ff0000" d="M 570,160 A 115.686,115.686 0 0 0 743.587,167.292"/>
    <polygon style="fill: #ff0000" points="748.595,161.74 746.202,172.661 743.883,167.574 738.422,166.378 "/>
    <polygon style="fill: none; fill-opacity:0; stroke-width: 2; stroke: #ff0000" points="748.595,161.74 746.202,172.661 743.883,167.574 738.422,166.378 "/>
  </g>
  <g>
    <path style="fill: none; fill-opacity:0; stroke-width: 2; stroke: #ff0000" d="M 750,160 A 115.686,115.686 0 0 0 923.587,167.292"/>
    <polygon style="fill: #ff0000" points="928.595,161.74 926.202,172.661 923.883,167.574 918.422,166.378 "/>
    <polygon style="fill: none; fill-opacity:0; stroke-width: 2; stroke: #ff0000" points="928.595,161.74 926.202,172.661 923.883,167.574 918.422,166.378 "/>
  </g>
  <g>
    <path style="fill: none; fill-opacity:0; stroke-width: 2; stroke: #ff0000" d="M 930,160 A 115.686,115.686 0 0 0 1103.59,167.292"/>
    <polygon style="fill: #ff0000" points="1108.6,161.74 1106.2,172.661 1103.88,167.574 1098.42,166.378 "/>
    <polygon style="fill: none; fill-opacity:0; stroke-width: 2; stroke: #ff0000" points="1108.6,161.74 1106.2,172.661 1103.88,167.574 1098.42,166.378 "/>
  </g>
</svg>
