<?xml version="1.0" encoding="UTF-8" standalone="no"?>
<!DOCTYPE svg PUBLIC "-//W3C//DTD SVG 1.0//EN" "http://www.w3.org/TR/2001/PR-SVG-20010719/DTD/svg10.dtd">
<svg width="37cm" height="6cm" viewBox="418 70 723 111" xmlns="http://www.w3.org/2000/svg" xmlns:xlink="http://www.w3.org/1999/xlink">
  <rect style="fill: none; fill-opacity:0; stroke-width: 2; stroke: #000000" x="420" y="120" width="60" height="40"/>
  <rect style="fill: none; fill-opacity:0; stroke-width: 2; stroke: #000000" x="480" y="120" width="60" height="40"/>
  <rect style="fill: none; fill-opacity:0; stroke-width: 2; stroke: #000000" x="540" y="120" width="60" height="40"/>
  <rect style="fill: none; fill-opacity:0; stroke-width: 2; stroke: #000000" x="600" y="120" width="60" height="40"/>
  <rect style="fill: none; fill-opacity:0; stroke-width: 2; stroke: #000000" x="660" y="120" width="60" height="40"/>
  <rect style="fill: none; fill-opacity:0; stroke-width: 2; stroke: #000000" x="720" y="120" width="60" height="40"/>
  <rect style="fill: none; fill-opacity:0; stroke-width: 2; stroke: #000000" x="780" y="120" width="60" height="40"/>
  <rect style="fill: none; fill-opacity:0; stroke-width: 2; stroke: #000000" x="840" y="120" width="60" height="40"/>
  <rect style="fill: none; fill-opacity:0; stroke-width: 2; stroke: #000000" x="900" y="120" width="60" height="40"/>
  <rect style="fill: none; fill-opacity:0; stroke-width: 2; stroke: #000000" x="960" y="120" width="60" height="40"/>
  <rect style="fill: none; fill-opacity:0; stroke-width: 2; stroke: #000000" x="1020" y="120" width="60" height="40"/>
  <rect style="fill: none; fill-opacity:0; stroke-width: 2; stroke: #000000" x="1080" y="120" width="60" height="40"/>
  <line style="fill: none; fill-opacity:0; stroke-width: 2; stroke-dasharray: 4; stroke: #000000" x1="600" y1="100" x2="600" y2="180"/>
  <line style="fill: none; fill-opacity:0; stroke-width: 2; stroke-dasharray: 4; stroke: #000000" x1="960" y1="100" x2="960" y2="180"/>
  <line style="fill: none; fill-opacity:0; stroke-width: 2; stroke-dasharray: 4; stroke: #000000" x1="780" y1="100" x2="780" y2="180"/>
  <text font-size="22.5778" style="fill: #000000;text-anchor:start;font-family:sans-serif;font-style:normal;font-weight:normal" x="474.658" y="95.5">
    <tspan x="474.658" y="95.5">row #0</tspan>
  </text>
  <text font-size="22.5778" style="fill: #000000;text-anchor:start;font-family:sans-serif;font-style:normal;font-weight:normal" x="651.658" y="94.5">
    <tspan x="651.658" y="94.5">row #1</tspan>
  </text>
  <text font-size="22.5778" style="fill: #000000;text-anchor:start;font-family:sans-serif;font-style:normal;font-weight:normal" x="834.658" y="96.5">
    <tspan x="834.658" y="96.5">row #2</tspan>
  </text>
  <text font-size="22.5778" style="fill: #000000;text-anchor:start;font-family:sans-serif;font-style:normal;font-weight:normal" x="1007.56" y="95">
    <tspan x="1007.56" y="95">row #3</tspan>
  </text>
</svg>
