<?xml version="1.0" encoding="UTF-8" standalone="no"?>
<!DOCTYPE svg PUBLIC "-//W3C//DTD SVG 1.0//EN" "http://www.w3.org/TR/2001/PR-SVG-20010719/DTD/svg10.dtd">
<svg width="48cm" height="21cm" viewBox="192 19 949 402" xmlns="http://www.w3.org/2000/svg" xmlns:xlink="http://www.w3.org/1999/xlink">
  <g>
    <rect style="fill: #ffffff" x="480" y="140" width="60" height="60"/>
    <rect style="fill: none; fill-opacity:0; stroke-width: 2; stroke: #000000" x="480" y="140" width="60" height="60"/>
  </g>
  <g>
    <rect style="fill: #ffffff" x="480" y="240" width="60" height="60"/>
    <rect style="fill: none; fill-opacity:0; stroke-width: 2; stroke: #000000" x="480" y="240" width="60" height="60"/>
  </g>
  <g>
    <rect style="fill: #ffffff" x="840" y="140" width="60" height="60"/>
    <rect style="fill: none; fill-opacity:0; stroke-width: 2; stroke: #000000" x="840" y="140" width="60" height="60"/>
  </g>
  <g>
    <rect style="fill: #ffffff" x="540" y="240" width="60" height="60"/>
    <rect style="fill: none; fill-opacity:0; stroke-width: 2; stroke: #000000" x="540" y="240" width="60" height="60"/>
  </g>
  <text font-size="28.2222" style="fill: #000000;text-anchor:start;font-family:monospace;font-style:normal;font-weight:normal" x="680" y="180">
    <tspan x="680" y="180">c</tspan>
  </text>
  <g>
    <rect style="fill: #ffffff" x="480" y="340" width="60" height="60"/>
    <rect style="fill: none; fill-opacity:0; stroke-width: 2; stroke: #000000" x="480" y="340" width="60" height="60"/>
  </g>
  <g>
    <rect style="fill: #ffffff" x="540" y="340" width="60" height="60"/>
    <rect style="fill: none; fill-opacity:0; stroke-width: 2; stroke: #000000" x="540" y="340" width="60" height="60"/>
  </g>
  <g>
    <rect style="fill: #ffffff" x="600" y="340" width="60" height="60"/>
    <rect style="fill: none; fill-opacity:0; stroke-width: 2; stroke: #000000" x="600" y="340" width="60" height="60"/>
  </g>
  <g>
    <rect style="fill: #ffffff" x="660" y="340" width="60" height="60"/>
    <rect style="fill: none; fill-opacity:0; stroke-width: 2; stroke: #000000" x="660" y="340" width="60" height="60"/>
  </g>
  <g>
    <rect style="fill: #ffffff" x="300" y="120" width="100" height="100"/>
    <rect style="fill: none; fill-opacity:0; stroke-width: 2; stroke: #000000" x="300" y="120" width="100" height="100"/>
  </g>
  <g>
    <rect style="fill: #ffffff" x="300" y="220" width="100" height="100"/>
    <rect style="fill: none; fill-opacity:0; stroke-width: 2; stroke: #000000" x="300" y="220" width="100" height="100"/>
  </g>
  <text font-size="12.8" style="fill: #000000;text-anchor:start;font-family:sans-serif;font-style:normal;font-weight:normal" x="560" y="160">
    <tspan x="560" y="160"></tspan>
  </text>
  <text font-size="12.8" style="fill: #000000;text-anchor:start;font-family:sans-serif;font-style:normal;font-weight:normal" x="500" y="280">
    <tspan x="500" y="280"></tspan>
  </text>
  <text font-size="12.8" style="fill: #000000;text-anchor:start;font-family:sans-serif;font-style:normal;font-weight:normal" x="500" y="360">
    <tspan x="500" y="360"></tspan>
  </text>
  <text font-size="12.8" style="fill: #000000;text-anchor:start;font-family:sans-serif;font-style:normal;font-weight:normal" x="560" y="360">
    <tspan x="560" y="360"></tspan>
  </text>
  <text font-size="12.8" style="fill: #000000;text-anchor:start;font-family:sans-serif;font-style:normal;font-weight:normal" x="620" y="360">
    <tspan x="620" y="360"></tspan>
  </text>
  <text font-size="12.8" style="fill: #000000;text-anchor:start;font-family:sans-serif;font-style:normal;font-weight:normal" x="680" y="360">
    <tspan x="680" y="360"></tspan>
  </text>
  <text font-size="12.8" style="fill: #000000;text-anchor:start;font-family:sans-serif;font-style:normal;font-weight:normal" x="620" y="180">
    <tspan x="620" y="180"></tspan>
  </text>
  <g>
    <g>
      <rect style="fill: #ffffff" x="1080" y="140" width="60" height="60"/>
      <rect style="fill: none; fill-opacity:0; stroke-width: 2; stroke: #000000" x="1080" y="140" width="60" height="60"/>
    </g>
    <text font-size="28.2222" style="fill: #000000;text-anchor:start;font-family:monospace;font-style:normal;font-weight:normal" x="1091" y="180">
      <tspan x="1091" y="180">\0</tspan>
    </text>
  </g>
  <g>
    <g>
      <rect style="fill: #ffffff" x="780" y="240" width="60" height="60"/>
      <rect style="fill: none; fill-opacity:0; stroke-width: 2; stroke: #000000" x="780" y="240" width="60" height="60"/>
    </g>
    <text font-size="28.2222" style="fill: #000000;text-anchor:start;font-family:monospace;font-style:normal;font-weight:normal" x="791" y="280">
      <tspan x="791" y="280">\0</tspan>
    </text>
  </g>
  <g>
    <g>
      <rect style="fill: #ffffff" x="900" y="340" width="60" height="60"/>
      <rect style="fill: none; fill-opacity:0; stroke-width: 2; stroke: #000000" x="900" y="340" width="60" height="60"/>
    </g>
    <text font-size="28.2222" style="fill: #000000;text-anchor:start;font-family:monospace;font-style:normal;font-weight:normal" x="911" y="380">
      <tspan x="911" y="380">\0</tspan>
    </text>
  </g>
  <g>
    <rect style="fill: #ffffff" x="300" y="320" width="100" height="100"/>
    <rect style="fill: none; fill-opacity:0; stroke-width: 2; stroke: #000000" x="300" y="320" width="100" height="100"/>
  </g>
  <g>
    <line style="fill: none; fill-opacity:0; stroke-width: 2; stroke: #000000" x1="400.988" y1="170" x2="470.264" y2="170"/>
    <polygon style="fill: #000000" points="477.764,170 467.764,175 470.264,170 467.764,165 "/>
    <polygon style="fill: none; fill-opacity:0; stroke-width: 2; stroke: #000000" points="477.764,170 467.764,175 470.264,170 467.764,165 "/>
  </g>
  <g>
    <line style="fill: none; fill-opacity:0; stroke-width: 2; stroke: #000000" x1="400.988" y1="270" x2="470.264" y2="270"/>
    <polygon style="fill: #000000" points="477.764,270 467.764,275 470.264,270 467.764,265 "/>
    <polygon style="fill: none; fill-opacity:0; stroke-width: 2; stroke: #000000" points="477.764,270 467.764,275 470.264,270 467.764,265 "/>
  </g>
  <g>
    <line style="fill: none; fill-opacity:0; stroke-width: 2; stroke: #000000" x1="400.977" y1="370" x2="469.287" y2="370"/>
    <polygon style="fill: #000000" points="476.787,370 466.787,375 469.287,370 466.787,365 "/>
    <polygon style="fill: none; fill-opacity:0; stroke-width: 2; stroke: #000000" points="476.787,370 466.787,375 469.287,370 466.787,365 "/>
  </g>
  <g>
    <line style="fill: none; fill-opacity:0; stroke-width: 2; stroke: #000000" x1="320.334" y1="81.0034" x2="329.924" y2="109.772"/>
    <polygon style="fill: #000000" points="332.296,116.887 324.39,108.982 329.924,109.772 333.877,105.819 "/>
    <polygon style="fill: none; fill-opacity:0; stroke-width: 2; stroke: #000000" points="332.296,116.887 324.39,108.982 329.924,109.772 333.877,105.819 "/>
  </g>
  <text font-size="12.8" style="fill: #000000;text-anchor:start;font-family:sans-serif;font-style:normal;font-weight:normal" x="140" y="100">
    <tspan x="140" y="100"></tspan>
  </text>
  <g>
    <g>
      <rect style="fill: #ffffff" x="260" y="20" width="100" height="60"/>
      <rect style="fill: none; fill-opacity:0; stroke-width: 2; stroke: #000000" x="260" y="20" width="100" height="60"/>
    </g>
    <text font-size="28.2222" style="fill: #000000;text-anchor:start;font-family:sans-serif;font-style:normal;font-weight:normal" x="280" y="60">
      <tspan x="280" y="60">argv</tspan>
    </text>
  </g>
  <text font-size="12.8" style="fill: #000000;text-anchor:start;font-family:sans-serif;font-style:normal;font-weight:normal" x="900" y="160">
    <tspan x="900" y="160"></tspan>
  </text>
  <text font-size="12.8" style="fill: #000000;text-anchor:start;font-family:sans-serif;font-style:normal;font-weight:normal" x="900" y="180">
    <tspan x="900" y="180"></tspan>
  </text>
  <text font-size="12.8" style="fill: #000000;text-anchor:start;font-family:sans-serif;font-style:normal;font-weight:normal" x="840" y="180">
    <tspan x="840" y="180"></tspan>
  </text>
  <text font-size="28.2222" style="fill: #000000;text-anchor:start;font-family:sans-serif;font-style:normal;font-weight:normal" x="500" y="60">
    <tspan x="500" y="60">argc == 3</tspan>
  </text>
  <text font-size="12.8" style="fill: #000000;text-anchor:start;font-family:sans-serif;font-style:normal;font-weight:normal" x="540" y="60">
    <tspan x="540" y="60"></tspan>
  </text>
  <text font-size="28.2222" style="fill: #000000;text-anchor:start;font-family:sans-serif;font-style:normal;font-weight:normal" x="192" y="178">
    <tspan x="192" y="178">argv[0]</tspan>
  </text>
  <text font-size="28.2222" style="fill: #000000;text-anchor:start;font-family:sans-serif;font-style:normal;font-weight:normal" x="192" y="377">
    <tspan x="192" y="377">argv[2]</tspan>
  </text>
  <text font-size="28.2222" style="fill: #000000;text-anchor:start;font-family:sans-serif;font-style:normal;font-weight:normal" x="192" y="279">
    <tspan x="192" y="279">argv[1]</tspan>
  </text>
  <text font-size="12.8" style="fill: #000000;text-anchor:start;font-family:sans-serif;font-style:normal;font-weight:normal" x="240" y="260">
    <tspan x="240" y="260"></tspan>
  </text>
  <g>
    <rect style="fill: #ffffff" x="540" y="140" width="60" height="60"/>
    <rect style="fill: none; fill-opacity:0; stroke-width: 2; stroke: #000000" x="540" y="140" width="60" height="60"/>
  </g>
  <g>
    <rect style="fill: #ffffff" x="660" y="140" width="60" height="60"/>
    <rect style="fill: none; fill-opacity:0; stroke-width: 2; stroke: #000000" x="660" y="140" width="60" height="60"/>
  </g>
  <g>
    <rect style="fill: #ffffff" x="600" y="140" width="60" height="60"/>
    <rect style="fill: none; fill-opacity:0; stroke-width: 2; stroke: #000000" x="600" y="140" width="60" height="60"/>
  </g>
  <g>
    <rect style="fill: #ffffff" x="720" y="140" width="60" height="60"/>
    <rect style="fill: none; fill-opacity:0; stroke-width: 2; stroke: #000000" x="720" y="140" width="60" height="60"/>
  </g>
  <g>
    <rect style="fill: #ffffff" x="780" y="140" width="60" height="60"/>
    <rect style="fill: none; fill-opacity:0; stroke-width: 2; stroke: #000000" x="780" y="140" width="60" height="60"/>
  </g>
  <g>
    <rect style="fill: #ffffff" x="900" y="140" width="60" height="60"/>
    <rect style="fill: none; fill-opacity:0; stroke-width: 2; stroke: #000000" x="900" y="140" width="60" height="60"/>
  </g>
  <g>
    <rect style="fill: #ffffff" x="960" y="140" width="60" height="60"/>
    <rect style="fill: none; fill-opacity:0; stroke-width: 2; stroke: #000000" x="960" y="140" width="60" height="60"/>
  </g>
  <g>
    <rect style="fill: #ffffff" x="1020" y="140" width="60" height="60"/>
    <rect style="fill: none; fill-opacity:0; stroke-width: 2; stroke: #000000" x="1020" y="140" width="60" height="60"/>
  </g>
  <text font-size="12.8" style="fill: #000000;text-anchor:start;font-family:sans-serif;font-style:normal;font-weight:normal" x="1000" y="380">
    <tspan x="1000" y="380"></tspan>
  </text>
  <text font-size="28.2222" style="fill: #000000;text-anchor:start;font-family:monospace;font-style:normal;font-weight:normal" x="680" y="180">
    <tspan x="680" y="180">c</tspan>
  </text>
  <text font-size="28.2222" style="fill: #000000;text-anchor:start;font-family:monospace;font-style:normal;font-weight:normal" x="740" y="180">
    <tspan x="740" y="180">o</tspan>
  </text>
  <text font-size="28.2222" style="fill: #000000;text-anchor:start;font-family:monospace;font-style:normal;font-weight:normal" x="560" y="180">
    <tspan x="560" y="180">y</tspan>
  </text>
  <text font-size="28.2222" style="fill: #000000;text-anchor:start;font-family:monospace;font-style:normal;font-weight:normal" x="500" y="180">
    <tspan x="500" y="180">m</tspan>
  </text>
  <text font-size="28.2222" style="fill: #000000;text-anchor:start;font-family:monospace;font-style:normal;font-weight:normal" x="620" y="180">
    <tspan x="620" y="180">-</tspan>
  </text>
  <text font-size="28.2222" style="fill: #000000;text-anchor:start;font-family:monospace;font-style:normal;font-weight:normal" x="800" y="180">
    <tspan x="800" y="180">m</tspan>
  </text>
  <text font-size="28.2222" style="fill: #000000;text-anchor:start;font-family:monospace;font-style:normal;font-weight:normal" x="860" y="180">
    <tspan x="860" y="180">m</tspan>
  </text>
  <text font-size="28.2222" style="fill: #000000;text-anchor:start;font-family:monospace;font-style:normal;font-weight:normal" x="920" y="180">
    <tspan x="920" y="180">a</tspan>
  </text>
  <text font-size="28.2222" style="fill: #000000;text-anchor:start;font-family:monospace;font-style:normal;font-weight:normal" x="980" y="180">
    <tspan x="980" y="180">n</tspan>
  </text>
  <text font-size="28.2222" style="fill: #000000;text-anchor:start;font-family:monospace;font-style:normal;font-weight:normal" x="1040" y="180">
    <tspan x="1040" y="180">d</tspan>
  </text>
  <g>
    <rect style="fill: #ffffff" x="600" y="240" width="60" height="60"/>
    <rect style="fill: none; fill-opacity:0; stroke-width: 2; stroke: #000000" x="600" y="240" width="60" height="60"/>
  </g>
  <g>
    <rect style="fill: #ffffff" x="720" y="240" width="60" height="60"/>
    <rect style="fill: none; fill-opacity:0; stroke-width: 2; stroke: #000000" x="720" y="240" width="60" height="60"/>
  </g>
  <g>
    <rect style="fill: #ffffff" x="660" y="240" width="60" height="60"/>
    <rect style="fill: none; fill-opacity:0; stroke-width: 2; stroke: #000000" x="660" y="240" width="60" height="60"/>
  </g>
  <text font-size="28.2222" style="fill: #000000;text-anchor:start;font-family:monospace;font-style:normal;font-weight:normal" x="500" y="280">
    <tspan x="500" y="280">h</tspan>
  </text>
  <text font-size="28.2222" style="fill: #000000;text-anchor:start;font-family:monospace;font-style:normal;font-weight:normal" x="560" y="280">
    <tspan x="560" y="280">a</tspan>
  </text>
  <text font-size="28.2222" style="fill: #000000;text-anchor:start;font-family:monospace;font-style:normal;font-weight:normal" x="620" y="280">
    <tspan x="620" y="280">l</tspan>
  </text>
  <text font-size="28.2222" style="fill: #000000;text-anchor:start;font-family:monospace;font-style:normal;font-weight:normal" x="680" y="280">
    <tspan x="680" y="280">l</tspan>
  </text>
  <text font-size="28.2222" style="fill: #000000;text-anchor:start;font-family:monospace;font-style:normal;font-weight:normal" x="500" y="380">
    <tspan x="500" y="380">s</tspan>
  </text>
  <text font-size="28.2222" style="fill: #000000;text-anchor:start;font-family:monospace;font-style:normal;font-weight:normal" x="740" y="280">
    <tspan x="740" y="280">o</tspan>
  </text>
  <g>
    <rect style="fill: #ffffff" x="840" y="340" width="60" height="60"/>
    <rect style="fill: none; fill-opacity:0; stroke-width: 2; stroke: #000000" x="840" y="340" width="60" height="60"/>
  </g>
  <g>
    <rect style="fill: #ffffff" x="780" y="340" width="60" height="60"/>
    <rect style="fill: none; fill-opacity:0; stroke-width: 2; stroke: #000000" x="780" y="340" width="60" height="60"/>
  </g>
  <g>
    <rect style="fill: #ffffff" x="720" y="340" width="60" height="60"/>
    <rect style="fill: none; fill-opacity:0; stroke-width: 2; stroke: #000000" x="720" y="340" width="60" height="60"/>
  </g>
  <text font-size="28.2222" style="fill: #000000;text-anchor:start;font-family:monospace;font-style:normal;font-weight:normal" x="560" y="380">
    <tspan x="560" y="380">u</tspan>
  </text>
  <text font-size="28.2222" style="fill: #000000;text-anchor:start;font-family:monospace;font-style:normal;font-weight:normal" x="620" y="380">
    <tspan x="620" y="380">e</tspan>
  </text>
  <text font-size="28.2222" style="fill: #000000;text-anchor:start;font-family:monospace;font-style:normal;font-weight:normal" x="680" y="380">
    <tspan x="680" y="380">s</tspan>
  </text>
  <text font-size="28.2222" style="fill: #000000;text-anchor:start;font-family:monospace;font-style:normal;font-weight:normal" x="740" y="380">
    <tspan x="740" y="380">s</tspan>
  </text>
  <text font-size="28.2222" style="fill: #000000;text-anchor:start;font-family:monospace;font-style:normal;font-weight:normal" x="800" y="380">
    <tspan x="800" y="380">e</tspan>
  </text>
  <text font-size="28.2222" style="fill: #000000;text-anchor:start;font-family:monospace;font-style:normal;font-weight:normal" x="860" y="380">
    <tspan x="860" y="380">r</tspan>
  </text>
</svg>
