<?xml version="1.0" encoding="UTF-8" standalone="no"?>
<!DOCTYPE svg PUBLIC "-//W3C//DTD SVG 1.0//EN" "http://www.w3.org/TR/2001/PR-SVG-20010719/DTD/svg10.dtd">
<svg width="14cm" height="6cm" viewBox="92 -433 271 113" xmlns="http://www.w3.org/2000/svg" xmlns:xlink="http://www.w3.org/1999/xlink">
  <text font-size="12.8" style="fill: #000000;text-anchor:start;font-family:sans-serif;font-style:normal;font-weight:normal" x="92" y="-420.25">
    <tspan x="92" y="-420.25">{</tspan>
    <tspan x="92" y="-404.25">    X x;</tspan>
    <tspan x="92" y="-388.25">    Y y;</tspan>
    <tspan x="92" y="-372.25">    </tspan>
    <tspan x="92" y="-356.25">    if (might_throw())</tspan>
    <tspan x="92" y="-340.25">        return;</tspan>
    <tspan x="92" y="-324.25">}</tspan>
  </text>
  <g>
    <line style="fill: none; fill-opacity:0; stroke-width: 2; stroke: #ff0000" x1="281" y1="-358.25" x2="237.652" y2="-363.975"/>
    <polygon style="fill: #ff0000" points="230.217,-364.957 240.785,-368.605 237.652,-363.975 239.476,-358.691 "/>
    <polygon style="fill: none; fill-opacity:0; stroke-width: 2; stroke: #ff0000" points="230.217,-364.957 240.785,-368.605 237.652,-363.975 239.476,-358.691 "/>
  </g>
  <g>
    <line style="fill: none; fill-opacity:0; stroke-width: 2; stroke: #ff0000" x1="283.478" y1="-336.148" x2="108.722" y2="-326.772"/>
    <polygon style="fill: #ff0000" points="101.233,-326.37 110.951,-331.898 108.722,-326.772 111.486,-321.913 "/>
    <polygon style="fill: none; fill-opacity:0; stroke-width: 2; stroke: #ff0000" points="101.233,-326.37 110.951,-331.898 108.722,-326.772 111.486,-321.913 "/>
  </g>
  <g>
    <line style="fill: none; fill-opacity:0; stroke-width: 2; stroke: #ff0000" x1="286.84" y1="-347.92" x2="187.938" y2="-345.779"/>
    <polygon style="fill: #ff0000" points="180.44,-345.616 190.329,-350.832 187.938,-345.779 190.546,-340.834 "/>
    <polygon style="fill: none; fill-opacity:0; stroke-width: 2; stroke: #ff0000" points="180.44,-345.616 190.329,-350.832 187.938,-345.779 190.546,-340.834 "/>
  </g>
  <g>
    <text font-size="12.8" style="fill: #000000;text-anchor:start;font-family:sans-serif;font-style:normal;font-weight:normal" x="295.364" y="-358.818">
      <tspan x="295.364" y="-358.818">cleanup:</tspan>
      <tspan x="295.364" y="-342.818">  ~Y();</tspan>
      <tspan x="295.364" y="-326.818">  ~X();</tspan>
    </text>
    <rect style="fill: none; fill-opacity:0; stroke-width: 2; stroke: #000000" x="291.886" y="-370.624" width="69.7939" height="49.6125"/>
  </g>
</svg>
