<?xml version="1.0" encoding="UTF-8" standalone="no"?>
<!DOCTYPE svg PUBLIC "-//W3C//DTD SVG 1.0//EN" "http://www.w3.org/TR/2001/PR-SVG-20010719/DTD/svg10.dtd">
<svg width="28cm" height="11cm" viewBox="285 182 550 215" xmlns="http://www.w3.org/2000/svg" xmlns:xlink="http://www.w3.org/1999/xlink">
  <g>
    <rect style="fill: #d8e5e5" x="432" y="184" width="200" height="120"/>
    <rect style="fill: none; fill-opacity:0; stroke-width: 2; stroke: #000000" x="432" y="184" width="200" height="120"/>
  </g>
  <g>
    <g>
      <rect style="fill: #ff00d6" x="592" y="204" width="40" height="40"/>
      <rect style="fill: none; fill-opacity:0; stroke-width: 2; stroke: #000000" x="592" y="204" width="40" height="40"/>
    </g>
    <text font-size="22.5778" style="fill: #000000;text-anchor:start;font-family:sans-serif;font-style:normal;font-weight:normal" x="605" y="232">
      <tspan x="605" y="232">1</tspan>
    </text>
  </g>
  <g>
    <line style="fill: none; fill-opacity:0; stroke-width: 2; stroke: #000000" x1="632" y1="224" x2="710.265" y2="223.111"/>
    <polygon style="fill: #000000" points="717.764,223.025 707.822,228.139 710.265,223.111 707.708,218.139 "/>
    <polygon style="fill: none; fill-opacity:0; stroke-width: 2; stroke: #000000" points="717.764,223.025 707.822,228.139 710.265,223.111 707.708,218.139 "/>
  </g>
  <text font-size="12.8" style="fill: #000000;text-anchor:start;font-family:sans-serif;font-style:normal;font-weight:normal" x="702" y="250">
    <tspan x="702" y="250"></tspan>
  </text>
  <g>
    <line style="fill: none; fill-opacity:0; stroke-width: 2; stroke: #000000" x1="372" y1="364" x2="425.116" y2="310.884"/>
    <polygon style="fill: #000000" points="430.419,305.581 426.883,316.188 425.116,310.884 419.812,309.117 "/>
    <polygon style="fill: none; fill-opacity:0; stroke-width: 2; stroke: #000000" points="430.419,305.581 426.883,316.188 425.116,310.884 419.812,309.117 "/>
  </g>
  <text font-size="22.5778" style="fill: #000000;text-anchor:start;font-family:sans-serif;font-style:normal;font-weight:normal" x="294" y="389">
    <tspan x="294" y="389">/etc/passwd</tspan>
  </text>
  <text font-size="22.5778" style="fill: #000000;text-anchor:start;font-family:sans-serif;font-style:normal;font-weight:normal" x="506" y="229">
    <tspan x="506" y="229">grep</tspan>
  </text>
  <g>
    <g>
      <rect style="fill: #ff00d6" x="432" y="264" width="40" height="40"/>
      <rect style="fill: none; fill-opacity:0; stroke-width: 2; stroke: #000000" x="432" y="264" width="40" height="40"/>
    </g>
    <text font-size="22.5778" style="fill: #000000;text-anchor:start;font-family:sans-serif;font-style:normal;font-weight:normal" x="445" y="293.1">
      <tspan x="445" y="293.1">3</tspan>
    </text>
  </g>
  <g>
    <g>
      <rect style="fill: #ff00d6" x="432" y="204" width="40" height="40"/>
      <rect style="fill: none; fill-opacity:0; stroke-width: 2; stroke: #000000" x="432" y="204" width="40" height="40"/>
    </g>
    <text font-size="22.5778" style="fill: #000000;text-anchor:start;font-family:sans-serif;font-style:normal;font-weight:normal" x="445" y="232">
      <tspan x="445" y="232">0</tspan>
    </text>
  </g>
  <g>
    <g>
      <rect style="fill: #ff00d6" x="512" y="264" width="40" height="40"/>
      <rect style="fill: none; fill-opacity:0; stroke-width: 2; stroke: #000000" x="512" y="264" width="40" height="40"/>
    </g>
    <text font-size="22.5778" style="fill: #000000;text-anchor:start;font-family:sans-serif;font-style:normal;font-weight:normal" x="524" y="294">
      <tspan x="524" y="294">2</tspan>
    </text>
  </g>
  <g>
    <line style="fill: none; fill-opacity:0; stroke-width: 2; stroke: #000000" x1="332" y1="224" x2="422.264" y2="224"/>
    <polygon style="fill: #000000" points="429.764,224 419.764,229 422.264,224 419.764,219 "/>
    <polygon style="fill: none; fill-opacity:0; stroke-width: 2; stroke: #000000" points="429.764,224 419.764,229 422.264,224 419.764,219 "/>
  </g>
  <g>
    <line style="fill: none; fill-opacity:0; stroke-width: 2; stroke: #000000" x1="532" y1="304" x2="532" y2="354.264"/>
    <polygon style="fill: #000000" points="532,361.764 527,351.764 532,354.264 537,351.764 "/>
    <polygon style="fill: none; fill-opacity:0; stroke-width: 2; stroke: #000000" points="532,361.764 527,351.764 532,354.264 537,351.764 "/>
  </g>
  <text font-size="22.5778" style="fill: #000000;text-anchor:start;font-family:sans-serif;font-style:normal;font-weight:normal" x="285" y="234">
    <tspan x="285" y="234">TTY</tspan>
  </text>
  <text font-size="22.5778" style="fill: #000000;text-anchor:start;font-family:sans-serif;font-style:normal;font-weight:normal" x="506" y="391">
    <tspan x="506" y="391">TTY</tspan>
  </text>
  <text font-size="22.5778" style="fill: #000000;text-anchor:start;font-family:sans-serif;font-style:normal;font-weight:normal" x="732.5" y="232.758">
    <tspan x="732.5" y="232.758">found.csv</tspan>
  </text>
</svg>
