<?xml version="1.0" encoding="UTF-8" standalone="no"?>
<!DOCTYPE svg PUBLIC "-//W3C//DTD SVG 1.0//EN" "http://www.w3.org/TR/2001/PR-SVG-20010719/DTD/svg10.dtd">
<svg width="25cm" height="11cm" viewBox="314 209 481 213" xmlns="http://www.w3.org/2000/svg" xmlns:xlink="http://www.w3.org/1999/xlink">
  <g>
    <rect style="fill: #d8e5e5" x="461" y="211" width="200" height="120"/>
    <rect style="fill: none; fill-opacity:0; stroke-width: 2; stroke: #000000" x="461" y="211" width="200" height="120"/>
  </g>
  <g>
    <g>
      <rect style="fill: #ff00d6" x="621" y="231" width="40" height="40"/>
      <rect style="fill: none; fill-opacity:0; stroke-width: 2; stroke: #000000" x="621" y="231" width="40" height="40"/>
    </g>
    <text font-size="22.5778" style="fill: #000000;text-anchor:start;font-family:sans-serif;font-style:normal;font-weight:normal" x="634" y="259">
      <tspan x="634" y="259">1</tspan>
    </text>
  </g>
  <g>
    <line style="fill: none; fill-opacity:0; stroke-width: 2; stroke: #000000" x1="661" y1="251" x2="733.265" y2="251.881"/>
    <polygon style="fill: #000000" points="740.764,251.973 730.704,256.85 733.265,251.881 730.826,246.851 "/>
    <polygon style="fill: none; fill-opacity:0; stroke-width: 2; stroke: #000000" points="740.764,251.973 730.704,256.85 733.265,251.881 730.826,246.851 "/>
  </g>
  <text font-size="12.8" style="fill: #000000;text-anchor:start;font-family:sans-serif;font-style:normal;font-weight:normal" x="731" y="277">
    <tspan x="731" y="277"></tspan>
  </text>
  <text font-size="22.5778" style="fill: #000000;text-anchor:start;font-family:sans-serif;font-style:normal;font-weight:normal" x="753" y="262">
    <tspan x="753" y="262">TTY</tspan>
  </text>
  <g>
    <line style="fill: none; fill-opacity:0; stroke-width: 2; stroke: #000000" x1="401" y1="391" x2="454.116" y2="337.884"/>
    <polygon style="fill: #000000" points="459.419,332.581 455.883,343.188 454.116,337.884 448.812,336.117 "/>
    <polygon style="fill: none; fill-opacity:0; stroke-width: 2; stroke: #000000" points="459.419,332.581 455.883,343.188 454.116,337.884 448.812,336.117 "/>
  </g>
  <text font-size="22.5778" style="fill: #000000;text-anchor:start;font-family:sans-serif;font-style:normal;font-weight:normal" x="322" y="417">
    <tspan x="322" y="417">/etc/passwd</tspan>
  </text>
  <text font-size="22.5778" style="fill: #000000;text-anchor:start;font-family:sans-serif;font-style:normal;font-weight:normal" x="535" y="256">
    <tspan x="535" y="256">grep</tspan>
  </text>
  <g>
    <g>
      <rect style="fill: #ff00d6" x="461" y="291" width="40" height="40"/>
      <rect style="fill: none; fill-opacity:0; stroke-width: 2; stroke: #000000" x="461" y="291" width="40" height="40"/>
    </g>
    <text font-size="22.5778" style="fill: #000000;text-anchor:start;font-family:sans-serif;font-style:normal;font-weight:normal" x="474" y="320.1">
      <tspan x="474" y="320.1">3</tspan>
    </text>
  </g>
  <g>
    <g>
      <rect style="fill: #ff00d6" x="461" y="231" width="40" height="40"/>
      <rect style="fill: none; fill-opacity:0; stroke-width: 2; stroke: #000000" x="461" y="231" width="40" height="40"/>
    </g>
    <text font-size="22.5778" style="fill: #000000;text-anchor:start;font-family:sans-serif;font-style:normal;font-weight:normal" x="474" y="259">
      <tspan x="474" y="259">0</tspan>
    </text>
  </g>
  <g>
    <g>
      <rect style="fill: #ff00d6" x="541" y="291" width="40" height="40"/>
      <rect style="fill: none; fill-opacity:0; stroke-width: 2; stroke: #000000" x="541" y="291" width="40" height="40"/>
    </g>
    <text font-size="22.5778" style="fill: #000000;text-anchor:start;font-family:sans-serif;font-style:normal;font-weight:normal" x="553" y="321">
      <tspan x="553" y="321">2</tspan>
    </text>
  </g>
  <g>
    <line style="fill: none; fill-opacity:0; stroke-width: 2; stroke: #000000" x1="361" y1="251" x2="451.264" y2="251"/>
    <polygon style="fill: #000000" points="458.764,251 448.764,256 451.264,251 448.764,246 "/>
    <polygon style="fill: none; fill-opacity:0; stroke-width: 2; stroke: #000000" points="458.764,251 448.764,256 451.264,251 448.764,246 "/>
  </g>
  <g>
    <line style="fill: none; fill-opacity:0; stroke-width: 2; stroke: #000000" x1="561" y1="331" x2="561" y2="381.264"/>
    <polygon style="fill: #000000" points="561,388.764 556,378.764 561,381.264 566,378.764 "/>
    <polygon style="fill: none; fill-opacity:0; stroke-width: 2; stroke: #000000" points="561,388.764 556,378.764 561,381.264 566,378.764 "/>
  </g>
  <text font-size="22.5778" style="fill: #000000;text-anchor:start;font-family:sans-serif;font-style:normal;font-weight:normal" x="314" y="261">
    <tspan x="314" y="261">TTY</tspan>
  </text>
  <text font-size="22.5778" style="fill: #000000;text-anchor:start;font-family:sans-serif;font-style:normal;font-weight:normal" x="535" y="417">
    <tspan x="535" y="417">TTY</tspan>
  </text>
</svg>
