<?xml version="1.0" encoding="UTF-8" standalone="no"?>
<!DOCTYPE svg PUBLIC "-//W3C//DTD SVG 1.0//EN" "http://www.w3.org/TR/2001/PR-SVG-20010719/DTD/svg10.dtd">
<svg width="13cm" height="11cm" viewBox="49 29 259 203" xmlns="http://www.w3.org/2000/svg" xmlns:xlink="http://www.w3.org/1999/xlink">
  <g>
    <rect style="fill: #d8e5e5" x="51" y="30.9" width="120" height="200"/>
    <rect style="fill: none; fill-opacity:0; stroke-width: 2; stroke: #000000" x="51" y="30.9" width="120" height="200"/>
  </g>
  <g>
    <g>
      <rect style="fill: #ff00d6" x="131" y="50.9" width="40" height="40"/>
      <rect style="fill: none; fill-opacity:0; stroke-width: 2; stroke: #000000" x="131" y="50.9" width="40" height="40"/>
    </g>
    <text font-size="22.5778" style="fill: #000000;text-anchor:start;font-family:sans-serif;font-style:normal;font-weight:normal" x="144" y="78.9">
      <tspan x="144" y="78.9">1</tspan>
    </text>
  </g>
  <g>
    <g>
      <rect style="fill: #ff00d6" x="131" y="110.9" width="40" height="40"/>
      <rect style="fill: none; fill-opacity:0; stroke-width: 2; stroke: #000000" x="131" y="110.9" width="40" height="40"/>
    </g>
    <text font-size="22.5778" style="fill: #000000;text-anchor:start;font-family:sans-serif;font-style:normal;font-weight:normal" x="143" y="140.9">
      <tspan x="143" y="140.9">2</tspan>
    </text>
  </g>
  <g>
    <line style="fill: none; fill-opacity:0; stroke-width: 2; stroke: #000000" x1="171" y1="70.9" x2="226.538" y2="152.841"/>
    <polygon style="fill: #000000" points="230.745,159.049 220.996,153.576 226.538,152.841 229.274,147.966 "/>
    <polygon style="fill: none; fill-opacity:0; stroke-width: 2; stroke: #000000" points="230.745,159.049 220.996,153.576 226.538,152.841 229.274,147.966 "/>
  </g>
  <text font-size="22.5778" style="fill: #000000;text-anchor:start;font-family:sans-serif;font-style:normal;font-weight:normal" x="72" y="138.9">
    <tspan x="72" y="138.9">find</tspan>
  </text>
  <g>
    <rect style="fill: #ffffff" x="233" y="82.9" width="70" height="40"/>
    <rect style="fill: none; fill-opacity:0; stroke-width: 2; stroke: #000000" x="233" y="82.9" width="70" height="40"/>
  </g>
  <g>
    <line style="fill: none; fill-opacity:0; stroke-width: 2; stroke: #000000" x1="171" y1="130.9" x2="224.47" y2="174.728"/>
    <polygon style="fill: #000000" points="230.271,179.482 219.367,177.01 224.47,174.728 225.706,169.276 "/>
    <polygon style="fill: none; fill-opacity:0; stroke-width: 2; stroke: #000000" points="230.271,179.482 219.367,177.01 224.47,174.728 225.706,169.276 "/>
  </g>
  <g>
    <g>
      <rect style="fill: #ffffff" x="232" y="140.9" width="75" height="40"/>
      <rect style="fill: none; fill-opacity:0; stroke-width: 2; stroke: #000000" x="232" y="140.9" width="75" height="40"/>
    </g>
    <text font-size="22.5778" style="fill: #000000;text-anchor:start;font-family:sans-serif;font-style:normal;font-weight:normal" x="250" y="169.9">
      <tspan x="250" y="169.9">TTY</tspan>
    </text>
  </g>
  <text font-size="22.5778" style="fill: #000000;text-anchor:start;font-family:sans-serif;font-style:normal;font-weight:normal" x="244" y="110.9">
    <tspan x="244" y="110.9">Pipe</tspan>
  </text>
  <g>
    <g>
      <rect style="fill: #ff00d6" x="131" y="170.9" width="40" height="40"/>
      <rect style="fill: none; fill-opacity:0; stroke-width: 2; stroke: #000000" x="131" y="170.9" width="40" height="40"/>
    </g>
    <text font-size="22.5778" style="fill: #000000;text-anchor:start;font-family:sans-serif;font-style:normal;font-weight:normal" x="144" y="199.9">
      <tspan x="144" y="199.9">3</tspan>
    </text>
  </g>
  <g>
    <line style="fill: none; fill-opacity:0; stroke-width: 2; stroke: #000000" x1="171" y1="190.9" x2="225.158" y2="118.689"/>
    <polygon style="fill: #000000" points="229.658,112.689 227.658,123.689 225.158,118.689 219.658,117.689 "/>
    <polygon style="fill: none; fill-opacity:0; stroke-width: 2; stroke: #000000" points="229.658,112.689 227.658,123.689 225.158,118.689 219.658,117.689 "/>
  </g>
</svg>
