<?xml version="1.0" encoding="UTF-8" standalone="no"?>
<!DOCTYPE svg PUBLIC "-//W3C//DTD SVG 1.0//EN" "http://www.w3.org/TR/2001/PR-SVG-20010719/DTD/svg10.dtd">
<svg width="25cm" height="9cm" viewBox="24 14 492 179" xmlns="http://www.w3.org/2000/svg" xmlns:xlink="http://www.w3.org/1999/xlink">
  <g>
    <rect style="fill: #b3b3b3" x="360.684" y="76" width="19.3421" height="45.1316"/>
    <rect style="fill: none; fill-opacity:0; stroke-width: 1.6; stroke-dasharray: 4; stroke: #000000" x="360.684" y="76" width="19.3421" height="45.1316"/>
    <rect style="fill: none; fill-opacity:0; stroke-width: 0.2; stroke-dasharray: 4; stroke: #000000" x="362.619" y="78.7079" width="15.4737" height="5.15789"/>
    <rect style="fill: none; fill-opacity:0; stroke-width: 0.2; stroke-dasharray: 4; stroke: #000000" x="362.619" y="83.8658" width="15.4737" height="5.15789"/>
    <rect style="fill: none; fill-opacity:0; stroke-width: 0.2; stroke-dasharray: 4; stroke: #000000" x="362.619" y="89.0237" width="15.4737" height="5.15789"/>
    <rect style="fill: none; fill-opacity:0; stroke-width: 0.2; stroke-dasharray: 4; stroke: #000000" x="362.619" y="94.1816" width="15.4737" height="5.15789"/>
    <rect style="fill: none; fill-opacity:0; stroke-width: 0.2; stroke-dasharray: 4; stroke: #000000" x="362.619" y="100.371" width="9.67105" height="3.09474"/>
    <ellipse style="fill: #00ff00" cx="377.125" cy="100.887" rx="0.676974" ry="0.676974"/>
    <ellipse style="fill: none; fill-opacity:0; stroke-width: 0.2; stroke-dasharray: 4; stroke: #000000" cx="377.125" cy="100.887" rx="0.676974" ry="0.676974"/>
    <ellipse style="fill: #ffff00" cx="377.125" cy="102.95" rx="0.676974" ry="0.676974"/>
    <ellipse style="fill: none; fill-opacity:0; stroke-width: 0.2; stroke-dasharray: 4; stroke: #000000" cx="377.125" cy="102.95" rx="0.676974" ry="0.676974"/>
    <rect style="fill: #ffffff" x="373.257" y="101.403" width="2.32105" height="2.06316"/>
    <rect style="fill: none; fill-opacity:0; stroke-width: 0.2; stroke-dasharray: 4; stroke: #000000" x="373.257" y="101.403" width="2.32105" height="2.06316"/>
    <path style="fill: none; fill-opacity:0; stroke-width: 0.2; stroke-dasharray: 4; stroke: #000000" d="M 363.908 107.592 L 363.908,118.875"/>
    <path style="fill: none; fill-opacity:0; stroke-width: 0.2; stroke-dasharray: 4; stroke: #000000" d="M 367.132 107.592 L 367.132,118.875"/>
    <path style="fill: none; fill-opacity:0; stroke-width: 0.2; stroke-dasharray: 4; stroke: #000000" d="M 370.355 107.592 L 370.355,118.875"/>
    <path style="fill: none; fill-opacity:0; stroke-width: 0.2; stroke-dasharray: 4; stroke: #000000" d="M 373.579 107.592 L 373.579,118.875"/>
    <path style="fill: none; fill-opacity:0; stroke-width: 0.2; stroke-dasharray: 4; stroke: #000000" d="M 376.803 107.592 L 376.803,118.875"/>
    <path style="fill: none; fill-opacity:0; stroke-width: 0.2; stroke-dasharray: 4; stroke: #000000" d="M 380.027 107.592 L 380.027,118.875"/>
    <polygon style="fill: #999999" points="356.816,125 360.684,117.263 360.684,121.132 380.027,121.132 380.027,117.263 385.184,125 "/>
    <polygon style="fill: none; fill-opacity:0; stroke-width: 0.2; stroke-dasharray: 4; stroke: #000000" points="356.816,125 360.684,117.263 360.684,121.132 380.027,121.132 380.027,117.263 385.184,125 "/>
    <text font-size="12.8" style="fill: #000000;text-anchor:middle;font-family:sans-serif;font-style:normal;font-weight:normal" x="371" y="138.171">
      <tspan x="371" y="138.171"></tspan>
    </text>
  </g>
  <g>
    <rect style="fill: #ff0000" x="258.5" y="76.5425" width="28.3398" height="56.6795"/>
    <polygon style="fill: #ff0000" points="258.5,76.5425 286.84,76.5425 290.382,73 262.042,73 "/>
    <polygon style="fill: #ff0000" points="286.84,76.5425 290.382,73 290.382,129.68 286.84,133.222 "/>
    <line style="fill: none; fill-opacity:0; stroke-width: 2; stroke-dasharray: 4; stroke: #ffffff" x1="258.5" y1="82.2104" x2="286.84" y2="82.2104"/>
    <line style="fill: none; fill-opacity:0; stroke-width: 2; stroke-dasharray: 4; stroke: #ffffff" x1="290.382" y1="78.668" x2="286.84" y2="82.2104"/>
    <line style="fill: none; fill-opacity:0; stroke-width: 2; stroke-dasharray: 4; stroke: #ffffff" x1="267.002" y1="76.5425" x2="267.002" y2="82.2104"/>
    <line style="fill: none; fill-opacity:0; stroke-width: 2; stroke-dasharray: 4; stroke: #ffffff" x1="267.002" y1="76.5425" x2="270.544" y2="73"/>
    <line style="fill: none; fill-opacity:0; stroke-width: 2; stroke-dasharray: 4; stroke: #ffffff" x1="258.5" y1="93.5463" x2="286.84" y2="93.5463"/>
    <line style="fill: none; fill-opacity:0; stroke-width: 2; stroke-dasharray: 4; stroke: #ffffff" x1="290.382" y1="90.0039" x2="286.84" y2="93.5463"/>
    <line style="fill: none; fill-opacity:0; stroke-width: 2; stroke-dasharray: 4; stroke: #ffffff" x1="278.338" y1="82.2104" x2="278.338" y2="93.5463"/>
    <line style="fill: none; fill-opacity:0; stroke-width: 2; stroke-dasharray: 4; stroke: #ffffff" x1="258.5" y1="104.882" x2="286.84" y2="104.882"/>
    <line style="fill: none; fill-opacity:0; stroke-width: 2; stroke-dasharray: 4; stroke: #ffffff" x1="290.382" y1="101.34" x2="286.84" y2="104.882"/>
    <line style="fill: none; fill-opacity:0; stroke-width: 2; stroke-dasharray: 4; stroke: #ffffff" x1="267.002" y1="93.5463" x2="267.002" y2="104.882"/>
    <line style="fill: none; fill-opacity:0; stroke-width: 2; stroke-dasharray: 4; stroke: #ffffff" x1="258.5" y1="116.218" x2="286.84" y2="116.218"/>
    <line style="fill: none; fill-opacity:0; stroke-width: 2; stroke-dasharray: 4; stroke: #ffffff" x1="290.382" y1="112.676" x2="286.84" y2="116.218"/>
    <line style="fill: none; fill-opacity:0; stroke-width: 2; stroke-dasharray: 4; stroke: #ffffff" x1="278.338" y1="104.882" x2="278.338" y2="116.218"/>
    <line style="fill: none; fill-opacity:0; stroke-width: 2; stroke-dasharray: 4; stroke: #ffffff" x1="258.5" y1="127.554" x2="286.84" y2="127.554"/>
    <line style="fill: none; fill-opacity:0; stroke-width: 2; stroke-dasharray: 4; stroke: #ffffff" x1="290.382" y1="124.012" x2="286.84" y2="127.554"/>
    <line style="fill: none; fill-opacity:0; stroke-width: 2; stroke-dasharray: 4; stroke: #ffffff" x1="267.002" y1="116.218" x2="267.002" y2="127.554"/>
    <line style="fill: none; fill-opacity:0; stroke-width: 2; stroke-dasharray: 4; stroke: #ffffff" x1="278.338" y1="127.554" x2="278.338" y2="133.222"/>
    <line style="fill: none; fill-opacity:0; stroke-width: 1; stroke-dasharray: 4; stroke: #000000" x1="258.5" y1="76.5425" x2="286.84" y2="76.5425"/>
    <line style="fill: none; fill-opacity:0; stroke-width: 1; stroke-dasharray: 4; stroke: #000000" x1="286.84" y1="133.222" x2="286.84" y2="76.5425"/>
    <line style="fill: none; fill-opacity:0; stroke-width: 1; stroke-dasharray: 4; stroke: #000000" x1="286.84" y1="76.5425" x2="290.382" y2="73"/>
    <polyline style="fill: none; fill-opacity:0; stroke-width: 1; stroke-dasharray: 4; stroke: #000000" points="258.5,76.5425 262.042,73 290.382,73 290.382,129.68 286.84,133.222 258.5,133.222 258.5,76.5425 "/>
    <text font-size="12.8" style="fill: #000000;text-anchor:middle;font-family:sans-serif;font-style:normal;font-weight:normal" x="272.67" y="147.937">
      <tspan x="272.67" y="147.937"></tspan>
    </text>
  </g>
  <g>
    <rect style="fill: #b3b3b3" x="162.053" y="73" width="20.5263" height="47.8947"/>
    <rect style="fill: none; fill-opacity:0; stroke-width: 1.6; stroke-dasharray: 4; stroke: #000000" x="162.053" y="73" width="20.5263" height="47.8947"/>
    <rect style="fill: none; fill-opacity:0; stroke-width: 0.2; stroke-dasharray: 4; stroke: #000000" x="164.105" y="75.8737" width="16.4211" height="5.47368"/>
    <rect style="fill: none; fill-opacity:0; stroke-width: 0.2; stroke-dasharray: 4; stroke: #000000" x="164.105" y="81.3474" width="16.4211" height="5.47368"/>
    <rect style="fill: none; fill-opacity:0; stroke-width: 0.2; stroke-dasharray: 4; stroke: #000000" x="164.105" y="86.8211" width="16.4211" height="5.47368"/>
    <rect style="fill: none; fill-opacity:0; stroke-width: 0.2; stroke-dasharray: 4; stroke: #000000" x="164.105" y="92.2947" width="16.4211" height="5.47368"/>
    <rect style="fill: none; fill-opacity:0; stroke-width: 0.2; stroke-dasharray: 4; stroke: #000000" x="164.105" y="98.8632" width="10.2632" height="3.28421"/>
    <ellipse style="fill: #00ff00" cx="179.5" cy="99.4105" rx="0.718421" ry="0.718421"/>
    <ellipse style="fill: none; fill-opacity:0; stroke-width: 0.2; stroke-dasharray: 4; stroke: #000000" cx="179.5" cy="99.4105" rx="0.718421" ry="0.718421"/>
    <ellipse style="fill: #ffff00" cx="179.5" cy="101.6" rx="0.718421" ry="0.718421"/>
    <ellipse style="fill: none; fill-opacity:0; stroke-width: 0.2; stroke-dasharray: 4; stroke: #000000" cx="179.5" cy="101.6" rx="0.718421" ry="0.718421"/>
    <rect style="fill: #ffffff" x="175.395" y="99.9579" width="2.46316" height="2.18947"/>
    <rect style="fill: none; fill-opacity:0; stroke-width: 0.2; stroke-dasharray: 4; stroke: #000000" x="175.395" y="99.9579" width="2.46316" height="2.18947"/>
    <path style="fill: none; fill-opacity:0; stroke-width: 0.2; stroke-dasharray: 4; stroke: #000000" d="M 165.474 106.526 L 165.474,118.5"/>
    <path style="fill: none; fill-opacity:0; stroke-width: 0.2; stroke-dasharray: 4; stroke: #000000" d="M 168.895 106.526 L 168.895,118.5"/>
    <path style="fill: none; fill-opacity:0; stroke-width: 0.2; stroke-dasharray: 4; stroke: #000000" d="M 172.316 106.526 L 172.316,118.5"/>
    <path style="fill: none; fill-opacity:0; stroke-width: 0.2; stroke-dasharray: 4; stroke: #000000" d="M 175.737 106.526 L 175.737,118.5"/>
    <path style="fill: none; fill-opacity:0; stroke-width: 0.2; stroke-dasharray: 4; stroke: #000000" d="M 179.158 106.526 L 179.158,118.5"/>
    <path style="fill: none; fill-opacity:0; stroke-width: 0.2; stroke-dasharray: 4; stroke: #000000" d="M 182.579 106.526 L 182.579,118.5"/>
    <polygon style="fill: #999999" points="157.947,125 162.053,116.789 162.053,120.895 182.579,120.895 182.579,116.789 188.053,125 "/>
    <polygon style="fill: none; fill-opacity:0; stroke-width: 0.2; stroke-dasharray: 4; stroke: #000000" points="157.947,125 162.053,116.789 162.053,120.895 182.579,120.895 182.579,116.789 188.053,125 "/>
    <text font-size="12.8" style="fill: #000000;text-anchor:middle;font-family:sans-serif;font-style:normal;font-weight:normal" x="173" y="138.25">
      <tspan x="173" y="138.25"></tspan>
    </text>
  </g>
  <g>
    <g>
      <rect style="fill: #ffffff" x="421" y="120" width="80" height="40"/>
      <rect style="fill: none; fill-opacity:0; stroke-width: 2; stroke: #000000" x="421" y="120" width="80" height="40"/>
    </g>
    <text font-size="12.8" style="fill: #000000;text-anchor:start;font-family:sans-serif;font-style:normal;font-weight:normal" x="432" y="143">
      <tspan x="432" y="143">blah/1234</tspan>
    </text>
  </g>
  <g>
    <g>
      <rect style="fill: #ffffff" x="421" y="42" width="80" height="40"/>
      <rect style="fill: none; fill-opacity:0; stroke-width: 2; stroke: #000000" x="421" y="42" width="80" height="40"/>
    </g>
    <text font-size="12.8" style="fill: #000000;text-anchor:start;font-family:sans-serif;font-style:normal;font-weight:normal" x="441" y="62">
      <tspan x="441" y="62">sshd/22</tspan>
    </text>
  </g>
  <g>
    <g>
      <rect style="fill: #ffffff" x="50.5" y="39.1" width="80" height="40"/>
      <rect style="fill: none; fill-opacity:0; stroke-width: 2; stroke: #000000" x="50.5" y="39.1" width="80" height="40"/>
    </g>
    <text font-size="12.8" style="fill: #000000;text-anchor:start;font-family:sans-serif;font-style:normal;font-weight:normal" x="62.5" y="63.1">
      <tspan x="62.5" y="63.1">ssh client</tspan>
    </text>
  </g>
  <rect style="fill: none; fill-opacity:0; stroke-width: 2; stroke: #000000" x="26" y="16" width="139" height="176"/>
  <rect style="fill: none; fill-opacity:0; stroke-width: 2; stroke: #000000" x="376.5" y="16.1" width="139" height="176"/>
  <g>
    <line style="fill: none; fill-opacity:0; stroke-width: 2; stroke: #000000" x1="130.5" y1="59.1" x2="154.146" y2="81.2993"/>
    <polygon style="fill: #000000" points="159.614,86.4327 148.901,83.2335 154.146,81.2993 155.746,75.9429 "/>
    <polygon style="fill: none; fill-opacity:0; stroke-width: 2; stroke: #000000" points="159.614,86.4327 148.901,83.2335 154.146,81.2993 155.746,75.9429 "/>
  </g>
  <g>
    <line style="fill: none; fill-opacity:0; stroke-width: 2; stroke: #000000" x1="185" y1="90" x2="248.764" y2="90.618"/>
    <polygon style="fill: #000000" points="256.264,90.6907 246.216,95.5936 248.764,90.618 246.313,85.594 "/>
    <polygon style="fill: none; fill-opacity:0; stroke-width: 2; stroke: #000000" points="256.264,90.6907 246.216,95.5936 248.764,90.618 246.313,85.594 "/>
  </g>
  <g>
    <line style="fill: none; fill-opacity:0; stroke-width: 2; stroke: #000000" x1="286.84" y1="90.7124" x2="351.264" y2="90.9622"/>
    <polygon style="fill: #000000" points="358.764,90.9913 348.745,95.9525 351.264,90.9622 348.783,85.9526 "/>
    <polygon style="fill: none; fill-opacity:0; stroke-width: 2; stroke: #000000" points="358.764,90.9913 348.745,95.9525 351.264,90.9622 348.783,85.9526 "/>
  </g>
  <g>
    <line style="fill: none; fill-opacity:0; stroke-width: 2; stroke: #000000" x1="380.827" y1="92.9335" x2="413.286" y2="67.9399"/>
    <polygon style="fill: #000000" points="419.228,63.3642 414.355,73.4268 413.286,67.9399 408.255,65.5035 "/>
    <polygon style="fill: none; fill-opacity:0; stroke-width: 2; stroke: #000000" points="419.228,63.3642 414.355,73.4268 413.286,67.9399 408.255,65.5035 "/>
  </g>
  <g>
    <g>
      <rect style="fill: #ffffff" x="50.5" y="116.1" width="80" height="40"/>
      <rect style="fill: none; fill-opacity:0; stroke-width: 2; stroke: #000000" x="50.5" y="116.1" width="80" height="40"/>
    </g>
    <text font-size="12.8" style="fill: #000000;text-anchor:start;font-family:sans-serif;font-style:normal;font-weight:normal" x="59.5" y="138.1">
      <tspan x="59.5" y="138.1">blah client</tspan>
    </text>
  </g>
  <g>
    <line style="fill: none; fill-opacity:0; stroke-width: 2; stroke: #ff0000" x1="130.5" y1="136.1" x2="157.872" y2="110.632"/>
    <polygon style="fill: #ff0000" points="163.363,105.523 159.448,115.996 157.872,110.632 152.636,108.674 "/>
    <polygon style="fill: none; fill-opacity:0; stroke-width: 2; stroke: #ff0000" points="163.363,105.523 159.448,115.996 157.872,110.632 152.636,108.674 "/>
  </g>
  <g>
    <line style="fill: none; fill-opacity:0; stroke-width: 2; stroke: #ff0000" x1="182.099" y1="111.989" x2="249.764" y2="111.896"/>
    <polygon style="fill: #ff0000" points="257.264,111.885 247.271,116.899 249.764,111.896 247.257,106.899 "/>
    <polygon style="fill: none; fill-opacity:0; stroke-width: 2; stroke: #ff0000" points="257.264,111.885 247.271,116.899 249.764,111.896 247.257,106.899 "/>
  </g>
  <g>
    <line style="fill: none; fill-opacity:0; stroke-width: 2; stroke: #ff0000" x1="286.84" y1="111.882" x2="352.05" y2="111.974"/>
    <polygon style="fill: #ff0000" points="359.55,111.984 349.543,116.97 352.05,111.974 349.557,106.97 "/>
    <polygon style="fill: none; fill-opacity:0; stroke-width: 2; stroke: #ff0000" points="359.55,111.984 349.543,116.97 352.05,111.974 349.557,106.97 "/>
  </g>
  <g>
    <line style="fill: none; fill-opacity:0; stroke-width: 2; stroke: #ff0000" x1="380.827" y1="108.263" x2="413.36" y2="133.965"/>
    <polygon style="fill: #ff0000" points="419.245,138.614 408.299,136.338 413.36,133.965 414.498,128.491 "/>
    <polygon style="fill: none; fill-opacity:0; stroke-width: 2; stroke: #ff0000" points="419.245,138.614 408.299,136.338 413.36,133.965 414.498,128.491 "/>
  </g>
  <line style="fill: none; fill-opacity:0; stroke-width: 2; stroke-dasharray: 4; stroke: #ff0000" x1="272.5" y1="157" x2="272.67" y2="133.222"/>
  <line style="fill: none; fill-opacity:0; stroke-width: 2; stroke-dasharray: 4; stroke: #000000" x1="274" y1="42" x2="272.67" y2="76.5424"/>
  <g>
    <g>
      <rect style="fill: #ffffff" x="236" y="16" width="76" height="26"/>
      <rect style="fill: none; fill-opacity:0; stroke-width: 2; stroke: #000000" x="236" y="16" width="76" height="26"/>
    </g>
    <text font-size="12.8" style="fill: #000000;text-anchor:start;font-family:sans-serif;font-style:normal;font-weight:normal" x="241" y="33">
      <tspan x="241" y="33">ALLOW 22</tspan>
    </text>
  </g>
  <g>
    <g>
      <rect style="fill: #ffffff" x="228" y="157" width="89" height="29"/>
      <rect style="fill: none; fill-opacity:0; stroke-width: 2; stroke: #ff0000" x="228" y="157" width="89" height="29"/>
    </g>
    <text font-size="12.8" style="fill: #ff0000;text-anchor:start;font-family:sans-serif;font-style:normal;font-weight:normal" x="238" y="176">
      <tspan x="238" y="176">DENY 1234</tspan>
    </text>
  </g>
</svg>
