<?xml version="1.0" encoding="UTF-8" standalone="no"?>
<!DOCTYPE svg PUBLIC "-//W3C//DTD SVG 1.0//EN" "http://www.w3.org/TR/2001/PR-SVG-20010719/DTD/svg10.dtd">
<svg width="25cm" height="9cm" viewBox="24 14 492 179" xmlns="http://www.w3.org/2000/svg" xmlns:xlink="http://www.w3.org/1999/xlink">
  <g>
    <rect style="fill: #b3b3b3" x="359.842" y="72" width="20.9211" height="48.8158"/>
    <rect style="fill: none; fill-opacity:0; stroke-width: 1.6; stroke-dasharray: 4; stroke: #000000" x="359.842" y="72" width="20.9211" height="48.8158"/>
    <rect style="fill: none; fill-opacity:0; stroke-width: 0.2; stroke-dasharray: 4; stroke: #000000" x="361.934" y="74.9289" width="16.7368" height="5.57895"/>
    <rect style="fill: none; fill-opacity:0; stroke-width: 0.2; stroke-dasharray: 4; stroke: #000000" x="361.934" y="80.5079" width="16.7368" height="5.57895"/>
    <rect style="fill: none; fill-opacity:0; stroke-width: 0.2; stroke-dasharray: 4; stroke: #000000" x="361.934" y="86.0868" width="16.7368" height="5.57895"/>
    <rect style="fill: none; fill-opacity:0; stroke-width: 0.2; stroke-dasharray: 4; stroke: #000000" x="361.934" y="91.6658" width="16.7368" height="5.57895"/>
    <rect style="fill: none; fill-opacity:0; stroke-width: 0.2; stroke-dasharray: 4; stroke: #000000" x="361.934" y="98.3605" width="10.4605" height="3.34737"/>
    <ellipse style="fill: #00ff00" cx="377.625" cy="98.9184" rx="0.732237" ry="0.732237"/>
    <ellipse style="fill: none; fill-opacity:0; stroke-width: 0.2; stroke-dasharray: 4; stroke: #000000" cx="377.625" cy="98.9184" rx="0.732237" ry="0.732237"/>
    <ellipse style="fill: #ffff00" cx="377.625" cy="101.15" rx="0.732237" ry="0.732237"/>
    <ellipse style="fill: none; fill-opacity:0; stroke-width: 0.2; stroke-dasharray: 4; stroke: #000000" cx="377.625" cy="101.15" rx="0.732237" ry="0.732237"/>
    <rect style="fill: #ffffff" x="373.441" y="99.4763" width="2.51053" height="2.23158"/>
    <rect style="fill: none; fill-opacity:0; stroke-width: 0.2; stroke-dasharray: 4; stroke: #000000" x="373.441" y="99.4763" width="2.51053" height="2.23158"/>
    <path style="fill: none; fill-opacity:0; stroke-width: 0.2; stroke-dasharray: 4; stroke: #000000" d="M 363.329 106.171 L 363.329,118.375"/>
    <path style="fill: none; fill-opacity:0; stroke-width: 0.2; stroke-dasharray: 4; stroke: #000000" d="M 366.816 106.171 L 366.816,118.375"/>
    <path style="fill: none; fill-opacity:0; stroke-width: 0.2; stroke-dasharray: 4; stroke: #000000" d="M 370.303 106.171 L 370.303,118.375"/>
    <path style="fill: none; fill-opacity:0; stroke-width: 0.2; stroke-dasharray: 4; stroke: #000000" d="M 373.79 106.171 L 373.79,118.375"/>
    <path style="fill: none; fill-opacity:0; stroke-width: 0.2; stroke-dasharray: 4; stroke: #000000" d="M 377.276 106.171 L 377.276,118.375"/>
    <path style="fill: none; fill-opacity:0; stroke-width: 0.2; stroke-dasharray: 4; stroke: #000000" d="M 380.763 106.171 L 380.763,118.375"/>
    <polygon style="fill: #999999" points="355.658,125 359.842,116.632 359.842,120.816 380.763,120.816 380.763,116.632 386.342,125 "/>
    <polygon style="fill: none; fill-opacity:0; stroke-width: 0.2; stroke-dasharray: 4; stroke: #000000" points="355.658,125 359.842,116.632 359.842,120.816 380.763,120.816 380.763,116.632 386.342,125 "/>
    <text font-size="12.8" style="fill: #000000;text-anchor:middle;font-family:sans-serif;font-style:normal;font-weight:normal" x="371" y="140.078">
      <tspan x="371" y="140.078"></tspan>
    </text>
  </g>
  <g>
    <rect style="fill: #ff0000" x="258.382" y="74.4706" width="27.7647" height="55.5294"/>
    <polygon style="fill: #ff0000" points="258.382,74.4706 286.147,74.4706 289.617,71 261.853,71 "/>
    <polygon style="fill: #ff0000" points="286.147,74.4706 289.617,71 289.617,126.529 286.147,130 "/>
    <line style="fill: none; fill-opacity:0; stroke-width: 2; stroke-dasharray: 4; stroke: #ffffff" x1="258.382" y1="80.0235" x2="286.147" y2="80.0235"/>
    <line style="fill: none; fill-opacity:0; stroke-width: 2; stroke-dasharray: 4; stroke: #ffffff" x1="289.617" y1="76.5529" x2="286.147" y2="80.0235"/>
    <line style="fill: none; fill-opacity:0; stroke-width: 2; stroke-dasharray: 4; stroke: #ffffff" x1="266.711" y1="74.4706" x2="266.711" y2="80.0235"/>
    <line style="fill: none; fill-opacity:0; stroke-width: 2; stroke-dasharray: 4; stroke: #ffffff" x1="266.711" y1="74.4706" x2="270.182" y2="71"/>
    <line style="fill: none; fill-opacity:0; stroke-width: 2; stroke-dasharray: 4; stroke: #ffffff" x1="258.382" y1="91.1294" x2="286.147" y2="91.1294"/>
    <line style="fill: none; fill-opacity:0; stroke-width: 2; stroke-dasharray: 4; stroke: #ffffff" x1="289.617" y1="87.6588" x2="286.147" y2="91.1294"/>
    <line style="fill: none; fill-opacity:0; stroke-width: 2; stroke-dasharray: 4; stroke: #ffffff" x1="277.817" y1="80.0235" x2="277.817" y2="91.1294"/>
    <line style="fill: none; fill-opacity:0; stroke-width: 2; stroke-dasharray: 4; stroke: #ffffff" x1="258.382" y1="102.235" x2="286.147" y2="102.235"/>
    <line style="fill: none; fill-opacity:0; stroke-width: 2; stroke-dasharray: 4; stroke: #ffffff" x1="289.617" y1="98.7647" x2="286.147" y2="102.235"/>
    <line style="fill: none; fill-opacity:0; stroke-width: 2; stroke-dasharray: 4; stroke: #ffffff" x1="266.711" y1="91.1294" x2="266.711" y2="102.235"/>
    <line style="fill: none; fill-opacity:0; stroke-width: 2; stroke-dasharray: 4; stroke: #ffffff" x1="258.382" y1="113.341" x2="286.147" y2="113.341"/>
    <line style="fill: none; fill-opacity:0; stroke-width: 2; stroke-dasharray: 4; stroke: #ffffff" x1="289.617" y1="109.871" x2="286.147" y2="113.341"/>
    <line style="fill: none; fill-opacity:0; stroke-width: 2; stroke-dasharray: 4; stroke: #ffffff" x1="277.817" y1="102.235" x2="277.817" y2="113.341"/>
    <line style="fill: none; fill-opacity:0; stroke-width: 2; stroke-dasharray: 4; stroke: #ffffff" x1="258.382" y1="124.447" x2="286.147" y2="124.447"/>
    <line style="fill: none; fill-opacity:0; stroke-width: 2; stroke-dasharray: 4; stroke: #ffffff" x1="289.617" y1="120.976" x2="286.147" y2="124.447"/>
    <line style="fill: none; fill-opacity:0; stroke-width: 2; stroke-dasharray: 4; stroke: #ffffff" x1="266.711" y1="113.341" x2="266.711" y2="124.447"/>
    <line style="fill: none; fill-opacity:0; stroke-width: 2; stroke-dasharray: 4; stroke: #ffffff" x1="277.817" y1="124.447" x2="277.817" y2="130"/>
    <line style="fill: none; fill-opacity:0; stroke-width: 1; stroke-dasharray: 4; stroke: #000000" x1="258.382" y1="74.4706" x2="286.147" y2="74.4706"/>
    <line style="fill: none; fill-opacity:0; stroke-width: 1; stroke-dasharray: 4; stroke: #000000" x1="286.147" y1="130" x2="286.147" y2="74.4706"/>
    <line style="fill: none; fill-opacity:0; stroke-width: 1; stroke-dasharray: 4; stroke: #000000" x1="286.147" y1="74.4706" x2="289.617" y2="71"/>
    <polyline style="fill: none; fill-opacity:0; stroke-width: 1; stroke-dasharray: 4; stroke: #000000" points="258.382,74.4706 261.853,71 289.617,71 289.617,126.529 286.147,130 258.382,130 258.382,74.4706 "/>
    <text font-size="12.8" style="fill: #000000;text-anchor:middle;font-family:sans-serif;font-style:normal;font-weight:normal" x="272.264" y="146.459">
      <tspan x="272.264" y="146.459"></tspan>
    </text>
  </g>
  <g>
    <rect style="fill: #b3b3b3" x="161.632" y="73" width="21.3158" height="49.7368"/>
    <rect style="fill: none; fill-opacity:0; stroke-width: 1.6; stroke-dasharray: 4; stroke: #000000" x="161.632" y="73" width="21.3158" height="49.7368"/>
    <rect style="fill: none; fill-opacity:0; stroke-width: 0.2; stroke-dasharray: 4; stroke: #000000" x="163.763" y="75.9842" width="17.0526" height="5.68421"/>
    <rect style="fill: none; fill-opacity:0; stroke-width: 0.2; stroke-dasharray: 4; stroke: #000000" x="163.763" y="81.6684" width="17.0526" height="5.68421"/>
    <rect style="fill: none; fill-opacity:0; stroke-width: 0.2; stroke-dasharray: 4; stroke: #000000" x="163.763" y="87.3526" width="17.0526" height="5.68421"/>
    <rect style="fill: none; fill-opacity:0; stroke-width: 0.2; stroke-dasharray: 4; stroke: #000000" x="163.763" y="93.0368" width="17.0526" height="5.68421"/>
    <rect style="fill: none; fill-opacity:0; stroke-width: 0.2; stroke-dasharray: 4; stroke: #000000" x="163.763" y="99.8579" width="10.6579" height="3.41053"/>
    <ellipse style="fill: #00ff00" cx="179.75" cy="100.426" rx="0.746053" ry="0.746053"/>
    <ellipse style="fill: none; fill-opacity:0; stroke-width: 0.2; stroke-dasharray: 4; stroke: #000000" cx="179.75" cy="100.426" rx="0.746053" ry="0.746053"/>
    <ellipse style="fill: #ffff00" cx="179.75" cy="102.7" rx="0.746053" ry="0.746053"/>
    <ellipse style="fill: none; fill-opacity:0; stroke-width: 0.2; stroke-dasharray: 4; stroke: #000000" cx="179.75" cy="102.7" rx="0.746053" ry="0.746053"/>
    <rect style="fill: #ffffff" x="175.487" y="100.995" width="2.55789" height="2.27368"/>
    <rect style="fill: none; fill-opacity:0; stroke-width: 0.2; stroke-dasharray: 4; stroke: #000000" x="175.487" y="100.995" width="2.55789" height="2.27368"/>
    <path style="fill: none; fill-opacity:0; stroke-width: 0.2; stroke-dasharray: 4; stroke: #000000" d="M 165.184 107.816 L 165.184,120.25"/>
    <path style="fill: none; fill-opacity:0; stroke-width: 0.2; stroke-dasharray: 4; stroke: #000000" d="M 168.737 107.816 L 168.737,120.25"/>
    <path style="fill: none; fill-opacity:0; stroke-width: 0.2; stroke-dasharray: 4; stroke: #000000" d="M 172.289 107.816 L 172.289,120.25"/>
    <path style="fill: none; fill-opacity:0; stroke-width: 0.2; stroke-dasharray: 4; stroke: #000000" d="M 175.842 107.816 L 175.842,120.25"/>
    <path style="fill: none; fill-opacity:0; stroke-width: 0.2; stroke-dasharray: 4; stroke: #000000" d="M 179.395 107.816 L 179.395,120.25"/>
    <path style="fill: none; fill-opacity:0; stroke-width: 0.2; stroke-dasharray: 4; stroke: #000000" d="M 182.947 107.816 L 182.947,120.25"/>
    <polygon style="fill: #999999" points="157.368,127 161.632,118.474 161.632,122.737 182.947,122.737 182.947,118.474 188.632,127 "/>
    <polygon style="fill: none; fill-opacity:0; stroke-width: 0.2; stroke-dasharray: 4; stroke: #000000" points="157.368,127 161.632,118.474 161.632,122.737 182.947,122.737 182.947,118.474 188.632,127 "/>
    <text font-size="12.8" style="fill: #000000;text-anchor:middle;font-family:sans-serif;font-style:normal;font-weight:normal" x="173" y="142.104">
      <tspan x="173" y="142.104"></tspan>
    </text>
  </g>
  <g>
    <g>
      <rect style="fill: #ffffff" x="421" y="120" width="80" height="40"/>
      <rect style="fill: none; fill-opacity:0; stroke-width: 2; stroke: #000000" x="421" y="120" width="80" height="40"/>
    </g>
    <text font-size="12.8" style="fill: #000000;text-anchor:start;font-family:sans-serif;font-style:normal;font-weight:normal" x="432" y="143">
      <tspan x="432" y="143">blah/1234</tspan>
    </text>
  </g>
  <g>
    <g>
      <rect style="fill: #ffffff" x="421" y="42" width="80" height="40"/>
      <rect style="fill: none; fill-opacity:0; stroke-width: 2; stroke: #000000" x="421" y="42" width="80" height="40"/>
    </g>
    <text font-size="12.8" style="fill: #000000;text-anchor:start;font-family:sans-serif;font-style:normal;font-weight:normal" x="441" y="62">
      <tspan x="441" y="62">sshd/22</tspan>
    </text>
  </g>
  <g>
    <g>
      <rect style="fill: #ffffff" x="50.5" y="39.1" width="80" height="40"/>
      <rect style="fill: none; fill-opacity:0; stroke-width: 2; stroke: #000000" x="50.5" y="39.1" width="80" height="40"/>
    </g>
    <text font-size="12.8" style="fill: #000000;text-anchor:start;font-family:sans-serif;font-style:normal;font-weight:normal" x="62.5" y="63.1">
      <tspan x="62.5" y="63.1">ssh client</tspan>
    </text>
  </g>
  <rect style="fill: none; fill-opacity:0; stroke-width: 2; stroke: #000000" x="26" y="16" width="139" height="176"/>
  <rect style="fill: none; fill-opacity:0; stroke-width: 2; stroke: #000000" x="376.5" y="16.1" width="139" height="176"/>
  <g>
    <line style="fill: none; fill-opacity:0; stroke-width: 2; stroke: #000000" x1="130.5" y1="59.1" x2="153.814" y2="81.5361"/>
    <polygon style="fill: #000000" points="159.218,86.7367 148.545,83.4052 153.814,81.5361 155.479,76.1998 "/>
    <polygon style="fill: none; fill-opacity:0; stroke-width: 2; stroke: #000000" points="159.218,86.7367 148.545,83.4052 153.814,81.5361 155.479,76.1998 "/>
  </g>
  <g>
    <line style="fill: none; fill-opacity:0; stroke-width: 2; stroke: #000000" x1="185" y1="90" x2="248.648" y2="88.5715"/>
    <polygon style="fill: #000000" points="256.146,88.4032 246.261,93.6263 248.648,88.5715 246.037,83.6288 "/>
    <polygon style="fill: none; fill-opacity:0; stroke-width: 2; stroke: #000000" points="256.146,88.4032 246.261,93.6263 248.648,88.5715 246.037,83.6288 "/>
  </g>
  <g>
    <line style="fill: none; fill-opacity:0; stroke-width: 2; stroke: #000000" x1="286.148" y1="88.353" x2="348.264" y2="88.9123"/>
    <polygon style="fill: #000000" points="355.764,88.9799 345.719,93.8896 348.264,88.9123 345.809,83.89 "/>
    <polygon style="fill: none; fill-opacity:0; stroke-width: 2; stroke: #000000" points="355.764,88.9799 345.719,93.8896 348.264,88.9123 345.809,83.89 "/>
  </g>
  <g>
    <line style="fill: none; fill-opacity:0; stroke-width: 2; stroke: #000000" x1="378.168" y1="92.9768" x2="412.618" y2="63.3484"/>
    <polygon style="fill: #000000" points="418.305,58.458 413.983,68.7694 412.618,63.3484 407.463,61.1877 "/>
    <polygon style="fill: none; fill-opacity:0; stroke-width: 2; stroke: #000000" points="418.305,58.458 413.983,68.7694 412.618,63.3484 407.463,61.1877 "/>
  </g>
  <g>
    <g>
      <rect style="fill: #ffffff" x="47.5" y="116.1" width="80" height="40"/>
      <rect style="fill: none; fill-opacity:0; stroke-width: 2; stroke: #000000" x="47.5" y="116.1" width="80" height="40"/>
    </g>
    <text font-size="12.8" style="fill: #000000;text-anchor:start;font-family:sans-serif;font-style:normal;font-weight:normal" x="56.5" y="138.1">
      <tspan x="56.5" y="138.1">blah client</tspan>
    </text>
  </g>
  <g>
    <line style="fill: none; fill-opacity:0; stroke-width: 2; stroke: #0000ff" x1="87.5" y1="116.1" x2="89.7132" y2="88.8042"/>
    <polygon style="fill: #0000ff" points="90.3193,81.3288 94.4948,91.7001 89.7132,88.8042 84.5275,90.892 "/>
    <polygon style="fill: none; fill-opacity:0; stroke-width: 2; stroke: #0000ff" points="90.3193,81.3288 94.4948,91.7001 89.7132,88.8042 84.5275,90.892 "/>
  </g>
  <g>
    <line style="fill: none; fill-opacity:0; stroke-width: 2; stroke-dasharray: 4; stroke: #000000" x1="186" y1="101" x2="248.647" y2="102.069"/>
    <polygon style="fill: #000000" points="256.146,102.197 246.062,107.026 248.647,102.069 246.233,97.0271 "/>
    <polygon style="fill: none; fill-opacity:0; stroke-width: 2; stroke: #000000" points="256.146,102.197 246.062,107.026 248.647,102.069 246.233,97.0271 "/>
  </g>
  <g>
    <line style="fill: none; fill-opacity:0; stroke-width: 2; stroke-dasharray: 4; stroke: #000000" x1="286.148" y1="102.235" x2="349.264" y2="102.031"/>
    <polygon style="fill: #000000" points="356.764,102.007 346.78,107.039 349.264,102.031 346.748,97.0395 "/>
    <polygon style="fill: none; fill-opacity:0; stroke-width: 2; stroke: #000000" points="356.764,102.007 346.78,107.039 349.264,102.031 346.748,97.0395 "/>
  </g>
  <g>
    <line style="fill: none; fill-opacity:0; stroke-width: 2; stroke-dasharray: 4; stroke: #000000" x1="130.5" y1="67.1" x2="158.351" y2="96.8882"/>
    <polygon style="fill: #000000" points="163.473,102.367 152.991,98.4768 158.351,96.8882 160.296,91.6472 "/>
    <polygon style="fill: none; fill-opacity:0; stroke-width: 2; stroke: #000000" points="163.473,102.367 152.991,98.4768 158.351,96.8882 160.296,91.6472 "/>
  </g>
  <g>
    <line style="fill: none; fill-opacity:0; stroke-width: 2; stroke-dasharray: 4; stroke: #000000" x1="376.5" y1="104.1" x2="412.331" y2="74.5523"/>
    <polygon style="fill: #000000" points="418.117,69.7806 413.583,80.0004 412.331,74.5523 407.221,72.2853 "/>
    <polygon style="fill: none; fill-opacity:0; stroke-width: 2; stroke: #000000" points="418.117,69.7806 413.583,80.0004 412.331,74.5523 407.221,72.2853 "/>
  </g>
  <g>
    <line style="fill: none; fill-opacity:0; stroke-width: 2; stroke: #0000ff" x1="461" y1="82" x2="461" y2="110.264"/>
    <polygon style="fill: #0000ff" points="461,117.764 456,107.764 461,110.264 466,107.764 "/>
    <polygon style="fill: none; fill-opacity:0; stroke-width: 2; stroke: #0000ff" points="461,117.764 456,107.764 461,110.264 466,107.764 "/>
  </g>
  <text font-size="12.8" style="fill: #000000;text-anchor:start;font-family:sans-serif;font-style:normal;font-weight:normal" x="203" y="181">
    <tspan x="203" y="181">Huckepack!</tspan>
  </text>
  <g>
    <line style="fill: none; fill-opacity:0; stroke-width: 2; stroke-dasharray: 4; stroke: #000000" x1="238" y1="166" x2="221.275" y2="119.169"/>
    <polygon style="fill: #000000" points="218.752,112.106 226.824,119.842 221.275,119.169 217.407,123.205 "/>
    <polygon style="fill: none; fill-opacity:0; stroke-width: 2; stroke: #000000" points="218.752,112.106 226.824,119.842 221.275,119.169 217.407,123.205 "/>
  </g>
  <text font-size="12.8" style="fill: #000000;text-anchor:start;font-family:sans-serif;font-style:normal;font-weight:normal" x="51" y="93">
    <tspan x="51" y="93">5678</tspan>
  </text>
</svg>
