<svg xmlns="http://www.w3.org/2000/svg" xmlns:xlink="http://www.w3.org/1999/xlink" contentStyleType="text/css" data-diagram-type="CLASS" height="335px" preserveAspectRatio="none" style="width:550px;height:335px;background:#FFFFFF;" version="1.1" viewBox="0 0 550 335" width="550px" zoomAndPan="magnify"><defs/><g><!--class Sensor--><g class="entity" data-entity="Sensor" data-source-line="2" data-uid="ent0002" id="entity_Sensor"><rect fill="#F1F1F1" height="67.0679" rx="2.5" ry="2.5" style="stroke:#181818;stroke-width:0.5;" width="145.7415" x="34.76" y="7"/><ellipse cx="82.5488" cy="23" fill="#B4A7E5" rx="11" ry="11" style="stroke:#181818;stroke-width:1;"/><path d="M84.6426,29.5 L79.7363,29.5 L79.7363,28.125 L81.1582,27.8125 L81.1582,18.5313 L79.7363,18.1875 L79.7363,16.8281 L84.6426,16.8281 L84.6426,18.1875 L83.2207,18.5313 L83.2207,27.8125 L84.6426,28.125 L84.6426,29.5 Z " fill="#000000"/><text fill="#000000" font-family="sans-serif" font-size="14" font-style="italic" lengthAdjust="spacing" textLength="41.6638" x="103.0488" y="28.432">Sensor</text><line style="stroke:#181818;stroke-width:0.5;" x1="35.76" x2="179.5015" y1="39" y2="39"/><line style="stroke:#181818;stroke-width:0.5;" x1="35.76" x2="179.5015" y1="47" y2="47"/><ellipse cx="45.76" cy="62.034" fill="#84BE84" rx="3" ry="3" style="stroke:#038048;stroke-width:1;"/><text fill="#000000" font-family="sans-serif" font-size="14" lengthAdjust="spacing" textLength="119.7415" x="54.76" y="65.9659">get_temperature()</text></g><!--class FahrenheitSensorAdapter--><g class="entity" data-entity="FahrenheitSensorAdapter" data-source-line="5" data-uid="ent0003" id="entity_FahrenheitSensorAdapter"><rect fill="#F1F1F1" height="67.0679" rx="2.5" ry="2.5" style="stroke:#181818;stroke-width:0.5;" width="201.2594" x="7" y="134.06"/><ellipse cx="22" cy="150.06" fill="#ADD1B2" rx="11" ry="11" style="stroke:#181818;stroke-width:1;"/><path d="M22.1094,145.5913 Q21.1875,145.5913 20.4531,145.9038 Q19.7344,146.2163 19.2344,146.81 Q18.7344,147.3881 18.4531,148.2631 Q18.1875,149.1381 18.1875,150.2319 Q18.1875,151.6694 18.625,152.7163 Q19.0781,153.7631 19.9219,154.31 Q20.7813,154.8569 22.0938,154.8569 Q22.875,154.8569 23.5625,154.7319 Q24.2656,154.5913 25.2656,154.2788 L25.2656,156.1538 Q24.4063,156.4819 23.6406,156.6069 Q22.8906,156.7319 21.875,156.7319 Q19.9531,156.7319 18.6406,155.935 Q17.3438,155.1225 16.6875,153.6538 Q16.0313,152.1694 16.0313,150.2006 Q16.0313,148.7788 16.4219,147.6069 Q16.8281,146.4194 17.6094,145.5444 Q18.3906,144.6694 19.5313,144.2006 Q20.6719,143.7163 22.1406,143.7163 Q23.0938,143.7163 23.9844,143.9194 Q24.8906,144.1069 25.8281,144.5756 L25,146.3569 Q24.2188,145.9819 23.5625,145.7944 Q22.9063,145.5913 22.1094,145.5913 Z " fill="#000000"/><text fill="#000000" font-family="sans-serif" font-size="14" lengthAdjust="spacing" textLength="169.2594" x="36" y="155.492">FahrenheitSensorAdapter</text><line style="stroke:#181818;stroke-width:0.5;" x1="8" x2="207.2594" y1="166.06" y2="166.06"/><line style="stroke:#181818;stroke-width:0.5;" x1="8" x2="207.2594" y1="174.06" y2="174.06"/><ellipse cx="18" cy="189.094" fill="#84BE84" rx="3" ry="3" style="stroke:#038048;stroke-width:1;"/><text fill="#000000" font-family="sans-serif" font-size="14" lengthAdjust="spacing" textLength="119.7415" x="27" y="193.0259">get_temperature()</text></g><!--class FahrenheitSensor--><g class="entity" data-entity="FahrenheitSensor" data-source-line="9" data-uid="ent0005" id="entity_FahrenheitSensor"><rect fill="#F1F1F1" height="67.0679" rx="2.5" ry="2.5" style="stroke:#181818;stroke-width:0.5;" width="156.7735" x="243.24" y="134.06"/><ellipse cx="265.6011" cy="150.06" fill="#B4A7E5" rx="11" ry="11" style="stroke:#181818;stroke-width:1;"/><path d="M267.6948,156.56 L262.7886,156.56 L262.7886,155.185 L264.2104,154.8725 L264.2104,145.5913 L262.7886,145.2475 L262.7886,143.8881 L267.6948,143.8881 L267.6948,145.2475 L266.2729,145.5913 L266.2729,154.8725 L267.6948,155.185 L267.6948,156.56 Z " fill="#000000"/><text fill="#000000" font-family="sans-serif" font-size="14" font-style="italic" lengthAdjust="spacing" textLength="108.4156" x="281.2368" y="155.492">FahrenheitSensor</text><line style="stroke:#181818;stroke-width:0.5;" x1="244.24" x2="399.0135" y1="166.06" y2="166.06"/><line style="stroke:#181818;stroke-width:0.5;" x1="244.24" x2="399.0135" y1="174.06" y2="174.06"/><ellipse cx="254.24" cy="189.094" fill="#84BE84" rx="3" ry="3" style="stroke:#038048;stroke-width:1;"/><text fill="#000000" font-family="sans-serif" font-size="14" lengthAdjust="spacing" textLength="130.7735" x="263.24" y="193.0259">get_temperature_f()</text></g><!--class ConstantFahrenheitSensor--><g class="entity" data-entity="ConstantFahrenheitSensor" data-source-line="14" data-uid="ent0007" id="entity_ConstantFahrenheitSensor"><rect fill="#F1F1F1" height="67.0679" rx="2.5" ry="2.5" style="stroke:#181818;stroke-width:0.5;" width="207.7973" x="96.73" y="261.13"/><ellipse cx="111.73" cy="277.13" fill="#ADD1B2" rx="11" ry="11" style="stroke:#181818;stroke-width:1;"/><path d="M111.8394,272.6613 Q110.9175,272.6613 110.1831,272.9738 Q109.4644,273.2863 108.9644,273.88 Q108.4644,274.4581 108.1831,275.3331 Q107.9175,276.2081 107.9175,277.3019 Q107.9175,278.7394 108.355,279.7863 Q108.8081,280.8331 109.6519,281.38 Q110.5113,281.9269 111.8238,281.9269 Q112.605,281.9269 113.2925,281.8019 Q113.9956,281.6613 114.9956,281.3488 L114.9956,283.2238 Q114.1363,283.5519 113.3706,283.6769 Q112.6206,283.8019 111.605,283.8019 Q109.6831,283.8019 108.3706,283.005 Q107.0738,282.1925 106.4175,280.7238 Q105.7613,279.2394 105.7613,277.2706 Q105.7613,275.8488 106.1519,274.6769 Q106.5581,273.4894 107.3394,272.6144 Q108.1206,271.7394 109.2613,271.2706 Q110.4019,270.7863 111.8706,270.7863 Q112.8238,270.7863 113.7144,270.9894 Q114.6206,271.1769 115.5581,271.6456 L114.73,273.4269 Q113.9488,273.0519 113.2925,272.8644 Q112.6363,272.6613 111.8394,272.6613 Z " fill="#000000"/><text fill="#000000" font-family="sans-serif" font-size="14" lengthAdjust="spacing" textLength="175.7973" x="125.73" y="282.562">ConstantFahrenheitSensor</text><line style="stroke:#181818;stroke-width:0.5;" x1="97.73" x2="303.5273" y1="293.13" y2="293.13"/><line style="stroke:#181818;stroke-width:0.5;" x1="97.73" x2="303.5273" y1="301.13" y2="301.13"/><ellipse cx="107.73" cy="316.164" fill="#84BE84" rx="3" ry="3" style="stroke:#038048;stroke-width:1;"/><text fill="#000000" font-family="sans-serif" font-size="14" lengthAdjust="spacing" textLength="130.7735" x="116.73" y="320.0959">get_temperature_f()</text></g><!--class RandomFahrenheitSensor--><g class="entity" data-entity="RandomFahrenheitSensor" data-source-line="17" data-uid="ent0008" id="entity_RandomFahrenheitSensor"><rect fill="#F1F1F1" height="67.0679" rx="2.5" ry="2.5" style="stroke:#181818;stroke-width:0.5;" width="203.8913" x="339.68" y="261.13"/><ellipse cx="354.68" cy="277.13" fill="#ADD1B2" rx="11" ry="11" style="stroke:#181818;stroke-width:1;"/><path d="M354.7894,272.6613 Q353.8675,272.6613 353.1331,272.9738 Q352.4144,273.2863 351.9144,273.88 Q351.4144,274.4581 351.1331,275.3331 Q350.8675,276.2081 350.8675,277.3019 Q350.8675,278.7394 351.305,279.7863 Q351.7581,280.8331 352.6019,281.38 Q353.4613,281.9269 354.7738,281.9269 Q355.555,281.9269 356.2425,281.8019 Q356.9456,281.6613 357.9456,281.3488 L357.9456,283.2238 Q357.0863,283.5519 356.3206,283.6769 Q355.5706,283.8019 354.555,283.8019 Q352.6331,283.8019 351.3206,283.005 Q350.0238,282.1925 349.3675,280.7238 Q348.7113,279.2394 348.7113,277.2706 Q348.7113,275.8488 349.1019,274.6769 Q349.5081,273.4894 350.2894,272.6144 Q351.0706,271.7394 352.2113,271.2706 Q353.3519,270.7863 354.8206,270.7863 Q355.7738,270.7863 356.6644,270.9894 Q357.5706,271.1769 358.5081,271.6456 L357.68,273.4269 Q356.8988,273.0519 356.2425,272.8644 Q355.5863,272.6613 354.7894,272.6613 Z " fill="#000000"/><text fill="#000000" font-family="sans-serif" font-size="14" lengthAdjust="spacing" textLength="171.8913" x="368.68" y="282.562">RandomFahrenheitSensor</text><line style="stroke:#181818;stroke-width:0.5;" x1="340.68" x2="542.5713" y1="293.13" y2="293.13"/><line style="stroke:#181818;stroke-width:0.5;" x1="340.68" x2="542.5713" y1="301.13" y2="301.13"/><ellipse cx="350.68" cy="316.164" fill="#84BE84" rx="3" ry="3" style="stroke:#038048;stroke-width:1;"/><text fill="#000000" font-family="sans-serif" font-size="14" lengthAdjust="spacing" textLength="130.7735" x="359.68" y="320.0959">get_temperature_f()</text></g><!--reverse link Sensor to FahrenheitSensorAdapter--><g class="link" data-entity-1="Sensor" data-entity-2="FahrenheitSensorAdapter" data-source-line="8" data-uid="lnk4" id="link_Sensor_FahrenheitSensorAdapter"><path codeLine="8" d="M107.63,92.39 C107.63,110.77 107.63,115.61 107.63,133.96" fill="none" id="Sensor-backto-FahrenheitSensorAdapter" style="stroke:#181818;stroke-width:1;stroke-dasharray:7,7;"/><polygon fill="none" points="107.63,74.39,101.63,92.39,113.63,92.39,107.63,74.39" style="stroke:#181818;stroke-width:1;"/></g><!--link FahrenheitSensorAdapter to FahrenheitSensor--><g class="link" data-entity-1="FahrenheitSensorAdapter" data-entity-2="FahrenheitSensor" data-source-line="9" data-uid="lnk6" id="link_FahrenheitSensorAdapter_FahrenheitSensor"><path codeLine="9" d="M208.36,167.6 C219.86,167.6 225.37,167.6 236.87,167.6" fill="none" id="FahrenheitSensorAdapter-to-FahrenheitSensor" style="stroke:#181818;stroke-width:1;"/><polygon fill="#181818" points="242.87,167.6,233.87,163.6,237.87,167.6,233.87,171.6,242.87,167.6" style="stroke:#181818;stroke-width:1;"/></g><!--reverse link FahrenheitSensor to ConstantFahrenheitSensor--><g class="link" data-entity-1="FahrenheitSensor" data-entity-2="ConstantFahrenheitSensor" data-source-line="21" data-uid="lnk9" id="link_FahrenheitSensor_ConstantFahrenheitSensor"><path codeLine="21" d="M277.3214,214.3938 C259.5314,232.7738 249.96,242.68 232.21,261.03" fill="none" id="FahrenheitSensor-backto-ConstantFahrenheitSensor" style="stroke:#181818;stroke-width:1;stroke-dasharray:7,7;"/><polygon fill="none" points="289.84,201.46,273.0101,210.2209,281.6326,218.5667,289.84,201.46" style="stroke:#181818;stroke-width:1;"/></g><!--reverse link FahrenheitSensor to RandomFahrenheitSensor--><g class="link" data-entity-1="FahrenheitSensor" data-entity-2="RandomFahrenheitSensor" data-source-line="22" data-uid="lnk10" id="link_FahrenheitSensor_RandomFahrenheitSensor"><path codeLine="22" d="M365.6238,214.4467 C383.2638,232.8267 392.71,242.68 410.31,261.03" fill="none" id="FahrenheitSensor-backto-RandomFahrenheitSensor" style="stroke:#181818;stroke-width:1;stroke-dasharray:7,7;"/><polygon fill="none" points="353.16,201.46,361.2949,218.6013,369.9527,210.2921,353.16,201.46" style="stroke:#181818;stroke-width:1;"/></g><!--SRC=[oymhIIrAIqnELGXEpIlEBrAevb9Gq5P8Jos9BqdDBKWjIYmfBKhLqEIgvKhEIImkLd1Bp2XApSj8pIo1Q71CIIm06e577zHWcnezFLowkN2PgbkaQuUXYOih4-vgT3dixeXFG_A1StvUSKbYNWaPMeCIyrBoSqdIYE4rI43WSWGEvTWjvW80]--></g></svg>