<svg xmlns="http://www.w3.org/2000/svg" xmlns:xlink="http://www.w3.org/1999/xlink" contentStyleType="text/css" data-diagram-type="CLASS" height="208px" preserveAspectRatio="none" style="width:524px;height:208px;background:#FFFFFF;" version="1.1" viewBox="0 0 524 208" width="524px" zoomAndPan="magnify"><defs/><g><!--class Sensor--><g class="entity" data-entity="Sensor" data-source-line="2" data-uid="ent0002" id="entity_Sensor"><rect fill="#F1F1F1" height="67.0679" rx="2.5" ry="2.5" style="stroke:#181818;stroke-width:0.5;" width="146.7915" x="189" y="7"/><ellipse cx="235.5498" cy="23" fill="#ADD1B2" rx="11" ry="11" style="stroke:#181818;stroke-width:1;"/><path d="M235.6592,18.5313 Q234.7373,18.5313 234.003,18.8438 Q233.2842,19.1563 232.7842,19.75 Q232.2842,20.3281 232.003,21.2031 Q231.7373,22.0781 231.7373,23.1719 Q231.7373,24.6094 232.1748,25.6563 Q232.628,26.7031 233.4717,27.25 Q234.3311,27.7969 235.6436,27.7969 Q236.4248,27.7969 237.1123,27.6719 Q237.8155,27.5313 238.8155,27.2188 L238.8155,29.0938 Q237.9561,29.4219 237.1905,29.5469 Q236.4405,29.6719 235.4248,29.6719 Q233.503,29.6719 232.1905,28.875 Q230.8936,28.0625 230.2373,26.5938 Q229.5811,25.1094 229.5811,23.1406 Q229.5811,21.7188 229.9717,20.5469 Q230.378,19.3594 231.1592,18.4844 Q231.9405,17.6094 233.0811,17.1406 Q234.2217,16.6563 235.6905,16.6563 Q236.6436,16.6563 237.5342,16.8594 Q238.4405,17.0469 239.378,17.5156 L238.5498,19.2969 Q237.7686,18.9219 237.1123,18.7344 Q236.4561,18.5313 235.6592,18.5313 Z " fill="#000000"/><text fill="#000000" font-family="sans-serif" font-size="14" lengthAdjust="spacing" textLength="45.1918" x="256.0498" y="28.432">Sensor</text><line style="stroke:#181818;stroke-width:0.5;" x1="190" x2="334.7915" y1="39" y2="39"/><line style="stroke:#181818;stroke-width:0.5;" x1="190" x2="334.7915" y1="47" y2="47"/><ellipse cx="200" cy="62.034" fill="#84BE84" rx="3" ry="3" style="stroke:#038048;stroke-width:1;"/><text fill="#000000" font-family="sans-serif" font-size="14" lengthAdjust="spacing" textLength="120.7915" x="209" y="65.9659">double get_value()</text></g><!--class MySensor--><g class="entity" data-entity="MySensor" data-source-line="6" data-uid="ent0003" id="entity_MySensor"><rect fill="#F1F1F1" height="67.0679" rx="2.5" ry="2.5" style="stroke:#181818;stroke-width:0.5;" width="146.7915" x="7" y="134.07"/><ellipse cx="44.3928" cy="150.07" fill="#ADD1B2" rx="11" ry="11" style="stroke:#181818;stroke-width:1;"/><path d="M44.5022,145.6013 Q43.5803,145.6013 42.8459,145.9138 Q42.1272,146.2263 41.6272,146.82 Q41.1272,147.3981 40.8459,148.2731 Q40.5803,149.1481 40.5803,150.2419 Q40.5803,151.6794 41.0178,152.7263 Q41.4709,153.7731 42.3147,154.32 Q43.174,154.8669 44.4865,154.8669 Q45.2678,154.8669 45.9553,154.7419 Q46.6584,154.6013 47.6584,154.2888 L47.6584,156.1638 Q46.799,156.4919 46.0334,156.6169 Q45.2834,156.7419 44.2678,156.7419 Q42.3459,156.7419 41.0334,155.945 Q39.7365,155.1325 39.0803,153.6638 Q38.424,152.1794 38.424,150.2106 Q38.424,148.7888 38.8147,147.6169 Q39.2209,146.4294 40.0022,145.5544 Q40.7834,144.6794 41.924,144.2106 Q43.0647,143.7263 44.5334,143.7263 Q45.4865,143.7263 46.3772,143.9294 Q47.2834,144.1169 48.2209,144.5856 L47.3928,146.3669 Q46.6115,145.9919 45.9553,145.8044 Q45.299,145.6013 44.5022,145.6013 Z " fill="#000000"/><text fill="#000000" font-family="sans-serif" font-size="14" lengthAdjust="spacing" textLength="65.0298" x="63.369" y="155.502">MySensor</text><line style="stroke:#181818;stroke-width:0.5;" x1="8" x2="152.7915" y1="166.07" y2="166.07"/><line style="stroke:#181818;stroke-width:0.5;" x1="8" x2="152.7915" y1="174.07" y2="174.07"/><ellipse cx="18" cy="189.104" fill="#84BE84" rx="3" ry="3" style="stroke:#038048;stroke-width:1;"/><text fill="#000000" font-family="sans-serif" font-size="14" lengthAdjust="spacing" textLength="120.7915" x="27" y="193.0359">double get_value()</text></g><!--class YourSensor--><g class="entity" data-entity="YourSensor" data-source-line="10" data-uid="ent0004" id="entity_YourSensor"><rect fill="#F1F1F1" height="67.0679" rx="2.5" ry="2.5" style="stroke:#181818;stroke-width:0.5;" width="146.7915" x="189" y="134.07"/><ellipse cx="221.4473" cy="150.07" fill="#ADD1B2" rx="11" ry="11" style="stroke:#181818;stroke-width:1;"/><path d="M221.5567,145.6013 Q220.6348,145.6013 219.9004,145.9138 Q219.1817,146.2263 218.6817,146.82 Q218.1817,147.3981 217.9004,148.2731 Q217.6348,149.1481 217.6348,150.2419 Q217.6348,151.6794 218.0723,152.7263 Q218.5254,153.7731 219.3692,154.32 Q220.2286,154.8669 221.5411,154.8669 Q222.3223,154.8669 223.0098,154.7419 Q223.7129,154.6013 224.7129,154.2888 L224.7129,156.1638 Q223.8536,156.4919 223.0879,156.6169 Q222.3379,156.7419 221.3223,156.7419 Q219.4004,156.7419 218.0879,155.945 Q216.7911,155.1325 216.1348,153.6638 Q215.4786,152.1794 215.4786,150.2106 Q215.4786,148.7888 215.8692,147.6169 Q216.2754,146.4294 217.0567,145.5544 Q217.8379,144.6794 218.9786,144.2106 Q220.1192,143.7263 221.5879,143.7263 Q222.5411,143.7263 223.4317,143.9294 Q224.3379,144.1169 225.2754,144.5856 L224.4473,146.3669 Q223.6661,145.9919 223.0098,145.8044 Q222.3536,145.6013 221.5567,145.6013 Z " fill="#000000"/><text fill="#000000" font-family="sans-serif" font-size="14" lengthAdjust="spacing" textLength="76.0197" x="239.3245" y="155.502">YourSensor</text><line style="stroke:#181818;stroke-width:0.5;" x1="190" x2="334.7915" y1="166.07" y2="166.07"/><line style="stroke:#181818;stroke-width:0.5;" x1="190" x2="334.7915" y1="174.07" y2="174.07"/><ellipse cx="200" cy="189.104" fill="#84BE84" rx="3" ry="3" style="stroke:#038048;stroke-width:1;"/><text fill="#000000" font-family="sans-serif" font-size="14" lengthAdjust="spacing" textLength="120.7915" x="209" y="193.0359">double get_value()</text></g><!--class HerSensor--><g class="entity" data-entity="HerSensor" data-source-line="14" data-uid="ent0005" id="entity_HerSensor"><rect fill="#F1F1F1" height="67.0679" rx="2.5" ry="2.5" style="stroke:#181818;stroke-width:0.5;" width="146.7915" x="371" y="134.07"/><ellipse cx="406.4965" cy="150.07" fill="#ADD1B2" rx="11" ry="11" style="stroke:#181818;stroke-width:1;"/><path d="M406.6059,145.6013 Q405.684,145.6013 404.9496,145.9138 Q404.2309,146.2263 403.7309,146.82 Q403.2309,147.3981 402.9496,148.2731 Q402.684,149.1481 402.684,150.2419 Q402.684,151.6794 403.1215,152.7263 Q403.5746,153.7731 404.4184,154.32 Q405.2777,154.8669 406.5902,154.8669 Q407.3715,154.8669 408.059,154.7419 Q408.7621,154.6013 409.7621,154.2888 L409.7621,156.1638 Q408.9027,156.4919 408.1371,156.6169 Q407.3871,156.7419 406.3715,156.7419 Q404.4496,156.7419 403.1371,155.945 Q401.8402,155.1325 401.184,153.6638 Q400.5277,152.1794 400.5277,150.2106 Q400.5277,148.7888 400.9184,147.6169 Q401.3246,146.4294 402.1059,145.5544 Q402.8871,144.6794 404.0277,144.2106 Q405.1684,143.7263 406.6371,143.7263 Q407.5902,143.7263 408.4809,143.9294 Q409.3871,144.1169 410.3246,144.5856 L409.4965,146.3669 Q408.7152,145.9919 408.059,145.8044 Q407.4027,145.6013 406.6059,145.6013 Z " fill="#000000"/><text fill="#000000" font-family="sans-serif" font-size="14" lengthAdjust="spacing" textLength="69.2437" x="425.0513" y="155.502">HerSensor</text><line style="stroke:#181818;stroke-width:0.5;" x1="372" x2="516.7915" y1="166.07" y2="166.07"/><line style="stroke:#181818;stroke-width:0.5;" x1="372" x2="516.7915" y1="174.07" y2="174.07"/><ellipse cx="382" cy="189.104" fill="#84BE84" rx="3" ry="3" style="stroke:#038048;stroke-width:1;"/><text fill="#000000" font-family="sans-serif" font-size="14" lengthAdjust="spacing" textLength="120.7915" x="391" y="193.0359">double get_value()</text></g><!--reverse link Sensor to MySensor--><g class="link" data-entity-1="Sensor" data-entity-2="MySensor" data-source-line="18" data-uid="lnk6" id="link_Sensor_MySensor"><path codeLine="18" d="M199.7442,84.593 C173.0942,102.903 154.86,115.44 128.21,133.75" fill="none" id="Sensor-backto-MySensor" style="stroke:#181818;stroke-width:1;"/><polygon fill="none" points="214.58,74.4,196.3465,79.6477,203.1418,89.5383,214.58,74.4" style="stroke:#181818;stroke-width:1;"/></g><!--reverse link Sensor to YourSensor--><g class="link" data-entity-1="Sensor" data-entity-2="YourSensor" data-source-line="19" data-uid="lnk7" id="link_Sensor_YourSensor"><path codeLine="19" d="M262.4,92.4 C262.4,110.78 262.4,115.62 262.4,133.97" fill="none" id="Sensor-backto-YourSensor" style="stroke:#181818;stroke-width:1;"/><polygon fill="none" points="262.4,74.4,256.4,92.4,268.4,92.4,262.4,74.4" style="stroke:#181818;stroke-width:1;"/></g><!--reverse link Sensor to HerSensor--><g class="link" data-entity-1="Sensor" data-entity-2="HerSensor" data-source-line="20" data-uid="lnk8" id="link_Sensor_HerSensor"><path codeLine="20" d="M325.0458,84.593 C351.6958,102.903 369.94,115.44 396.58,133.75" fill="none" id="Sensor-backto-HerSensor" style="stroke:#181818;stroke-width:1;"/><polygon fill="none" points="310.21,74.4,321.6482,89.5383,328.4435,79.6477,310.21,74.4" style="stroke:#181818;stroke-width:1;"/></g><!--SRC=[Iyv9B2vM24xDAyulKgZcKb3GLaZ9BqtAILL8Jos9BqlCAKtLqEIgvU9A1YlqhIHQQMH-QH7HYZrIYL4BLM9JewiBTmcA8C9E566uwLm0]--></g></svg>