<svg xmlns="http://www.w3.org/2000/svg" xmlns:xlink="http://www.w3.org/1999/xlink" contentStyleType="text/css" data-diagram-type="CLASS" height="189px" preserveAspectRatio="none" style="width:453px;height:189px;background:#FFFFFF;" version="1.1" viewBox="0 0 453 189" width="453px" zoomAndPan="magnify"><defs/><g><!--class AnalogSensor--><g class="entity" data-entity="AnalogSensor" data-source-line="2" data-uid="ent0002" id="entity_AnalogSensor"><rect fill="#F1F1F1" height="67.0679" rx="2.5" ry="2.5" style="stroke:#181818;stroke-width:0.5;" width="146.7915" x="180.28" y="7"/><ellipse cx="208.6008" cy="23" fill="#B4A7E5" rx="11" ry="11" style="stroke:#181818;stroke-width:1;"/><path d="M210.6946,29.5 L205.7883,29.5 L205.7883,28.125 L207.2102,27.8125 L207.2102,18.5313 L205.7883,18.1875 L205.7883,16.8281 L210.6946,16.8281 L210.6946,18.1875 L209.2727,18.5313 L209.2727,27.8125 L210.6946,28.125 L210.6946,29.5 Z " fill="#000000"/><text fill="#000000" font-family="sans-serif" font-size="14" font-style="italic" lengthAdjust="spacing" textLength="85.1897" x="225.561" y="28.432">AnalogSensor</text><line style="stroke:#181818;stroke-width:0.5;" x1="181.28" x2="326.0715" y1="39" y2="39"/><line style="stroke:#181818;stroke-width:0.5;" x1="181.28" x2="326.0715" y1="47" y2="47"/><ellipse cx="191.28" cy="62.034" fill="#84BE84" rx="3" ry="3" style="stroke:#038048;stroke-width:1;"/><text fill="#000000" font-family="sans-serif" font-size="14" lengthAdjust="spacing" textLength="120.7915" x="200.28" y="65.9659">double get_value()</text></g><!--class PressureSensorBMP--><g class="entity" data-entity="PressureSensorBMP" data-source-line="6" data-uid="ent0003" id="entity_PressureSensorBMP"><rect fill="#F1F1F1" height="48" rx="2.5" ry="2.5" style="stroke:#181818;stroke-width:0.5;" width="165.3495" x="7" y="134.07"/><ellipse cx="22" cy="150.07" fill="#ADD1B2" rx="11" ry="11" style="stroke:#181818;stroke-width:1;"/><path d="M22.1094,145.6013 Q21.1875,145.6013 20.4531,145.9138 Q19.7344,146.2263 19.2344,146.82 Q18.7344,147.3981 18.4531,148.2731 Q18.1875,149.1481 18.1875,150.2419 Q18.1875,151.6794 18.625,152.7263 Q19.0781,153.7731 19.9219,154.32 Q20.7813,154.8669 22.0938,154.8669 Q22.875,154.8669 23.5625,154.7419 Q24.2656,154.6013 25.2656,154.2888 L25.2656,156.1638 Q24.4063,156.4919 23.6406,156.6169 Q22.8906,156.7419 21.875,156.7419 Q19.9531,156.7419 18.6406,155.945 Q17.3438,155.1325 16.6875,153.6638 Q16.0313,152.1794 16.0313,150.2106 Q16.0313,148.7888 16.4219,147.6169 Q16.8281,146.4294 17.6094,145.5544 Q18.3906,144.6794 19.5313,144.2106 Q20.6719,143.7263 22.1406,143.7263 Q23.0938,143.7263 23.9844,143.9294 Q24.8906,144.1169 25.8281,144.5856 L25,146.3669 Q24.2188,145.9919 23.5625,145.8044 Q22.9063,145.6013 22.1094,145.6013 Z " fill="#000000"/><text fill="#000000" font-family="sans-serif" font-size="14" lengthAdjust="spacing" textLength="133.3495" x="36" y="155.502">PressureSensorBMP</text><line style="stroke:#181818;stroke-width:0.5;" x1="8" x2="171.3495" y1="166.07" y2="166.07"/><line style="stroke:#181818;stroke-width:0.5;" x1="8" x2="171.3495" y1="174.07" y2="174.07"/></g><!--class ADC1115--><g class="entity" data-entity="ADC1115" data-source-line="7" data-uid="ent0004" id="entity_ADC1115"><rect fill="#F1F1F1" height="48" rx="2.5" ry="2.5" style="stroke:#181818;stroke-width:0.5;" width="92.0457" x="207.65" y="134.07"/><ellipse cx="222.65" cy="150.07" fill="#ADD1B2" rx="11" ry="11" style="stroke:#181818;stroke-width:1;"/><path d="M222.7594,145.6013 Q221.8375,145.6013 221.1031,145.9138 Q220.3844,146.2263 219.8844,146.82 Q219.3844,147.3981 219.1031,148.2731 Q218.8375,149.1481 218.8375,150.2419 Q218.8375,151.6794 219.275,152.7263 Q219.7281,153.7731 220.5719,154.32 Q221.4313,154.8669 222.7438,154.8669 Q223.525,154.8669 224.2125,154.7419 Q224.9156,154.6013 225.9156,154.2888 L225.9156,156.1638 Q225.0563,156.4919 224.2906,156.6169 Q223.5406,156.7419 222.525,156.7419 Q220.6031,156.7419 219.2906,155.945 Q217.9938,155.1325 217.3375,153.6638 Q216.6813,152.1794 216.6813,150.2106 Q216.6813,148.7888 217.0719,147.6169 Q217.4781,146.4294 218.2594,145.5544 Q219.0406,144.6794 220.1813,144.2106 Q221.3219,143.7263 222.7906,143.7263 Q223.7438,143.7263 224.6344,143.9294 Q225.5406,144.1169 226.4781,144.5856 L225.65,146.3669 Q224.8688,145.9919 224.2125,145.8044 Q223.5563,145.6013 222.7594,145.6013 Z " fill="#000000"/><text fill="#000000" font-family="sans-serif" font-size="14" lengthAdjust="spacing" textLength="60.0457" x="236.65" y="155.502">ADC1115</text><line style="stroke:#181818;stroke-width:0.5;" x1="208.65" x2="298.6957" y1="166.07" y2="166.07"/><line style="stroke:#181818;stroke-width:0.5;" x1="208.65" x2="298.6957" y1="174.07" y2="174.07"/></g><!--class MockSensor--><g class="entity" data-entity="MockSensor" data-source-line="8" data-uid="ent0005" id="entity_MockSensor"><rect fill="#F1F1F1" height="48" rx="2.5" ry="2.5" style="stroke:#181818;stroke-width:0.5;" width="112.5557" x="334.4" y="134.07"/><ellipse cx="349.4" cy="150.07" fill="#ADD1B2" rx="11" ry="11" style="stroke:#181818;stroke-width:1;"/><path d="M349.5094,145.6013 Q348.5875,145.6013 347.8531,145.9138 Q347.1344,146.2263 346.6344,146.82 Q346.1344,147.3981 345.8531,148.2731 Q345.5875,149.1481 345.5875,150.2419 Q345.5875,151.6794 346.025,152.7263 Q346.4781,153.7731 347.3219,154.32 Q348.1813,154.8669 349.4938,154.8669 Q350.275,154.8669 350.9625,154.7419 Q351.6656,154.6013 352.6656,154.2888 L352.6656,156.1638 Q351.8063,156.4919 351.0406,156.6169 Q350.2906,156.7419 349.275,156.7419 Q347.3531,156.7419 346.0406,155.945 Q344.7438,155.1325 344.0875,153.6638 Q343.4313,152.1794 343.4313,150.2106 Q343.4313,148.7888 343.8219,147.6169 Q344.2281,146.4294 345.0094,145.5544 Q345.7906,144.6794 346.9313,144.2106 Q348.0719,143.7263 349.5406,143.7263 Q350.4938,143.7263 351.3844,143.9294 Q352.2906,144.1169 353.2281,144.5856 L352.4,146.3669 Q351.6188,145.9919 350.9625,145.8044 Q350.3063,145.6013 349.5094,145.6013 Z " fill="#000000"/><text fill="#000000" font-family="sans-serif" font-size="14" lengthAdjust="spacing" textLength="80.5557" x="363.4" y="155.502">MockSensor</text><line style="stroke:#181818;stroke-width:0.5;" x1="335.4" x2="445.9557" y1="166.07" y2="166.07"/><line style="stroke:#181818;stroke-width:0.5;" x1="335.4" x2="445.9557" y1="174.07" y2="174.07"/></g><!--reverse link AnalogSensor to PressureSensorBMP--><g class="link" data-entity-1="AnalogSensor" data-entity-2="PressureSensorBMP" data-source-line="10" data-uid="lnk6" id="link_AnalogSensor_PressureSensorBMP"><path codeLine="10" d="M192.4047,84.6963 C165.5047,103.6463 147.03,116.66 122.8,133.73" fill="none" id="AnalogSensor-backto-PressureSensorBMP" style="stroke:#181818;stroke-width:1;stroke-dasharray:7,7;"/><polygon fill="none" points="207.12,74.33,188.9493,79.7912,195.8602,89.6014,207.12,74.33" style="stroke:#181818;stroke-width:1;"/></g><!--reverse link AnalogSensor to ADC1115--><g class="link" data-entity-1="AnalogSensor" data-entity-2="ADC1115" data-source-line="11" data-uid="lnk7" id="link_AnalogSensor_ADC1115"><path codeLine="11" d="M253.67,92.33 C253.67,111.28 253.67,116.66 253.67,133.73" fill="none" id="AnalogSensor-backto-ADC1115" style="stroke:#181818;stroke-width:1;stroke-dasharray:7,7;"/><polygon fill="none" points="253.67,74.33,247.67,92.33,259.67,92.33,253.67,74.33" style="stroke:#181818;stroke-width:1;"/></g><!--reverse link AnalogSensor to MockSensor--><g class="link" data-entity-1="AnalogSensor" data-entity-2="MockSensor" data-source-line="12" data-uid="lnk8" id="link_AnalogSensor_MockSensor"><path codeLine="12" d="M306.3274,85.9375 C328.7874,104.8875 342.76,116.66 363,133.73" fill="none" id="AnalogSensor-backto-MockSensor" style="stroke:#181818;stroke-width:1;stroke-dasharray:7,7;"/><polygon fill="none" points="292.57,74.33,302.4583,90.5233,310.1966,81.3516,292.57,74.33" style="stroke:#181818;stroke-width:1;"/></g><!--SRC=[oymhIIrAIqnELN3CIyp9JmzEpIlEBrAevb9Gq5P8oIzDoabLI4yjYIzBp2bDrT3agkNYIiv9B2vM22XABIukBKg5Q73o3L2eLgY5oZcwE1iQ6fegLCC4VFEJis4c0qr0iSgcHayFqpGiQg2cOf516Cy50000]--></g></svg>