<?xml version="1.0" encoding="UTF-8" standalone="no"?>
<!DOCTYPE svg PUBLIC "-//W3C//DTD SVG 1.0//EN" "http://www.w3.org/TR/2001/PR-SVG-20010719/DTD/svg10.dtd">
<svg width="16cm" height="19cm" viewBox="19 58 314 363" xmlns="http://www.w3.org/2000/svg" xmlns:xlink="http://www.w3.org/1999/xlink">
  <g>
    <line style="fill: none; fill-opacity:0; stroke-width: 2; stroke: #000000" x1="100" y1="80" x2="230.264" y2="80"/>
    <polygon style="fill: #000000" points="237.764,80 227.764,85 230.264,80 227.764,75 "/>
    <polygon style="fill: none; fill-opacity:0; stroke-width: 2; stroke: #000000" points="237.764,80 227.764,85 230.264,80 227.764,75 "/>
  </g>
  <g>
    <line style="fill: none; fill-opacity:0; stroke-width: 2; stroke: #000000" x1="100.99" y1="235.581" x2="229.475" y2="208.532"/>
    <polygon style="fill: #000000" points="236.814,206.987 228.059,213.939 229.475,208.532 225.998,204.154 "/>
    <polygon style="fill: none; fill-opacity:0; stroke-width: 2; stroke: #000000" points="236.814,206.987 228.059,213.939 229.475,208.532 225.998,204.154 "/>
  </g>
  <line style="fill: none; fill-opacity:0; stroke-width: 2; stroke-dasharray: 4; stroke: #000000" x1="20" y1="120" x2="331" y2="120"/>
  <g>
    <g>
      <rect style="fill: #ffffff" x="60" y="60" width="40" height="40"/>
      <rect style="fill: none; fill-opacity:0; stroke-width: 2; stroke: #000000" x="60" y="60" width="40" height="40"/>
    </g>
    <text font-size="22.5778" style="fill: #000000;text-anchor:start;font-family:sans-serif;font-style:normal;font-weight:normal" x="75" y="87">
      <tspan x="75" y="87">a</tspan>
    </text>
  </g>
  <g>
    <g>
      <rect style="fill: #ffffff" x="240" y="60" width="60" height="40"/>
      <rect style="fill: none; fill-opacity:0; stroke-width: 2; stroke: #000000" x="240" y="60" width="60" height="40"/>
    </g>
    <text font-size="22.5778" style="fill: #000000;text-anchor:start;font-family:sans-serif;font-style:normal;font-weight:normal" x="256" y="88">
      <tspan x="256" y="88">42</tspan>
    </text>
  </g>
  <g>
    <g>
      <rect style="fill: #ffffff" x="60" y="140" width="40" height="40"/>
      <rect style="fill: none; fill-opacity:0; stroke-width: 2; stroke: #000000" x="60" y="140" width="40" height="40"/>
    </g>
    <text font-size="22.5778" style="fill: #000000;text-anchor:start;font-family:sans-serif;font-style:normal;font-weight:normal" x="75" y="167">
      <tspan x="75" y="167">a</tspan>
    </text>
  </g>
  <g>
    <g>
      <rect style="fill: #ffffff" x="60" y="220" width="40" height="40"/>
      <rect style="fill: none; fill-opacity:0; stroke-width: 2; stroke: #000000" x="60" y="220" width="40" height="40"/>
    </g>
    <text font-size="22.5778" style="fill: #000000;text-anchor:start;font-family:sans-serif;font-style:normal;font-weight:normal" x="75" y="247">
      <tspan x="75" y="247">b</tspan>
    </text>
  </g>
  <g>
    <g>
      <rect style="fill: #ffffff" x="240" y="180" width="60" height="40"/>
      <rect style="fill: none; fill-opacity:0; stroke-width: 2; stroke: #000000" x="240" y="180" width="60" height="40"/>
    </g>
    <text font-size="22.5778" style="fill: #000000;text-anchor:start;font-family:sans-serif;font-style:normal;font-weight:normal" x="256" y="208">
      <tspan x="256" y="208">42</tspan>
    </text>
  </g>
  <g>
    <line style="fill: none; fill-opacity:0; stroke-width: 2; stroke: #000000" x1="100.99" y1="164.419" x2="229.475" y2="191.468"/>
    <polygon style="fill: #000000" points="236.814,193.013 225.998,195.846 229.475,191.468 228.059,186.061 "/>
    <polygon style="fill: none; fill-opacity:0; stroke-width: 2; stroke: #000000" points="236.814,193.013 225.998,195.846 229.475,191.468 228.059,186.061 "/>
  </g>
  <line style="fill: none; fill-opacity:0; stroke-width: 2; stroke-dasharray: 4; stroke: #000000" x1="20" y1="280" x2="331" y2="280"/>
  <g>
    <line style="fill: none; fill-opacity:0; stroke-width: 2; stroke: #000000" x1="100" y1="320" x2="230.264" y2="320"/>
    <polygon style="fill: #000000" points="237.764,320 227.764,325 230.264,320 227.764,315 "/>
    <polygon style="fill: none; fill-opacity:0; stroke-width: 2; stroke: #000000" points="237.764,320 227.764,325 230.264,320 227.764,315 "/>
  </g>
  <g>
    <g>
      <rect style="fill: #ffffff" x="60" y="300" width="40" height="40"/>
      <rect style="fill: none; fill-opacity:0; stroke-width: 2; stroke: #000000" x="60" y="300" width="40" height="40"/>
    </g>
    <text font-size="22.5778" style="fill: #000000;text-anchor:start;font-family:sans-serif;font-style:normal;font-weight:normal" x="75" y="327">
      <tspan x="75" y="327">a</tspan>
    </text>
  </g>
  <g>
    <g>
      <rect style="fill: #ffffff" x="240" y="300" width="60" height="40"/>
      <rect style="fill: none; fill-opacity:0; stroke-width: 2; stroke: #000000" x="240" y="300" width="60" height="40"/>
    </g>
    <text font-size="22.5778" style="fill: #000000;text-anchor:start;font-family:sans-serif;font-style:normal;font-weight:normal" x="256" y="328">
      <tspan x="256" y="328">42</tspan>
    </text>
  </g>
  <g>
    <g>
      <rect style="fill: #ffffff" x="60" y="380" width="40" height="40"/>
      <rect style="fill: none; fill-opacity:0; stroke-width: 2; stroke: #000000" x="60" y="380" width="40" height="40"/>
    </g>
    <text font-size="22.5778" style="fill: #000000;text-anchor:start;font-family:sans-serif;font-style:normal;font-weight:normal" x="75" y="407">
      <tspan x="75" y="407">b</tspan>
    </text>
  </g>
  <g>
    <g>
      <rect style="fill: #ffffff" x="240" y="380" width="60" height="40"/>
      <rect style="fill: none; fill-opacity:0; stroke-width: 2; stroke: #000000" x="240" y="380" width="60" height="40"/>
    </g>
    <text font-size="22.5778" style="fill: #000000;text-anchor:start;font-family:sans-serif;font-style:normal;font-weight:normal" x="265" y="409">
      <tspan x="265" y="409">7</tspan>
    </text>
  </g>
  <g>
    <line style="fill: none; fill-opacity:0; stroke-width: 2; stroke: #000000" x1="100.99" y1="400" x2="229.266" y2="400"/>
    <polygon style="fill: #000000" points="236.766,400 226.766,405 229.266,400 226.766,395 "/>
    <polygon style="fill: none; fill-opacity:0; stroke-width: 2; stroke: #000000" points="236.766,400 226.766,405 229.266,400 226.766,395 "/>
  </g>
</svg>
