<svg xmlns="http://www.w3.org/2000/svg" xmlns:xlink="http://www.w3.org/1999/xlink" contentStyleType="text/css" data-diagram-type="CLASS" height="208px" preserveAspectRatio="none" style="width:484px;height:208px;background:#FFFFFF;" version="1.1" viewBox="0 0 484 208" width="484px" zoomAndPan="magnify"><defs/><g><!--class InputHandler--><g class="entity" data-entity="InputHandler" data-source-line="2" data-uid="ent0002" id="entity_InputHandler"><rect fill="#F1F1F1" height="67.0679" rx="2.5" ry="2.5" style="stroke:#181818;stroke-width:0.5;" width="153.2735" x="240.57" y="16.54"/><ellipse cx="272.633" cy="32.54" fill="#B4A7E5" rx="11" ry="11" style="stroke:#181818;stroke-width:1;"/><path d="M274.7268,39.04 L269.8205,39.04 L269.8205,37.665 L271.2424,37.3525 L271.2424,28.0712 L269.8205,27.7275 L269.8205,26.3681 L274.7268,26.3681 L274.7268,27.7275 L273.3049,28.0712 L273.3049,37.3525 L274.7268,37.665 L274.7268,39.04 Z " fill="#000000"/><text fill="#000000" font-family="sans-serif" font-size="14" font-style="italic" lengthAdjust="spacing" textLength="83.3557" x="290.4248" y="37.972">InputHandler</text><line style="stroke:#181818;stroke-width:0.5;" x1="241.57" x2="392.8435" y1="48.54" y2="48.54"/><line style="stroke:#181818;stroke-width:0.5;" x1="241.57" x2="392.8435" y1="56.54" y2="56.54"/><ellipse cx="251.57" cy="71.574" fill="#84BE84" rx="3" ry="3" style="stroke:#038048;stroke-width:1;"/><text fill="#000000" font-family="sans-serif" font-size="14" lengthAdjust="spacing" textLength="127.2735" x="260.57" y="75.5059">EventAction ready()</text></g><!--class Eventloop--><g class="entity" data-entity="Eventloop" data-source-line="6" data-uid="ent0003" id="entity_Eventloop"><rect fill="#F1F1F1" height="86.1358" rx="2.5" ry="2.5" style="stroke:#181818;stroke-width:0.5;" width="198.4093" x="7" y="7"/><ellipse cx="69.1248" cy="23" fill="#ADD1B2" rx="11" ry="11" style="stroke:#181818;stroke-width:1;"/><path d="M69.2342,18.5313 Q68.3123,18.5313 67.5779,18.8438 Q66.8592,19.1563 66.3592,19.75 Q65.8592,20.3281 65.5779,21.2031 Q65.3123,22.0781 65.3123,23.1719 Q65.3123,24.6094 65.7498,25.6563 Q66.2029,26.7031 67.0467,27.25 Q67.906,27.7969 69.2185,27.7969 Q69.9998,27.7969 70.6873,27.6719 Q71.3904,27.5313 72.3904,27.2188 L72.3904,29.0938 Q71.531,29.4219 70.7654,29.5469 Q70.0154,29.6719 68.9998,29.6719 Q67.0779,29.6719 65.7654,28.875 Q64.4685,28.0625 63.8123,26.5938 Q63.156,25.1094 63.156,23.1406 Q63.156,21.7188 63.5467,20.5469 Q63.9529,19.3594 64.7342,18.4844 Q65.5154,17.6094 66.656,17.1406 Q67.7967,16.6563 69.2654,16.6563 Q70.2185,16.6563 71.1092,16.8594 Q72.0154,17.0469 72.9529,17.5156 L72.1248,19.2969 Q71.3435,18.9219 70.6873,18.7344 Q70.031,18.5313 69.2342,18.5313 Z " fill="#000000"/><text fill="#000000" font-family="sans-serif" font-size="14" lengthAdjust="spacing" textLength="65.6597" x="89.6248" y="28.432">Eventloop</text><line style="stroke:#181818;stroke-width:0.5;" x1="8" x2="204.4093" y1="39" y2="39"/><line style="stroke:#181818;stroke-width:0.5;" x1="8" x2="204.4093" y1="47" y2="47"/><ellipse cx="18" cy="62.034" fill="#84BE84" rx="3" ry="3" style="stroke:#038048;stroke-width:1;"/><text fill="#000000" font-family="sans-serif" font-size="14" lengthAdjust="spacing" textLength="172.4093" x="27" y="65.9659">register_input(fd, handler)</text><ellipse cx="18" cy="81.1019" fill="#84BE84" rx="3" ry="3" style="stroke:#038048;stroke-width:1;"/><text fill="#000000" font-family="sans-serif" font-size="14" lengthAdjust="spacing" textLength="31.4859" x="27" y="85.0339">run()</text></g><!--class UDPToDatabase--><g class="entity" data-entity="UDPToDatabase" data-source-line="13" data-uid="ent0005" id="entity_UDPToDatabase"><rect fill="#F1F1F1" height="48" rx="2.5" ry="2.5" style="stroke:#181818;stroke-width:0.5;" width="139.2256" x="158.59" y="153.14"/><ellipse cx="173.59" cy="169.14" fill="#ADD1B2" rx="11" ry="11" style="stroke:#181818;stroke-width:1;"/><path d="M173.6994,164.6713 Q172.7775,164.6713 172.0431,164.9838 Q171.3244,165.2963 170.8244,165.89 Q170.3244,166.4681 170.0431,167.3431 Q169.7775,168.2181 169.7775,169.3119 Q169.7775,170.7494 170.215,171.7963 Q170.6681,172.8431 171.5119,173.39 Q172.3713,173.9369 173.6838,173.9369 Q174.465,173.9369 175.1525,173.8119 Q175.8556,173.6713 176.8556,173.3588 L176.8556,175.2338 Q175.9963,175.5619 175.2306,175.6869 Q174.4806,175.8119 173.465,175.8119 Q171.5431,175.8119 170.2306,175.015 Q168.9338,174.2025 168.2775,172.7338 Q167.6213,171.2494 167.6213,169.2806 Q167.6213,167.8588 168.0119,166.6869 Q168.4181,165.4994 169.1994,164.6244 Q169.9806,163.7494 171.1213,163.2806 Q172.2619,162.7963 173.7306,162.7963 Q174.6838,162.7963 175.5744,162.9994 Q176.4806,163.1869 177.4181,163.6556 L176.59,165.4369 Q175.8088,165.0619 175.1525,164.8744 Q174.4963,164.6713 173.6994,164.6713 Z " fill="#000000"/><text fill="#000000" font-family="sans-serif" font-size="14" lengthAdjust="spacing" textLength="107.2256" x="187.59" y="174.572">UDPToDatabase</text><line style="stroke:#181818;stroke-width:0.5;" x1="159.59" x2="296.8156" y1="185.14" y2="185.14"/><line style="stroke:#181818;stroke-width:0.5;" x1="159.59" x2="296.8156" y1="193.14" y2="193.14"/></g><!--class StdinToDatabase--><g class="entity" data-entity="StdinToDatabase" data-source-line="14" data-uid="ent0007" id="entity_StdinToDatabase"><rect fill="#F1F1F1" height="48" rx="2.5" ry="2.5" style="stroke:#181818;stroke-width:0.5;" width="143.9156" x="333.25" y="153.14"/><ellipse cx="348.25" cy="169.14" fill="#ADD1B2" rx="11" ry="11" style="stroke:#181818;stroke-width:1;"/><path d="M348.3594,164.6713 Q347.4375,164.6713 346.7031,164.9838 Q345.9844,165.2963 345.4844,165.89 Q344.9844,166.4681 344.7031,167.3431 Q344.4375,168.2181 344.4375,169.3119 Q344.4375,170.7494 344.875,171.7963 Q345.3281,172.8431 346.1719,173.39 Q347.0313,173.9369 348.3438,173.9369 Q349.125,173.9369 349.8125,173.8119 Q350.5156,173.6713 351.5156,173.3588 L351.5156,175.2338 Q350.6563,175.5619 349.8906,175.6869 Q349.1406,175.8119 348.125,175.8119 Q346.2031,175.8119 344.8906,175.015 Q343.5938,174.2025 342.9375,172.7338 Q342.2813,171.2494 342.2813,169.2806 Q342.2813,167.8588 342.6719,166.6869 Q343.0781,165.4994 343.8594,164.6244 Q344.6406,163.7494 345.7813,163.2806 Q346.9219,162.7963 348.3906,162.7963 Q349.3438,162.7963 350.2344,162.9994 Q351.1406,163.1869 352.0781,163.6556 L351.25,165.4369 Q350.4688,165.0619 349.8125,164.8744 Q349.1563,164.6713 348.3594,164.6713 Z " fill="#000000"/><text fill="#000000" font-family="sans-serif" font-size="14" lengthAdjust="spacing" textLength="111.9156" x="362.25" y="174.572">StdinToDatabase</text><line style="stroke:#181818;stroke-width:0.5;" x1="334.25" x2="476.1656" y1="185.14" y2="185.14"/><line style="stroke:#181818;stroke-width:0.5;" x1="334.25" x2="476.1656" y1="193.14" y2="193.14"/></g><!--link Eventloop to InputHandler--><g class="link" data-entity-1="Eventloop" data-entity-2="InputHandler" data-source-line="11" data-uid="lnk4" id="link_Eventloop_InputHandler"><path codeLine="11" d="M205.52,50.07 C217.16,50.07 222.79,50.07 234.42,50.07" fill="none" id="Eventloop-to-InputHandler" style="stroke:#181818;stroke-width:1;"/><polygon fill="#181818" points="240.42,50.07,231.42,46.07,235.42,50.07,231.42,54.07,240.42,50.07" style="stroke:#181818;stroke-width:1;"/></g><!--reverse link InputHandler to UDPToDatabase--><g class="link" data-entity-1="InputHandler" data-entity-2="UDPToDatabase" data-source-line="13" data-uid="lnk6" id="link_InputHandler_UDPToDatabase"><path codeLine="13" d="M283.3833,98.5954 C267.9333,120.3054 258.5,133.57 244.69,152.97" fill="none" id="InputHandler-backto-UDPToDatabase" style="stroke:#181818;stroke-width:1;stroke-dasharray:7,7;"/><polygon fill="none" points="293.82,83.93,278.4948,95.1165,288.2718,102.0743,293.82,83.93" style="stroke:#181818;stroke-width:1;"/></g><!--reverse link InputHandler to StdinToDatabase--><g class="link" data-entity-1="InputHandler" data-entity-2="StdinToDatabase" data-source-line="14" data-uid="lnk8" id="link_InputHandler_StdinToDatabase"><path codeLine="14" d="M350.6855,98.6529 C365.9555,120.3629 375.25,133.57 388.9,152.97" fill="none" id="InputHandler-backto-StdinToDatabase" style="stroke:#181818;stroke-width:1;stroke-dasharray:7,7;"/><polygon fill="none" points="340.33,83.93,345.7779,102.1047,355.5931,95.201,340.33,83.93" style="stroke:#181818;stroke-width:1;"/></g><!--SRC=[ROx12i8m44Jl-OezjcZx1I885VGcg6TPassx43ObsGgY_hjA12ruVZDlXaKfjcW9jZACka5ndYBS3C0CrXSINLdb8109tRKepSCOwp6b37q8moSSgUFqaftuBIfQDuS-syhCHydrRx6AtFLQBIVRnaoUBEvr3STcTmWDAfunqH- -LyVoatW2]--></g></svg>