<?xml version="1.0" encoding="UTF-8" standalone="no"?>
<!DOCTYPE svg PUBLIC "-//W3C//DTD SVG 1.0//EN" "http://www.w3.org/TR/2001/PR-SVG-20010719/DTD/svg10.dtd">
<svg width="40cm" height="6cm" viewBox="138 58 783 103" xmlns="http://www.w3.org/2000/svg" xmlns:xlink="http://www.w3.org/1999/xlink">
  <g>
    <g>
      <rect style="fill: #ffffff" x="140" y="60" width="60" height="100"/>
      <rect style="fill: none; fill-opacity:0; stroke-width: 2; stroke: #000000" x="140" y="60" width="60" height="100"/>
    </g>
    <text font-size="39.5111" style="fill: #000000;text-anchor:start;font-family:sans-serif;font-style:normal;font-weight:normal" x="157" y="123">
      <tspan x="157" y="123">h</tspan>
    </text>
  </g>
  <g>
    <g>
      <rect style="fill: #ffffff" x="200" y="60" width="60" height="100"/>
      <rect style="fill: none; fill-opacity:0; stroke-width: 2; stroke: #000000" x="200" y="60" width="60" height="100"/>
    </g>
    <text font-size="39.5111" style="fill: #000000;text-anchor:start;font-family:sans-serif;font-style:normal;font-weight:normal" x="217" y="123">
      <tspan x="217" y="123">e</tspan>
    </text>
  </g>
  <g>
    <g>
      <rect style="fill: #ffffff" x="260" y="60" width="60" height="100"/>
      <rect style="fill: none; fill-opacity:0; stroke-width: 2; stroke: #000000" x="260" y="60" width="60" height="100"/>
    </g>
    <text font-size="39.5111" style="fill: #000000;text-anchor:start;font-family:sans-serif;font-style:normal;font-weight:normal" x="283" y="122">
      <tspan x="283" y="122">l</tspan>
    </text>
  </g>
  <g>
    <g>
      <rect style="fill: #ffffff" x="320" y="60" width="60" height="100"/>
      <rect style="fill: none; fill-opacity:0; stroke-width: 2; stroke: #000000" x="320" y="60" width="60" height="100"/>
    </g>
    <text font-size="39.5111" style="fill: #000000;text-anchor:start;font-family:sans-serif;font-style:normal;font-weight:normal" x="343" y="122">
      <tspan x="343" y="122">l</tspan>
    </text>
  </g>
  <g>
    <g>
      <rect style="fill: #ffffff" x="380" y="60" width="60" height="100"/>
      <rect style="fill: none; fill-opacity:0; stroke-width: 2; stroke: #000000" x="380" y="60" width="60" height="100"/>
    </g>
    <text font-size="39.5111" style="fill: #000000;text-anchor:start;font-family:sans-serif;font-style:normal;font-weight:normal" x="397" y="123">
      <tspan x="397" y="123">o</tspan>
    </text>
  </g>
  <g>
    <g>
      <rect style="fill: #ffffff" x="440" y="60" width="60" height="100"/>
      <rect style="fill: none; fill-opacity:0; stroke-width: 2; stroke: #000000" x="440" y="60" width="60" height="100"/>
    </g>
    <text font-size="39.5111" style="fill: #000000;text-anchor:start;font-family:sans-serif;font-style:normal;font-weight:normal" x="457" y="123">
      <tspan x="457" y="123">,</tspan>
    </text>
  </g>
  <g>
    <g>
      <rect style="fill: #ffffff" x="500" y="60" width="60" height="100"/>
      <rect style="fill: none; fill-opacity:0; stroke-width: 2; stroke: #000000" x="500" y="60" width="60" height="100"/>
    </g>
    <text font-size="39.5111" style="fill: #000000;text-anchor:start;font-family:sans-serif;font-style:normal;font-weight:normal" x="517" y="123">
      <tspan x="517" y="123">w</tspan>
    </text>
  </g>
  <g>
    <g>
      <rect style="fill: #ffffff" x="560" y="60" width="60" height="100"/>
      <rect style="fill: none; fill-opacity:0; stroke-width: 2; stroke: #000000" x="560" y="60" width="60" height="100"/>
    </g>
    <text font-size="39.5111" style="fill: #000000;text-anchor:start;font-family:sans-serif;font-style:normal;font-weight:normal" x="577" y="123">
      <tspan x="577" y="123">o</tspan>
    </text>
  </g>
  <g>
    <g>
      <rect style="fill: #ffffff" x="620" y="60" width="60" height="100"/>
      <rect style="fill: none; fill-opacity:0; stroke-width: 2; stroke: #000000" x="620" y="60" width="60" height="100"/>
    </g>
    <text font-size="39.5111" style="fill: #000000;text-anchor:start;font-family:sans-serif;font-style:normal;font-weight:normal" x="637" y="123">
      <tspan x="637" y="123">r</tspan>
    </text>
  </g>
  <g>
    <g>
      <rect style="fill: #ffffff" x="680" y="60" width="60" height="100"/>
      <rect style="fill: none; fill-opacity:0; stroke-width: 2; stroke: #000000" x="680" y="60" width="60" height="100"/>
    </g>
    <text font-size="39.5111" style="fill: #000000;text-anchor:start;font-family:sans-serif;font-style:normal;font-weight:normal" x="703" y="122">
      <tspan x="703" y="122">l</tspan>
    </text>
  </g>
  <g>
    <g>
      <rect style="fill: #ffffff" x="740" y="60" width="60" height="100"/>
      <rect style="fill: none; fill-opacity:0; stroke-width: 2; stroke: #000000" x="740" y="60" width="60" height="100"/>
    </g>
    <text font-size="39.5111" style="fill: #000000;text-anchor:start;font-family:sans-serif;font-style:normal;font-weight:normal" x="757" y="123">
      <tspan x="757" y="123">d</tspan>
    </text>
  </g>
  <g>
    <g>
      <rect style="fill: #ffffff" x="800" y="60" width="60" height="100"/>
      <rect style="fill: none; fill-opacity:0; stroke-width: 2; stroke: #000000" x="800" y="60" width="60" height="100"/>
    </g>
    <text font-size="39.5111" style="fill: #000000;text-anchor:start;font-family:sans-serif;font-style:normal;font-weight:normal" x="815" y="121">
      <tspan x="815" y="121">\n</tspan>
    </text>
  </g>
  <g>
    <g>
      <rect style="fill: #ffffff" x="860" y="60" width="60" height="100"/>
      <rect style="fill: none; fill-opacity:0; stroke-width: 2; stroke: #000000" x="860" y="60" width="60" height="100"/>
    </g>
    <text font-size="39.5111" style="fill: #000000;text-anchor:start;font-family:sans-serif;font-style:normal;font-weight:normal" x="875" y="121">
      <tspan x="875" y="121">\0</tspan>
    </text>
  </g>
</svg>
