<?xml version="1.0" encoding="UTF-8" standalone="no"?>
<!DOCTYPE svg PUBLIC "-//W3C//DTD SVG 1.0//EN" "http://www.w3.org/TR/2001/PR-SVG-20010719/DTD/svg10.dtd">
<svg width="19cm" height="13cm" viewBox="19 121 363 260" xmlns="http://www.w3.org/2000/svg" xmlns:xlink="http://www.w3.org/1999/xlink">
  <g>
    <line style="fill: none; fill-opacity:0; stroke-width: 2; stroke: #000000" x1="100" y1="160" x2="230.264" y2="160"/>
    <polygon style="fill: #000000" points="237.764,160 227.764,165 230.264,160 227.764,155 "/>
    <polygon style="fill: none; fill-opacity:0; stroke-width: 2; stroke: #000000" points="237.764,160 227.764,165 230.264,160 227.764,155 "/>
  </g>
  <g>
    <line style="fill: none; fill-opacity:0; stroke-width: 2; stroke: #000000" x1="101" y1="262" x2="231.264" y2="262"/>
    <polygon style="fill: #000000" points="238.764,262 228.764,267 231.264,262 228.764,257 "/>
    <polygon style="fill: none; fill-opacity:0; stroke-width: 2; stroke: #000000" points="238.764,262 228.764,267 231.264,262 228.764,257 "/>
  </g>
  <line style="fill: none; fill-opacity:0; stroke-width: 2; stroke-dasharray: 4; stroke: #000000" x1="20" y1="200" x2="331" y2="200"/>
  <line style="fill: none; fill-opacity:0; stroke-width: 2; stroke-dasharray: 4; stroke: #000000" x1="20" y1="300" x2="331" y2="300"/>
  <g>
    <g>
      <rect style="fill: #ffffff" x="60" y="140" width="40" height="40"/>
      <rect style="fill: none; fill-opacity:0; stroke-width: 2; stroke: #000000" x="60" y="140" width="40" height="40"/>
    </g>
    <text font-size="22.5778" style="fill: #000000;text-anchor:start;font-family:sans-serif;font-style:normal;font-weight:normal" x="75" y="167">
      <tspan x="75" y="167">a</tspan>
    </text>
  </g>
  <g>
    <g>
      <rect style="fill: #ffffff" x="240" y="140" width="60" height="40"/>
      <rect style="fill: none; fill-opacity:0; stroke-width: 2; stroke: #000000" x="240" y="140" width="60" height="40"/>
    </g>
    <text font-size="22.5778" style="fill: #000000;text-anchor:start;font-family:sans-serif;font-style:normal;font-weight:normal" x="256" y="168">
      <tspan x="256" y="168">42</tspan>
    </text>
    <text font-size="16.9333" style="fill: #000000;text-anchor:start;font-family:sans-serif;font-style:normal;font-weight:normal" x="256" y="137">
      <tspan x="256" y="137">int</tspan>
    </text>
  </g>
  <g>
    <g>
      <rect style="fill: #ffffff" x="241" y="242" width="60" height="40"/>
      <rect style="fill: none; fill-opacity:0; stroke-width: 2; stroke: #000000" x="241" y="242" width="60" height="40"/>
    </g>
    <text font-size="22.5778" style="fill: #000000;text-anchor:start;font-family:sans-serif;font-style:normal;font-weight:normal" x="250" y="270">
      <tspan x="250" y="270">1.5</tspan>
    </text>
    <text font-size="16.9333" style="fill: #000000;text-anchor:start;font-family:sans-serif;font-style:normal;font-weight:normal" x="250" y="237">
      <tspan x="250" y="237">float</tspan>
    </text>
  </g>
  <g>
    <g>
      <rect style="fill: #ffffff" x="61" y="242" width="40" height="40"/>
      <rect style="fill: none; fill-opacity:0; stroke-width: 2; stroke: #000000" x="61" y="242" width="40" height="40"/>
    </g>
    <text font-size="22.5778" style="fill: #000000;text-anchor:start;font-family:sans-serif;font-style:normal;font-weight:normal" x="76" y="269">
      <tspan x="76" y="269">a</tspan>
    </text>
  </g>
  <g>
    <g>
      <rect style="fill: #ffffff" x="60" y="340" width="40" height="40"/>
      <rect style="fill: none; fill-opacity:0; stroke-width: 2; stroke: #000000" x="60" y="340" width="40" height="40"/>
    </g>
    <text font-size="22.5778" style="fill: #000000;text-anchor:start;font-family:sans-serif;font-style:normal;font-weight:normal" x="75" y="367">
      <tspan x="75" y="367">a</tspan>
    </text>
  </g>
  <g>
    <line style="fill: none; fill-opacity:0; stroke-width: 2; stroke: #000000" x1="100.99" y1="360" x2="229.266" y2="360"/>
    <polygon style="fill: #000000" points="236.766,360 226.766,365 229.266,360 226.766,355 "/>
    <polygon style="fill: none; fill-opacity:0; stroke-width: 2; stroke: #000000" points="236.766,360 226.766,365 229.266,360 226.766,355 "/>
  </g>
  <g>
    <g>
      <rect style="fill: #ffffff" x="240" y="340" width="60" height="40"/>
      <rect style="fill: none; fill-opacity:0; stroke-width: 2; stroke: #000000" x="240" y="340" width="60" height="40"/>
    </g>
    <text font-size="22.5778" style="fill: #000000;text-anchor:start;font-family:sans-serif;font-style:normal;font-weight:normal" x="256" y="368">
      <tspan x="256" y="368">42</tspan>
    </text>
    <text font-size="16.9333" style="fill: #000000;text-anchor:start;font-family:sans-serif;font-style:normal;font-weight:normal" x="250" y="334">
      <tspan x="250" y="334">list</tspan>
    </text>
    <g>
      <g>
        <rect style="fill: #ffffff" x="300" y="340" width="80" height="40"/>
        <rect style="fill: none; fill-opacity:0; stroke-width: 2; stroke: #000000" x="300" y="340" width="80" height="40"/>
      </g>
      <text font-size="22.5778" style="fill: #000000;text-anchor:start;font-family:sans-serif;font-style:normal;font-weight:normal" x="308" y="368">
        <tspan x="308" y="368">'blah'</tspan>
      </text>
    </g>
  </g>
</svg>
