<?xml version="1.0" encoding="UTF-8" standalone="no"?>
<!DOCTYPE svg PUBLIC "-//W3C//DTD SVG 1.0//EN" "http://www.w3.org/TR/2001/PR-SVG-20010719/DTD/svg10.dtd">
<svg width="23cm" height="7cm" viewBox="58 298 444 123" xmlns="http://www.w3.org/2000/svg" xmlns:xlink="http://www.w3.org/1999/xlink">
  <g>
    <line style="fill: none; fill-opacity:0; stroke-width: 2; stroke: #000000" x1="100.99" y1="400" x2="229.266" y2="400"/>
    <polygon style="fill: #000000" points="236.766,400 226.766,405 229.266,400 226.766,395 "/>
    <polygon style="fill: none; fill-opacity:0; stroke-width: 2; stroke: #000000" points="236.766,400 226.766,405 229.266,400 226.766,395 "/>
  </g>
  <g>
    <g>
      <rect style="fill: #ffffff" x="60" y="300" width="40" height="40"/>
      <rect style="fill: none; fill-opacity:0; stroke-width: 2; stroke: #000000" x="60" y="300" width="40" height="40"/>
    </g>
    <text font-size="22.5778" style="fill: #000000;text-anchor:start;font-family:sans-serif;font-style:normal;font-weight:normal" x="75" y="327">
      <tspan x="75" y="327">a</tspan>
    </text>
  </g>
  <g>
    <g>
      <rect style="fill: #ffffff" x="60" y="380" width="40" height="40"/>
      <rect style="fill: none; fill-opacity:0; stroke-width: 2; stroke: #000000" x="60" y="380" width="40" height="40"/>
    </g>
    <text font-size="22.5778" style="fill: #000000;text-anchor:start;font-family:sans-serif;font-style:normal;font-weight:normal" x="75" y="407">
      <tspan x="75" y="407">b</tspan>
    </text>
  </g>
  <g>
    <g>
      <rect style="fill: #ffffff" x="240" y="380" width="60" height="40"/>
      <rect style="fill: none; fill-opacity:0; stroke-width: 2; stroke: #000000" x="240" y="380" width="60" height="40"/>
    </g>
    <text font-size="22.5778" style="fill: #000000;text-anchor:start;font-family:sans-serif;font-style:normal;font-weight:normal" x="256" y="408">
      <tspan x="256" y="408">42</tspan>
    </text>
  </g>
  <g>
    <line style="fill: none; fill-opacity:0; stroke-width: 2; stroke: #000000" x1="100.99" y1="320" x2="229.266" y2="320"/>
    <polygon style="fill: #000000" points="236.766,320 226.766,325 229.266,320 226.766,315 "/>
    <polygon style="fill: none; fill-opacity:0; stroke-width: 2; stroke: #000000" points="236.766,320 226.766,325 229.266,320 226.766,315 "/>
  </g>
  <g>
    <g>
      <rect style="fill: #ffffff" x="240" y="300" width="60" height="40"/>
      <rect style="fill: none; fill-opacity:0; stroke-width: 2; stroke: #000000" x="240" y="300" width="60" height="40"/>
    </g>
    <text font-size="22.5778" style="fill: #000000;text-anchor:start;font-family:sans-serif;font-style:normal;font-weight:normal" x="256" y="328">
      <tspan x="256" y="328">42</tspan>
    </text>
  </g>
  <text font-size="16.9333" style="fill: #ff0000;text-anchor:start;font-family:sans-serif;font-style:normal;font-weight:normal" x="353" y="366">
    <tspan x="353" y="366">Waste of memory</tspan>
  </text>
  <g>
    <line style="fill: none; fill-opacity:0; stroke-width: 2; stroke-dasharray: 4; stroke: #ff0000" x1="354" y1="348" x2="322.708" y2="332.354"/>
    <polygon style="fill: #ff0000" points="316,329 327.18,329 322.708,332.354 322.708,337.944 "/>
    <polygon style="fill: none; fill-opacity:0; stroke-width: 2; stroke: #ff0000" points="316,329 327.18,329 322.708,332.354 322.708,337.944 "/>
  </g>
  <g>
    <line style="fill: none; fill-opacity:0; stroke-width: 2; stroke-dasharray: 4; stroke: #ff0000" x1="359" y1="375" x2="322.511" y2="395.272"/>
    <polygon style="fill: #ff0000" points="315.955,398.914 322.268,389.687 322.511,395.272 327.124,398.428 "/>
    <polygon style="fill: none; fill-opacity:0; stroke-width: 2; stroke: #ff0000" points="315.955,398.914 322.268,389.687 322.511,395.272 327.124,398.428 "/>
  </g>
</svg>
