<?xml version="1.0" encoding="UTF-8" standalone="no"?>
<!DOCTYPE svg PUBLIC "-//W3C//DTD SVG 1.0//EN" "http://www.w3.org/TR/2001/PR-SVG-20010719/DTD/svg10.dtd">
<svg width="19cm" height="7cm" viewBox="58 298 363 123" xmlns="http://www.w3.org/2000/svg" xmlns:xlink="http://www.w3.org/1999/xlink">
  <g>
    <line style="fill: none; fill-opacity:0; stroke-width: 2; stroke: #000000" x1="100.99" y1="400" x2="229.266" y2="400"/>
    <polygon style="fill: #000000" points="236.766,400 226.766,405 229.266,400 226.766,395 "/>
    <polygon style="fill: none; fill-opacity:0; stroke-width: 2; stroke: #000000" points="236.766,400 226.766,405 229.266,400 226.766,395 "/>
  </g>
  <g>
    <g>
      <rect style="fill: #ffffff" x="60" y="300" width="40" height="40"/>
      <rect style="fill: none; fill-opacity:0; stroke-width: 2; stroke: #000000" x="60" y="300" width="40" height="40"/>
    </g>
    <text font-size="22.5778" style="fill: #000000;text-anchor:start;font-family:sans-serif;font-style:normal;font-weight:normal" x="75" y="327">
      <tspan x="75" y="327">a</tspan>
    </text>
  </g>
  <g>
    <g>
      <rect style="fill: #ffffff" x="60" y="380" width="40" height="40"/>
      <rect style="fill: none; fill-opacity:0; stroke-width: 2; stroke: #000000" x="60" y="380" width="40" height="40"/>
    </g>
    <text font-size="22.5778" style="fill: #000000;text-anchor:start;font-family:sans-serif;font-style:normal;font-weight:normal" x="75" y="407">
      <tspan x="75" y="407">b</tspan>
    </text>
  </g>
  <g>
    <line style="fill: none; fill-opacity:0; stroke-width: 2; stroke: #000000" x1="100.99" y1="320" x2="229.266" y2="320"/>
    <polygon style="fill: #000000" points="236.766,320 226.766,325 229.266,320 226.766,315 "/>
    <polygon style="fill: none; fill-opacity:0; stroke-width: 2; stroke: #000000" points="236.766,320 226.766,325 229.266,320 226.766,315 "/>
  </g>
  <g>
    <g>
      <g>
        <rect style="fill: #ffffff" x="240" y="380" width="60" height="40"/>
        <rect style="fill: none; fill-opacity:0; stroke-width: 2; stroke: #000000" x="240" y="380" width="60" height="40"/>
      </g>
      <text font-size="22.5778" style="fill: #000000;text-anchor:start;font-family:sans-serif;font-style:normal;font-weight:normal" x="256" y="408">
        <tspan x="256" y="408">42</tspan>
      </text>
    </g>
    <g>
      <g>
        <rect style="fill: #ffffff" x="300" y="380" width="60" height="40"/>
        <rect style="fill: none; fill-opacity:0; stroke-width: 2; stroke: #000000" x="300" y="380" width="60" height="40"/>
      </g>
      <text font-size="22.5778" style="fill: #000000;text-anchor:start;font-family:sans-serif;font-style:normal;font-weight:normal" x="307" y="407">
        <tspan x="307" y="407">"xy"</tspan>
      </text>
    </g>
    <g>
      <g>
        <rect style="fill: #ffffff" x="360" y="380" width="60" height="40"/>
        <rect style="fill: none; fill-opacity:0; stroke-width: 2; stroke: #000000" x="360" y="380" width="60" height="40"/>
      </g>
      <text font-size="22.5778" style="fill: #000000;text-anchor:start;font-family:sans-serif;font-style:normal;font-weight:normal" x="376" y="408">
        <tspan x="376" y="408">13</tspan>
      </text>
    </g>
  </g>
  <g>
    <g>
      <g>
        <rect style="fill: #ffffff" x="240" y="300" width="60" height="40"/>
        <rect style="fill: none; fill-opacity:0; stroke-width: 2; stroke: #000000" x="240" y="300" width="60" height="40"/>
      </g>
      <text font-size="22.5778" style="fill: #000000;text-anchor:start;font-family:sans-serif;font-style:normal;font-weight:normal" x="256" y="328">
        <tspan x="256" y="328">42</tspan>
      </text>
    </g>
    <g>
      <g>
        <rect style="fill: #ffffff" x="300" y="300" width="60" height="40"/>
        <rect style="fill: none; fill-opacity:0; stroke-width: 2; stroke: #000000" x="300" y="300" width="60" height="40"/>
      </g>
      <text font-size="22.5778" style="fill: #000000;text-anchor:start;font-family:sans-serif;font-style:normal;font-weight:normal" x="307" y="327">
        <tspan x="307" y="327">"xy"</tspan>
      </text>
    </g>
    <g>
      <g>
        <rect style="fill: #ffffff" x="360" y="300" width="60" height="40"/>
        <rect style="fill: none; fill-opacity:0; stroke-width: 2; stroke: #000000" x="360" y="300" width="60" height="40"/>
      </g>
      <text font-size="22.5778" style="fill: #000000;text-anchor:start;font-family:sans-serif;font-style:normal;font-weight:normal" x="376" y="328">
        <tspan x="376" y="328">13</tspan>
      </text>
    </g>
  </g>
</svg>
