<?xml version="1.0" encoding="UTF-8" standalone="no"?>
<!DOCTYPE svg PUBLIC "-//W3C//DTD SVG 1.0//EN" "http://www.w3.org/TR/2001/PR-SVG-20010719/DTD/svg10.dtd">
<svg width="19cm" height="7cm" viewBox="58 138 363 123" xmlns="http://www.w3.org/2000/svg" xmlns:xlink="http://www.w3.org/1999/xlink">
  <g>
    <line style="fill: none; fill-opacity:0; stroke-width: 2; stroke: #000000" x1="100.99" y1="235.581" x2="229.475" y2="208.532"/>
    <polygon style="fill: #000000" points="236.814,206.987 228.059,213.939 229.475,208.532 225.998,204.154 "/>
    <polygon style="fill: none; fill-opacity:0; stroke-width: 2; stroke: #000000" points="236.814,206.987 228.059,213.939 229.475,208.532 225.998,204.154 "/>
  </g>
  <g>
    <g>
      <rect style="fill: #ffffff" x="60" y="140" width="40" height="40"/>
      <rect style="fill: none; fill-opacity:0; stroke-width: 2; stroke: #000000" x="60" y="140" width="40" height="40"/>
    </g>
    <text font-size="22.5778" style="fill: #000000;text-anchor:start;font-family:sans-serif;font-style:normal;font-weight:normal" x="75" y="167">
      <tspan x="75" y="167">a</tspan>
    </text>
  </g>
  <g>
    <g>
      <rect style="fill: #ffffff" x="60" y="220" width="40" height="40"/>
      <rect style="fill: none; fill-opacity:0; stroke-width: 2; stroke: #000000" x="60" y="220" width="40" height="40"/>
    </g>
    <text font-size="22.5778" style="fill: #000000;text-anchor:start;font-family:sans-serif;font-style:normal;font-weight:normal" x="75" y="247">
      <tspan x="75" y="247">b</tspan>
    </text>
  </g>
  <g>
    <line style="fill: none; fill-opacity:0; stroke-width: 2; stroke: #000000" x1="100.99" y1="164.419" x2="229.475" y2="191.468"/>
    <polygon style="fill: #000000" points="236.814,193.013 225.998,195.846 229.475,191.468 228.059,186.061 "/>
    <polygon style="fill: none; fill-opacity:0; stroke-width: 2; stroke: #000000" points="236.814,193.013 225.998,195.846 229.475,191.468 228.059,186.061 "/>
  </g>
  <g>
    <g>
      <g>
        <rect style="fill: #ffffff" x="240" y="180" width="60" height="40"/>
        <rect style="fill: none; fill-opacity:0; stroke-width: 2; stroke: #000000" x="240" y="180" width="60" height="40"/>
      </g>
      <text font-size="22.5778" style="fill: #000000;text-anchor:start;font-family:sans-serif;font-style:normal;font-weight:normal" x="256" y="208">
        <tspan x="256" y="208">42</tspan>
      </text>
    </g>
    <g>
      <g>
        <rect style="fill: #ffffff" x="300" y="180" width="60" height="40"/>
        <rect style="fill: none; fill-opacity:0; stroke-width: 2; stroke: #000000" x="300" y="180" width="60" height="40"/>
      </g>
      <text font-size="22.5778" style="fill: #000000;text-anchor:start;font-family:sans-serif;font-style:normal;font-weight:normal" x="307" y="207">
        <tspan x="307" y="207">"xy"</tspan>
      </text>
    </g>
    <g>
      <g>
        <rect style="fill: #ffffff" x="360" y="180" width="60" height="40"/>
        <rect style="fill: none; fill-opacity:0; stroke-width: 2; stroke: #000000" x="360" y="180" width="60" height="40"/>
      </g>
      <text font-size="22.5778" style="fill: #000000;text-anchor:start;font-family:sans-serif;font-style:normal;font-weight:normal" x="376" y="208">
        <tspan x="376" y="208">13</tspan>
      </text>
    </g>
  </g>
</svg>
