<?xml version="1.0" encoding="UTF-8" standalone="no"?>
<!DOCTYPE svg PUBLIC "-//W3C//DTD SVG 1.0//EN" "http://www.w3.org/TR/2001/PR-SVG-20010719/DTD/svg10.dtd">
<svg width="15cm" height="8cm" viewBox="145 66 294 158" xmlns="http://www.w3.org/2000/svg" xmlns:xlink="http://www.w3.org/1999/xlink">
  <text font-size="22.5778" style="fill: #000000;text-anchor:start;font-family:sans-serif;font-style:normal;font-weight:normal" x="284" y="135">
    <tspan x="284" y="135">a</tspan>
  </text>
  <g>
    <g>
      <rect style="fill: #ffffff" x="317" y="108" width="40" height="40"/>
      <rect style="fill: none; fill-opacity:0; stroke-width: 2; stroke: #000000" x="317" y="108" width="40" height="40"/>
    </g>
    <g>
      <rect style="fill: #ffffff" x="397" y="108" width="40" height="40"/>
      <rect style="fill: none; fill-opacity:0; stroke-width: 2; stroke: #000000" x="397" y="108" width="40" height="40"/>
    </g>
    <g>
      <rect style="fill: #ffffff" x="357" y="108" width="40" height="40"/>
      <rect style="fill: none; fill-opacity:0; stroke-width: 2; stroke: #000000" x="357" y="108" width="40" height="40"/>
    </g>
  </g>
  <g>
    <path style="fill: none; fill-opacity:0; stroke-width: 2; stroke-dasharray: 4; stroke: #000000" d="M 225.001 84.9313 C 245.001,68.5813 249,65 283,68 C 317,71 316.082,78.7552 324.275,98.0441"/>
    <polygon style="fill: #000000" points="327.208,104.947 318.696,97.6979 324.275,98.0441 327.9,93.7883 "/>
    <polygon style="fill: none; fill-opacity:0; stroke-width: 2; stroke: #000000" points="327.208,104.947 318.696,97.6979 324.275,98.0441 327.9,93.7883 "/>
  </g>
  <g>
    <rect style="fill: #ffffff" x="184" y="82.1" width="40" height="40"/>
    <rect style="fill: none; fill-opacity:0; stroke-width: 2; stroke-dasharray: 4; stroke: #000000" x="184" y="82.1" width="40" height="40"/>
  </g>
  <text font-size="22.5778" style="fill: #000000;text-anchor:start;font-family:sans-serif;font-style:normal;font-weight:normal" x="145" y="121.85">
    <tspan x="145" y="121.85">pa</tspan>
  </text>
  <g>
    <rect style="fill: #ffffff" x="182.1" y="182.6" width="40" height="40"/>
    <rect style="fill: none; fill-opacity:0; stroke-width: 2; stroke: #000000" x="182.1" y="182.6" width="40" height="40"/>
  </g>
  <g>
    <path style="fill: none; fill-opacity:0; stroke-width: 2; stroke: #000000" d="M 223.098 201.251 C 247.998,199.651 358.998,170.004 364.163,157.953"/>
    <polygon style="fill: #000000" points="367.118,151.059 367.774,162.22 364.163,157.953 358.583,158.281 "/>
    <polygon style="fill: none; fill-opacity:0; stroke-width: 2; stroke: #000000" points="367.118,151.059 367.774,162.22 364.163,157.953 358.583,158.281 "/>
  </g>
  <text font-size="19.7556" style="fill: #000000;text-anchor:start;font-family:sans-serif;font-style:normal;font-weight:normal" x="198" y="160.038">
    <tspan x="198" y="160.038">++pa</tspan>
  </text>
  <g>
    <line style="fill: none; fill-opacity:0; stroke-width: 2; stroke: #000000" x1="184" y1="138.038" x2="184" y2="158.302"/>
    <polygon style="fill: #000000" points="184,165.802 179,155.802 184,158.302 189,155.802 "/>
    <polygon style="fill: none; fill-opacity:0; stroke-width: 2; stroke: #000000" points="184,165.802 179,155.802 184,158.302 189,155.802 "/>
  </g>
  <text font-size="22.5778" style="fill: #000000;text-anchor:start;font-family:sans-serif;font-style:normal;font-weight:normal" x="145" y="209.138">
    <tspan x="145" y="209.138">pa</tspan>
  </text>
</svg>
