<?xml version="1.0" encoding="UTF-8" standalone="no"?>
<!DOCTYPE svg PUBLIC "-//W3C//DTD SVG 1.0//EN" "http://www.w3.org/TR/2001/PR-SVG-20010719/DTD/svg10.dtd">
<svg width="10cm" height="9cm" viewBox="283 -44 198 165" xmlns="http://www.w3.org/2000/svg" xmlns:xlink="http://www.w3.org/1999/xlink">
  <g>
    <rect style="fill: #d8e5e5" x="300" y="80" width="40" height="40"/>
    <rect style="fill: none; fill-opacity:0; stroke-width: 2; stroke: #000000" x="300" y="80" width="40" height="40"/>
  </g>
  <g>
    <rect style="fill: #ffffff" x="420" y="80" width="40" height="40"/>
    <rect style="fill: none; fill-opacity:0; stroke-width: 2; stroke: #000000" x="420" y="80" width="40" height="40"/>
  </g>
  <g>
    <rect style="fill: #d8e5e5" x="340" y="80" width="40" height="40"/>
    <rect style="fill: none; fill-opacity:0; stroke-width: 2; stroke: #000000" x="340" y="80" width="40" height="40"/>
  </g>
  <g>
    <g>
      <rect style="fill: #ffffff" x="440" y="-40" width="40" height="40"/>
      <rect style="fill: none; fill-opacity:0; stroke-width: 2; stroke: #000000" x="440" y="-40" width="40" height="40"/>
    </g>
    <text font-size="22.5778" style="fill: #000000;text-anchor:start;font-family:sans-serif;font-style:normal;font-weight:normal" x="452" y="-13.5">
      <tspan x="452" y="-13.5">q</tspan>
    </text>
  </g>
  <g>
    <g>
      <rect style="fill: #ffffff" x="285" y="-42" width="40" height="40"/>
      <rect style="fill: none; fill-opacity:0; stroke-width: 2; stroke: #000000" x="285" y="-42" width="40" height="40"/>
    </g>
    <text font-size="22.5778" style="fill: #000000;text-anchor:start;font-family:sans-serif;font-style:normal;font-weight:normal" x="296" y="-16">
      <tspan x="296" y="-16">p</tspan>
    </text>
  </g>
  <g>
    <path style="fill: none; fill-opacity:0; stroke-width: 2; stroke: #000000" d="M 305 -1.05341 C 305,10.4466 320,66.5534 320,69.3173"/>
    <polygon style="fill: #000000" points="320,76.8173 315,66.8173 320,69.3173 325,66.8173 "/>
    <polygon style="fill: none; fill-opacity:0; stroke-width: 2; stroke: #000000" points="320,76.8173 315,66.8173 320,69.3173 325,66.8173 "/>
  </g>
  <g>
    <path style="fill: none; fill-opacity:0; stroke-width: 2; stroke: #000000" d="M 456.351 0.980684 C 454.351,12.4807 440,66.494 440,69.2579"/>
    <polygon style="fill: #000000" points="440,76.7579 435,66.7579 440,69.2579 445,66.7579 "/>
    <polygon style="fill: none; fill-opacity:0; stroke-width: 2; stroke: #000000" points="440,76.7579 435,66.7579 440,69.2579 445,66.7579 "/>
  </g>
  <g>
    <rect style="fill: #d8e5e5" x="380" y="80" width="40" height="40"/>
    <rect style="fill: none; fill-opacity:0; stroke-width: 2; stroke: #000000" x="380" y="80" width="40" height="40"/>
  </g>
</svg>
