<?xml version="1.0" encoding="UTF-8" standalone="no"?>
<!DOCTYPE svg PUBLIC "-//W3C//DTD SVG 1.0//EN" "http://www.w3.org/TR/2001/PR-SVG-20010719/DTD/svg10.dtd">
<svg width="16cm" height="8cm" viewBox="135 24 304 147" xmlns="http://www.w3.org/2000/svg" xmlns:xlink="http://www.w3.org/1999/xlink">
  <g>
    <path style="fill: none; fill-opacity:0; stroke-width: 2; stroke: #000000" d="M 226.931 39.4022 C 249.931,32.1522 256,30.75 288,30.75 C 320,30.75 331,74.75 335.271,98.4187"/>
    <polygon style="fill: #000000" points="336.603,105.799 329.907,96.8463 335.271,98.4187 339.748,95.0705 "/>
    <polygon style="fill: none; fill-opacity:0; stroke-width: 2; stroke: #000000" points="336.603,105.799 329.907,96.8463 335.271,98.4187 339.748,95.0705 "/>
  </g>
  <text font-size="12.8" style="fill: #000000;text-anchor:start;font-family:sans-serif;font-style:normal;font-weight:normal" x="317" y="168">
    <tspan x="317" y="168">a[0]</tspan>
  </text>
  <text font-size="12.8" style="fill: #000000;text-anchor:start;font-family:sans-serif;font-style:normal;font-weight:normal" x="357" y="168">
    <tspan x="357" y="168">a[1]</tspan>
  </text>
  <text font-size="12.8" style="fill: #000000;text-anchor:start;font-family:sans-serif;font-style:normal;font-weight:normal" x="397" y="168">
    <tspan x="397" y="168">a[2]</tspan>
  </text>
  <text font-size="22.5778" style="fill: #000000;text-anchor:start;font-family:sans-serif;font-style:normal;font-weight:normal" x="284" y="135">
    <tspan x="284" y="135">a</tspan>
  </text>
  <g>
    <rect style="fill: #ffffff" x="186" y="26" width="40" height="40"/>
    <rect style="fill: none; fill-opacity:0; stroke-width: 2; stroke: #000000" x="186" y="26" width="40" height="40"/>
  </g>
  <g>
    <g>
      <rect style="fill: #ffffff" x="317" y="108" width="40" height="40"/>
      <rect style="fill: none; fill-opacity:0; stroke-width: 2; stroke: #000000" x="317" y="108" width="40" height="40"/>
    </g>
    <g>
      <rect style="fill: #ffffff" x="397" y="108" width="40" height="40"/>
      <rect style="fill: none; fill-opacity:0; stroke-width: 2; stroke: #000000" x="397" y="108" width="40" height="40"/>
    </g>
    <g>
      <rect style="fill: #ffffff" x="357" y="108" width="40" height="40"/>
      <rect style="fill: none; fill-opacity:0; stroke-width: 2; stroke: #000000" x="357" y="108" width="40" height="40"/>
    </g>
  </g>
  <text font-size="22.5778" style="fill: #000000;text-anchor:start;font-family:sans-serif;font-style:normal;font-weight:normal" x="135" y="52.75">
    <tspan x="135" y="52.75">pa1</tspan>
  </text>
  <g>
    <path style="fill: none; fill-opacity:0; stroke-width: 2; stroke: #000000" d="M 225.996 95.9355 C 245.996,79.5855 251,74.75 283,74.75 C 315,74.75 316.079,78.7481 324.272,98.037"/>
    <polygon style="fill: #000000" points="327.205,104.94 318.693,97.6908 324.272,98.037 327.897,93.7811 "/>
    <polygon style="fill: none; fill-opacity:0; stroke-width: 2; stroke: #000000" points="327.205,104.94 318.693,97.6908 324.272,98.037 327.897,93.7811 "/>
  </g>
  <g>
    <rect style="fill: #ffffff" x="185" y="93.1" width="40" height="40"/>
    <rect style="fill: none; fill-opacity:0; stroke-width: 2; stroke: #000000" x="185" y="93.1" width="40" height="40"/>
  </g>
  <text font-size="22.5778" style="fill: #000000;text-anchor:start;font-family:sans-serif;font-style:normal;font-weight:normal" x="135" y="121.85">
    <tspan x="135" y="121.85">pa2</tspan>
  </text>
</svg>
