<?xml version="1.0" encoding="UTF-8" standalone="no"?>
<!DOCTYPE svg PUBLIC "-//W3C//DTD SVG 1.0//EN" "http://www.w3.org/TR/2001/PR-SVG-20010719/DTD/svg10.dtd">
<svg width="8cm" height="9cm" viewBox="283 -44 157 165" xmlns="http://www.w3.org/2000/svg" xmlns:xlink="http://www.w3.org/1999/xlink">
  <g>
    <rect style="fill: #d8e5e5" x="300" y="80" width="40" height="40"/>
    <rect style="fill: none; fill-opacity:0; stroke-width: 2; stroke: #000000" x="300" y="80" width="40" height="40"/>
  </g>
  <g>
    <rect style="fill: #ffffff" x="380" y="80" width="40" height="40"/>
    <rect style="fill: none; fill-opacity:0; stroke-width: 2; stroke: #000000" x="380" y="80" width="40" height="40"/>
  </g>
  <g>
    <rect style="fill: #d8e5e5" x="340" y="80" width="40" height="40"/>
    <rect style="fill: none; fill-opacity:0; stroke-width: 2; stroke: #000000" x="340" y="80" width="40" height="40"/>
  </g>
  <g>
    <g>
      <rect style="fill: #ffffff" x="399" y="-40" width="40" height="40"/>
      <rect style="fill: none; fill-opacity:0; stroke-width: 2; stroke: #000000" x="399" y="-40" width="40" height="40"/>
    </g>
    <text font-size="22.5778" style="fill: #000000;text-anchor:start;font-family:sans-serif;font-style:normal;font-weight:normal" x="411" y="-13.5">
      <tspan x="411" y="-13.5">q</tspan>
    </text>
  </g>
  <g>
    <g>
      <rect style="fill: #ffffff" x="285" y="-42" width="40" height="40"/>
      <rect style="fill: none; fill-opacity:0; stroke-width: 2; stroke: #000000" x="285" y="-42" width="40" height="40"/>
    </g>
    <text font-size="22.5778" style="fill: #000000;text-anchor:start;font-family:sans-serif;font-style:normal;font-weight:normal" x="296" y="-16">
      <tspan x="296" y="-16">p</tspan>
    </text>
  </g>
  <g>
    <path style="fill: none; fill-opacity:0; stroke-width: 2; stroke: #000000" d="M 305 -1.05341 C 305,10.4466 320,66.5534 320,69.3173"/>
    <polygon style="fill: #000000" points="320,76.8173 315,66.8173 320,69.3173 325,66.8173 "/>
    <polygon style="fill: none; fill-opacity:0; stroke-width: 2; stroke: #000000" points="320,76.8173 315,66.8173 320,69.3173 325,66.8173 "/>
  </g>
  <g>
    <path style="fill: none; fill-opacity:0; stroke-width: 2; stroke: #000000" d="M 415.348 0.996857 C 413.348,12.4969 400,66.5587 400,69.3227"/>
    <polygon style="fill: #000000" points="400,76.8227 395,66.8227 400,69.3227 405,66.8227 "/>
    <polygon style="fill: none; fill-opacity:0; stroke-width: 2; stroke: #000000" points="400,76.8227 395,66.8227 400,69.3227 405,66.8227 "/>
  </g>
</svg>
