<?xml version="1.0" encoding="UTF-8" standalone="no"?>
<!DOCTYPE svg PUBLIC "-//W3C//DTD SVG 1.0//EN" "http://www.w3.org/TR/2001/PR-SVG-20010719/DTD/svg10.dtd">
<svg width="31cm" height="6cm" viewBox="113 50 606 102" xmlns="http://www.w3.org/2000/svg" xmlns:xlink="http://www.w3.org/1999/xlink">
  <rect style="fill: none; fill-opacity:0; stroke-width: 2; stroke: #000000" x="254" y="71" width="80" height="80"/>
  <line style="fill: none; fill-opacity:0; stroke-width: 2; stroke-dasharray: 4; stroke: #000000" x1="254" y1="111" x2="294" y2="111"/>
  <line style="fill: none; fill-opacity:0; stroke-width: 2; stroke-dasharray: 4; stroke: #000000" x1="294" y1="71" x2="294" y2="151"/>
  <text font-size="12.8" style="fill: #000000;text-anchor:start;font-family:sans-serif;font-style:normal;font-weight:normal" x="259" y="133">
    <tspan x="259" y="133">point</tspan>
  </text>
  <text font-size="12.8" style="fill: #000000;text-anchor:start;font-family:sans-serif;font-style:normal;font-weight:normal" x="265" y="96">
    <tspan x="265" y="96">"A"</tspan>
  </text>
  <text font-size="12.8" style="fill: #000000;text-anchor:start;font-family:sans-serif;font-style:normal;font-weight:normal" x="302" y="134">
    <tspan x="302" y="134">next</tspan>
  </text>
  <text font-size="12.8" style="fill: #000000;text-anchor:start;font-family:sans-serif;font-style:normal;font-weight:normal" x="277" y="64">
    <tspan x="277" y="64">node</tspan>
  </text>
  <rect style="fill: none; fill-opacity:0; stroke-width: 2; stroke: #000000" x="115" y="84" width="60" height="60"/>
  <text font-size="12.8" style="fill: #000000;text-anchor:start;font-family:sans-serif;font-style:normal;font-weight:normal" x="136" y="77">
    <tspan x="136" y="77">list</tspan>
  </text>
  <text font-size="12.8" style="fill: #000000;text-anchor:start;font-family:sans-serif;font-style:normal;font-weight:normal" x="134" y="134">
    <tspan x="134" y="134">first</tspan>
  </text>
  <ellipse style="fill: none; fill-opacity:0; stroke-width: 2; stroke: #000000" cx="146" cy="111" rx="10" ry="10"/>
  <g>
    <line style="fill: none; fill-opacity:0; stroke-width: 2; stroke: #000000" x1="157.002" y1="111" x2="244.264" y2="111"/>
    <polygon style="fill: #000000" points="251.764,111 241.764,116 244.264,111 241.764,106 "/>
    <polygon style="fill: none; fill-opacity:0; stroke-width: 2; stroke: #000000" points="251.764,111 241.764,116 244.264,111 241.764,106 "/>
  </g>
  <ellipse style="fill: none; fill-opacity:0; stroke-width: 2; stroke: #000000" cx="313" cy="109" rx="10" ry="10"/>
  <text font-size="12.8" style="fill: #000000;text-anchor:start;font-family:sans-serif;font-style:normal;font-weight:normal" x="687" y="135">
    <tspan x="687" y="135">NULL</tspan>
  </text>
  <rect style="fill: none; fill-opacity:0; stroke-width: 2; stroke: #000000" x="553" y="71" width="80" height="80"/>
  <line style="fill: none; fill-opacity:0; stroke-width: 2; stroke-dasharray: 4; stroke: #000000" x1="553" y1="111" x2="593" y2="111"/>
  <line style="fill: none; fill-opacity:0; stroke-width: 2; stroke-dasharray: 4; stroke: #000000" x1="593" y1="71" x2="593" y2="151"/>
  <text font-size="12.8" style="fill: #000000;text-anchor:start;font-family:sans-serif;font-style:normal;font-weight:normal" x="557" y="134">
    <tspan x="557" y="134">point</tspan>
  </text>
  <text font-size="12.8" style="fill: #000000;text-anchor:start;font-family:sans-serif;font-style:normal;font-weight:normal" x="564" y="96">
    <tspan x="564" y="96">"C"</tspan>
  </text>
  <text font-size="12.8" style="fill: #000000;text-anchor:start;font-family:sans-serif;font-style:normal;font-weight:normal" x="601" y="134">
    <tspan x="601" y="134">next</tspan>
  </text>
  <text font-size="12.8" style="fill: #000000;text-anchor:start;font-family:sans-serif;font-style:normal;font-weight:normal" x="576" y="65">
    <tspan x="576" y="65">node</tspan>
  </text>
  <ellipse style="fill: none; fill-opacity:0; stroke-width: 2; stroke: #000000" cx="612" cy="110" rx="10" ry="10"/>
  <g>
    <line style="fill: none; fill-opacity:0; stroke-width: 2; stroke: #000000" x1="622" y1="110" x2="700.265" y2="110.889"/>
    <polygon style="fill: #000000" points="707.764,110.975 697.708,115.861 700.265,110.889 697.822,105.861 "/>
    <polygon style="fill: none; fill-opacity:0; stroke-width: 2; stroke: #000000" points="707.764,110.975 697.708,115.861 700.265,110.889 697.822,105.861 "/>
  </g>
  <rect style="fill: none; fill-opacity:0; stroke-width: 2; stroke: #000000" x="403" y="70" width="80" height="80"/>
  <line style="fill: none; fill-opacity:0; stroke-width: 2; stroke-dasharray: 4; stroke: #000000" x1="403" y1="110" x2="443" y2="110"/>
  <line style="fill: none; fill-opacity:0; stroke-width: 2; stroke-dasharray: 4; stroke: #000000" x1="443" y1="70" x2="443" y2="150"/>
  <text font-size="12.8" style="fill: #000000;text-anchor:start;font-family:sans-serif;font-style:normal;font-weight:normal" x="407" y="133">
    <tspan x="407" y="133">point</tspan>
  </text>
  <text font-size="12.8" style="fill: #000000;text-anchor:start;font-family:sans-serif;font-style:normal;font-weight:normal" x="414" y="95">
    <tspan x="414" y="95">"B"</tspan>
  </text>
  <text font-size="12.8" style="fill: #000000;text-anchor:start;font-family:sans-serif;font-style:normal;font-weight:normal" x="451" y="133">
    <tspan x="451" y="133">next</tspan>
  </text>
  <text font-size="12.8" style="fill: #000000;text-anchor:start;font-family:sans-serif;font-style:normal;font-weight:normal" x="426" y="64">
    <tspan x="426" y="64">node</tspan>
  </text>
  <ellipse style="fill: none; fill-opacity:0; stroke-width: 2; stroke: #000000" cx="462" cy="109" rx="10" ry="10"/>
  <g>
    <line style="fill: none; fill-opacity:0; stroke-width: 2; stroke: #000000" x1="473.005" y1="109" x2="540.264" y2="109"/>
    <polygon style="fill: #000000" points="547.764,109 537.764,114 540.264,109 537.764,104 "/>
    <polygon style="fill: none; fill-opacity:0; stroke-width: 2; stroke: #000000" points="547.764,109 537.764,114 540.264,109 537.764,104 "/>
  </g>
  <g>
    <line style="fill: none; fill-opacity:0; stroke-width: 2; stroke: #000000" x1="323.997" y1="109.122" x2="393.265" y2="109.892"/>
    <polygon style="fill: #000000" points="400.764,109.975 390.709,114.864 393.265,109.892 390.82,104.864 "/>
    <polygon style="fill: none; fill-opacity:0; stroke-width: 2; stroke: #000000" points="400.764,109.975 390.709,114.864 393.265,109.892 390.82,104.864 "/>
  </g>
</svg>
