<?xml version="1.0" encoding="UTF-8" standalone="no"?>
<!DOCTYPE svg PUBLIC "-//W3C//DTD SVG 1.0//EN" "http://www.w3.org/TR/2001/PR-SVG-20010719/DTD/svg10.dtd">
<svg width="24cm" height="13cm" viewBox="113 50 461 244" xmlns="http://www.w3.org/2000/svg" xmlns:xlink="http://www.w3.org/1999/xlink">
  <rect style="fill: none; fill-opacity:0; stroke-width: 2; stroke: #000000" x="254" y="71" width="80" height="80"/>
  <line style="fill: none; fill-opacity:0; stroke-width: 2; stroke-dasharray: 4; stroke: #000000" x1="254" y1="111" x2="294" y2="111"/>
  <line style="fill: none; fill-opacity:0; stroke-width: 2; stroke-dasharray: 4; stroke: #000000" x1="294" y1="71" x2="294" y2="151"/>
  <text font-size="12.8" style="fill: #000000;text-anchor:start;font-family:sans-serif;font-style:normal;font-weight:normal" x="259" y="134">
    <tspan x="259" y="134">point</tspan>
  </text>
  <text font-size="12.8" style="fill: #000000;text-anchor:start;font-family:sans-serif;font-style:normal;font-weight:normal" x="265" y="96">
    <tspan x="265" y="96">"A"</tspan>
  </text>
  <text font-size="12.8" style="fill: #000000;text-anchor:start;font-family:sans-serif;font-style:normal;font-weight:normal" x="302" y="134">
    <tspan x="302" y="134">next</tspan>
  </text>
  <text font-size="12.8" style="fill: #000000;text-anchor:start;font-family:sans-serif;font-style:normal;font-weight:normal" x="277" y="64">
    <tspan x="277" y="64">node</tspan>
  </text>
  <rect style="fill: none; fill-opacity:0; stroke-width: 2; stroke: #000000" x="115" y="84" width="60" height="60"/>
  <text font-size="12.8" style="fill: #000000;text-anchor:start;font-family:sans-serif;font-style:normal;font-weight:normal" x="136" y="77">
    <tspan x="136" y="77">list</tspan>
  </text>
  <text font-size="12.8" style="fill: #000000;text-anchor:start;font-family:sans-serif;font-style:normal;font-weight:normal" x="134" y="134">
    <tspan x="134" y="134">first</tspan>
  </text>
  <ellipse style="fill: none; fill-opacity:0; stroke-width: 2; stroke: #000000" cx="146" cy="111" rx="10" ry="10"/>
  <g>
    <line style="fill: none; fill-opacity:0; stroke-width: 2; stroke: #000000" x1="157.002" y1="111" x2="244.264" y2="111"/>
    <polygon style="fill: #000000" points="251.764,111 241.764,116 244.264,111 241.764,106 "/>
    <polygon style="fill: none; fill-opacity:0; stroke-width: 2; stroke: #000000" points="251.764,111 241.764,116 244.264,111 241.764,106 "/>
  </g>
  <g>
    <line style="fill: none; fill-opacity:0; stroke-width: 2; stroke-dasharray: 20; stroke: #ff0000" x1="323.989" y1="109.081" x2="397.328" y2="109.625"/>
    <polygon style="fill: #ff0000" points="404.828,109.68 394.791,114.606 397.328,109.625 394.865,104.606 "/>
    <polygon style="fill: none; fill-opacity:0; stroke-width: 2; stroke: #ff0000" points="404.828,109.68 394.791,114.606 397.328,109.625 394.865,104.606 "/>
  </g>
  <ellipse style="fill: none; fill-opacity:0; stroke-width: 2; stroke: #000000" cx="313" cy="109" rx="10" ry="10"/>
  <text font-size="12.8" style="fill: #000000;text-anchor:start;font-family:sans-serif;font-style:normal;font-weight:normal" x="542" y="134">
    <tspan x="542" y="134">NULL</tspan>
  </text>
  <rect style="fill: none; fill-opacity:0; stroke-width: 2; stroke: #000000" x="408" y="70" width="80" height="80"/>
  <line style="fill: none; fill-opacity:0; stroke-width: 2; stroke-dasharray: 4; stroke: #000000" x1="408" y1="110" x2="448" y2="110"/>
  <line style="fill: none; fill-opacity:0; stroke-width: 2; stroke-dasharray: 4; stroke: #000000" x1="448" y1="70" x2="448" y2="150"/>
  <text font-size="12.8" style="fill: #000000;text-anchor:start;font-family:sans-serif;font-style:normal;font-weight:normal" x="413" y="132">
    <tspan x="413" y="132">point</tspan>
  </text>
  <text font-size="12.8" style="fill: #000000;text-anchor:start;font-family:sans-serif;font-style:normal;font-weight:normal" x="419" y="95">
    <tspan x="419" y="95">"C"</tspan>
  </text>
  <text font-size="12.8" style="fill: #000000;text-anchor:start;font-family:sans-serif;font-style:normal;font-weight:normal" x="456" y="133">
    <tspan x="456" y="133">next</tspan>
  </text>
  <text font-size="12.8" style="fill: #000000;text-anchor:start;font-family:sans-serif;font-style:normal;font-weight:normal" x="431" y="64">
    <tspan x="431" y="64">node</tspan>
  </text>
  <ellipse style="fill: none; fill-opacity:0; stroke-width: 2; stroke: #000000" cx="467" cy="109" rx="10" ry="10"/>
  <g>
    <line style="fill: none; fill-opacity:0; stroke-width: 2; stroke: #000000" x1="477" y1="109" x2="555.265" y2="109.889"/>
    <polygon style="fill: #000000" points="562.764,109.975 552.708,114.861 555.265,109.889 552.822,104.861 "/>
    <polygon style="fill: none; fill-opacity:0; stroke-width: 2; stroke: #000000" points="562.764,109.975 552.708,114.861 555.265,109.889 552.822,104.861 "/>
  </g>
  <g>
    <line style="fill: none; fill-opacity:0; stroke-width: 2; stroke: #000000" x1="294" y1="201" x2="294" y2="160.736"/>
    <polygon style="fill: #000000" points="294,153.236 299,163.236 294,160.736 289,163.236 "/>
    <polygon style="fill: none; fill-opacity:0; stroke-width: 2; stroke: #000000" points="294,153.236 299,163.236 294,160.736 289,163.236 "/>
  </g>
  <text font-size="12.8" style="fill: #000000;text-anchor:start;font-family:sans-serif;font-style:normal;font-weight:normal" x="253" y="215">
    <tspan x="253" y="215">insert_after</tspan>
  </text>
  <rect style="fill: none; fill-opacity:0; stroke-width: 2; stroke: #000000" x="340" y="213" width="80" height="80"/>
  <line style="fill: none; fill-opacity:0; stroke-width: 2; stroke-dasharray: 4; stroke: #000000" x1="340" y1="253" x2="380" y2="253"/>
  <line style="fill: none; fill-opacity:0; stroke-width: 2; stroke-dasharray: 4; stroke: #000000" x1="380" y1="213" x2="380" y2="293"/>
  <text font-size="12.8" style="fill: #000000;text-anchor:start;font-family:sans-serif;font-style:normal;font-weight:normal" x="343" y="276">
    <tspan x="343" y="276">point</tspan>
  </text>
  <text font-size="12.8" style="fill: #000000;text-anchor:start;font-family:sans-serif;font-style:normal;font-weight:normal" x="351" y="238">
    <tspan x="351" y="238">"B"</tspan>
  </text>
  <text font-size="12.8" style="fill: #000000;text-anchor:start;font-family:sans-serif;font-style:normal;font-weight:normal" x="388" y="276">
    <tspan x="388" y="276">next</tspan>
  </text>
  <text font-size="12.8" style="fill: #000000;text-anchor:start;font-family:sans-serif;font-style:normal;font-weight:normal" x="363" y="207">
    <tspan x="363" y="207">node</tspan>
  </text>
  <ellipse style="fill: none; fill-opacity:0; stroke-width: 2; stroke: #000000" cx="399" cy="252" rx="10" ry="10"/>
  <g>
    <line style="fill: none; fill-opacity:0; stroke-width: 2; stroke: #00ff00" x1="403.764" y1="242.083" x2="443.784" y2="158.776"/>
    <polygon style="fill: #00ff00" points="447.032,152.016 447.208,163.195 443.784,158.776 438.195,158.864 "/>
    <polygon style="fill: none; fill-opacity:0; stroke-width: 2; stroke: #00ff00" points="447.032,152.016 447.208,163.195 443.784,158.776 438.195,158.864 "/>
  </g>
  <g>
    <line style="fill: none; fill-opacity:0; stroke-width: 2; stroke: #00ff00" x1="315.755" y1="119.613" x2="337.553" y2="203.576"/>
    <polygon style="fill: #00ff00" points="339.438,210.836 332.086,202.413 337.553,203.576 341.765,199.9 "/>
    <polygon style="fill: none; fill-opacity:0; stroke-width: 2; stroke: #00ff00" points="339.438,210.836 332.086,202.413 337.553,203.576 341.765,199.9 "/>
  </g>
</svg>
