<?xml version="1.0" encoding="UTF-8" standalone="no"?>
<!DOCTYPE svg PUBLIC "-//W3C//DTD SVG 1.0//EN" "http://www.w3.org/TR/2001/PR-SVG-20010719/DTD/svg10.dtd">
<svg width="18cm" height="9cm" viewBox="145 58 357 166" xmlns="http://www.w3.org/2000/svg" xmlns:xlink="http://www.w3.org/1999/xlink">
  <text font-size="22.5778" style="fill: #000000;text-anchor:start;font-family:sans-serif;font-style:normal;font-weight:normal" x="278" y="149">
    <tspan x="278" y="149">a</tspan>
  </text>
  <g>
    <g>
      <rect style="fill: #ffffff" x="300" y="120" width="40" height="40"/>
      <rect style="fill: none; fill-opacity:0; stroke-width: 2; stroke: #000000" x="300" y="120" width="40" height="40"/>
    </g>
    <g>
      <rect style="fill: #ffffff" x="380" y="120" width="40" height="40"/>
      <rect style="fill: none; fill-opacity:0; stroke-width: 2; stroke: #000000" x="380" y="120" width="40" height="40"/>
    </g>
    <g>
      <rect style="fill: #ffffff" x="340" y="120" width="40" height="40"/>
      <rect style="fill: none; fill-opacity:0; stroke-width: 2; stroke: #000000" x="340" y="120" width="40" height="40"/>
    </g>
  </g>
  <g>
    <path style="fill: none; fill-opacity:0; stroke-width: 2; stroke-dasharray: 4; stroke: #ff0000" d="M 224.997 84.9353 C 244.997,68.5853 326,57 360,60 C 394,63 459.079,90.7485 467.273,110.037"/>
    <polygon style="fill: #ff0000" points="470.205,116.94 461.693,109.691 467.273,110.037 470.897,105.782 "/>
    <polygon style="fill: none; fill-opacity:0; stroke-width: 2; stroke: #ff0000" points="470.205,116.94 461.693,109.691 467.273,110.037 470.897,105.782 "/>
  </g>
  <g>
    <rect style="fill: #ffffff" x="184" y="82.1" width="40" height="40"/>
    <rect style="fill: none; fill-opacity:0; stroke-width: 2; stroke-dasharray: 4; stroke: #000000" x="184" y="82.1" width="40" height="40"/>
  </g>
  <text font-size="22.5778" style="fill: #000000;text-anchor:start;font-family:sans-serif;font-style:normal;font-weight:normal" x="145" y="121.85">
    <tspan x="145" y="121.85">pa</tspan>
  </text>
  <g>
    <rect style="fill: #ffffff" x="182.1" y="182.6" width="40" height="40"/>
    <rect style="fill: none; fill-opacity:0; stroke-width: 2; stroke: #000000" x="182.1" y="182.6" width="40" height="40"/>
  </g>
  <g>
    <path style="fill: none; fill-opacity:0; stroke-width: 2; stroke: #00ff00" d="M 223.079 201.252 C 247.979,199.652 277,205 313,199 C 349,193 381.997,182.007 387.162,169.956"/>
    <polygon style="fill: #00ff00" points="390.116,163.063 390.773,174.224 387.162,169.956 381.581,170.285 "/>
    <polygon style="fill: none; fill-opacity:0; stroke-width: 2; stroke: #00ff00" points="390.116,163.063 390.773,174.224 387.162,169.956 381.581,170.285 "/>
  </g>
  <text font-size="19.7556" style="fill: #000000;text-anchor:start;font-family:sans-serif;font-style:normal;font-weight:normal" x="181" y="158.038">
    <tspan x="181" y="158.038">pa -= 2</tspan>
  </text>
  <g>
    <line style="fill: none; fill-opacity:0; stroke-width: 2; stroke: #000000" x1="173" y1="140" x2="173" y2="160.264"/>
    <polygon style="fill: #000000" points="173,167.764 168,157.764 173,160.264 178,157.764 "/>
    <polygon style="fill: none; fill-opacity:0; stroke-width: 2; stroke: #000000" points="173,167.764 168,157.764 173,160.264 178,157.764 "/>
  </g>
  <text font-size="22.5778" style="fill: #000000;text-anchor:start;font-family:sans-serif;font-style:normal;font-weight:normal" x="145" y="209.138">
    <tspan x="145" y="209.138">pa</tspan>
  </text>
  <g>
    <rect style="fill: #ffffff" x="460" y="120" width="40" height="40"/>
    <rect style="fill: none; fill-opacity:0; stroke-width: 2; stroke-dasharray: 4; stroke: #ff0000" x="460" y="120" width="40" height="40"/>
  </g>
  <g>
    <rect style="fill: #ffffff" x="420" y="120" width="40" height="40"/>
    <rect style="fill: none; fill-opacity:0; stroke-width: 2; stroke-dasharray: 4; stroke: #ff0000" x="420" y="120" width="40" height="40"/>
  </g>
</svg>
