<?xml version="1.0" encoding="UTF-8" standalone="no"?>
<!DOCTYPE svg PUBLIC "-//W3C//DTD SVG 1.0//EN" "http://www.w3.org/TR/2001/PR-SVG-20010719/DTD/svg10.dtd">
<svg width="9cm" height="13cm" viewBox="198 138 163 243" xmlns="http://www.w3.org/2000/svg" xmlns:xlink="http://www.w3.org/1999/xlink">
  <g>
    <g>
      <rect style="fill: #ffffff" x="200" y="140" width="40" height="40"/>
      <rect style="fill: none; fill-opacity:0; stroke-width: 2; stroke: #000000" x="200" y="140" width="40" height="40"/>
    </g>
    <g>
      <rect style="fill: #ffffff" x="280" y="140" width="40" height="40"/>
      <rect style="fill: none; fill-opacity:0; stroke-width: 2; stroke: #000000" x="280" y="140" width="40" height="40"/>
    </g>
    <g>
      <rect style="fill: #ffffff" x="240" y="140" width="40" height="40"/>
      <rect style="fill: none; fill-opacity:0; stroke-width: 2; stroke: #000000" x="240" y="140" width="40" height="40"/>
    </g>
  </g>
  <text font-size="12.8" style="fill: #000000;text-anchor:start;font-family:sans-serif;font-style:normal;font-weight:normal" x="140" y="160">
    <tspan x="140" y="160"></tspan>
  </text>
  <text font-size="22.5778" style="fill: #000000;text-anchor:start;font-family:sans-serif;font-style:normal;font-weight:normal" x="254.2" y="165.2">
    <tspan x="254.2" y="165.2">3</tspan>
  </text>
  <text font-size="22.5778" style="fill: #000000;text-anchor:start;font-family:sans-serif;font-style:normal;font-weight:normal" x="215.2" y="165.2">
    <tspan x="215.2" y="165.2">9</tspan>
  </text>
  <text font-size="22.5778" style="fill: #000000;text-anchor:start;font-family:sans-serif;font-style:normal;font-weight:normal" x="286.4" y="166.4">
    <tspan x="286.4" y="166.4">40</tspan>
  </text>
  <g>
    <rect style="fill: #ffffff" x="240" y="240" width="40" height="40"/>
    <rect style="fill: none; fill-opacity:0; stroke-width: 2; stroke-dasharray: 4; stroke: #000000" x="240" y="240" width="40" height="40"/>
  </g>
  <g>
    <line style="fill: none; fill-opacity:0; stroke-width: 2; stroke: #0000ff" x1="259.776" y1="203.654" x2="259.842" y2="190.732"/>
    <polygon style="fill: #0000ff" points="259.881,183.232 264.829,193.257 259.842,190.732 254.83,193.206 "/>
    <polygon style="fill: none; fill-opacity:0; stroke-width: 2; stroke: #0000ff" points="259.881,183.232 264.829,193.257 259.842,190.732 254.83,193.206 "/>
  </g>
  <g>
    <rect style="fill: #ffffff" x="200.096" y="240.448" width="40" height="40"/>
    <rect style="fill: none; fill-opacity:0; stroke-width: 2; stroke: #000000" x="200.096" y="240.448" width="40" height="40"/>
  </g>
  <g>
    <rect style="fill: #ffffff" x="320" y="240" width="40" height="40"/>
    <rect style="fill: none; fill-opacity:0; stroke-width: 2; stroke: #000000" x="320" y="240" width="40" height="40"/>
  </g>
  <g>
    <rect style="fill: #ffffff" x="280" y="240" width="40" height="40"/>
    <rect style="fill: none; fill-opacity:0; stroke-width: 2; stroke: #000000" x="280" y="240" width="40" height="40"/>
  </g>
  <text font-size="22.5778" style="fill: #000000;text-anchor:start;font-family:sans-serif;font-style:normal;font-weight:normal" x="294.2" y="265.2">
    <tspan x="294.2" y="265.2">3</tspan>
  </text>
  <text font-size="22.5778" style="fill: #000000;text-anchor:start;font-family:sans-serif;font-style:normal;font-weight:normal" x="215.296" y="265.648">
    <tspan x="215.296" y="265.648">9</tspan>
  </text>
  <text font-size="22.5778" style="fill: #000000;text-anchor:start;font-family:sans-serif;font-style:normal;font-weight:normal" x="326.4" y="266.4">
    <tspan x="326.4" y="266.4">40</tspan>
  </text>
  <g>
    <line style="fill: none; fill-opacity:0; stroke-width: 2; stroke: #0000ff" x1="261.276" y1="304.152" x2="260.888" y2="290.741"/>
    <polygon style="fill: #0000ff" points="260.672,283.244 265.959,293.095 260.888,290.741 255.963,293.384 "/>
    <polygon style="fill: none; fill-opacity:0; stroke-width: 2; stroke: #0000ff" points="260.672,283.244 265.959,293.095 260.888,290.741 255.963,293.384 "/>
  </g>
  <g>
    <rect style="fill: #ffffff" x="201" y="340" width="40" height="40"/>
    <rect style="fill: none; fill-opacity:0; stroke-width: 2; stroke: #000000" x="201" y="340" width="40" height="40"/>
  </g>
  <g>
    <rect style="fill: #ffffff" x="320.4" y="340.6" width="40" height="40"/>
    <rect style="fill: none; fill-opacity:0; stroke-width: 2; stroke: #000000" x="320.4" y="340.6" width="40" height="40"/>
  </g>
  <g>
    <rect style="fill: #ffffff" x="280.4" y="340.6" width="40" height="40"/>
    <rect style="fill: none; fill-opacity:0; stroke-width: 2; stroke: #000000" x="280.4" y="340.6" width="40" height="40"/>
  </g>
  <text font-size="22.5778" style="fill: #000000;text-anchor:start;font-family:sans-serif;font-style:normal;font-weight:normal" x="294.6" y="365.8">
    <tspan x="294.6" y="365.8">3</tspan>
  </text>
  <text font-size="22.5778" style="fill: #000000;text-anchor:start;font-family:sans-serif;font-style:normal;font-weight:normal" x="326.8" y="367">
    <tspan x="326.8" y="367">40</tspan>
  </text>
  <g>
    <rect style="fill: #ffffff" x="240.376" y="340.252" width="40" height="40"/>
    <rect style="fill: none; fill-opacity:0; stroke-width: 2; stroke: #000000" x="240.376" y="340.252" width="40" height="40"/>
  </g>
  <text font-size="22.5778" style="fill: #000000;text-anchor:start;font-family:sans-serif;font-style:normal;font-weight:normal" x="214.376" y="367.752">
    <tspan x="214.376" y="367.752">9</tspan>
  </text>
  <text font-size="22.5778" style="fill: #000000;text-anchor:start;font-family:sans-serif;font-style:normal;font-weight:normal" x="254.876" y="367.752">
    <tspan x="254.876" y="367.752">7</tspan>
  </text>
</svg>
