<?xml version="1.0" encoding="UTF-8" standalone="no"?>
<!DOCTYPE svg PUBLIC "-//W3C//DTD SVG 1.0//EN" "http://www.w3.org/TR/2001/PR-SVG-20010719/DTD/svg10.dtd">
<svg width="28cm" height="11cm" viewBox="118 58 543 203" xmlns="http://www.w3.org/2000/svg" xmlns:xlink="http://www.w3.org/1999/xlink">
  <text font-size="12.8" style="fill: #000000;text-anchor:start;font-family:sans-serif;font-style:normal;font-weight:normal" x="140" y="160">
    <tspan x="140" y="160"></tspan>
  </text>
  <g>
    <g>
      <rect style="fill: #ffffff" x="340" y="60" width="40" height="40"/>
      <rect style="fill: none; fill-opacity:0; stroke-width: 2; stroke: #000000" x="340" y="60" width="40" height="40"/>
    </g>
    <g>
      <rect style="fill: #ffffff" x="380" y="60" width="60" height="40"/>
      <rect style="fill: none; fill-opacity:0; stroke-width: 2; stroke: #000000" x="380" y="60" width="60" height="40"/>
    </g>
  </g>
  <g>
    <g>
      <rect style="fill: #ffffff" x="200" y="140" width="40" height="40"/>
      <rect style="fill: none; fill-opacity:0; stroke-width: 2; stroke: #000000" x="200" y="140" width="40" height="40"/>
    </g>
    <g>
      <rect style="fill: #ffffff" x="240" y="140" width="60" height="40"/>
      <rect style="fill: none; fill-opacity:0; stroke-width: 2; stroke: #000000" x="240" y="140" width="60" height="40"/>
    </g>
  </g>
  <g>
    <g>
      <rect style="fill: #ffffff" x="120" y="220" width="40" height="40"/>
      <rect style="fill: none; fill-opacity:0; stroke-width: 2; stroke: #000000" x="120" y="220" width="40" height="40"/>
    </g>
    <g>
      <rect style="fill: #ffffff" x="160" y="220" width="60" height="40"/>
      <rect style="fill: none; fill-opacity:0; stroke-width: 2; stroke: #000000" x="160" y="220" width="60" height="40"/>
    </g>
  </g>
  <g>
    <g>
      <rect style="fill: #ffffff" x="280" y="220" width="40" height="40"/>
      <rect style="fill: none; fill-opacity:0; stroke-width: 2; stroke: #000000" x="280" y="220" width="40" height="40"/>
    </g>
    <g>
      <rect style="fill: #ffffff" x="320" y="220" width="60" height="40"/>
      <rect style="fill: none; fill-opacity:0; stroke-width: 2; stroke: #000000" x="320" y="220" width="60" height="40"/>
    </g>
  </g>
  <g>
    <g>
      <rect style="fill: #ffffff" x="480" y="140" width="40" height="40"/>
      <rect style="fill: none; fill-opacity:0; stroke-width: 2; stroke: #000000" x="480" y="140" width="40" height="40"/>
    </g>
    <g>
      <rect style="fill: #ffffff" x="520" y="140" width="60" height="40"/>
      <rect style="fill: none; fill-opacity:0; stroke-width: 2; stroke: #000000" x="520" y="140" width="60" height="40"/>
    </g>
  </g>
  <g>
    <g>
      <rect style="fill: #ffffff" x="400" y="220" width="40" height="40"/>
      <rect style="fill: none; fill-opacity:0; stroke-width: 2; stroke: #000000" x="400" y="220" width="40" height="40"/>
    </g>
    <g>
      <rect style="fill: #ffffff" x="440" y="220" width="60" height="40"/>
      <rect style="fill: none; fill-opacity:0; stroke-width: 2; stroke: #000000" x="440" y="220" width="60" height="40"/>
    </g>
  </g>
  <g>
    <g>
      <rect style="fill: #ffffff" x="560" y="220" width="40" height="40"/>
      <rect style="fill: none; fill-opacity:0; stroke-width: 2; stroke: #000000" x="560" y="220" width="40" height="40"/>
    </g>
    <g>
      <rect style="fill: #ffffff" x="600" y="220" width="60" height="40"/>
      <rect style="fill: none; fill-opacity:0; stroke-width: 2; stroke: #000000" x="600" y="220" width="60" height="40"/>
    </g>
  </g>
  <g>
    <line style="fill: none; fill-opacity:0; stroke-width: 2; stroke: #000000" x1="360" y1="100" x2="229.361" y2="137.325"/>
    <polygon style="fill: #000000" points="222.15,139.386 230.392,131.831 229.361,137.325 233.139,141.446 "/>
    <polygon style="fill: none; fill-opacity:0; stroke-width: 2; stroke: #000000" points="222.15,139.386 230.392,131.831 229.361,137.325 233.139,141.446 "/>
  </g>
  <g>
    <line style="fill: none; fill-opacity:0; stroke-width: 2; stroke: #000000" x1="270" y1="180" x2="294.158" y2="212.211"/>
    <polygon style="fill: #000000" points="298.658,218.211 288.658,213.211 294.158,212.211 296.658,207.211 "/>
    <polygon style="fill: none; fill-opacity:0; stroke-width: 2; stroke: #000000" points="298.658,218.211 288.658,213.211 294.158,212.211 296.658,207.211 "/>
  </g>
  <g>
    <line style="fill: none; fill-opacity:0; stroke-width: 2; stroke: #000000" x1="220" y1="180" x2="148.708" y2="215.646"/>
    <polygon style="fill: #000000" points="142,219 148.708,210.056 148.708,215.646 153.18,219 "/>
    <polygon style="fill: none; fill-opacity:0; stroke-width: 2; stroke: #000000" points="142,219 148.708,210.056 148.708,215.646 153.18,219 "/>
  </g>
  <g>
    <line style="fill: none; fill-opacity:0; stroke-width: 2; stroke: #000000" x1="410" y1="100" x2="491.103" y2="136.046"/>
    <polygon style="fill: #000000" points="497.957,139.092 486.788,139.6 491.103,136.046 490.849,130.461 "/>
    <polygon style="fill: none; fill-opacity:0; stroke-width: 2; stroke: #000000" points="497.957,139.092 486.788,139.6 491.103,136.046 490.849,130.461 "/>
  </g>
  <g>
    <line style="fill: none; fill-opacity:0; stroke-width: 2; stroke: #000000" x1="550" y1="180" x2="574.158" y2="212.211"/>
    <polygon style="fill: #000000" points="578.658,218.211 568.658,213.211 574.158,212.211 576.658,207.211 "/>
    <polygon style="fill: none; fill-opacity:0; stroke-width: 2; stroke: #000000" points="578.658,218.211 568.658,213.211 574.158,212.211 576.658,207.211 "/>
  </g>
  <g>
    <line style="fill: none; fill-opacity:0; stroke-width: 2; stroke: #000000" x1="500" y1="180" x2="428.708" y2="215.646"/>
    <polygon style="fill: #000000" points="422,219 428.708,210.056 428.708,215.646 433.18,219 "/>
    <polygon style="fill: none; fill-opacity:0; stroke-width: 2; stroke: #000000" points="422,219 428.708,210.056 428.708,215.646 433.18,219 "/>
  </g>
  <text font-size="12.8" style="fill: #000000;text-anchor:start;font-family:sans-serif;font-style:normal;font-weight:normal" x="564.666" y="246.17">
    <tspan x="564.666" y="246.17">1002</tspan>
  </text>
  <text font-size="12.8" style="fill: #000000;text-anchor:start;font-family:sans-serif;font-style:normal;font-weight:normal" x="213.972" y="164.921">
    <tspan x="213.972" y="164.921">51</tspan>
  </text>
  <text font-size="12.8" style="fill: #000000;text-anchor:start;font-family:sans-serif;font-style:normal;font-weight:normal" x="483.044" y="163.744">
    <tspan x="483.044" y="163.744">1001</tspan>
  </text>
  <text font-size="12.8" style="fill: #000000;text-anchor:start;font-family:sans-serif;font-style:normal;font-weight:normal" x="408.396" y="245.06">
    <tspan x="408.396" y="245.06">346</tspan>
  </text>
  <text font-size="12.8" style="fill: #000000;text-anchor:start;font-family:sans-serif;font-style:normal;font-weight:normal" x="349.296" y="85.7608">
    <tspan x="349.296" y="85.7608">103</tspan>
  </text>
  <text font-size="12.8" style="fill: #000000;text-anchor:start;font-family:sans-serif;font-style:normal;font-weight:normal" x="289.492" y="245.39">
    <tspan x="289.492" y="245.39">54</tspan>
  </text>
  <text font-size="12.8" style="fill: #000000;text-anchor:start;font-family:sans-serif;font-style:normal;font-weight:normal" x="137.605" y="244.824">
    <tspan x="137.605" y="244.824">2</tspan>
  </text>
  <text font-size="12.8" style="fill: #000000;text-anchor:start;font-family:sans-serif;font-style:normal;font-weight:normal" x="250.46" y="156.981">
    <tspan x="250.46" y="156.981">Nutz=</tspan>
    <tspan x="250.46" y="172.981">daten</tspan>
  </text>
  <text font-size="12.8" style="fill: #000000;text-anchor:start;font-family:sans-serif;font-style:normal;font-weight:normal" x="532.028" y="154.88">
    <tspan x="532.028" y="154.88">Nutz=</tspan>
    <tspan x="532.028" y="170.88">daten</tspan>
  </text>
  <text font-size="12.8" style="fill: #000000;text-anchor:start;font-family:sans-serif;font-style:normal;font-weight:normal" x="388.628" y="76.5326">
    <tspan x="388.628" y="76.5326">Nutz=</tspan>
    <tspan x="388.628" y="92.5326">daten</tspan>
  </text>
  <text font-size="12.8" style="fill: #000000;text-anchor:start;font-family:sans-serif;font-style:normal;font-weight:normal" x="164.334" y="236.198">
    <tspan x="164.334" y="236.198">Nutz=</tspan>
    <tspan x="164.334" y="252.198">daten</tspan>
  </text>
  <text font-size="12.8" style="fill: #000000;text-anchor:start;font-family:sans-serif;font-style:normal;font-weight:normal" x="329.796" y="237.612">
    <tspan x="329.796" y="237.612">Nutz=</tspan>
    <tspan x="329.796" y="253.612">daten</tspan>
  </text>
  <text font-size="12.8" style="fill: #000000;text-anchor:start;font-family:sans-serif;font-style:normal;font-weight:normal" x="450.712" y="236.904">
    <tspan x="450.712" y="236.904">Nutz=</tspan>
    <tspan x="450.712" y="252.904">daten</tspan>
  </text>
  <text font-size="12.8" style="fill: #000000;text-anchor:start;font-family:sans-serif;font-style:normal;font-weight:normal" x="609.104" y="236.198">
    <tspan x="609.104" y="236.198">Nutz=</tspan>
    <tspan x="609.104" y="252.198">daten</tspan>
  </text>
</svg>
