<?xml version="1.0" encoding="UTF-8" standalone="no"?>
<!DOCTYPE svg PUBLIC "-//W3C//DTD SVG 1.0//EN" "http://www.w3.org/TR/2001/PR-SVG-20010719/DTD/svg10.dtd">
<svg width="33cm" height="19cm" viewBox="19 39 651 376" xmlns="http://www.w3.org/2000/svg" xmlns:xlink="http://www.w3.org/1999/xlink">
  <g>
    <g>
      <ellipse style="fill: #ffffff" cx="365" cy="67" rx="45" ry="27"/>
      <ellipse style="fill: none; fill-opacity:0; stroke-width: 2; stroke: #000000" cx="365" cy="67" rx="45" ry="27"/>
    </g>
    <text font-size="12.8" style="fill: #000000;text-anchor:start;font-family:sans-serif;font-style:normal;font-weight:normal" x="336" y="72">
      <tspan x="336" y="72">Directory</tspan>
    </text>
  </g>
  <g>
    <g>
      <rect style="fill: #ffffff" x="500" y="360" width="89" height="53"/>
      <rect style="fill: none; fill-opacity:0; stroke-width: 2; stroke: #000000" x="500" y="360" width="89" height="53"/>
    </g>
    <text font-size="12.8" style="fill: #000000;text-anchor:start;font-family:sans-serif;font-style:normal;font-weight:normal" x="536" y="391">
      <tspan x="536" y="391">File</tspan>
    </text>
  </g>
  <g>
    <g>
      <rect style="fill: #ffffff" x="20" y="260" width="89" height="53"/>
      <rect style="fill: none; fill-opacity:0; stroke-width: 2; stroke: #000000" x="20" y="260" width="89" height="53"/>
    </g>
    <text font-size="12.8" style="fill: #000000;text-anchor:start;font-family:sans-serif;font-style:normal;font-weight:normal" x="29.2" y="290.3">
      <tspan x="29.2" y="290.3">Named Pipe</tspan>
    </text>
  </g>
  <g>
    <g>
      <rect style="fill: #ffffff" x="140" y="260" width="89" height="53"/>
      <rect style="fill: none; fill-opacity:0; stroke-width: 2; stroke: #000000" x="140" y="260" width="89" height="53"/>
    </g>
    <text font-size="12.8" style="fill: #000000;text-anchor:start;font-family:sans-serif;font-style:normal;font-weight:normal" x="142.4" y="282.6">
      <tspan x="142.4" y="282.6">UNIX Domain</tspan>
      <tspan x="142.4" y="298.6">Socket</tspan>
    </text>
  </g>
  <g>
    <g>
      <ellipse style="fill: #ffffff" cx="185" cy="187" rx="45" ry="27"/>
      <ellipse style="fill: none; fill-opacity:0; stroke-width: 2; stroke: #000000" cx="185" cy="187" rx="45" ry="27"/>
    </g>
    <text font-size="12.8" style="fill: #000000;text-anchor:start;font-family:sans-serif;font-style:normal;font-weight:normal" x="156" y="192">
      <tspan x="156" y="192">Directory</tspan>
    </text>
  </g>
  <g>
    <line style="fill: none; fill-opacity:0; stroke-width: 2; stroke: #000000" x1="335.469" y1="86.6875" x2="222.632" y2="161.912"/>
    <polygon style="fill: #000000" points="216.392,166.072 221.939,156.365 222.632,161.912 227.486,164.685 "/>
    <polygon style="fill: none; fill-opacity:0; stroke-width: 2; stroke: #000000" points="216.392,166.072 221.939,156.365 222.632,161.912 227.486,164.685 "/>
  </g>
  <g>
    <g>
      <rect style="fill: #ffffff" x="260" y="260" width="89" height="53"/>
      <rect style="fill: none; fill-opacity:0; stroke-width: 2; stroke: #000000" x="260" y="260" width="89" height="53"/>
    </g>
    <text font-size="12.8" style="fill: #000000;text-anchor:start;font-family:sans-serif;font-style:normal;font-weight:normal" x="278.2" y="284.3">
      <tspan x="278.2" y="284.3">Symbolic</tspan>
      <tspan x="278.2" y="300.3">Link</tspan>
    </text>
  </g>
  <g>
    <g>
      <rect style="fill: #ffffff" x="580" y="260" width="89" height="53"/>
      <rect style="fill: none; fill-opacity:0; stroke-width: 2; stroke: #000000" x="580" y="260" width="89" height="53"/>
    </g>
    <text font-size="12.8" style="fill: #000000;text-anchor:start;font-family:sans-serif;font-style:normal;font-weight:normal" x="616" y="291">
      <tspan x="616" y="291">File</tspan>
    </text>
  </g>
  <g>
    <g>
      <ellipse style="fill: #ffffff" cx="545" cy="187" rx="45" ry="27"/>
      <ellipse style="fill: none; fill-opacity:0; stroke-width: 2; stroke: #000000" cx="545" cy="187" rx="45" ry="27"/>
    </g>
    <text font-size="12.8" style="fill: #000000;text-anchor:start;font-family:sans-serif;font-style:normal;font-weight:normal" x="516" y="192">
      <tspan x="516" y="192">Directory</tspan>
    </text>
  </g>
  <g>
    <g>
      <ellipse style="fill: #ffffff" cx="465" cy="287" rx="45" ry="27"/>
      <ellipse style="fill: none; fill-opacity:0; stroke-width: 2; stroke: #000000" cx="465" cy="287" rx="45" ry="27"/>
    </g>
    <text font-size="12.8" style="fill: #000000;text-anchor:start;font-family:sans-serif;font-style:normal;font-weight:normal" x="436" y="292">
      <tspan x="436" y="292">Directory</tspan>
    </text>
  </g>
  <g>
    <line style="fill: none; fill-opacity:0; stroke-width: 2; stroke: #000000" x1="394.531" y1="86.6875" x2="507.368" y2="161.912"/>
    <polygon style="fill: #000000" points="513.608,166.072 502.514,164.685 507.368,161.912 508.061,156.365 "/>
    <polygon style="fill: none; fill-opacity:0; stroke-width: 2; stroke: #000000" points="513.608,166.072 502.514,164.685 507.368,161.912 508.061,156.365 "/>
  </g>
  <g>
    <line style="fill: none; fill-opacity:0; stroke-width: 2; stroke: #000000" x1="157.78" y1="209.476" x2="105.317" y2="252.796"/>
    <polygon style="fill: #000000" points="99.5338,257.572 104.061,247.349 105.317,252.796 110.428,255.06 "/>
    <polygon style="fill: none; fill-opacity:0; stroke-width: 2; stroke: #000000" points="99.5338,257.572 104.061,247.349 105.317,252.796 110.428,255.06 "/>
  </g>
  <g>
    <line style="fill: none; fill-opacity:0; stroke-width: 2; stroke: #000000" x1="184.859" y1="214.997" x2="184.687" y2="249.259"/>
    <polygon style="fill: #000000" points="184.649,256.759 179.7,246.734 184.687,249.259 189.7,246.785 "/>
    <polygon style="fill: none; fill-opacity:0; stroke-width: 2; stroke: #000000" points="184.649,256.759 179.7,246.734 184.687,249.259 189.7,246.785 "/>
  </g>
  <g>
    <line style="fill: none; fill-opacity:0; stroke-width: 2; stroke: #000000" x1="212.082" y1="209.549" x2="263.985" y2="252.766"/>
    <polygon style="fill: #000000" points="269.748,257.565 258.864,255.008 263.985,252.766 265.263,247.323 "/>
    <polygon style="fill: none; fill-opacity:0; stroke-width: 2; stroke: #000000" points="269.748,257.565 258.864,255.008 263.985,252.766 265.263,247.323 "/>
  </g>
  <g>
    <line style="fill: none; fill-opacity:0; stroke-width: 2; stroke: #000000" x1="524.912" y1="212.11" x2="491.17" y2="254.288"/>
    <polygon style="fill: #000000" points="486.485,260.144 488.827,249.212 491.17,254.288 496.636,255.459 "/>
    <polygon style="fill: none; fill-opacity:0; stroke-width: 2; stroke: #000000" points="486.485,260.144 488.827,249.212 491.17,254.288 496.636,255.459 "/>
  </g>
  <g>
    <line style="fill: none; fill-opacity:0; stroke-width: 2; stroke: #000000" x1="565.079" y1="212.13" x2="596.447" y2="251.389"/>
    <polygon style="fill: #000000" points="601.128,257.248 590.98,252.557 596.447,251.389 598.792,246.315 "/>
    <polygon style="fill: none; fill-opacity:0; stroke-width: 2; stroke: #000000" points="601.128,257.248 590.98,252.557 596.447,251.389 598.792,246.315 "/>
  </g>
  <g>
    <g>
      <rect style="fill: #ffffff" x="360" y="360" width="89" height="53"/>
      <rect style="fill: none; fill-opacity:0; stroke-width: 2; stroke: #000000" x="360" y="360" width="89" height="53"/>
    </g>
    <text font-size="12.8" style="fill: #000000;text-anchor:start;font-family:sans-serif;font-style:normal;font-weight:normal" x="396" y="391">
      <tspan x="396" y="391">File</tspan>
    </text>
  </g>
  <g>
    <line style="fill: none; fill-opacity:0; stroke-width: 2; stroke: #000000" x1="449.107" y1="313.138" x2="426.282" y2="350.676"/>
    <polygon style="fill: #000000" points="422.386,357.085 423.309,345.943 426.282,350.676 431.853,351.138 "/>
    <polygon style="fill: none; fill-opacity:0; stroke-width: 2; stroke: #000000" points="422.386,357.085 423.309,345.943 426.282,350.676 431.853,351.138 "/>
  </g>
  <g>
    <line style="fill: none; fill-opacity:0; stroke-width: 2; stroke: #000000" x1="485.079" y1="312.13" x2="516.447" y2="351.389"/>
    <polygon style="fill: #000000" points="521.128,357.248 510.98,352.557 516.447,351.389 518.792,346.315 "/>
    <polygon style="fill: none; fill-opacity:0; stroke-width: 2; stroke: #000000" points="521.128,357.248 510.98,352.557 516.447,351.389 518.792,346.315 "/>
  </g>
  <g>
    <path style="fill: none; fill-opacity:0; stroke-width: 2; stroke: #000000" d="M 319.844 313.853 C 331.344,334.353 320,320 300,360 C 280,400 353.019,386.5 349.259,386.5"/>
    <polygon style="fill: #000000" points="356.759,386.5 346.759,391.5 349.259,386.5 346.759,381.5 "/>
    <polygon style="fill: none; fill-opacity:0; stroke-width: 2; stroke: #000000" points="356.759,386.5 346.759,391.5 349.259,386.5 346.759,381.5 "/>
  </g>
</svg>
