<?xml version="1.0" encoding="UTF-8" standalone="no"?>
<!DOCTYPE svg PUBLIC "-//W3C//DTD SVG 1.0//EN" "http://www.w3.org/TR/2001/PR-SVG-20010719/DTD/svg10.dtd">
<svg width="35cm" height="5cm" viewBox="238 97 683 84" xmlns="http://www.w3.org/2000/svg" xmlns:xlink="http://www.w3.org/1999/xlink">
  <g>
    <rect style="fill: #ff0000" x="760" y="140" width="160" height="40"/>
    <rect style="fill: none; fill-opacity:0; stroke-width: 2; stroke: #000000" x="760" y="140" width="160" height="40"/>
  </g>
  <text font-size="22.5778" style="fill: #000000;text-anchor:start;font-family:sans-serif;font-style:normal;font-weight:normal" x="511" y="122">
    <tspan x="511" y="122">pi</tspan>
  </text>
  <g>
    <ellipse style="fill: #00ff00" cx="520" cy="160" rx="20" ry="20"/>
    <ellipse style="fill: none; fill-opacity:0; stroke-width: 2; stroke: #000000" cx="520" cy="160" rx="20" ry="20"/>
    <ellipse style="fill: none; fill-opacity:0; stroke-width: 2; stroke: #000000" cx="520" cy="160" rx="20" ry="20"/>
  </g>
  <g>
    <path style="fill: none; fill-opacity:0; stroke-width: 2; stroke: #00ff00" d="M 752.078,154.355 A 200,200 0 0 0 537.434,148.302"/>
    <polygon style="fill: #00ff00" points="758.211,158.658 747.211,156.658 752.211,154.158 753.211,148.658 "/>
    <polygon style="fill: none; fill-opacity:0; stroke-width: 2; stroke: #00ff00" points="758.211,158.658 747.211,156.658 752.211,154.158 753.211,148.658 "/>
  </g>
  <text font-size="22.5778" style="fill: #000000;text-anchor:start;font-family:sans-serif;font-style:normal;font-weight:normal" x="839.4" y="121.9">
    <tspan x="839.4" y="121.9">i</tspan>
  </text>
  <text font-size="22.5778" style="fill: #000000;text-anchor:start;font-family:sans-serif;font-style:normal;font-weight:normal" x="242" y="122">
    <tspan x="242" y="122">ppi</tspan>
  </text>
  <g>
    <ellipse style="fill: #00ff00" cx="260" cy="160" rx="20" ry="20"/>
    <ellipse style="fill: none; fill-opacity:0; stroke-width: 2; stroke: #000000" cx="260" cy="160" rx="20" ry="20"/>
    <ellipse style="fill: none; fill-opacity:0; stroke-width: 2; stroke: #000000" cx="260" cy="160" rx="20" ry="20"/>
  </g>
  <g>
    <path style="fill: none; fill-opacity:0; stroke-width: 2; stroke: #00ff00" d="M 492.078,154.355 A 200,200 0 0 0 277.434,148.302"/>
    <polygon style="fill: #00ff00" points="498.211,158.658 487.211,156.658 492.211,154.158 493.211,148.658 "/>
    <polygon style="fill: none; fill-opacity:0; stroke-width: 2; stroke: #00ff00" points="498.211,158.658 487.211,156.658 492.211,154.158 493.211,148.658 "/>
  </g>
</svg>
