<?xml version="1.0" encoding="UTF-8" standalone="no"?>
<!DOCTYPE svg PUBLIC "-//W3C//DTD SVG 1.0//EN" "http://www.w3.org/TR/2001/PR-SVG-20010719/DTD/svg10.dtd">
<svg width="46cm" height="14cm" viewBox="118 22 916 273" xmlns="http://www.w3.org/2000/svg" xmlns:xlink="http://www.w3.org/1999/xlink">
  <g>
    <rect style="fill: none; fill-opacity:0; stroke-width: 2; stroke: #000000" x="120" y="60" width="160" height="200"/>
    <line style="fill: none; fill-opacity:0; stroke-width: 2; stroke: #000000" x1="120" y1="100" x2="280" y2="100"/>
    <line style="fill: none; fill-opacity:0; stroke-width: 2; stroke-dasharray: 4; stroke: #000000" x1="120" y1="140" x2="280" y2="140"/>
    <line style="fill: none; fill-opacity:0; stroke-width: 2; stroke-dasharray: 4; stroke: #000000" x1="120" y1="180" x2="280" y2="180"/>
    <line style="fill: none; fill-opacity:0; stroke-width: 2; stroke-dasharray: 4; stroke: #000000" x1="120" y1="220" x2="280" y2="220"/>
    <line style="fill: none; fill-opacity:0; stroke-width: 2; stroke: #000000" x1="200" y1="60" x2="200" y2="260"/>
    <text font-size="22.5778" style="fill: #000000;text-anchor:start;font-family:sans-serif;font-style:normal;font-weight:normal" x="130" y="87">
      <tspan x="130" y="87">Index</tspan>
    </text>
    <text font-size="22.5778" style="fill: #000000;text-anchor:start;font-family:sans-serif;font-style:normal;font-weight:normal" x="214" y="87">
      <tspan x="214" y="87">Data</tspan>
    </text>
    <text font-size="22.5778" style="fill: #000000;text-anchor:start;font-family:sans-serif;font-style:normal;font-weight:normal" x="220.7" y="128.9">
      <tspan x="220.7" y="128.9">abc</tspan>
    </text>
    <text font-size="22.5778" style="fill: #000000;text-anchor:start;font-family:sans-serif;font-style:normal;font-weight:normal" x="221.7" y="166.9">
      <tspan x="221.7" y="166.9">def</tspan>
    </text>
    <text font-size="22.5778" style="fill: #000000;text-anchor:start;font-family:sans-serif;font-style:normal;font-weight:normal" x="220.4" y="206.8">
      <tspan x="220.4" y="206.8">xyz</tspan>
    </text>
    <text font-size="22.5778" style="fill: #000000;text-anchor:start;font-family:sans-serif;font-style:normal;font-weight:normal" x="211.1" y="247.7">
      <tspan x="211.1" y="247.7">1234</tspan>
    </text>
    <text font-size="22.5778" style="fill: #000000;text-anchor:start;font-family:sans-serif;font-style:normal;font-weight:normal" x="156.7" y="128.9">
      <tspan x="156.7" y="128.9">7</tspan>
    </text>
    <text font-size="22.5778" style="fill: #000000;text-anchor:start;font-family:sans-serif;font-style:normal;font-weight:normal" x="147.7" y="248.9">
      <tspan x="147.7" y="248.9">10</tspan>
    </text>
    <text font-size="22.5778" style="fill: #000000;text-anchor:start;font-family:sans-serif;font-style:normal;font-weight:normal" x="159.4" y="167.8">
      <tspan x="159.4" y="167.8">8</tspan>
    </text>
    <text font-size="22.5778" style="fill: #000000;text-anchor:start;font-family:sans-serif;font-style:normal;font-weight:normal" x="158.1" y="207.7">
      <tspan x="158.1" y="207.7">9</tspan>
    </text>
  </g>
  <g>
    <rect style="fill: none; fill-opacity:0; stroke-width: 2; stroke: #000000" x="412" y="91" width="240" height="120"/>
    <line style="fill: none; fill-opacity:0; stroke-width: 2; stroke: #000000" x1="412" y1="131" x2="652" y2="131"/>
    <text font-size="22.5778" style="fill: #000000;text-anchor:start;font-family:sans-serif;font-style:normal;font-weight:normal" x="422" y="118">
      <tspan x="422" y="118">Index</tspan>
    </text>
    <text font-size="22.5778" style="fill: #000000;text-anchor:start;font-family:sans-serif;font-style:normal;font-weight:normal" x="582" y="117">
      <tspan x="582" y="117">Data</tspan>
    </text>
    <text font-size="22.5778" style="fill: #000000;text-anchor:start;font-family:sans-serif;font-style:normal;font-weight:normal" x="510" y="118">
      <tspan x="510" y="118">Tag</tspan>
    </text>
    <line style="fill: none; fill-opacity:0; stroke-width: 2; stroke-dasharray: 4; stroke: #000000" x1="412" y1="171" x2="652" y2="171"/>
    <line style="fill: none; fill-opacity:0; stroke-width: 2; stroke: #000000" x1="572" y1="91" x2="572" y2="211"/>
    <line style="fill: none; fill-opacity:0; stroke-width: 2; stroke: #000000" x1="492" y1="91" x2="492" y2="211"/>
    <text font-size="22.5778" style="fill: #000000;text-anchor:start;font-family:sans-serif;font-style:normal;font-weight:normal" x="445.7" y="197.9">
      <tspan x="445.7" y="197.9">2</tspan>
    </text>
    <text font-size="22.5778" style="fill: #000000;text-anchor:start;font-family:sans-serif;font-style:normal;font-weight:normal" x="445.7" y="156.9">
      <tspan x="445.7" y="156.9">1</tspan>
    </text>
    <text font-size="22.5778" style="fill: #000000;text-anchor:start;font-family:sans-serif;font-style:normal;font-weight:normal" x="525.7" y="197.9">
      <tspan x="525.7" y="197.9">8</tspan>
    </text>
    <text font-size="22.5778" style="fill: #000000;text-anchor:start;font-family:sans-serif;font-style:normal;font-weight:normal" x="516.7" y="158.9">
      <tspan x="516.7" y="158.9">10</tspan>
    </text>
    <text font-size="22.5778" style="fill: #000000;text-anchor:start;font-family:sans-serif;font-style:normal;font-weight:normal" x="593.7" y="197.9">
      <tspan x="593.7" y="197.9">def</tspan>
    </text>
    <text font-size="22.5778" style="fill: #000000;text-anchor:start;font-family:sans-serif;font-style:normal;font-weight:normal" x="580.7" y="158.9">
      <tspan x="580.7" y="158.9">1234</tspan>
    </text>
  </g>
  <g>
    <line style="fill: none; fill-opacity:0; stroke-width: 2; stroke: #000000" x1="428" y1="190" x2="275.54" y2="158.943"/>
    <polygon style="fill: #000000" points="268.191,157.446 278.988,154.543 275.54,158.943 276.992,164.342 "/>
    <polygon style="fill: none; fill-opacity:0; stroke-width: 2; stroke: #000000" points="268.191,157.446 278.988,154.543 275.54,158.943 276.992,164.342 "/>
  </g>
  <g>
    <line style="fill: none; fill-opacity:0; stroke-width: 2; stroke: #000000" x1="426" y1="152" x2="275.541" y2="234.327"/>
    <polygon style="fill: #000000" points="268.962,237.927 275.334,228.74 275.541,234.327 280.134,237.513 "/>
    <polygon style="fill: none; fill-opacity:0; stroke-width: 2; stroke: #000000" points="268.962,237.927 275.334,228.74 275.541,234.327 280.134,237.513 "/>
  </g>
  <g>
    <g>
      <rect style="fill: #ffffff" x="800" y="71" width="233" height="164"/>
      <rect style="fill: none; fill-opacity:0; stroke-width: 2; stroke: #000000" x="800" y="71" width="233" height="164"/>
    </g>
    <text font-size="56.4444" style="fill: #000000;text-anchor:start;font-family:sans-serif;font-style:normal;font-weight:normal" x="859" y="168">
      <tspan x="859" y="168">CPU</tspan>
    </text>
  </g>
  <g>
    <line style="fill: none; fill-opacity:0; stroke-width: 10; stroke: #000000" x1="675.315" y1="151.745" x2="776.647" y2="152.273"/>
    <polyline style="fill: none; fill-opacity:0; stroke-width: 10; stroke: #000000" points="674.16,146.739 664.134,151.687 674.108,156.739 "/>
    <polyline style="fill: none; fill-opacity:0; stroke-width: 10; stroke: #000000" points="777.801,157.279 787.827,152.331 777.853,147.279 "/>
  </g>
  <text font-size="22.5778" style="fill: #000000;text-anchor:start;font-family:sans-serif;font-style:normal;font-weight:normal" x="123" y="47">
    <tspan x="123" y="47">Main Memory</tspan>
  </text>
  <text font-size="22.5778" style="fill: #000000;text-anchor:start;font-family:sans-serif;font-style:normal;font-weight:normal" x="483.9" y="76.8">
    <tspan x="483.9" y="76.8">Cache</tspan>
  </text>
  <text font-size="19.7556" style="fill: #000000;text-anchor:start;font-family:sans-serif;font-style:normal;font-weight:normal" x="281" y="288.75">
    <tspan x="281" y="288.75">Slow access</tspan>
  </text>
  <text font-size="19.7556" style="fill: #000000;text-anchor:start;font-family:sans-serif;font-style:normal;font-weight:normal" x="669.6" y="289.8">
    <tspan x="669.6" y="289.8">Fast access</tspan>
  </text>
</svg>
