<?xml version="1.0" encoding="UTF-8" standalone="no"?>
<!DOCTYPE svg PUBLIC "-//W3C//DTD SVG 1.0//EN" "http://www.w3.org/TR/2001/PR-SVG-20010719/DTD/svg10.dtd">
<svg width="19cm" height="8cm" viewBox="262 -22 379 143" xmlns="http://www.w3.org/2000/svg" xmlns:xlink="http://www.w3.org/1999/xlink">
  <g>
    <rect style="fill: #d8e5e5" x="300" y="80" width="40" height="40"/>
    <rect style="fill: none; fill-opacity:0; stroke-width: 2; stroke: #000000" x="300" y="80" width="40" height="40"/>
  </g>
  <g>
    <rect style="fill: #d8e5e5" x="380" y="80" width="40" height="40"/>
    <rect style="fill: none; fill-opacity:0; stroke-width: 2; stroke: #000000" x="380" y="80" width="40" height="40"/>
  </g>
  <g>
    <rect style="fill: #d8e5e5" x="340" y="80" width="40" height="40"/>
    <rect style="fill: none; fill-opacity:0; stroke-width: 2; stroke: #000000" x="340" y="80" width="40" height="40"/>
  </g>
  <g>
    <path style="fill: none; fill-opacity:0; stroke-width: 2; stroke: #000000" d="M 311.5 21.0044 C 311.5,32.5044 320,66.4956 320,69.2595"/>
    <polygon style="fill: #000000" points="320,76.7595 315,66.7595 320,69.2595 325,66.7595 "/>
    <polygon style="fill: none; fill-opacity:0; stroke-width: 2; stroke: #000000" points="320,76.7595 315,66.7595 320,69.2595 325,66.7595 "/>
  </g>
  <g>
    <path style="fill: none; fill-opacity:0; stroke-width: 2; stroke: #000000" d="M 605.849 20.9958 C 603.849,32.4958 601,65.75 601,68.5139"/>
    <polygon style="fill: #000000" points="601,76.0139 596,66.0139 601,68.5139 606,66.0139 "/>
    <polygon style="fill: none; fill-opacity:0; stroke-width: 2; stroke: #000000" points="601,76.0139 596,66.0139 601,68.5139 606,66.0139 "/>
  </g>
  <g>
    <rect style="fill: #d8e5e5" x="540" y="80" width="40" height="40"/>
    <rect style="fill: none; fill-opacity:0; stroke-width: 2; stroke: #000000" x="540" y="80" width="40" height="40"/>
  </g>
  <g>
    <rect style="fill: #d8e5e5" x="500" y="80" width="40" height="40"/>
    <rect style="fill: none; fill-opacity:0; stroke-width: 2; stroke: #000000" x="500" y="80" width="40" height="40"/>
  </g>
  <g>
    <rect style="fill: #d8e5e5" x="460" y="80" width="40" height="40"/>
    <rect style="fill: none; fill-opacity:0; stroke-width: 2; stroke: #000000" x="460" y="80" width="40" height="40"/>
  </g>
  <g>
    <rect style="fill: #d8e5e5" x="420" y="80" width="40" height="40"/>
    <rect style="fill: none; fill-opacity:0; stroke-width: 2; stroke: #000000" x="420" y="80" width="40" height="40"/>
  </g>
  <g>
    <g>
      <rect style="fill: #ffffff" x="264" y="-20" width="95" height="40"/>
      <rect style="fill: none; fill-opacity:0; stroke-width: 2; stroke: #000000" x="264" y="-20" width="95" height="40"/>
    </g>
    <text font-size="22.5778" style="fill: #000000;text-anchor:start;font-family:sans-serif;font-style:normal;font-weight:normal" x="280" y="6">
      <tspan x="280" y="6">begin</tspan>
    </text>
  </g>
  <g>
    <g>
      <rect style="fill: #ffffff" x="579" y="-20" width="61" height="40"/>
      <rect style="fill: none; fill-opacity:0; stroke-width: 2; stroke: #000000" x="579" y="-20" width="61" height="40"/>
    </g>
    <text font-size="22.5778" style="fill: #000000;text-anchor:start;font-family:sans-serif;font-style:normal;font-weight:normal" x="590" y="7.5">
      <tspan x="590" y="7.5">end</tspan>
    </text>
  </g>
</svg>
