<?xml version="1.0" encoding="UTF-8" standalone="no"?>
<!DOCTYPE svg PUBLIC "-//W3C//DTD SVG 1.0//EN" "http://www.w3.org/TR/2001/PR-SVG-20010719/DTD/svg10.dtd">
<svg width="43cm" height="16cm" viewBox="-921 -601 842 307" xmlns="http://www.w3.org/2000/svg" xmlns:xlink="http://www.w3.org/1999/xlink">
  <rect style="fill: none; fill-opacity:0; stroke-width: 2; stroke: #000000" x="-800" y="-500" width="120" height="100"/>
  <rect style="fill: none; fill-opacity:0; stroke-width: 2; stroke: #000000" x="-320" y="-500" width="120" height="100"/>
  <rect style="fill: none; fill-opacity:0; stroke-width: 2; stroke: #000000" x="-600" y="-500" width="120" height="100"/>
  <g>
    <line style="fill: none; fill-opacity:0; stroke-width: 2; stroke: #000000" x1="-900" y1="-520" x2="-900" y2="-485"/>
    <rect style="fill: #ffffff" x="-920" y="-485" width="40" height="70"/>
    <rect style="fill: none; fill-opacity:0; stroke-width: 2; stroke: #000000" x="-920" y="-485" width="40" height="70"/>
    <line style="fill: none; fill-opacity:0; stroke-width: 2; stroke: #000000" x1="-900" y1="-415" x2="-900" y2="-380"/>
  </g>
  <line style="fill: none; fill-opacity:0; stroke-width: 2; stroke: #000000" x1="-900" y1="-560" x2="-480" y2="-560"/>
  <line style="fill: none; fill-opacity:0; stroke-width: 2; stroke: #000000" x1="-900" y1="-340" x2="-480" y2="-340"/>
  <g>
    <line style="fill: none; fill-opacity:0; stroke-width: 2; stroke: #000000" x1="-100" y1="-520" x2="-100" y2="-485"/>
    <rect style="fill: #ffffff" x="-120" y="-485" width="40" height="70"/>
    <rect style="fill: none; fill-opacity:0; stroke-width: 2; stroke: #000000" x="-120" y="-485" width="40" height="70"/>
    <line style="fill: none; fill-opacity:0; stroke-width: 2; stroke: #000000" x1="-100" y1="-415" x2="-100" y2="-380"/>
  </g>
  <line style="fill: none; fill-opacity:0; stroke-width: 2; stroke: #000000" x1="-900" y1="-560" x2="-900" y2="-519.999"/>
  <line style="fill: none; fill-opacity:0; stroke-width: 2; stroke: #000000" x1="-900" y1="-380" x2="-900" y2="-339.998"/>
  <line style="fill: none; fill-opacity:0; stroke-width: 2; stroke: #000000" x1="-100" y1="-380" x2="-100" y2="-340"/>
  <line style="fill: none; fill-opacity:0; stroke-width: 2; stroke: #000000" x1="-100" y1="-560" x2="-100" y2="-520"/>
  <line style="fill: none; fill-opacity:0; stroke-width: 2; stroke-dasharray: 4; stroke: #000000" x1="-480" y1="-560" x2="-320" y2="-560"/>
  <line style="fill: none; fill-opacity:0; stroke-width: 2; stroke-dasharray: 4; stroke: #000000" x1="-480" y1="-340" x2="-320" y2="-340"/>
  <line style="fill: none; fill-opacity:0; stroke-width: 2; stroke: #000000" x1="-740" y1="-560" x2="-740" y2="-501.005"/>
  <line style="fill: none; fill-opacity:0; stroke-width: 2; stroke: #000000" x1="-740" y1="-400" x2="-740" y2="-341.006"/>
  <line style="fill: none; fill-opacity:0; stroke-width: 2; stroke: #000000" x1="-540" y1="-560" x2="-540" y2="-500"/>
  <line style="fill: none; fill-opacity:0; stroke-width: 2; stroke: #000000" x1="-540" y1="-400" x2="-540" y2="-341.006"/>
  <line style="fill: none; fill-opacity:0; stroke-width: 2; stroke: #000000" x1="-260" y1="-560" x2="-260" y2="-500"/>
  <line style="fill: none; fill-opacity:0; stroke-width: 2; stroke: #000000" x1="-260" y1="-400" x2="-260" y2="-340"/>
  <line style="fill: none; fill-opacity:0; stroke-width: 2; stroke: #000000" x1="-320" y1="-560" x2="-100" y2="-560"/>
  <line style="fill: none; fill-opacity:0; stroke-width: 2; stroke: #000000" x1="-320" y1="-340" x2="-100" y2="-340"/>
  <text font-size="19.462" style="fill: #000000;text-anchor:start;font-family:sans-serif;font-style:normal;font-weight:normal" x="-880" y="-580">
    <tspan x="-880" y="-580">CAN High</tspan>
  </text>
  <text font-size="19.462" style="fill: #000000;text-anchor:start;font-family:sans-serif;font-style:normal;font-weight:normal" x="-880" y="-300">
    <tspan x="-880" y="-300">CAN Low</tspan>
  </text>
  <text font-size="19.462" style="fill: #000000;text-anchor:start;font-family:sans-serif;font-style:normal;font-weight:normal" x="-920" y="-440">
    <tspan x="-920" y="-440">120</tspan>
  </text>
  <text font-size="19.462" style="fill: #000000;text-anchor:start;font-family:sans-serif;font-style:normal;font-weight:normal" x="-120" y="-440">
    <tspan x="-120" y="-440">120</tspan>
  </text>
  <text font-size="19.462" style="fill: #000000;text-anchor:start;font-family:sans-serif;font-style:normal;font-weight:normal" x="-785" y="-454">
    <tspan x="-785" y="-454">Ein</tspan>
    <tspan x="-785" y="-429.672">Controller</tspan>
  </text>
  <text font-size="19.462" style="fill: #000000;text-anchor:start;font-family:sans-serif;font-style:normal;font-weight:normal" x="-595.8" y="-455.25">
    <tspan x="-595.8" y="-455.25">Ein anderer</tspan>
    <tspan x="-595.8" y="-430.922">Controller</tspan>
  </text>
  <text font-size="19.462" style="fill: #000000;text-anchor:start;font-family:sans-serif;font-style:normal;font-weight:normal" x="-303" y="-456">
    <tspan x="-303" y="-456">Noch ein</tspan>
    <tspan x="-303" y="-431.672">Controller</tspan>
  </text>
</svg>
