<?xml version="1.0" encoding="UTF-8" standalone="no"?>
<!DOCTYPE svg PUBLIC "-//W3C//DTD SVG 1.0//EN" "http://www.w3.org/TR/2001/PR-SVG-20010719/DTD/svg10.dtd">
<svg width="23cm" height="25cm" viewBox="340 15 446 483" xmlns="http://www.w3.org/2000/svg" xmlns:xlink="http://www.w3.org/1999/xlink">
  <text font-size="22.5778" style="fill: #000000;text-anchor:start;font-family:sans-serif;font-style:normal;font-weight:normal" x="340" y="40">
    <tspan x="340" y="40">Eine Applikation</tspan>
  </text>
  <text font-size="22.5778" style="fill: #000000;text-anchor:start;font-family:sans-serif;font-style:normal;font-weight:normal" x="357" y="492">
    <tspan x="357" y="492">Noch eine Applikation</tspan>
  </text>
  <text font-size="22.5778" style="fill: #000000;text-anchor:start;font-family:sans-serif;font-style:normal;font-weight:normal" x="534" y="180">
    <tspan x="534" y="180">Eine andere Applikation</tspan>
  </text>
  <g>
    <rect style="fill: #ffffff" x="378" y="58" width="100" height="100"/>
    <rect style="fill: none; fill-opacity:0; stroke-width: 2; stroke: #000000" x="378" y="58" width="100" height="100"/>
  </g>
  <g>
    <rect style="fill: #ff00d6" x="407" y="118" width="40" height="40"/>
    <rect style="fill: none; fill-opacity:0; stroke-width: 2; stroke: #000000" x="407" y="118" width="40" height="40"/>
  </g>
  <text font-size="12.8" style="fill: #000000;text-anchor:start;font-family:sans-serif;font-style:normal;font-weight:normal" x="400.8" y="108.4">
    <tspan x="400.8" y="108.4">Socket</tspan>
  </text>
  <g>
    <rect style="fill: #ffffff" x="427.1" y="361.2" width="100" height="100"/>
    <rect style="fill: none; fill-opacity:0; stroke-width: 2; stroke: #000000" x="427.1" y="361.2" width="100" height="100"/>
  </g>
  <g>
    <rect style="fill: #ff00d6" x="456.1" y="361.2" width="40" height="40"/>
    <rect style="fill: none; fill-opacity:0; stroke-width: 2; stroke: #000000" x="456.1" y="361.2" width="40" height="40"/>
  </g>
  <text font-size="12.8" style="fill: #000000;text-anchor:start;font-family:sans-serif;font-style:normal;font-weight:normal" x="455.9" y="414.6">
    <tspan x="455.9" y="414.6">Socket</tspan>
  </text>
  <g>
    <rect style="fill: #ffffff" x="614.2" y="197.4" width="100" height="100"/>
    <rect style="fill: none; fill-opacity:0; stroke-width: 2; stroke: #000000" x="614.2" y="197.4" width="100" height="100"/>
  </g>
  <g>
    <rect style="fill: #ff00d6" x="614.2" y="227.4" width="40" height="40"/>
    <rect style="fill: none; fill-opacity:0; stroke-width: 2; stroke: #000000" x="614.2" y="227.4" width="40" height="40"/>
  </g>
  <text font-size="12.8" style="fill: #000000;text-anchor:start;font-family:sans-serif;font-style:normal;font-weight:normal" x="629" y="218.8">
    <tspan x="629" y="218.8">Socket</tspan>
  </text>
  <g>
    <path style="fill: none; fill-opacity:0; stroke-width: 2; stroke-dasharray: 4; stroke: #000000" d="M 436.346 158.948 C 465.346,223.948 523.008,209.925 603.982,237.216"/>
    <polygon style="fill: #000000" points="611.089,239.611 600.016,241.155 603.982,237.216 603.21,231.679 "/>
    <polygon style="fill: none; fill-opacity:0; stroke-width: 2; stroke: #000000" points="611.089,239.611 600.016,241.155 603.982,237.216 603.21,231.679 "/>
  </g>
  <g>
    <path style="fill: none; fill-opacity:0; stroke-width: 2; stroke-dasharray: 4; stroke: #000000" d="M 424.033 159 C 411.033,251 433.995,282.998 463.259,351.25"/>
    <polygon style="fill: #000000" points="466.214,358.143 457.678,350.922 463.259,351.25 466.869,346.982 "/>
    <polygon style="fill: none; fill-opacity:0; stroke-width: 2; stroke: #000000" points="466.214,358.143 457.678,350.922 463.259,351.25 466.869,346.982 "/>
  </g>
  <g>
    <path style="fill: none; fill-opacity:0; stroke-width: 2; stroke-dasharray: 4; stroke: #000000" d="M 488.809 360.211 C 530.709,291.011 542.994,292.353 604.462,262.057"/>
    <polygon style="fill: #000000" points="611.189,258.742 604.43,267.648 604.462,262.057 600.009,258.678 "/>
    <polygon style="fill: none; fill-opacity:0; stroke-width: 2; stroke: #000000" points="611.189,258.742 604.43,267.648 604.462,262.057 600.009,258.678 "/>
  </g>
  <g>
    <path style="fill: none; fill-opacity:0; stroke-width: 2; stroke-dasharray: 4; stroke: #000000" d="M 613.209 252.065 C 543.009,267.665 481.02,283.799 477.612,351.276"/>
    <polygon style="fill: #000000" points="477.233,358.766 472.744,348.527 477.612,351.276 482.731,349.031 "/>
    <polygon style="fill: none; fill-opacity:0; stroke-width: 2; stroke: #000000" points="477.233,358.766 472.744,348.527 477.612,351.276 482.731,349.031 "/>
  </g>
  <g>
    <rect style="fill: #ffffff" x="480" y="200" width="20" height="20"/>
    <rect style="fill: none; fill-opacity:0; stroke-width: 2; stroke: #000000" x="480" y="200" width="20" height="20"/>
  </g>
  <g>
    <rect style="fill: #ffffff" x="518.1" y="301.2" width="20" height="20"/>
    <rect style="fill: none; fill-opacity:0; stroke-width: 2; stroke: #000000" x="518.1" y="301.2" width="20" height="20"/>
  </g>
  <g>
    <rect style="fill: #ffffff" x="501.2" y="273.4" width="20" height="20"/>
    <rect style="fill: none; fill-opacity:0; stroke-width: 2; stroke: #000000" x="501.2" y="273.4" width="20" height="20"/>
  </g>
  <g>
    <rect style="fill: #ffffff" x="417.3" y="244.6" width="20" height="20"/>
    <rect style="fill: none; fill-opacity:0; stroke-width: 2; stroke: #000000" x="417.3" y="244.6" width="20" height="20"/>
  </g>
</svg>
