<?xml version="1.0" encoding="UTF-8" standalone="no"?>
<!DOCTYPE svg PUBLIC "-//W3C//DTD SVG 1.0//EN" "http://www.w3.org/TR/2001/PR-SVG-20010719/DTD/svg10.dtd">
<svg width="25cm" height="11cm" viewBox="170 154 485 212" xmlns="http://www.w3.org/2000/svg" xmlns:xlink="http://www.w3.org/1999/xlink">
  <g>
    <rect style="fill: #d8e5e5" x="317" y="156" width="200" height="120"/>
    <rect style="fill: none; fill-opacity:0; stroke-width: 2; stroke: #000000" x="317" y="156" width="200" height="120"/>
  </g>
  <g>
    <g>
      <rect style="fill: #ff00d6" x="477" y="176" width="40" height="40"/>
      <rect style="fill: none; fill-opacity:0; stroke-width: 2; stroke: #000000" x="477" y="176" width="40" height="40"/>
    </g>
    <text font-size="22.5778" style="fill: #000000;text-anchor:start;font-family:sans-serif;font-style:normal;font-weight:normal" x="490" y="204">
      <tspan x="490" y="204">1</tspan>
    </text>
  </g>
  <g>
    <line style="fill: none; fill-opacity:0; stroke-width: 2; stroke: #000000" x1="517" y1="196" x2="595.265" y2="195.111"/>
    <polygon style="fill: #000000" points="602.764,195.025 592.822,200.139 595.265,195.111 592.708,190.139 "/>
    <polygon style="fill: none; fill-opacity:0; stroke-width: 2; stroke: #000000" points="602.764,195.025 592.822,200.139 595.265,195.111 592.708,190.139 "/>
  </g>
  <text font-size="12.8" style="fill: #000000;text-anchor:start;font-family:sans-serif;font-style:normal;font-weight:normal" x="587" y="222">
    <tspan x="587" y="222"></tspan>
  </text>
  <text font-size="22.5778" style="fill: #000000;text-anchor:start;font-family:sans-serif;font-style:normal;font-weight:normal" x="616" y="206">
    <tspan x="616" y="206">TTY</tspan>
  </text>
  <g>
    <line style="fill: none; fill-opacity:0; stroke-width: 2; stroke: #000000" x1="257" y1="336" x2="310.116" y2="282.884"/>
    <polygon style="fill: #000000" points="315.419,277.581 311.883,288.188 310.116,282.884 304.812,281.117 "/>
    <polygon style="fill: none; fill-opacity:0; stroke-width: 2; stroke: #000000" points="315.419,277.581 311.883,288.188 310.116,282.884 304.812,281.117 "/>
  </g>
  <text font-size="22.5778" style="fill: #000000;text-anchor:start;font-family:sans-serif;font-style:normal;font-weight:normal" x="188" y="360">
    <tspan x="188" y="360">/etc/passwd</tspan>
  </text>
  <text font-size="22.5778" style="fill: #000000;text-anchor:start;font-family:sans-serif;font-style:normal;font-weight:normal" x="391" y="201">
    <tspan x="391" y="201">grep</tspan>
  </text>
  <g>
    <g>
      <rect style="fill: #ff00d6" x="317" y="236" width="40" height="40"/>
      <rect style="fill: none; fill-opacity:0; stroke-width: 2; stroke: #000000" x="317" y="236" width="40" height="40"/>
    </g>
    <text font-size="22.5778" style="fill: #000000;text-anchor:start;font-family:sans-serif;font-style:normal;font-weight:normal" x="330" y="265.1">
      <tspan x="330" y="265.1">3</tspan>
    </text>
  </g>
  <g>
    <g>
      <rect style="fill: #ff00d6" x="317" y="176" width="40" height="40"/>
      <rect style="fill: none; fill-opacity:0; stroke-width: 2; stroke: #000000" x="317" y="176" width="40" height="40"/>
    </g>
    <text font-size="22.5778" style="fill: #000000;text-anchor:start;font-family:sans-serif;font-style:normal;font-weight:normal" x="330" y="204">
      <tspan x="330" y="204">0</tspan>
    </text>
  </g>
  <g>
    <g>
      <rect style="fill: #ff00d6" x="397" y="236" width="40" height="40"/>
      <rect style="fill: none; fill-opacity:0; stroke-width: 2; stroke: #000000" x="397" y="236" width="40" height="40"/>
    </g>
    <text font-size="22.5778" style="fill: #000000;text-anchor:start;font-family:sans-serif;font-style:normal;font-weight:normal" x="409" y="266">
      <tspan x="409" y="266">2</tspan>
    </text>
  </g>
  <g>
    <line style="fill: none; fill-opacity:0; stroke-width: 2; stroke: #000000" x1="217" y1="196" x2="307.264" y2="196"/>
    <polygon style="fill: #000000" points="314.764,196 304.764,201 307.264,196 304.764,191 "/>
    <polygon style="fill: none; fill-opacity:0; stroke-width: 2; stroke: #000000" points="314.764,196 304.764,201 307.264,196 304.764,191 "/>
  </g>
  <g>
    <line style="fill: none; fill-opacity:0; stroke-width: 2; stroke: #000000" x1="417" y1="276" x2="417" y2="326.264"/>
    <polygon style="fill: #000000" points="417,333.764 412,323.764 417,326.264 422,323.764 "/>
    <polygon style="fill: none; fill-opacity:0; stroke-width: 2; stroke: #000000" points="417,333.764 412,323.764 417,326.264 422,323.764 "/>
  </g>
  <text font-size="22.5778" style="fill: #000000;text-anchor:start;font-family:sans-serif;font-style:normal;font-weight:normal" x="170" y="205">
    <tspan x="170" y="205">TTY</tspan>
  </text>
  <text font-size="22.5778" style="fill: #000000;text-anchor:start;font-family:sans-serif;font-style:normal;font-weight:normal" x="374.5" y="358.758">
    <tspan x="374.5" y="358.758">errors.lst</tspan>
  </text>
</svg>
