<?xml version="1.0" encoding="UTF-8" standalone="no"?>
<!DOCTYPE svg PUBLIC "-//W3C//DTD SVG 1.0//EN" "http://www.w3.org/TR/2001/PR-SVG-20010719/DTD/svg10.dtd">
<svg width="27cm" height="11cm" viewBox="111 179 537 217" xmlns="http://www.w3.org/2000/svg" xmlns:xlink="http://www.w3.org/1999/xlink">
  <g>
    <rect style="fill: #d8e5e5" x="325" y="181" width="200" height="120"/>
    <rect style="fill: none; fill-opacity:0; stroke-width: 2; stroke: #000000" x="325" y="181" width="200" height="120"/>
  </g>
  <g>
    <g>
      <rect style="fill: #ff00d6" x="485" y="201" width="40" height="40"/>
      <rect style="fill: none; fill-opacity:0; stroke-width: 2; stroke: #000000" x="485" y="201" width="40" height="40"/>
    </g>
    <text font-size="22.5778" style="fill: #000000;text-anchor:start;font-family:sans-serif;font-style:normal;font-weight:normal" x="498" y="229">
      <tspan x="498" y="229">1</tspan>
    </text>
  </g>
  <g>
    <line style="fill: none; fill-opacity:0; stroke-width: 2; stroke: #000000" x1="525" y1="221" x2="590.265" y2="221.87"/>
    <polygon style="fill: #000000" points="597.764,221.97 587.698,226.836 590.265,221.87 587.832,216.837 "/>
    <polygon style="fill: none; fill-opacity:0; stroke-width: 2; stroke: #000000" points="597.764,221.97 587.698,226.836 590.265,221.87 587.832,216.837 "/>
  </g>
  <text font-size="12.8" style="fill: #000000;text-anchor:start;font-family:sans-serif;font-style:normal;font-weight:normal" x="595" y="247">
    <tspan x="595" y="247"></tspan>
  </text>
  <text font-size="22.5778" style="fill: #000000;text-anchor:start;font-family:sans-serif;font-style:normal;font-weight:normal" x="609" y="234">
    <tspan x="609" y="234">TTY</tspan>
  </text>
  <text font-size="22.5778" style="fill: #000000;text-anchor:start;font-family:sans-serif;font-style:normal;font-weight:normal" x="111" y="230">
    <tspan x="111" y="230">/etc/passwd</tspan>
  </text>
  <text font-size="22.5778" style="fill: #000000;text-anchor:start;font-family:sans-serif;font-style:normal;font-weight:normal" x="399" y="226">
    <tspan x="399" y="226">grep</tspan>
  </text>
  <g>
    <g>
      <rect style="fill: #ff00d6" x="325" y="201" width="40" height="40"/>
      <rect style="fill: none; fill-opacity:0; stroke-width: 2; stroke: #000000" x="325" y="201" width="40" height="40"/>
    </g>
    <text font-size="22.5778" style="fill: #000000;text-anchor:start;font-family:sans-serif;font-style:normal;font-weight:normal" x="338" y="229">
      <tspan x="338" y="229">0</tspan>
    </text>
  </g>
  <g>
    <g>
      <rect style="fill: #ff00d6" x="405" y="261" width="40" height="40"/>
      <rect style="fill: none; fill-opacity:0; stroke-width: 2; stroke: #000000" x="405" y="261" width="40" height="40"/>
    </g>
    <text font-size="22.5778" style="fill: #000000;text-anchor:start;font-family:sans-serif;font-style:normal;font-weight:normal" x="417" y="291">
      <tspan x="417" y="291">2</tspan>
    </text>
  </g>
  <g>
    <line style="fill: none; fill-opacity:0; stroke-width: 2; stroke: #000000" x1="255" y1="221" x2="315.264" y2="221"/>
    <polygon style="fill: #000000" points="322.764,221 312.764,226 315.264,221 312.764,216 "/>
    <polygon style="fill: none; fill-opacity:0; stroke-width: 2; stroke: #000000" points="322.764,221 312.764,226 315.264,221 312.764,216 "/>
  </g>
  <g>
    <line style="fill: none; fill-opacity:0; stroke-width: 2; stroke: #000000" x1="425" y1="301" x2="425" y2="351.264"/>
    <polygon style="fill: #000000" points="425,358.764 420,348.764 425,351.264 430,348.764 "/>
    <polygon style="fill: none; fill-opacity:0; stroke-width: 2; stroke: #000000" points="425,358.764 420,348.764 425,351.264 430,348.764 "/>
  </g>
  <text font-size="22.5778" style="fill: #000000;text-anchor:start;font-family:sans-serif;font-style:normal;font-weight:normal" x="404" y="390">
    <tspan x="404" y="390">TTY</tspan>
  </text>
</svg>
