<?xml version="1.0" encoding="UTF-8" standalone="no"?>
<!DOCTYPE svg PUBLIC "-//W3C//DTD SVG 1.0//EN" "http://www.w3.org/TR/2001/PR-SVG-20010719/DTD/svg10.dtd">
<svg width="21cm" height="8cm" viewBox="258 98 406 143" xmlns="http://www.w3.org/2000/svg" xmlns:xlink="http://www.w3.org/1999/xlink">
  <g>
    <rect style="fill: #d8e5e5" x="260" y="100" width="120" height="140"/>
    <rect style="fill: none; fill-opacity:0; stroke-width: 2; stroke: #000000" x="260" y="100" width="120" height="140"/>
  </g>
  <g>
    <g>
      <rect style="fill: #ff00d6" x="340" y="120" width="40" height="40"/>
      <rect style="fill: none; fill-opacity:0; stroke-width: 2; stroke: #000000" x="340" y="120" width="40" height="40"/>
    </g>
    <text font-size="22.5778" style="fill: #000000;text-anchor:start;font-family:sans-serif;font-style:normal;font-weight:normal" x="353" y="148">
      <tspan x="353" y="148">1</tspan>
    </text>
  </g>
  <g>
    <g>
      <rect style="fill: #ff00d6" x="340" y="180" width="40" height="40"/>
      <rect style="fill: none; fill-opacity:0; stroke-width: 2; stroke: #000000" x="340" y="180" width="40" height="40"/>
    </g>
    <text font-size="22.5778" style="fill: #000000;text-anchor:start;font-family:sans-serif;font-style:normal;font-weight:normal" x="352" y="210">
      <tspan x="352" y="210">2</tspan>
    </text>
  </g>
  <g>
    <line style="fill: none; fill-opacity:0; stroke-width: 2; stroke: #000000" x1="380" y1="140" x2="430.264" y2="140"/>
    <polygon style="fill: #000000" points="437.764,140 427.764,145 430.264,140 427.764,135 "/>
    <polygon style="fill: none; fill-opacity:0; stroke-width: 2; stroke: #000000" points="437.764,140 427.764,145 430.264,140 427.764,135 "/>
  </g>
  <text font-size="22.5778" style="fill: #000000;text-anchor:start;font-family:sans-serif;font-style:normal;font-weight:normal" x="276" y="176">
    <tspan x="276" y="176">find</tspan>
  </text>
  <g>
    <rect style="fill: #ffffff" x="440" y="120" width="70" height="40"/>
    <rect style="fill: none; fill-opacity:0; stroke-width: 2; stroke: #000000" x="440" y="120" width="70" height="40"/>
  </g>
  <g>
    <line style="fill: none; fill-opacity:0; stroke-width: 2; stroke: #000000" x1="380" y1="200" x2="430.264" y2="200"/>
    <polygon style="fill: #000000" points="437.764,200 427.764,205 430.264,200 427.764,195 "/>
    <polygon style="fill: none; fill-opacity:0; stroke-width: 2; stroke: #000000" points="437.764,200 427.764,205 430.264,200 427.764,195 "/>
  </g>
  <g>
    <g>
      <rect style="fill: #ffffff" x="440" y="180" width="75" height="40"/>
      <rect style="fill: none; fill-opacity:0; stroke-width: 2; stroke: #000000" x="440" y="180" width="75" height="40"/>
    </g>
    <text font-size="22.5778" style="fill: #000000;text-anchor:start;font-family:sans-serif;font-style:normal;font-weight:normal" x="458" y="209">
      <tspan x="458" y="209">TTY</tspan>
    </text>
  </g>
  <text font-size="22.5778" style="fill: #000000;text-anchor:start;font-family:sans-serif;font-style:normal;font-weight:normal" x="451" y="147">
    <tspan x="451" y="147">Pipe</tspan>
  </text>
  <text font-size="12.8" style="fill: #000000;text-anchor:start;font-family:sans-serif;font-style:normal;font-weight:normal" x="660" y="280">
    <tspan x="660" y="280"></tspan>
  </text>
  <g>
    <g>
      <rect style="fill: #d8e5e5" x="560" y="100" width="103" height="80"/>
      <rect style="fill: none; fill-opacity:0; stroke-width: 2; stroke: #000000" x="560" y="100" width="103" height="80"/>
    </g>
    <text font-size="22.5778" style="fill: #000000;text-anchor:start;font-family:sans-serif;font-style:normal;font-weight:normal" x="614" y="147">
      <tspan x="614" y="147">wc</tspan>
    </text>
    <g>
      <g>
        <rect style="fill: #ff00d6" x="560" y="120" width="40" height="40"/>
        <rect style="fill: none; fill-opacity:0; stroke-width: 2; stroke: #000000" x="560" y="120" width="40" height="40"/>
      </g>
      <text font-size="22.5778" style="fill: #000000;text-anchor:start;font-family:sans-serif;font-style:normal;font-weight:normal" x="572" y="149">
        <tspan x="572" y="149">0</tspan>
      </text>
    </g>
  </g>
  <g>
    <line style="fill: none; fill-opacity:0; stroke-width: 2; stroke: #000000" x1="510" y1="140" x2="550.264" y2="140"/>
    <polygon style="fill: #000000" points="557.764,140 547.764,145 550.264,140 547.764,135 "/>
    <polygon style="fill: none; fill-opacity:0; stroke-width: 2; stroke: #000000" points="557.764,140 547.764,145 550.264,140 547.764,135 "/>
  </g>
</svg>
