<?xml version="1.0" encoding="UTF-8" standalone="no"?>
<!DOCTYPE svg PUBLIC "-//W3C//DTD SVG 1.0//EN" "http://www.w3.org/TR/2001/PR-SVG-20010719/DTD/svg10.dtd">
<svg width="49cm" height="9cm" viewBox="38 18 973 162" xmlns="http://www.w3.org/2000/svg" xmlns:xlink="http://www.w3.org/1999/xlink">
  <g>
    <rect style="fill: #d8e5e5" x="40" y="20" width="120" height="80"/>
    <rect style="fill: none; fill-opacity:0; stroke-width: 2; stroke: #000000" x="40" y="20" width="120" height="80"/>
  </g>
  <g>
    <g>
      <rect style="fill: #ff00d6" x="120" y="40" width="40" height="40"/>
      <rect style="fill: none; fill-opacity:0; stroke-width: 2; stroke: #000000" x="120" y="40" width="40" height="40"/>
    </g>
    <text font-size="22.5778" style="fill: #000000;text-anchor:start;font-family:sans-serif;font-style:normal;font-weight:normal" x="133" y="68">
      <tspan x="133" y="68">1</tspan>
    </text>
  </g>
  <g>
    <line style="fill: none; fill-opacity:0; stroke-width: 2; stroke: #000000" x1="160" y1="60" x2="210.264" y2="60"/>
    <polygon style="fill: #000000" points="217.764,60 207.764,65 210.264,60 207.764,55 "/>
    <polygon style="fill: none; fill-opacity:0; stroke-width: 2; stroke: #000000" points="217.764,60 207.764,65 210.264,60 207.764,55 "/>
  </g>
  <text font-size="12.8" style="fill: #000000;text-anchor:start;font-family:sans-serif;font-style:normal;font-weight:normal" x="660" y="280">
    <tspan x="660" y="280"></tspan>
  </text>
  <g>
    <line style="fill: none; fill-opacity:0; stroke-width: 2; stroke: #000000" x1="290" y1="60" x2="330.264" y2="60"/>
    <polygon style="fill: #000000" points="337.764,60 327.764,65 330.264,60 327.764,55 "/>
    <polygon style="fill: none; fill-opacity:0; stroke-width: 2; stroke: #000000" points="337.764,60 327.764,65 330.264,60 327.764,55 "/>
  </g>
  <g>
    <rect style="fill: #d8e5e5" x="340" y="20" width="180" height="80"/>
    <rect style="fill: none; fill-opacity:0; stroke-width: 2; stroke: #000000" x="340" y="20" width="180" height="80"/>
  </g>
  <g>
    <g>
      <rect style="fill: #ff00d6" x="340" y="40" width="40" height="40"/>
      <rect style="fill: none; fill-opacity:0; stroke-width: 2; stroke: #000000" x="340" y="40" width="40" height="40"/>
    </g>
    <text font-size="22.5778" style="fill: #000000;text-anchor:start;font-family:sans-serif;font-style:normal;font-weight:normal" x="352" y="69">
      <tspan x="352" y="69">0</tspan>
    </text>
  </g>
  <g>
    <g>
      <rect style="fill: #ff00d6" x="480" y="40" width="40" height="40"/>
      <rect style="fill: none; fill-opacity:0; stroke-width: 2; stroke: #000000" x="480" y="40" width="40" height="40"/>
    </g>
    <text font-size="22.5778" style="fill: #000000;text-anchor:start;font-family:sans-serif;font-style:normal;font-weight:normal" x="493" y="68">
      <tspan x="493" y="68">1</tspan>
    </text>
  </g>
  <text font-size="22.5778" style="fill: #000000;text-anchor:start;font-family:sans-serif;font-style:normal;font-weight:normal" x="58" y="70">
    <tspan x="58" y="70">find</tspan>
  </text>
  <text font-size="1.6" style="fill: #000000;text-anchor:start;font-family:sans-serif;font-style:normal;font-weight:normal" x="540" y="180">
    <tspan x="540" y="180">grep</tspan>
  </text>
  <text font-size="22.5778" style="fill: #000000;text-anchor:start;font-family:sans-serif;font-style:normal;font-weight:normal" x="407" y="67">
    <tspan x="407" y="67">grep</tspan>
  </text>
  <g>
    <rect style="fill: #d8e5e5" x="700" y="20" width="180" height="80"/>
    <rect style="fill: none; fill-opacity:0; stroke-width: 2; stroke: #000000" x="700" y="20" width="180" height="80"/>
  </g>
  <g>
    <line style="fill: none; fill-opacity:0; stroke-width: 2; stroke: #000000" x1="650" y1="60" x2="690.264" y2="60"/>
    <polygon style="fill: #000000" points="697.764,60 687.764,65 690.264,60 687.764,55 "/>
    <polygon style="fill: none; fill-opacity:0; stroke-width: 2; stroke: #000000" points="697.764,60 687.764,65 690.264,60 687.764,55 "/>
  </g>
  <g>
    <line style="fill: none; fill-opacity:0; stroke-width: 2; stroke: #000000" x1="520" y1="60" x2="570.264" y2="60"/>
    <polygon style="fill: #000000" points="577.764,60 567.764,65 570.264,60 567.764,55 "/>
    <polygon style="fill: none; fill-opacity:0; stroke-width: 2; stroke: #000000" points="577.764,60 567.764,65 570.264,60 567.764,55 "/>
  </g>
  <g>
    <g>
      <rect style="fill: #ffffff" x="220" y="40" width="70" height="40"/>
      <rect style="fill: none; fill-opacity:0; stroke-width: 2; stroke: #000000" x="220" y="40" width="70" height="40"/>
    </g>
    <text font-size="22.5778" style="fill: #000000;text-anchor:start;font-family:sans-serif;font-style:normal;font-weight:normal" x="231" y="67">
      <tspan x="231" y="67">Pipe</tspan>
    </text>
  </g>
  <g>
    <g>
      <rect style="fill: #ffffff" x="580" y="40" width="70" height="40"/>
      <rect style="fill: none; fill-opacity:0; stroke-width: 2; stroke: #000000" x="580" y="40" width="70" height="40"/>
    </g>
    <text font-size="22.5778" style="fill: #000000;text-anchor:start;font-family:sans-serif;font-style:normal;font-weight:normal" x="591" y="67">
      <tspan x="591" y="67">Pipe</tspan>
    </text>
  </g>
  <text font-size="22.5778" style="fill: #000000;text-anchor:start;font-family:sans-serif;font-style:normal;font-weight:normal" x="768" y="66">
    <tspan x="768" y="66">less</tspan>
  </text>
  <g>
    <g>
      <rect style="fill: #ff00d6" x="700" y="40" width="40" height="40"/>
      <rect style="fill: none; fill-opacity:0; stroke-width: 2; stroke: #000000" x="700" y="40" width="40" height="40"/>
    </g>
    <text font-size="22.5778" style="fill: #000000;text-anchor:start;font-family:sans-serif;font-style:normal;font-weight:normal" x="712" y="69">
      <tspan x="712" y="69">0</tspan>
    </text>
  </g>
  <g>
    <g>
      <rect style="fill: #ffffff" x="940" y="40" width="70" height="40"/>
      <rect style="fill: none; fill-opacity:0; stroke-width: 2; stroke: #000000" x="940" y="40" width="70" height="40"/>
    </g>
    <text font-size="22.5778" style="fill: #000000;text-anchor:start;font-family:sans-serif;font-style:normal;font-weight:normal" x="956" y="69">
      <tspan x="956" y="69">TTY</tspan>
    </text>
  </g>
  <g>
    <line style="fill: none; fill-opacity:0; stroke-width: 2; stroke: #000000" x1="880" y1="60" x2="930.264" y2="60"/>
    <polygon style="fill: #000000" points="937.764,60 927.764,65 930.264,60 927.764,55 "/>
    <polygon style="fill: none; fill-opacity:0; stroke-width: 2; stroke: #000000" points="937.764,60 927.764,65 930.264,60 927.764,55 "/>
  </g>
  <g>
    <g>
      <rect style="fill: #ff00d6" x="840" y="40" width="40" height="40"/>
      <rect style="fill: none; fill-opacity:0; stroke-width: 2; stroke: #000000" x="840" y="40" width="40" height="40"/>
    </g>
    <text font-size="22.5778" style="fill: #000000;text-anchor:start;font-family:sans-serif;font-style:normal;font-weight:normal" x="853" y="68">
      <tspan x="853" y="68">1</tspan>
    </text>
  </g>
</svg>
