<svg xmlns="http://www.w3.org/2000/svg" xmlns:xlink="http://www.w3.org/1999/xlink" contentStyleType="text/css" data-diagram-type="CLASS" height="62px" preserveAspectRatio="none" style="width:244px;height:62px;background:#FFFFFF;" version="1.1" viewBox="0 0 244 62" width="244px" zoomAndPan="magnify"><defs/><g><!--class PIDController--><g class="entity" data-entity="PIDController" data-source-line="2" data-uid="ent0002" id="entity_PIDController"><rect fill="#F1F1F1" height="48" rx="2.5" ry="2.5" style="stroke:#181818;stroke-width:0.5;" width="121.6137" x="7" y="7"/><ellipse cx="22" cy="23" fill="#ADD1B2" rx="11" ry="11" style="stroke:#181818;stroke-width:1;"/><path d="M22.1094,18.5313 Q21.1875,18.5313 20.4531,18.8438 Q19.7344,19.1563 19.2344,19.75 Q18.7344,20.3281 18.4531,21.2031 Q18.1875,22.0781 18.1875,23.1719 Q18.1875,24.6094 18.625,25.6563 Q19.0781,26.7031 19.9219,27.25 Q20.7813,27.7969 22.0938,27.7969 Q22.875,27.7969 23.5625,27.6719 Q24.2656,27.5313 25.2656,27.2188 L25.2656,29.0938 Q24.4063,29.4219 23.6406,29.5469 Q22.8906,29.6719 21.875,29.6719 Q19.9531,29.6719 18.6406,28.875 Q17.3438,28.0625 16.6875,26.5938 Q16.0313,25.1094 16.0313,23.1406 Q16.0313,21.7188 16.4219,20.5469 Q16.8281,19.3594 17.6094,18.4844 Q18.3906,17.6094 19.5313,17.1406 Q20.6719,16.6563 22.1406,16.6563 Q23.0938,16.6563 23.9844,16.8594 Q24.8906,17.0469 25.8281,17.5156 L25,19.2969 Q24.2188,18.9219 23.5625,18.7344 Q22.9063,18.5313 22.1094,18.5313 Z " fill="#000000"/><text fill="#000000" font-family="sans-serif" font-size="14" lengthAdjust="spacing" textLength="89.6137" x="36" y="28.432">PIDController</text><line style="stroke:#181818;stroke-width:0.5;" x1="8" x2="127.6137" y1="39" y2="39"/><line style="stroke:#181818;stroke-width:0.5;" x1="8" x2="127.6137" y1="47" y2="47"/></g><!--class Sensor--><g class="entity" data-entity="Sensor" data-source-line="3" data-uid="ent0003" id="entity_Sensor"><rect fill="#F1F1F1" height="48" rx="2.5" ry="2.5" style="stroke:#181818;stroke-width:0.5;" width="73.6638" x="163.97" y="7"/><ellipse cx="178.97" cy="23" fill="#B4A7E5" rx="11" ry="11" style="stroke:#181818;stroke-width:1;"/><path d="M181.0638,29.5 L176.1575,29.5 L176.1575,28.125 L177.5794,27.8125 L177.5794,18.5313 L176.1575,18.1875 L176.1575,16.8281 L181.0638,16.8281 L181.0638,18.1875 L179.6419,18.5313 L179.6419,27.8125 L181.0638,28.125 L181.0638,29.5 Z " fill="#000000"/><text fill="#000000" font-family="sans-serif" font-size="14" font-style="italic" lengthAdjust="spacing" textLength="41.6638" x="192.97" y="28.432">Sensor</text><line style="stroke:#181818;stroke-width:0.5;" x1="164.97" x2="236.6338" y1="39" y2="39"/><line style="stroke:#181818;stroke-width:0.5;" x1="164.97" x2="236.6338" y1="47" y2="47"/></g><!--link PIDController to Sensor--><g class="link" data-entity-1="PIDController" data-entity-2="Sensor" data-source-line="5" data-uid="lnk4" id="link_PIDController_Sensor"><path codeLine="5" d="M141.11,31 C152.59,31 146.08,31 157.56,31" fill="none" id="PIDController-Sensor" style="stroke:#181818;stroke-width:1;"/><polygon fill="none" points="129.11,31,135.11,35,141.11,31,135.11,27,129.11,31" style="stroke:#181818;stroke-width:1;"/><polygon fill="#181818" points="163.56,31,154.56,27,158.56,31,154.56,35,163.56,31" style="stroke:#181818;stroke-width:1;"/></g><!--SRC=[Iyv9B2vM2F1qSSxFAodApyb9BLAehkNAp2j9BKfBJ4vL24xDAyu7Yt6XgihNBSfCpoZHjOCguG80]--></g></svg>