<svg xmlns="http://www.w3.org/2000/svg" xmlns:xlink="http://www.w3.org/1999/xlink" contentStyleType="text/css" data-diagram-type="CLASS" height="208px" preserveAspectRatio="none" style="width:460px;height:208px;background:#FFFFFF;" version="1.1" viewBox="0 0 460 208" width="460px" zoomAndPan="magnify"><defs/><g><!--class FahrenheitSensor--><g class="entity" data-entity="FahrenheitSensor" data-source-line="2" data-uid="ent0002" id="entity_FahrenheitSensor"><rect fill="#F1F1F1" height="67.0679" rx="2.5" ry="2.5" style="stroke:#181818;stroke-width:0.5;" width="156.7735" x="152.51" y="7"/><ellipse cx="174.8711" cy="23" fill="#B4A7E5" rx="11" ry="11" style="stroke:#181818;stroke-width:1;"/><path d="M176.9648,29.5 L172.0586,29.5 L172.0586,28.125 L173.4804,27.8125 L173.4804,18.5313 L172.0586,18.1875 L172.0586,16.8281 L176.9648,16.8281 L176.9648,18.1875 L175.5429,18.5313 L175.5429,27.8125 L176.9648,28.125 L176.9648,29.5 Z " fill="#000000"/><text fill="#000000" font-family="sans-serif" font-size="14" font-style="italic" lengthAdjust="spacing" textLength="108.4156" x="190.5068" y="28.432">FahrenheitSensor</text><line style="stroke:#181818;stroke-width:0.5;" x1="153.51" x2="308.2835" y1="39" y2="39"/><line style="stroke:#181818;stroke-width:0.5;" x1="153.51" x2="308.2835" y1="47" y2="47"/><ellipse cx="163.51" cy="62.034" fill="#84BE84" rx="3" ry="3" style="stroke:#038048;stroke-width:1;"/><text fill="#000000" font-family="sans-serif" font-size="14" lengthAdjust="spacing" textLength="130.7735" x="172.51" y="65.9659">get_temperature_f()</text></g><!--class ConstantFahrenheitSensor--><g class="entity" data-entity="ConstantFahrenheitSensor" data-source-line="6" data-uid="ent0003" id="entity_ConstantFahrenheitSensor"><rect fill="#F1F1F1" height="67.0679" rx="2.5" ry="2.5" style="stroke:#181818;stroke-width:0.5;" width="207.7973" x="7" y="134.07"/><ellipse cx="22" cy="150.07" fill="#ADD1B2" rx="11" ry="11" style="stroke:#181818;stroke-width:1;"/><path d="M22.1094,145.6013 Q21.1875,145.6013 20.4531,145.9138 Q19.7344,146.2263 19.2344,146.82 Q18.7344,147.3981 18.4531,148.2731 Q18.1875,149.1481 18.1875,150.2419 Q18.1875,151.6794 18.625,152.7263 Q19.0781,153.7731 19.9219,154.32 Q20.7813,154.8669 22.0938,154.8669 Q22.875,154.8669 23.5625,154.7419 Q24.2656,154.6013 25.2656,154.2888 L25.2656,156.1638 Q24.4063,156.4919 23.6406,156.6169 Q22.8906,156.7419 21.875,156.7419 Q19.9531,156.7419 18.6406,155.945 Q17.3438,155.1325 16.6875,153.6638 Q16.0313,152.1794 16.0313,150.2106 Q16.0313,148.7888 16.4219,147.6169 Q16.8281,146.4294 17.6094,145.5544 Q18.3906,144.6794 19.5313,144.2106 Q20.6719,143.7263 22.1406,143.7263 Q23.0938,143.7263 23.9844,143.9294 Q24.8906,144.1169 25.8281,144.5856 L25,146.3669 Q24.2188,145.9919 23.5625,145.8044 Q22.9063,145.6013 22.1094,145.6013 Z " fill="#000000"/><text fill="#000000" font-family="sans-serif" font-size="14" lengthAdjust="spacing" textLength="175.7973" x="36" y="155.502">ConstantFahrenheitSensor</text><line style="stroke:#181818;stroke-width:0.5;" x1="8" x2="213.7973" y1="166.07" y2="166.07"/><line style="stroke:#181818;stroke-width:0.5;" x1="8" x2="213.7973" y1="174.07" y2="174.07"/><ellipse cx="18" cy="189.104" fill="#84BE84" rx="3" ry="3" style="stroke:#038048;stroke-width:1;"/><text fill="#000000" font-family="sans-serif" font-size="14" lengthAdjust="spacing" textLength="130.7735" x="27" y="193.0359">get_temperature_f()</text></g><!--class RandomFahrenheitSensor--><g class="entity" data-entity="RandomFahrenheitSensor" data-source-line="9" data-uid="ent0004" id="entity_RandomFahrenheitSensor"><rect fill="#F1F1F1" height="67.0679" rx="2.5" ry="2.5" style="stroke:#181818;stroke-width:0.5;" width="203.8913" x="249.95" y="134.07"/><ellipse cx="264.95" cy="150.07" fill="#ADD1B2" rx="11" ry="11" style="stroke:#181818;stroke-width:1;"/><path d="M265.0594,145.6013 Q264.1375,145.6013 263.4031,145.9138 Q262.6844,146.2263 262.1844,146.82 Q261.6844,147.3981 261.4031,148.2731 Q261.1375,149.1481 261.1375,150.2419 Q261.1375,151.6794 261.575,152.7263 Q262.0281,153.7731 262.8719,154.32 Q263.7313,154.8669 265.0438,154.8669 Q265.825,154.8669 266.5125,154.7419 Q267.2156,154.6013 268.2156,154.2888 L268.2156,156.1638 Q267.3563,156.4919 266.5906,156.6169 Q265.8406,156.7419 264.825,156.7419 Q262.9031,156.7419 261.5906,155.945 Q260.2938,155.1325 259.6375,153.6638 Q258.9813,152.1794 258.9813,150.2106 Q258.9813,148.7888 259.3719,147.6169 Q259.7781,146.4294 260.5594,145.5544 Q261.3406,144.6794 262.4813,144.2106 Q263.6219,143.7263 265.0906,143.7263 Q266.0438,143.7263 266.9344,143.9294 Q267.8406,144.1169 268.7781,144.5856 L267.95,146.3669 Q267.1688,145.9919 266.5125,145.8044 Q265.8563,145.6013 265.0594,145.6013 Z " fill="#000000"/><text fill="#000000" font-family="sans-serif" font-size="14" lengthAdjust="spacing" textLength="171.8913" x="278.95" y="155.502">RandomFahrenheitSensor</text><line style="stroke:#181818;stroke-width:0.5;" x1="250.95" x2="452.8413" y1="166.07" y2="166.07"/><line style="stroke:#181818;stroke-width:0.5;" x1="250.95" x2="452.8413" y1="174.07" y2="174.07"/><ellipse cx="260.95" cy="189.104" fill="#84BE84" rx="3" ry="3" style="stroke:#038048;stroke-width:1;"/><text fill="#000000" font-family="sans-serif" font-size="14" lengthAdjust="spacing" textLength="130.7735" x="269.95" y="193.0359">get_temperature_f()</text></g><!--reverse link FahrenheitSensor to ConstantFahrenheitSensor--><g class="link" data-entity-1="FahrenheitSensor" data-entity-2="ConstantFahrenheitSensor" data-source-line="13" data-uid="lnk5" id="link_FahrenheitSensor_ConstantFahrenheitSensor"><path codeLine="13" d="M186.9062,87.3867 C169.2662,105.7667 159.82,115.62 142.22,133.97" fill="none" id="FahrenheitSensor-backto-ConstantFahrenheitSensor" style="stroke:#181818;stroke-width:1;stroke-dasharray:7,7;"/><polygon fill="none" points="199.37,74.4,182.5773,83.2321,191.2351,91.5413,199.37,74.4" style="stroke:#181818;stroke-width:1;"/></g><!--reverse link FahrenheitSensor to RandomFahrenheitSensor--><g class="link" data-entity-1="FahrenheitSensor" data-entity-2="RandomFahrenheitSensor" data-source-line="14" data-uid="lnk6" id="link_FahrenheitSensor_RandomFahrenheitSensor"><path codeLine="14" d="M275.2086,87.3338 C292.9986,105.7138 302.57,115.62 320.32,133.97" fill="none" id="FahrenheitSensor-backto-RandomFahrenheitSensor" style="stroke:#181818;stroke-width:1;stroke-dasharray:7,7;"/><polygon fill="none" points="262.69,74.4,270.8974,91.5067,279.5199,83.1609,262.69,74.4" style="stroke:#181818;stroke-width:1;"/></g><!--SRC=[oymhIIrAIqnELN1Bp2XApSj8pIm9JiqhpYzIgEPIKD1MI4yjYIz9pIr8BKeiAIrAZK_JqEIgvU9ApaaiBbPmpiyhBadCAo59BqHhK69UIdukQPPYgBQfqTF3wGWSoh5Rp0K0]--></g></svg>