<svg xmlns="http://www.w3.org/2000/svg" xmlns:xlink="http://www.w3.org/1999/xlink" contentStyleType="text/css" data-diagram-type="CLASS" height="208px" preserveAspectRatio="none" style="width:524px;height:208px;background:#FFFFFF;" version="1.1" viewBox="0 0 524 208" width="524px" zoomAndPan="magnify"><defs/><g><!--class Sensor--><g class="entity" data-entity="Sensor" data-source-line="2" data-uid="ent0002" id="entity_Sensor"><rect fill="#F1F1F1" height="67.0679" rx="2.5" ry="2.5" style="stroke:#181818;stroke-width:0.5;" width="146.7915" x="189" y="7"/><ellipse cx="237.3138" cy="23" fill="#B4A7E5" rx="11" ry="11" style="stroke:#181818;stroke-width:1;"/><path d="M239.4076,29.5 L234.5013,29.5 L234.5013,28.125 L235.9232,27.8125 L235.9232,18.5313 L234.5013,18.1875 L234.5013,16.8281 L239.4076,16.8281 L239.4076,18.1875 L237.9857,18.5313 L237.9857,27.8125 L239.4076,28.125 L239.4076,29.5 Z " fill="#000000"/><text fill="#000000" font-family="sans-serif" font-size="14" font-style="italic" lengthAdjust="spacing" textLength="41.6638" x="257.8138" y="28.432">Sensor</text><line style="stroke:#181818;stroke-width:0.5;" x1="190" x2="334.7915" y1="39" y2="39"/><line style="stroke:#181818;stroke-width:0.5;" x1="190" x2="334.7915" y1="47" y2="47"/><ellipse cx="200" cy="62.034" fill="#84BE84" rx="3" ry="3" style="stroke:#038048;stroke-width:1;"/><text fill="#000000" font-family="sans-serif" font-size="14" lengthAdjust="spacing" textLength="120.7915" x="209" y="65.9659">double get_value()</text></g><!--class MySensor--><g class="entity" data-entity="MySensor" data-source-line="6" data-uid="ent0003" id="entity_MySensor"><rect fill="#F1F1F1" height="67.0679" rx="2.5" ry="2.5" style="stroke:#181818;stroke-width:0.5;" width="146.7915" x="7" y="134.07"/><ellipse cx="44.3928" cy="150.07" fill="#ADD1B2" rx="11" ry="11" style="stroke:#181818;stroke-width:1;"/><path d="M44.5022,145.6013 Q43.5803,145.6013 42.8459,145.9138 Q42.1272,146.2263 41.6272,146.82 Q41.1272,147.3981 40.8459,148.2731 Q40.5803,149.1481 40.5803,150.2419 Q40.5803,151.6794 41.0178,152.7263 Q41.4709,153.7731 42.3147,154.32 Q43.174,154.8669 44.4865,154.8669 Q45.2678,154.8669 45.9553,154.7419 Q46.6584,154.6013 47.6584,154.2888 L47.6584,156.1638 Q46.799,156.4919 46.0334,156.6169 Q45.2834,156.7419 44.2678,156.7419 Q42.3459,156.7419 41.0334,155.945 Q39.7365,155.1325 39.0803,153.6638 Q38.424,152.1794 38.424,150.2106 Q38.424,148.7888 38.8147,147.6169 Q39.2209,146.4294 40.0022,145.5544 Q40.7834,144.6794 41.924,144.2106 Q43.0647,143.7263 44.5334,143.7263 Q45.4865,143.7263 46.3772,143.9294 Q47.2834,144.1169 48.2209,144.5856 L47.3928,146.3669 Q46.6115,145.9919 45.9553,145.8044 Q45.299,145.6013 44.5022,145.6013 Z " fill="#000000"/><text fill="#000000" font-family="sans-serif" font-size="14" lengthAdjust="spacing" textLength="65.0298" x="63.369" y="155.502">MySensor</text><line style="stroke:#181818;stroke-width:0.5;" x1="8" x2="152.7915" y1="166.07" y2="166.07"/><line style="stroke:#181818;stroke-width:0.5;" x1="8" x2="152.7915" y1="174.07" y2="174.07"/><ellipse cx="18" cy="189.104" fill="#84BE84" rx="3" ry="3" style="stroke:#038048;stroke-width:1;"/><text fill="#000000" font-family="sans-serif" font-size="14" lengthAdjust="spacing" textLength="120.7915" x="27" y="193.0359">double get_value()</text></g><!--class YourSensor--><g class="entity" data-entity="YourSensor" data-source-line="10" data-uid="ent0004" id="entity_YourSensor"><rect fill="#F1F1F1" height="67.0679" rx="2.5" ry="2.5" style="stroke:#181818;stroke-width:0.5;" width="146.7915" x="189" y="134.07"/><ellipse cx="221.4473" cy="150.07" fill="#ADD1B2" rx="11" ry="11" style="stroke:#181818;stroke-width:1;"/><path d="M221.5567,145.6013 Q220.6348,145.6013 219.9004,145.9138 Q219.1817,146.2263 218.6817,146.82 Q218.1817,147.3981 217.9004,148.2731 Q217.6348,149.1481 217.6348,150.2419 Q217.6348,151.6794 218.0723,152.7263 Q218.5254,153.7731 219.3692,154.32 Q220.2286,154.8669 221.5411,154.8669 Q222.3223,154.8669 223.0098,154.7419 Q223.7129,154.6013 224.7129,154.2888 L224.7129,156.1638 Q223.8536,156.4919 223.0879,156.6169 Q222.3379,156.7419 221.3223,156.7419 Q219.4004,156.7419 218.0879,155.945 Q216.7911,155.1325 216.1348,153.6638 Q215.4786,152.1794 215.4786,150.2106 Q215.4786,148.7888 215.8692,147.6169 Q216.2754,146.4294 217.0567,145.5544 Q217.8379,144.6794 218.9786,144.2106 Q220.1192,143.7263 221.5879,143.7263 Q222.5411,143.7263 223.4317,143.9294 Q224.3379,144.1169 225.2754,144.5856 L224.4473,146.3669 Q223.6661,145.9919 223.0098,145.8044 Q222.3536,145.6013 221.5567,145.6013 Z " fill="#000000"/><text fill="#000000" font-family="sans-serif" font-size="14" lengthAdjust="spacing" textLength="76.0197" x="239.3245" y="155.502">YourSensor</text><line style="stroke:#181818;stroke-width:0.5;" x1="190" x2="334.7915" y1="166.07" y2="166.07"/><line style="stroke:#181818;stroke-width:0.5;" x1="190" x2="334.7915" y1="174.07" y2="174.07"/><ellipse cx="200" cy="189.104" fill="#84BE84" rx="3" ry="3" style="stroke:#038048;stroke-width:1;"/><text fill="#000000" font-family="sans-serif" font-size="14" lengthAdjust="spacing" textLength="120.7915" x="209" y="193.0359">double get_value()</text></g><!--class HerSensor--><g class="entity" data-entity="HerSensor" data-source-line="14" data-uid="ent0005" id="entity_HerSensor"><rect fill="#F1F1F1" height="67.0679" rx="2.5" ry="2.5" style="stroke:#181818;stroke-width:0.5;" width="146.7915" x="371" y="134.07"/><ellipse cx="406.4965" cy="150.07" fill="#ADD1B2" rx="11" ry="11" style="stroke:#181818;stroke-width:1;"/><path d="M406.6059,145.6013 Q405.684,145.6013 404.9496,145.9138 Q404.2309,146.2263 403.7309,146.82 Q403.2309,147.3981 402.9496,148.2731 Q402.684,149.1481 402.684,150.2419 Q402.684,151.6794 403.1215,152.7263 Q403.5746,153.7731 404.4184,154.32 Q405.2777,154.8669 406.5902,154.8669 Q407.3715,154.8669 408.059,154.7419 Q408.7621,154.6013 409.7621,154.2888 L409.7621,156.1638 Q408.9027,156.4919 408.1371,156.6169 Q407.3871,156.7419 406.3715,156.7419 Q404.4496,156.7419 403.1371,155.945 Q401.8402,155.1325 401.184,153.6638 Q400.5277,152.1794 400.5277,150.2106 Q400.5277,148.7888 400.9184,147.6169 Q401.3246,146.4294 402.1059,145.5544 Q402.8871,144.6794 404.0277,144.2106 Q405.1684,143.7263 406.6371,143.7263 Q407.5902,143.7263 408.4809,143.9294 Q409.3871,144.1169 410.3246,144.5856 L409.4965,146.3669 Q408.7152,145.9919 408.059,145.8044 Q407.4027,145.6013 406.6059,145.6013 Z " fill="#000000"/><text fill="#000000" font-family="sans-serif" font-size="14" lengthAdjust="spacing" textLength="69.2437" x="425.0513" y="155.502">HerSensor</text><line style="stroke:#181818;stroke-width:0.5;" x1="372" x2="516.7915" y1="166.07" y2="166.07"/><line style="stroke:#181818;stroke-width:0.5;" x1="372" x2="516.7915" y1="174.07" y2="174.07"/><ellipse cx="382" cy="189.104" fill="#84BE84" rx="3" ry="3" style="stroke:#038048;stroke-width:1;"/><text fill="#000000" font-family="sans-serif" font-size="14" lengthAdjust="spacing" textLength="120.7915" x="391" y="193.0359">double get_value()</text></g><!--reverse link Sensor to MySensor--><g class="link" data-entity-1="Sensor" data-entity-2="MySensor" data-source-line="18" data-uid="lnk6" id="link_Sensor_MySensor"><path codeLine="18" d="M199.7442,84.593 C173.0942,102.903 154.86,115.44 128.21,133.75" fill="none" id="Sensor-backto-MySensor" style="stroke:#181818;stroke-width:1;stroke-dasharray:7.0,7.0;"/><polygon fill="none" points="214.58,74.4,196.3465,79.6477,203.1418,89.5383,214.58,74.4" style="stroke:#181818;stroke-width:1;"/></g><!--reverse link Sensor to YourSensor--><g class="link" data-entity-1="Sensor" data-entity-2="YourSensor" data-source-line="19" data-uid="lnk7" id="link_Sensor_YourSensor"><path codeLine="19" d="M262.4,92.4 C262.4,110.78 262.4,115.62 262.4,133.97" fill="none" id="Sensor-backto-YourSensor" style="stroke:#181818;stroke-width:1;stroke-dasharray:7.0,7.0;"/><polygon fill="none" points="262.4,74.4,256.4,92.4,268.4,92.4,262.4,74.4" style="stroke:#181818;stroke-width:1;"/></g><!--reverse link Sensor to HerSensor--><g class="link" data-entity-1="Sensor" data-entity-2="HerSensor" data-source-line="20" data-uid="lnk8" id="link_Sensor_HerSensor"><path codeLine="20" d="M325.0458,84.593 C351.6958,102.903 369.94,115.44 396.58,133.75" fill="none" id="Sensor-backto-HerSensor" style="stroke:#181818;stroke-width:1;stroke-dasharray:7.0,7.0;"/><polygon fill="none" points="310.21,74.4,321.6482,89.5383,328.4435,79.6477,310.21,74.4" style="stroke:#181818;stroke-width:1;"/></g><!--SRC=[oymhIIrAIqnELGXEpIlEBrAevb9Gq5P8oIzDoabLI4yjYIzBp2bDrT3agkNYIiv9B2vMyAqaMcbaVcaHqOezKebH2rLYKwEd1tS9YY32JXHXkEbS0000]--></g></svg>