<svg xmlns="http://www.w3.org/2000/svg" xmlns:xlink="http://www.w3.org/1999/xlink" contentStyleType="text/css" data-diagram-type="CLASS" height="81px" preserveAspectRatio="none" style="width:361px;height:81px;background:#FFFFFF;" version="1.1" viewBox="0 0 361 81" width="361px" zoomAndPan="magnify"><defs/><g><!--class Sensor--><g class="entity" data-entity="Sensor" data-source-line="2" data-uid="ent0002" id="entity_Sensor"><rect fill="#F1F1F1" height="67.0679" rx="2.5" ry="2.5" style="stroke:#181818;stroke-width:0.5;" width="146.7915" x="208.03" y="7"/><ellipse cx="254.5798" cy="23" fill="#ADD1B2" rx="11" ry="11" style="stroke:#181818;stroke-width:1;"/><path d="M254.6892,18.5313 Q253.7673,18.5313 253.033,18.8438 Q252.3142,19.1563 251.8142,19.75 Q251.3142,20.3281 251.033,21.2031 Q250.7673,22.0781 250.7673,23.1719 Q250.7673,24.6094 251.2048,25.6563 Q251.658,26.7031 252.5017,27.25 Q253.3611,27.7969 254.6736,27.7969 Q255.4548,27.7969 256.1423,27.6719 Q256.8455,27.5313 257.8455,27.2188 L257.8455,29.0938 Q256.9861,29.4219 256.2205,29.5469 Q255.4705,29.6719 254.4548,29.6719 Q252.533,29.6719 251.2205,28.875 Q249.9236,28.0625 249.2673,26.5938 Q248.6111,25.1094 248.6111,23.1406 Q248.6111,21.7188 249.0017,20.5469 Q249.408,19.3594 250.1892,18.4844 Q250.9705,17.6094 252.1111,17.1406 Q253.2517,16.6563 254.7205,16.6563 Q255.6736,16.6563 256.5642,16.8594 Q257.4705,17.0469 258.408,17.5156 L257.5798,19.2969 Q256.7986,18.9219 256.1423,18.7344 Q255.4861,18.5313 254.6892,18.5313 Z " fill="#000000"/><text fill="#000000" font-family="sans-serif" font-size="14" lengthAdjust="spacing" textLength="45.1918" x="275.0798" y="28.432">Sensor</text><line style="stroke:#181818;stroke-width:0.5;" x1="209.03" x2="353.8215" y1="39" y2="39"/><line style="stroke:#181818;stroke-width:0.5;" x1="209.03" x2="353.8215" y1="47" y2="47"/><ellipse cx="219.03" cy="62.034" fill="#84BE84" rx="3" ry="3" style="stroke:#038048;stroke-width:1;"/><text fill="#000000" font-family="sans-serif" font-size="14" lengthAdjust="spacing" textLength="120.7915" x="228.03" y="65.9659">double get_value()</text></g><path d="M6,21.68 L6,49.386 A0,0 0 0 0 6,49.386 L172.8601,49.386 A0,0 0 0 0 172.8601,49.386 L172.8601,39.68 L212.03,60.534 L172.8601,31.68 L172.8601,31.68 L162.8601,21.68 L6,21.68 A0,0 0 0 0 6,21.68" fill="#FEFFDD" style="stroke:#181818;stroke-width:0.5;"/><path d="M162.8601,21.68 L162.8601,31.68 L172.8601,31.68 L162.8601,21.68" fill="#FEFFDD" style="stroke:#181818;stroke-width:0.5;"/><text fill="#000000" font-family="sans-serif" font-size="13" lengthAdjust="spacing" textLength="145.8601" x="12" y="40.577">Implemented somehow</text><!--SRC=[FSj13a0m40NG_PpYBuaRk86r0qZfnsBQ4IqMukv8nFwzGLrAQ1cJhJW5gE1jwvMOcBlTwSQYb4kYPK8vPjZuyRh-oVFGX4KP63CzaWNETWYZnplb1W00]--></g></svg>