<svg xmlns="http://www.w3.org/2000/svg" xmlns:xlink="http://www.w3.org/1999/xlink" contentStyleType="text/css" data-diagram-type="CLASS" height="208px" preserveAspectRatio="none" style="width:209px;height:208px;background:#FFFFFF;" version="1.1" viewBox="0 0 209 208" width="209px" zoomAndPan="magnify"><defs/><g><!--class Sensor--><g class="entity" data-entity="Sensor" data-source-line="2" data-uid="ent0002" id="entity_Sensor"><rect fill="#F1F1F1" height="67.0679" rx="2.5" ry="2.5" style="stroke:#181818;stroke-width:0.5;" width="195.2314" x="7" y="7"/><ellipse cx="79.5338" cy="23" fill="#B4A7E5" rx="11" ry="11" style="stroke:#181818;stroke-width:1;"/><path d="M81.6275,29.5 L76.7213,29.5 L76.7213,28.125 L78.1431,27.8125 L78.1431,18.5313 L76.7213,18.1875 L76.7213,16.8281 L81.6275,16.8281 L81.6275,18.1875 L80.2056,18.5313 L80.2056,27.8125 L81.6275,28.125 L81.6275,29.5 Z " fill="#000000"/><text fill="#000000" font-family="sans-serif" font-size="14" font-style="italic" lengthAdjust="spacing" textLength="41.6638" x="100.0338" y="28.432">Sensor</text><line style="stroke:#181818;stroke-width:0.5;" x1="8" x2="201.2314" y1="39" y2="39"/><line style="stroke:#181818;stroke-width:0.5;" x1="8" x2="201.2314" y1="47" y2="47"/><ellipse cx="18" cy="62.034" fill="#84BE84" rx="3" ry="3" style="stroke:#038048;stroke-width:1;"/><text fill="#000000" font-family="sans-serif" font-size="14" lengthAdjust="spacing" textLength="169.2314" x="27" y="65.9659">double get_temperature()</text></g><!--class I2CSensor--><g class="entity" data-entity="I2CSensor" data-source-line="6" data-uid="ent0003" id="entity_I2CSensor"><rect fill="#F1F1F1" height="67.0679" rx="2.5" ry="2.5" style="stroke:#181818;stroke-width:0.5;" width="195.2314" x="7" y="134.07"/><ellipse cx="66.9688" cy="150.07" fill="#ADD1B2" rx="11" ry="11" style="stroke:#181818;stroke-width:1;"/><path d="M67.0782,145.6013 Q66.1563,145.6013 65.4219,145.9138 Q64.7032,146.2263 64.2032,146.82 Q63.7032,147.3981 63.4219,148.2731 Q63.1563,149.1481 63.1563,150.2419 Q63.1563,151.6794 63.5938,152.7263 Q64.0469,153.7731 64.8907,154.32 Q65.7501,154.8669 67.0626,154.8669 Q67.8438,154.8669 68.5313,154.7419 Q69.2344,154.6013 70.2344,154.2888 L70.2344,156.1638 Q69.3751,156.4919 68.6094,156.6169 Q67.8594,156.7419 66.8438,156.7419 Q64.9219,156.7419 63.6094,155.945 Q62.3126,155.1325 61.6563,153.6638 Q61.0001,152.1794 61.0001,150.2106 Q61.0001,148.7888 61.3907,147.6169 Q61.7969,146.4294 62.5782,145.5544 Q63.3594,144.6794 64.5001,144.2106 Q65.6407,143.7263 67.1094,143.7263 Q68.0626,143.7263 68.9532,143.9294 Q69.8594,144.1169 70.7969,144.5856 L69.9688,146.3669 Q69.1876,145.9919 68.5313,145.8044 Q67.8751,145.6013 67.0782,145.6013 Z " fill="#000000"/><text fill="#000000" font-family="sans-serif" font-size="14" lengthAdjust="spacing" textLength="66.7937" x="87.4688" y="155.502">I2CSensor</text><line style="stroke:#181818;stroke-width:0.5;" x1="8" x2="201.2314" y1="166.07" y2="166.07"/><line style="stroke:#181818;stroke-width:0.5;" x1="8" x2="201.2314" y1="174.07" y2="174.07"/><ellipse cx="18" cy="189.104" fill="#84BE84" rx="3" ry="3" style="stroke:#038048;stroke-width:1;"/><text fill="#000000" font-family="sans-serif" font-size="14" lengthAdjust="spacing" textLength="169.2314" x="27" y="193.0359">double get_temperature()</text></g><!--reverse link Sensor to I2CSensor--><g class="link" data-entity-1="Sensor" data-entity-2="I2CSensor" data-source-line="10" data-uid="lnk4" id="link_Sensor_I2CSensor"><path codeLine="10" d="M104.62,92.4 C104.62,110.78 104.62,115.62 104.62,133.97" fill="none" id="Sensor-backto-I2CSensor" style="stroke:#181818;stroke-width:1;stroke-dasharray:7,7;"/><polygon fill="none" points="104.62,74.4,98.62,92.4,110.62,92.4,104.62,74.4" style="stroke:#181818;stroke-width:1;"/></g><!--SRC=[oymhIIrAIqnELGXEpIlEBrAevb9Gq5P8oIzDoabLI4yjYIz9pIr8BKeiAIrArT3agkNYIiv9B2vMy3Ho9be7LA5DZPuUGXyN0000]--></g></svg>