<svg xmlns="http://www.w3.org/2000/svg" xmlns:xlink="http://www.w3.org/1999/xlink" contentStyleType="text/css" data-diagram-type="CLASS" height="208px" preserveAspectRatio="none" style="width:524px;height:208px;background:#FFFFFF;" version="1.1" viewBox="0 0 524 208" width="524px" zoomAndPan="magnify"><defs/><g><!--class Sensor--><g class="entity" data-entity="Sensor" data-source-line="2" data-uid="ent0002" id="entity_Sensor"><rect fill="#F1F1F1" height="67.0679" rx="2.5" ry="2.5" style="stroke:#181818;stroke-width:0.5;" width="195.2314" x="164.78" y="7"/><ellipse cx="237.3138" cy="23" fill="#B4A7E5" rx="11" ry="11" style="stroke:#181818;stroke-width:1;"/><path d="M239.4075,29.5 L234.5013,29.5 L234.5013,28.125 L235.9231,27.8125 L235.9231,18.5313 L234.5013,18.1875 L234.5013,16.8281 L239.4075,16.8281 L239.4075,18.1875 L237.9856,18.5313 L237.9856,27.8125 L239.4075,28.125 L239.4075,29.5 Z " fill="#000000"/><text fill="#000000" font-family="sans-serif" font-size="14" font-style="italic" lengthAdjust="spacing" textLength="41.6638" x="257.8138" y="28.432">Sensor</text><line style="stroke:#181818;stroke-width:0.5;" x1="165.78" x2="359.0114" y1="39" y2="39"/><line style="stroke:#181818;stroke-width:0.5;" x1="165.78" x2="359.0114" y1="47" y2="47"/><ellipse cx="175.78" cy="62.034" fill="#84BE84" rx="3" ry="3" style="stroke:#038048;stroke-width:1;"/><text fill="#000000" font-family="sans-serif" font-size="14" lengthAdjust="spacing" textLength="169.2314" x="184.78" y="65.9659">double get_temperature()</text></g><!--class I2CSensor--><g class="entity" data-entity="I2CSensor" data-source-line="6" data-uid="ent0003" id="entity_I2CSensor"><rect fill="#F1F1F1" height="67.0679" rx="2.5" ry="2.5" style="stroke:#181818;stroke-width:0.5;" width="146.7915" x="7" y="134.07"/><ellipse cx="43.599" cy="150.07" fill="#ADD1B2" rx="11" ry="11" style="stroke:#181818;stroke-width:1;"/><path d="M43.7084,145.6013 Q42.7865,145.6013 42.0521,145.9138 Q41.3334,146.2263 40.8334,146.82 Q40.3334,147.3981 40.0521,148.2731 Q39.7865,149.1481 39.7865,150.2419 Q39.7865,151.6794 40.224,152.7263 Q40.6771,153.7731 41.5209,154.32 Q42.3802,154.8669 43.6927,154.8669 Q44.474,154.8669 45.1615,154.7419 Q45.8646,154.6013 46.8646,154.2888 L46.8646,156.1638 Q46.0052,156.4919 45.2396,156.6169 Q44.4896,156.7419 43.474,156.7419 Q41.5521,156.7419 40.2396,155.945 Q38.9427,155.1325 38.2865,153.6638 Q37.6302,152.1794 37.6302,150.2106 Q37.6302,148.7888 38.0209,147.6169 Q38.4271,146.4294 39.2084,145.5544 Q39.9896,144.6794 41.1302,144.2106 Q42.2709,143.7263 43.7396,143.7263 Q44.6927,143.7263 45.5834,143.9294 Q46.4896,144.1169 47.4271,144.5856 L46.599,146.3669 Q45.8177,145.9919 45.1615,145.8044 Q44.5052,145.6013 43.7084,145.6013 Z " fill="#000000"/><text fill="#000000" font-family="sans-serif" font-size="14" lengthAdjust="spacing" textLength="66.7937" x="62.3988" y="155.502">I2CSensor</text><line style="stroke:#181818;stroke-width:0.5;" x1="8" x2="152.7915" y1="166.07" y2="166.07"/><line style="stroke:#181818;stroke-width:0.5;" x1="8" x2="152.7915" y1="174.07" y2="174.07"/><ellipse cx="18" cy="189.104" fill="#84BE84" rx="3" ry="3" style="stroke:#038048;stroke-width:1;"/><text fill="#000000" font-family="sans-serif" font-size="14" lengthAdjust="spacing" textLength="120.7915" x="27" y="193.0359">double get_value()</text></g><!--class RandomSensor--><g class="entity" data-entity="RandomSensor" data-source-line="9" data-uid="ent0004" id="entity_RandomSensor"><rect fill="#F1F1F1" height="67.0679" rx="2.5" ry="2.5" style="stroke:#181818;stroke-width:0.5;" width="146.7915" x="189" y="134.07"/><ellipse cx="210.3972" cy="150.07" fill="#ADD1B2" rx="11" ry="11" style="stroke:#181818;stroke-width:1;"/><path d="M210.5065,145.6013 Q209.5847,145.6013 208.8503,145.9138 Q208.1315,146.2263 207.6315,146.82 Q207.1315,147.3981 206.8503,148.2731 Q206.5847,149.1481 206.5847,150.2419 Q206.5847,151.6794 207.0222,152.7263 Q207.4753,153.7731 208.319,154.32 Q209.1784,154.8669 210.4909,154.8669 Q211.2722,154.8669 211.9597,154.7419 Q212.6628,154.6013 213.6628,154.2888 L213.6628,156.1638 Q212.8034,156.4919 212.0378,156.6169 Q211.2878,156.7419 210.2722,156.7419 Q208.3503,156.7419 207.0378,155.945 Q205.7409,155.1325 205.0847,153.6638 Q204.4284,152.1794 204.4284,150.2106 Q204.4284,148.7888 204.819,147.6169 Q205.2253,146.4294 206.0065,145.5544 Q206.7878,144.6794 207.9284,144.2106 Q209.069,143.7263 210.5378,143.7263 Q211.4909,143.7263 212.3815,143.9294 Q213.2878,144.1169 214.2253,144.5856 L213.3972,146.3669 Q212.6159,145.9919 211.9597,145.8044 Q211.3034,145.6013 210.5065,145.6013 Z " fill="#000000"/><text fill="#000000" font-family="sans-serif" font-size="14" lengthAdjust="spacing" textLength="100.5756" x="225.8187" y="155.502">RandomSensor</text><line style="stroke:#181818;stroke-width:0.5;" x1="190" x2="334.7915" y1="166.07" y2="166.07"/><line style="stroke:#181818;stroke-width:0.5;" x1="190" x2="334.7915" y1="174.07" y2="174.07"/><ellipse cx="200" cy="189.104" fill="#84BE84" rx="3" ry="3" style="stroke:#038048;stroke-width:1;"/><text fill="#000000" font-family="sans-serif" font-size="14" lengthAdjust="spacing" textLength="120.7915" x="209" y="193.0359">double get_value()</text></g><!--class ConstantSensor--><g class="entity" data-entity="ConstantSensor" data-source-line="12" data-uid="ent0005" id="entity_ConstantSensor"><rect fill="#F1F1F1" height="67.0679" rx="2.5" ry="2.5" style="stroke:#181818;stroke-width:0.5;" width="146.7915" x="371" y="134.07"/><ellipse cx="390.6395" cy="150.07" fill="#ADD1B2" rx="11" ry="11" style="stroke:#181818;stroke-width:1;"/><path d="M390.7488,145.6013 Q389.827,145.6013 389.0926,145.9138 Q388.3738,146.2263 387.8738,146.82 Q387.3738,147.3981 387.0926,148.2731 Q386.827,149.1481 386.827,150.2419 Q386.827,151.6794 387.2645,152.7263 Q387.7176,153.7731 388.5613,154.32 Q389.4207,154.8669 390.7332,154.8669 Q391.5145,154.8669 392.202,154.7419 Q392.9051,154.6013 393.9051,154.2888 L393.9051,156.1638 Q393.0457,156.4919 392.2801,156.6169 Q391.5301,156.7419 390.5145,156.7419 Q388.5926,156.7419 387.2801,155.945 Q385.9832,155.1325 385.327,153.6638 Q384.6707,152.1794 384.6707,150.2106 Q384.6707,148.7888 385.0613,147.6169 Q385.4676,146.4294 386.2488,145.5544 Q387.0301,144.6794 388.1707,144.2106 Q389.3113,143.7263 390.7801,143.7263 Q391.7332,143.7263 392.6238,143.9294 Q393.5301,144.1169 394.4676,144.5856 L393.6395,146.3669 Q392.8582,145.9919 392.202,145.8044 Q391.5457,145.6013 390.7488,145.6013 Z " fill="#000000"/><text fill="#000000" font-family="sans-serif" font-size="14" lengthAdjust="spacing" textLength="104.4816" x="405.6704" y="155.502">ConstantSensor</text><line style="stroke:#181818;stroke-width:0.5;" x1="372" x2="516.7915" y1="166.07" y2="166.07"/><line style="stroke:#181818;stroke-width:0.5;" x1="372" x2="516.7915" y1="174.07" y2="174.07"/><ellipse cx="382" cy="189.104" fill="#84BE84" rx="3" ry="3" style="stroke:#038048;stroke-width:1;"/><text fill="#000000" font-family="sans-serif" font-size="14" lengthAdjust="spacing" textLength="120.7915" x="391" y="193.0359">double get_value()</text></g><!--reverse link Sensor to I2CSensor--><g class="link" data-entity-1="Sensor" data-entity-2="I2CSensor" data-source-line="16" data-uid="lnk6" id="link_Sensor_I2CSensor"><path codeLine="16" d="M199.7442,84.593 C173.0942,102.903 154.86,115.44 128.21,133.75" fill="none" id="Sensor-backto-I2CSensor" style="stroke:#181818;stroke-width:1;stroke-dasharray:7,7;"/><polygon fill="none" points="214.58,74.4,196.3465,79.6477,203.1418,89.5383,214.58,74.4" style="stroke:#181818;stroke-width:1;"/></g><!--reverse link Sensor to RandomSensor--><g class="link" data-entity-1="Sensor" data-entity-2="RandomSensor" data-source-line="17" data-uid="lnk7" id="link_Sensor_RandomSensor"><path codeLine="17" d="M262.4,92.4 C262.4,110.78 262.4,115.62 262.4,133.97" fill="none" id="Sensor-backto-RandomSensor" style="stroke:#181818;stroke-width:1;stroke-dasharray:7,7;"/><polygon fill="none" points="262.4,74.4,256.4,92.4,268.4,92.4,262.4,74.4" style="stroke:#181818;stroke-width:1;"/></g><!--reverse link Sensor to ConstantSensor--><g class="link" data-entity-1="Sensor" data-entity-2="ConstantSensor" data-source-line="18" data-uid="lnk8" id="link_Sensor_ConstantSensor"><path codeLine="18" d="M325.0458,84.593 C351.6958,102.903 369.94,115.44 396.58,133.75" fill="none" id="Sensor-backto-ConstantSensor" style="stroke:#181818;stroke-width:1;stroke-dasharray:7,7;"/><polygon fill="none" points="310.21,74.4,321.6482,89.5383,328.4435,79.6477,310.21,74.4" style="stroke:#181818;stroke-width:1;"/></g><!--SRC=[oymhIIrAIqnELGXEpIlEBrAevb9Gq5P8oIzDoabLI4yjYIz9pIr8BKeiAIrArT3agkNYIiv9B2vMy3HongMZB36d5A8MeZGeCIybFvTOrSxvUSKbYNabXDLpGPNOrEZf8To38efiDOe4gYrS0000]--></g></svg>