<svg xmlns="http://www.w3.org/2000/svg" xmlns:xlink="http://www.w3.org/1999/xlink" contentStyleType="text/css" data-diagram-type="CLASS" height="208px" preserveAspectRatio="none" style="width:160px;height:208px;background:#FFFFFF;" version="1.1" viewBox="0 0 160 208" width="160px" zoomAndPan="magnify"><defs/><g><!--class Sensor--><g class="entity" data-entity="Sensor" data-source-line="2" data-uid="ent0002" id="entity_Sensor"><rect fill="#F1F1F1" height="67.0679" rx="2.5" ry="2.5" style="stroke:#181818;stroke-width:0.5;" width="146.7915" x="7" y="7"/><ellipse cx="53.5498" cy="23" fill="#ADD1B2" rx="11" ry="11" style="stroke:#181818;stroke-width:1;"/><path d="M53.6592,18.5313 Q52.7373,18.5313 52.003,18.8438 Q51.2842,19.1563 50.7842,19.75 Q50.2842,20.3281 50.003,21.2031 Q49.7373,22.0781 49.7373,23.1719 Q49.7373,24.6094 50.1748,25.6563 Q50.628,26.7031 51.4717,27.25 Q52.3311,27.7969 53.6436,27.7969 Q54.4248,27.7969 55.1123,27.6719 Q55.8155,27.5313 56.8155,27.2188 L56.8155,29.0938 Q55.9561,29.4219 55.1905,29.5469 Q54.4405,29.6719 53.4248,29.6719 Q51.503,29.6719 50.1905,28.875 Q48.8936,28.0625 48.2373,26.5938 Q47.5811,25.1094 47.5811,23.1406 Q47.5811,21.7188 47.9717,20.5469 Q48.378,19.3594 49.1592,18.4844 Q49.9405,17.6094 51.0811,17.1406 Q52.2217,16.6563 53.6905,16.6563 Q54.6436,16.6563 55.5342,16.8594 Q56.4405,17.0469 57.378,17.5156 L56.5498,19.2969 Q55.7686,18.9219 55.1123,18.7344 Q54.4561,18.5313 53.6592,18.5313 Z " fill="#000000"/><text fill="#000000" font-family="sans-serif" font-size="14" lengthAdjust="spacing" textLength="45.1918" x="74.0498" y="28.432">Sensor</text><line style="stroke:#181818;stroke-width:0.5;" x1="8" x2="152.7915" y1="39" y2="39"/><line style="stroke:#181818;stroke-width:0.5;" x1="8" x2="152.7915" y1="47" y2="47"/><ellipse cx="18" cy="62.034" fill="#84BE84" rx="3" ry="3" style="stroke:#038048;stroke-width:1;"/><text fill="#000000" font-family="sans-serif" font-size="14" lengthAdjust="spacing" textLength="120.7915" x="27" y="65.9659">double get_value()</text></g><!--class MySensor--><g class="entity" data-entity="MySensor" data-source-line="6" data-uid="ent0003" id="entity_MySensor"><rect fill="#F1F1F1" height="67.0679" rx="2.5" ry="2.5" style="stroke:#181818;stroke-width:0.5;" width="146.7915" x="7" y="134.07"/><ellipse cx="44.3928" cy="150.07" fill="#ADD1B2" rx="11" ry="11" style="stroke:#181818;stroke-width:1;"/><path d="M44.5022,145.6013 Q43.5803,145.6013 42.8459,145.9138 Q42.1272,146.2263 41.6272,146.82 Q41.1272,147.3981 40.8459,148.2731 Q40.5803,149.1481 40.5803,150.2419 Q40.5803,151.6794 41.0178,152.7263 Q41.4709,153.7731 42.3147,154.32 Q43.174,154.8669 44.4865,154.8669 Q45.2678,154.8669 45.9553,154.7419 Q46.6584,154.6013 47.6584,154.2888 L47.6584,156.1638 Q46.799,156.4919 46.0334,156.6169 Q45.2834,156.7419 44.2678,156.7419 Q42.3459,156.7419 41.0334,155.945 Q39.7365,155.1325 39.0803,153.6638 Q38.424,152.1794 38.424,150.2106 Q38.424,148.7888 38.8147,147.6169 Q39.2209,146.4294 40.0022,145.5544 Q40.7834,144.6794 41.924,144.2106 Q43.0647,143.7263 44.5334,143.7263 Q45.4865,143.7263 46.3772,143.9294 Q47.2834,144.1169 48.2209,144.5856 L47.3928,146.3669 Q46.6115,145.9919 45.9553,145.8044 Q45.299,145.6013 44.5022,145.6013 Z " fill="#000000"/><text fill="#000000" font-family="sans-serif" font-size="14" lengthAdjust="spacing" textLength="65.0298" x="63.369" y="155.502">MySensor</text><line style="stroke:#181818;stroke-width:0.5;" x1="8" x2="152.7915" y1="166.07" y2="166.07"/><line style="stroke:#181818;stroke-width:0.5;" x1="8" x2="152.7915" y1="174.07" y2="174.07"/><ellipse cx="18" cy="189.104" fill="#84BE84" rx="3" ry="3" style="stroke:#038048;stroke-width:1;"/><text fill="#000000" font-family="sans-serif" font-size="14" lengthAdjust="spacing" textLength="120.7915" x="27" y="193.0359">double get_value()</text></g><!--reverse link Sensor to MySensor--><g class="link" data-entity-1="Sensor" data-entity-2="MySensor" data-source-line="10" data-uid="lnk4" id="link_Sensor_MySensor"><path codeLine="10" d="M80.4,92.4 C80.4,110.78 80.4,115.62 80.4,133.97" fill="none" id="Sensor-backto-MySensor" style="stroke:#181818;stroke-width:1;"/><polygon fill="none" points="80.4,74.4,74.4,92.4,86.4,92.4,80.4,74.4" style="stroke:#181818;stroke-width:1;"/></g><!--SRC=[Iyv9B2vM24xDAyulKgZcKb3GLaZ9BqtAILL8Jos9BqlCAKtLqEIgvU9A1YlqhIH2ALI9JOskBbm35m00]--></g></svg>