<?xml version="1.0" encoding="UTF-8" standalone="no"?>
<!DOCTYPE svg PUBLIC "-//W3C//DTD SVG 1.0//EN" "http://www.w3.org/TR/2001/PR-SVG-20010719/DTD/svg10.dtd">
<svg width="24cm" height="32cm" viewBox="89 29 480 623" xmlns="http://www.w3.org/2000/svg" xmlns:xlink="http://www.w3.org/1999/xlink">
  <g>
    <rect style="fill: #ffffff" x="91" y="150.9" width="289" height="60" rx="30" ry="30"/>
    <rect style="fill: none; fill-opacity:0; stroke-width: 2; stroke-linejoin: round; stroke: #0000ff" x="91" y="150.9" width="289" height="60" rx="30" ry="30"/>
  </g>
  <g>
    <path style="fill: none; fill-opacity:0; stroke-width: 2; stroke: #0000ff" d="M 235.5 210.9 C 232.18,210.9 100,340 100,400 C 100,460 215.168,559.904 222.089,580.668"/>
    <polygon style="fill: #0000ff" points="224.461,587.783 216.555,579.877 222.089,580.668 226.042,576.715 "/>
    <polygon style="fill: none; fill-opacity:0; stroke-width: 2; stroke: #0000ff" points="224.461,587.783 216.555,579.877 222.089,580.668 226.042,576.715 "/>
  </g>
  <g>
    <path style="fill: none; fill-opacity:0; stroke-width: 2; stroke-dasharray: 4; stroke: #000000" d="M 420 520 C 410,560 296.466,559.934 273.351,583.049"/>
    <polygon style="fill: #000000" points="268.047,588.353 271.583,577.746 273.351,583.049 278.654,584.817 "/>
    <polygon style="fill: none; fill-opacity:0; stroke-width: 2; stroke: #000000" points="268.047,588.353 271.583,577.746 273.351,583.049 278.654,584.817 "/>
  </g>
  <g>
    <path style="fill: none; fill-opacity:0; stroke-width: 2; stroke-dasharray: 4; stroke: #0000ff" d="M 131 30.9 C 137.64,30.9 151,36.9 141,53.9 C 131,70.9 135,94.9 153,102.9 C 171,110.9 255.805,119.985 248.884,140.748"/>
    <polygon style="fill: #0000ff" points="246.512,147.863 244.931,136.795 248.884,140.748 254.418,139.958 "/>
    <polygon style="fill: none; fill-opacity:0; stroke-width: 2; stroke: #0000ff" points="246.512,147.863 244.931,136.795 248.884,140.748 254.418,139.958 "/>
  </g>
  <g>
    <rect style="fill: #ffffff" x="91" y="590.9" width="289" height="60" rx="30" ry="30"/>
    <rect style="fill: none; fill-opacity:0; stroke-width: 2; stroke-linejoin: round; stroke: #0000ff" x="91" y="590.9" width="289" height="60" rx="30" ry="30"/>
  </g>
  <text font-size="28.2222" style="fill: #0000ff;text-anchor:start;font-family:sans-serif;font-style:normal;font-weight:normal" x="271" y="70.9">
    <tspan x="271" y="70.9">Restliches Programm</tspan>
  </text>
  <text font-size="28.2222" style="fill: #00ff00;text-anchor:start;font-family:sans-serif;font-style:normal;font-weight:normal" x="271" y="110.9">
    <tspan x="271" y="110.9">Thread</tspan>
  </text>
  <text font-size="28.2222" style="fill: #0000ff;text-anchor:start;font-family:monospace;font-style:normal;font-weight:normal" x="109" y="188">
    <tspan x="109" y="188">pthread_create()</tspan>
  </text>
  <text font-size="28.2222" style="fill: #0000ff;text-anchor:start;font-family:monospace;font-style:normal;font-weight:normal" x="117" y="628">
    <tspan x="117" y="628">pthread_join()</tspan>
  </text>
  <g>
    <rect style="fill: #ffffff" x="340" y="460" width="160" height="60" rx="30" ry="30"/>
    <rect style="fill: none; fill-opacity:0; stroke-width: 2; stroke-linejoin: round; stroke: #00ff00" x="340" y="460" width="160" height="60" rx="30" ry="30"/>
  </g>
  <text font-size="28.2222" style="fill: #00ff00;text-anchor:start;font-family:monospace;font-style:normal;font-weight:normal" x="365" y="498">
    <tspan x="365" y="498">return</tspan>
  </text>
  <g>
    <rect style="fill: #ffffff" x="280" y="280" width="280" height="60" rx="30" ry="30"/>
    <rect style="fill: none; fill-opacity:0; stroke-width: 2; stroke-linejoin: round; stroke: #00ff00" x="280" y="280" width="280" height="60" rx="30" ry="30"/>
  </g>
  <text font-size="28.2222" style="fill: #00ff00;text-anchor:start;font-family:monospace;font-style:normal;font-weight:normal" x="300" y="318">
    <tspan x="300" y="318">start function</tspan>
  </text>
  <g>
    <path style="fill: none; fill-opacity:0; stroke-width: 2; stroke: #00ff00" d="M 420 340 C 413.36,340 474,398 417,369 C 360,340 400,400 420,420 C 440,440 420,438.996 420,449.26"/>
    <polygon style="fill: #00ff00" points="420,456.76 415,446.76 420,449.26 425,446.76 "/>
    <polygon style="fill: none; fill-opacity:0; stroke-width: 2; stroke: #00ff00" points="420,456.76 415,446.76 420,449.26 425,446.76 "/>
  </g>
  <g>
    <path style="fill: none; fill-opacity:0; stroke-width: 2; stroke: #00ff00" d="M 235.5 210.9 C 241.974,210.9 349.25,228.484 380,240 C 410.75,251.516 420,260 420,270.264"/>
    <polygon style="fill: #00ff00" points="420,277.764 415,267.764 420,270.264 425,267.764 "/>
    <polygon style="fill: none; fill-opacity:0; stroke-width: 2; stroke: #00ff00" points="420,277.764 415,267.764 420,270.264 425,267.764 "/>
  </g>
  <text font-size="12.8" style="fill: #000000;text-anchor:start;font-family:sans-serif;font-style:normal;font-weight:normal" x="300" y="100">
    <tspan x="300" y="100"></tspan>
  </text>
  <text font-size="12.8" style="fill: #000000;text-anchor:start;font-family:sans-serif;font-style:normal;font-weight:normal" x="300" y="60">
    <tspan x="300" y="60"></tspan>
  </text>
</svg>
