<?xml version="1.0" encoding="UTF-8" standalone="no"?>
<!DOCTYPE svg PUBLIC "-//W3C//DTD SVG 1.0//EN" "http://www.w3.org/TR/2001/PR-SVG-20010719/DTD/svg10.dtd">
<svg width="21cm" height="12cm" viewBox="98 38 403 223" xmlns="http://www.w3.org/2000/svg" xmlns:xlink="http://www.w3.org/1999/xlink">
  <g>
    <line style="fill: none; fill-opacity:0; stroke-width: 2; stroke: #000000" x1="201.005" y1="142.714" x2="349.362" y2="121.52"/>
    <polygon style="fill: #000000" points="356.787,120.459 347.594,126.823 349.362,121.52 346.18,116.924 "/>
    <polygon style="fill: none; fill-opacity:0; stroke-width: 2; stroke: #000000" points="356.787,120.459 347.594,126.823 349.362,121.52 346.18,116.924 "/>
  </g>
  <g>
    <line style="fill: none; fill-opacity:0; stroke-width: 2; stroke: #000000" x1="200.988" y1="165.688" x2="349.707" y2="211.448"/>
    <polygon style="fill: #000000" points="356.875,213.654 345.847,215.492 349.707,211.448 348.788,205.934 "/>
    <polygon style="fill: none; fill-opacity:0; stroke-width: 2; stroke: #000000" points="356.875,213.654 345.847,215.492 349.707,211.448 348.788,205.934 "/>
  </g>
  <g>
    <g>
      <rect style="fill: #ffffff" x="360" y="200" width="100" height="60"/>
      <rect style="fill: none; fill-opacity:0; stroke-width: 2; stroke: #000000" x="360" y="200" width="100" height="60"/>
    </g>
    <text font-size="12.8" style="fill: #000000;text-anchor:start;font-family:sans-serif;font-style:normal;font-weight:normal" x="380" y="220">
      <tspan x="380" y="220">Resource</tspan>
      <tspan x="380" y="236">Count:</tspan>
      <tspan x="380" y="252">1</tspan>
    </text>
  </g>
  <rect style="fill: none; fill-opacity:0; stroke-width: 2; stroke: #000000" x="100" y="100" width="100" height="100"/>
  <text font-size="12.2372" style="fill: #000000;text-anchor:start;font-family:sans-serif;font-style:normal;font-weight:normal" x="104" y="116">
    <tspan x="104" y="116">std::shared_ptr</tspan>
    <tspan x="104" y="131.296">&lt;BigData&gt;</tspan>
  </text>
  <g>
    <rect style="fill: none; fill-opacity:0; stroke-width: 2; stroke: #000000" x="360" y="40" width="140" height="140"/>
    <text font-size="12.8" style="fill: #000000;text-anchor:start;font-family:sans-serif;font-style:normal;font-weight:normal" x="380" y="60">
      <tspan x="380" y="60">BigData</tspan>
    </text>
  </g>
  <text font-size="12.2372" style="fill: #000000;text-anchor:start;font-family:sans-serif;font-style:normal;font-weight:normal" x="103.65" y="88.8316">
    <tspan x="103.65" y="88.8316">pdata</tspan>
  </text>
</svg>
