<?xml version="1.0" encoding="UTF-8" standalone="no"?>
<!DOCTYPE svg PUBLIC "-//W3C//DTD SVG 1.0//EN" "http://www.w3.org/TR/2001/PR-SVG-20010719/DTD/svg10.dtd">
<svg width="23cm" height="18cm" viewBox="98 58 443 343" xmlns="http://www.w3.org/2000/svg" xmlns:xlink="http://www.w3.org/1999/xlink">
  <g>
    <line style="fill: none; fill-opacity:0; stroke-width: 2; stroke: #000000" x1="200.977" y1="119.558" x2="389.454" y2="154.898"/>
    <polygon style="fill: #000000" points="396.826,156.28 386.076,159.351 389.454,154.898 387.918,149.523 "/>
    <polygon style="fill: none; fill-opacity:0; stroke-width: 2; stroke: #000000" points="396.826,156.28 386.076,159.351 389.454,154.898 387.918,149.523 "/>
  </g>
  <g>
    <rect style="fill: none; fill-opacity:0; stroke-width: 2; stroke: #000000" x="100" y="60" width="100" height="100"/>
    <text font-size="12.2372" style="fill: #000000;text-anchor:start;font-family:sans-serif;font-style:normal;font-weight:normal" x="104" y="76">
      <tspan x="104" y="76">std::shared_ptr</tspan>
      <tspan x="104" y="91.2964">&lt;MyClass&gt;</tspan>
    </text>
  </g>
  <g>
    <rect style="fill: none; fill-opacity:0; stroke-width: 2; stroke: #000000" x="400" y="100" width="140" height="140"/>
    <text font-size="12.8" style="fill: #000000;text-anchor:start;font-family:sans-serif;font-style:normal;font-weight:normal" x="420" y="120">
      <tspan x="420" y="120">MyClass</tspan>
    </text>
  </g>
  <g>
    <line style="fill: none; fill-opacity:0; stroke-width: 2; stroke: #000000" x1="200.995" y1="140.597" x2="390.657" y2="254.394"/>
    <polygon style="fill: #000000" points="397.088,258.253 385.94,257.395 390.657,254.394 391.085,248.82 "/>
    <polygon style="fill: none; fill-opacity:0; stroke-width: 2; stroke: #000000" points="397.088,258.253 385.94,257.395 390.657,254.394 391.085,248.82 "/>
  </g>
  <g>
    <rect style="fill: none; fill-opacity:0; stroke-width: 2; stroke: #000000" x="100" y="180" width="100" height="100"/>
    <text font-size="12.2372" style="fill: #000000;text-anchor:start;font-family:sans-serif;font-style:normal;font-weight:normal" x="104" y="196">
      <tspan x="104" y="196">std::shared_ptr</tspan>
      <tspan x="104" y="211.296">&lt;MyClass&gt;</tspan>
    </text>
  </g>
  <g>
    <line style="fill: none; fill-opacity:0; stroke-width: 2; stroke: #000000" x1="200.977" y1="220.442" x2="389.454" y2="185.102"/>
    <polygon style="fill: #000000" points="396.826,183.72 387.918,190.477 389.454,185.102 386.076,180.649 "/>
    <polygon style="fill: none; fill-opacity:0; stroke-width: 2; stroke: #000000" points="396.826,183.72 387.918,190.477 389.454,185.102 386.076,180.649 "/>
  </g>
  <g>
    <line style="fill: none; fill-opacity:0; stroke-width: 2; stroke: #000000" x1="200.995" y1="240.199" x2="389.458" y2="277.892"/>
    <polygon style="fill: #000000" points="396.812,279.362 386.026,282.304 389.458,277.892 387.987,272.498 "/>
    <polygon style="fill: none; fill-opacity:0; stroke-width: 2; stroke: #000000" points="396.812,279.362 386.026,282.304 389.458,277.892 387.987,272.498 "/>
  </g>
  <g>
    <rect style="fill: none; fill-opacity:0; stroke-width: 2; stroke: #000000" x="100" y="300" width="100" height="100"/>
    <text font-size="12.2372" style="fill: #000000;text-anchor:start;font-family:sans-serif;font-style:normal;font-weight:normal" x="104" y="316">
      <tspan x="104" y="316">std::shared_ptr</tspan>
      <tspan x="104" y="331.296">&lt;MyClass&gt;</tspan>
    </text>
  </g>
  <g>
    <line style="fill: none; fill-opacity:0; stroke-width: 2; stroke: #000000" x1="200.977" y1="321.326" x2="390.538" y2="214.698"/>
    <polygon style="fill: #000000" points="397.075,211.021 390.81,220.281 390.538,214.698 385.907,211.565 "/>
    <polygon style="fill: none; fill-opacity:0; stroke-width: 2; stroke: #000000" points="397.075,211.021 390.81,220.281 390.538,214.698 385.907,211.565 "/>
  </g>
  <g>
    <line style="fill: none; fill-opacity:0; stroke-width: 2; stroke: #000000" x1="200.995" y1="339.801" x2="389.458" y2="302.108"/>
    <polygon style="fill: #000000" points="396.812,300.638 387.987,307.502 389.458,302.108 386.026,297.696 "/>
    <polygon style="fill: none; fill-opacity:0; stroke-width: 2; stroke: #000000" points="396.812,300.638 387.987,307.502 389.458,302.108 386.026,297.696 "/>
  </g>
  <g>
    <g>
      <rect style="fill: #ffffff" x="400" y="260" width="100" height="60"/>
      <rect style="fill: none; fill-opacity:0; stroke-width: 2; stroke: #000000" x="400" y="260" width="100" height="60"/>
    </g>
    <text font-size="12.8" style="fill: #000000;text-anchor:start;font-family:sans-serif;font-style:normal;font-weight:normal" x="420" y="280">
      <tspan x="420" y="280">Resource</tspan>
      <tspan x="420" y="296">Count:</tspan>
      <tspan x="420" y="312">3</tspan>
    </text>
  </g>
</svg>
