<?xml version="1.0" encoding="UTF-8" standalone="no"?>
<!DOCTYPE svg PUBLIC "-//W3C//DTD SVG 1.0//EN" "http://www.w3.org/TR/2001/PR-SVG-20010719/DTD/svg10.dtd">
<svg width="22cm" height="15cm" viewBox="102 68 439 292" xmlns="http://www.w3.org/2000/svg" xmlns:xlink="http://www.w3.org/1999/xlink">
  <g>
    <line style="fill: none; fill-opacity:0; stroke-width: 2; stroke: #000000" x1="204.835" y1="147.809" x2="389.598" y2="163.271"/>
    <polygon style="fill: #000000" points="397.071,163.897 386.689,168.046 389.598,163.271 387.523,158.08 "/>
    <polygon style="fill: none; fill-opacity:0; stroke-width: 2; stroke: #000000" points="397.071,163.897 386.689,168.046 389.598,163.271 387.523,158.08 "/>
  </g>
  <g>
    <line style="fill: none; fill-opacity:0; stroke-width: 2; stroke: #000000" x1="204.846" y1="168.76" x2="390.283" y2="260.467"/>
    <polygon style="fill: #000000" points="397.005,263.792 385.825,263.841 390.283,260.467 390.258,254.877 "/>
    <polygon style="fill: none; fill-opacity:0; stroke-width: 2; stroke: #000000" points="397.005,263.792 385.825,263.841 390.283,260.467 390.258,254.877 "/>
  </g>
  <g>
    <line style="fill: none; fill-opacity:0; stroke-width: 2; stroke: #000000" x1="204.319" y1="286.702" x2="390.106" y2="205.094"/>
    <polygon style="fill: #000000" points="396.973,202.078 389.828,210.677 390.106,205.094 385.807,201.521 "/>
    <polygon style="fill: none; fill-opacity:0; stroke-width: 2; stroke: #000000" points="396.973,202.078 389.828,210.677 390.106,205.094 385.807,201.521 "/>
  </g>
  <g>
    <line style="fill: none; fill-opacity:0; stroke-width: 2; stroke: #000000" x1="204.454" y1="305.765" x2="389.3" y2="293.897"/>
    <polygon style="fill: #000000" points="396.784,293.417 387.125,299.047 389.3,293.897 386.485,289.068 "/>
    <polygon style="fill: none; fill-opacity:0; stroke-width: 2; stroke: #000000" points="396.784,293.417 387.125,299.047 389.3,293.897 386.485,289.068 "/>
  </g>
  <g>
    <rect style="fill: none; fill-opacity:0; stroke-width: 2; stroke: #000000" x="400" y="100" width="140" height="140"/>
    <text font-size="12.8" style="fill: #000000;text-anchor:start;font-family:sans-serif;font-style:normal;font-weight:normal" x="420" y="120">
      <tspan x="420" y="120">BigData</tspan>
    </text>
  </g>
  <text font-size="12.2372" style="fill: #000000;text-anchor:start;font-family:sans-serif;font-style:normal;font-weight:normal" x="104.316" y="82.0666">
    <tspan x="104.316" y="82.0666">pdata</tspan>
  </text>
  <g>
    <rect style="fill: none; fill-opacity:0; stroke-width: 2; stroke: #000000" x="103.856" y="93.543" width="100" height="100"/>
    <text font-size="12.2372" style="fill: #000000;text-anchor:start;font-family:sans-serif;font-style:normal;font-weight:normal" x="107.856" y="109.543">
      <tspan x="107.856" y="109.543">std::shared_ptr</tspan>
      <tspan x="107.856" y="124.839">&lt;BigData&gt;</tspan>
    </text>
  </g>
  <g>
    <rect style="fill: none; fill-opacity:0; stroke-width: 2; stroke: #000000" x="103.47" y="259.038" width="100" height="100"/>
    <text font-size="12.2372" style="fill: #000000;text-anchor:start;font-family:sans-serif;font-style:normal;font-weight:normal" x="107.47" y="275.038">
      <tspan x="107.47" y="275.038">std::shared_ptr</tspan>
      <tspan x="107.47" y="290.334">&lt;BigData&gt;</tspan>
    </text>
  </g>
  <text font-size="12.2372" style="fill: #000000;text-anchor:start;font-family:sans-serif;font-style:normal;font-weight:normal" x="104.702" y="250.168">
    <tspan x="104.702" y="250.168">copy</tspan>
  </text>
  <g>
    <g>
      <rect style="fill: #ffffff" x="400" y="260" width="100" height="60"/>
      <rect style="fill: none; fill-opacity:0; stroke-width: 2; stroke: #000000" x="400" y="260" width="100" height="60"/>
    </g>
    <text font-size="12.8" style="fill: #000000;text-anchor:start;font-family:sans-serif;font-style:normal;font-weight:normal" x="420" y="280">
      <tspan x="420" y="280">Resource</tspan>
      <tspan x="420" y="296">Count:</tspan>
      <tspan x="420" y="312">2</tspan>
    </text>
  </g>
</svg>
