<?xml version="1.0" encoding="UTF-8" standalone="no"?>
<!DOCTYPE svg PUBLIC "-//W3C//DTD SVG 1.0//EN" "http://www.w3.org/TR/2001/PR-SVG-20010719/DTD/svg10.dtd">
<svg width="23cm" height="14cm" viewBox="98 -402 443 263" xmlns="http://www.w3.org/2000/svg" xmlns:xlink="http://www.w3.org/1999/xlink">
  <g>
    <line style="fill: none; fill-opacity:0; stroke-width: 2; stroke: #000000" x1="200.977" y1="-337.256" x2="389.578" y2="-290.105"/>
    <polygon style="fill: #000000" points="396.854,-288.286 385.94,-285.861 389.578,-290.105 388.365,-295.563 "/>
    <polygon style="fill: none; fill-opacity:0; stroke-width: 2; stroke: #000000" points="396.854,-288.286 385.94,-285.861 389.578,-290.105 388.365,-295.563 "/>
  </g>
  <g>
    <rect style="fill: none; fill-opacity:0; stroke-width: 2; stroke: #000000" x="100" y="-400" width="100" height="100"/>
    <text font-size="12.8" style="fill: #000000;text-anchor:start;font-family:sans-serif;font-style:normal;font-weight:normal" x="120" y="-380">
      <tspan x="120" y="-380">unique_ptr</tspan>
      <tspan x="120" y="-364">&lt;MyClass&gt;</tspan>
    </text>
  </g>
  <g>
    <rect style="fill: none; fill-opacity:0; stroke-width: 2; stroke: #000000" x="400" y="-340" width="140" height="140"/>
    <text font-size="12.8" style="fill: #000000;text-anchor:start;font-family:sans-serif;font-style:normal;font-weight:normal" x="420" y="-320">
      <tspan x="420" y="-320">MyClass</tspan>
    </text>
  </g>
  <g>
    <rect style="fill: none; fill-opacity:0; stroke-width: 2; stroke: #000000" x="100" y="-240" width="100" height="100"/>
    <text font-size="12.8" style="fill: #000000;text-anchor:start;font-family:sans-serif;font-style:normal;font-weight:normal" x="120" y="-220">
      <tspan x="120" y="-220">unique_ptr</tspan>
      <tspan x="120" y="-204">&lt;MyClass&gt;</tspan>
    </text>
  </g>
  <g>
    <line style="fill: none; fill-opacity:0; stroke-width: 2; stroke: #000000" x1="200.977" y1="-202.744" x2="389.578" y2="-249.895"/>
    <polygon style="fill: #000000" points="396.854,-251.714 388.365,-244.437 389.578,-249.895 385.94,-254.139 "/>
    <polygon style="fill: none; fill-opacity:0; stroke-width: 2; stroke: #000000" points="396.854,-251.714 388.365,-244.437 389.578,-249.895 385.94,-254.139 "/>
  </g>
</svg>
