<svg xmlns="http://www.w3.org/2000/svg" xmlns:xlink="http://www.w3.org/1999/xlink" contentStyleType="text/css" data-diagram-type="CLASS" height="189px" preserveAspectRatio="none" style="width:453px;height:189px;background:#FFFFFF;" version="1.1" viewBox="0 0 453 189" width="453px" zoomAndPan="magnify"><defs/><g><!--class AnalogSensor--><g class="entity" data-entity="AnalogSensor" data-source-line="2" data-uid="ent0002" id="entity_AnalogSensor"><rect fill="#F1F1F1" height="67.0679" rx="2.5" ry="2.5" style="stroke:#181818;stroke-width:0.5;" width="146.7915" x="180.28" y="115"/><ellipse cx="208.6008" cy="131" fill="#B4A7E5" rx="11" ry="11" style="stroke:#181818;stroke-width:1;"/><path d="M210.6946,137.5 L205.7883,137.5 L205.7883,136.125 L207.2102,135.8125 L207.2102,126.5313 L205.7883,126.1875 L205.7883,124.8281 L210.6946,124.8281 L210.6946,126.1875 L209.2727,126.5313 L209.2727,135.8125 L210.6946,136.125 L210.6946,137.5 Z " fill="#000000"/><text fill="#000000" font-family="sans-serif" font-size="14" font-style="italic" lengthAdjust="spacing" textLength="85.1897" x="225.561" y="136.432">AnalogSensor</text><line style="stroke:#181818;stroke-width:0.5;" x1="181.28" x2="326.0715" y1="147" y2="147"/><line style="stroke:#181818;stroke-width:0.5;" x1="181.28" x2="326.0715" y1="155" y2="155"/><ellipse cx="191.28" cy="170.034" fill="#84BE84" rx="3" ry="3" style="stroke:#038048;stroke-width:1;"/><text fill="#000000" font-family="sans-serif" font-size="14" lengthAdjust="spacing" textLength="120.7915" x="200.28" y="173.9659">double get_value()</text></g><!--class PressureSensorBMP--><g class="entity" data-entity="PressureSensorBMP" data-source-line="6" data-uid="ent0003" id="entity_PressureSensorBMP"><rect fill="#F1F1F1" height="48" rx="2.5" ry="2.5" style="stroke:#181818;stroke-width:0.5;" width="165.3495" x="7" y="7"/><ellipse cx="22" cy="23" fill="#ADD1B2" rx="11" ry="11" style="stroke:#181818;stroke-width:1;"/><path d="M22.1094,18.5313 Q21.1875,18.5313 20.4531,18.8438 Q19.7344,19.1563 19.2344,19.75 Q18.7344,20.3281 18.4531,21.2031 Q18.1875,22.0781 18.1875,23.1719 Q18.1875,24.6094 18.625,25.6563 Q19.0781,26.7031 19.9219,27.25 Q20.7813,27.7969 22.0938,27.7969 Q22.875,27.7969 23.5625,27.6719 Q24.2656,27.5313 25.2656,27.2188 L25.2656,29.0938 Q24.4063,29.4219 23.6406,29.5469 Q22.8906,29.6719 21.875,29.6719 Q19.9531,29.6719 18.6406,28.875 Q17.3438,28.0625 16.6875,26.5938 Q16.0313,25.1094 16.0313,23.1406 Q16.0313,21.7188 16.4219,20.5469 Q16.8281,19.3594 17.6094,18.4844 Q18.3906,17.6094 19.5313,17.1406 Q20.6719,16.6563 22.1406,16.6563 Q23.0938,16.6563 23.9844,16.8594 Q24.8906,17.0469 25.8281,17.5156 L25,19.2969 Q24.2188,18.9219 23.5625,18.7344 Q22.9063,18.5313 22.1094,18.5313 Z " fill="#000000"/><text fill="#000000" font-family="sans-serif" font-size="14" lengthAdjust="spacing" textLength="133.3495" x="36" y="28.432">PressureSensorBMP</text><line style="stroke:#181818;stroke-width:0.5;" x1="8" x2="171.3495" y1="39" y2="39"/><line style="stroke:#181818;stroke-width:0.5;" x1="8" x2="171.3495" y1="47" y2="47"/></g><!--class ADC1115--><g class="entity" data-entity="ADC1115" data-source-line="7" data-uid="ent0004" id="entity_ADC1115"><rect fill="#F1F1F1" height="48" rx="2.5" ry="2.5" style="stroke:#181818;stroke-width:0.5;" width="92.0457" x="207.65" y="7"/><ellipse cx="222.65" cy="23" fill="#ADD1B2" rx="11" ry="11" style="stroke:#181818;stroke-width:1;"/><path d="M222.7594,18.5313 Q221.8375,18.5313 221.1031,18.8438 Q220.3844,19.1563 219.8844,19.75 Q219.3844,20.3281 219.1031,21.2031 Q218.8375,22.0781 218.8375,23.1719 Q218.8375,24.6094 219.275,25.6563 Q219.7281,26.7031 220.5719,27.25 Q221.4313,27.7969 222.7438,27.7969 Q223.525,27.7969 224.2125,27.6719 Q224.9156,27.5313 225.9156,27.2188 L225.9156,29.0938 Q225.0563,29.4219 224.2906,29.5469 Q223.5406,29.6719 222.525,29.6719 Q220.6031,29.6719 219.2906,28.875 Q217.9938,28.0625 217.3375,26.5938 Q216.6813,25.1094 216.6813,23.1406 Q216.6813,21.7188 217.0719,20.5469 Q217.4781,19.3594 218.2594,18.4844 Q219.0406,17.6094 220.1813,17.1406 Q221.3219,16.6563 222.7906,16.6563 Q223.7438,16.6563 224.6344,16.8594 Q225.5406,17.0469 226.4781,17.5156 L225.65,19.2969 Q224.8688,18.9219 224.2125,18.7344 Q223.5563,18.5313 222.7594,18.5313 Z " fill="#000000"/><text fill="#000000" font-family="sans-serif" font-size="14" lengthAdjust="spacing" textLength="60.0457" x="236.65" y="28.432">ADC1115</text><line style="stroke:#181818;stroke-width:0.5;" x1="208.65" x2="298.6957" y1="39" y2="39"/><line style="stroke:#181818;stroke-width:0.5;" x1="208.65" x2="298.6957" y1="47" y2="47"/></g><!--class MockSensor--><g class="entity" data-entity="MockSensor" data-source-line="8" data-uid="ent0005" id="entity_MockSensor"><rect fill="#F1F1F1" height="48" rx="2.5" ry="2.5" style="stroke:#181818;stroke-width:0.5;" width="112.5557" x="334.4" y="7"/><ellipse cx="349.4" cy="23" fill="#ADD1B2" rx="11" ry="11" style="stroke:#181818;stroke-width:1;"/><path d="M349.5094,18.5313 Q348.5875,18.5313 347.8531,18.8438 Q347.1344,19.1563 346.6344,19.75 Q346.1344,20.3281 345.8531,21.2031 Q345.5875,22.0781 345.5875,23.1719 Q345.5875,24.6094 346.025,25.6563 Q346.4781,26.7031 347.3219,27.25 Q348.1813,27.7969 349.4938,27.7969 Q350.275,27.7969 350.9625,27.6719 Q351.6656,27.5313 352.6656,27.2188 L352.6656,29.0938 Q351.8063,29.4219 351.0406,29.5469 Q350.2906,29.6719 349.275,29.6719 Q347.3531,29.6719 346.0406,28.875 Q344.7438,28.0625 344.0875,26.5938 Q343.4313,25.1094 343.4313,23.1406 Q343.4313,21.7188 343.8219,20.5469 Q344.2281,19.3594 345.0094,18.4844 Q345.7906,17.6094 346.9313,17.1406 Q348.0719,16.6563 349.5406,16.6563 Q350.4938,16.6563 351.3844,16.8594 Q352.2906,17.0469 353.2281,17.5156 L352.4,19.2969 Q351.6188,18.9219 350.9625,18.7344 Q350.3063,18.5313 349.5094,18.5313 Z " fill="#000000"/><text fill="#000000" font-family="sans-serif" font-size="14" lengthAdjust="spacing" textLength="80.5557" x="363.4" y="28.432">MockSensor</text><line style="stroke:#181818;stroke-width:0.5;" x1="335.4" x2="445.9557" y1="39" y2="39"/><line style="stroke:#181818;stroke-width:0.5;" x1="335.4" x2="445.9557" y1="47" y2="47"/></g><!--reverse link PressureSensorBMP to AnalogSensor--><g class="link" data-entity-1="PressureSensorBMP" data-entity-2="AnalogSensor" data-source-line="10" data-uid="lnk6" id="link_PressureSensorBMP_AnalogSensor"><path codeLine="10" d="M137.5761,65.7452 C161.7261,82.7552 180.04,95.66 206.86,114.56" fill="none" id="PressureSensorBMP-backto-AnalogSensor" style="stroke:#181818;stroke-width:1;stroke-dasharray:7,7;"/><polygon fill="none" points="122.86,55.38,134.121,70.6506,141.0311,60.8399,122.86,55.38" style="stroke:#181818;stroke-width:1;"/></g><!--reverse link ADC1115 to AnalogSensor--><g class="link" data-entity-1="ADC1115" data-entity-2="AnalogSensor" data-source-line="11" data-uid="lnk7" id="link_ADC1115_AnalogSensor"><path codeLine="11" d="M253.67,73.38 C253.67,90.39 253.67,95.66 253.67,114.56" fill="none" id="ADC1115-backto-AnalogSensor" style="stroke:#181818;stroke-width:1;stroke-dasharray:7,7;"/><polygon fill="none" points="253.67,55.38,247.67,73.38,259.67,73.38,253.67,55.38" style="stroke:#181818;stroke-width:1;"/></g><!--reverse link MockSensor to AnalogSensor--><g class="link" data-entity-1="MockSensor" data-entity-2="AnalogSensor" data-source-line="12" data-uid="lnk8" id="link_MockSensor_AnalogSensor"><path codeLine="12" d="M349.1899,66.9843 C329.0199,83.9943 315.19,95.66 292.78,114.56" fill="none" id="MockSensor-backto-AnalogSensor" style="stroke:#181818;stroke-width:1;stroke-dasharray:7,7;"/><polygon fill="none" points="362.95,55.38,345.3218,62.3976,353.058,71.571,362.95,55.38" style="stroke:#181818;stroke-width:1;"/></g><!--SRC=[oymhIIrAIqnELN3CIyp9JmzEpIlEBrAevb9Gq5P8oIzDoabLI4yjYIzBp2bDrT3agkNYIiv9B2vM22XABIukBKg5Q73o3L2eLgY5oZcwE1iQ6fegLCC4VFEJis4c0qt0r6jJewU7uW8kc1cOCaY6OKe20000]--></g></svg>