<svg xmlns="http://www.w3.org/2000/svg" xmlns:xlink="http://www.w3.org/1999/xlink" contentStyleType="text/css" data-diagram-type="CLASS" height="100px" preserveAspectRatio="none" style="width:400px;height:100px;background:#FFFFFF;" version="1.1" viewBox="0 0 400 100" width="400px" zoomAndPan="magnify"><defs/><g><!--class InputHandler--><g class="entity" data-entity="InputHandler" data-source-line="2" data-uid="ent0002" id="entity_InputHandler"><rect fill="#F1F1F1" height="67.0679" rx="2.5" ry="2.5" style="stroke:#181818;stroke-width:0.5;" width="153.2735" x="240.57" y="16.54"/><ellipse cx="272.633" cy="32.54" fill="#B4A7E5" rx="11" ry="11" style="stroke:#181818;stroke-width:1;"/><path d="M274.7268,39.04 L269.8205,39.04 L269.8205,37.665 L271.2424,37.3525 L271.2424,28.0713 L269.8205,27.7275 L269.8205,26.3681 L274.7268,26.3681 L274.7268,27.7275 L273.3049,28.0713 L273.3049,37.3525 L274.7268,37.665 L274.7268,39.04 Z " fill="#000000"/><text fill="#000000" font-family="sans-serif" font-size="14" font-style="italic" lengthAdjust="spacing" textLength="83.3557" x="290.4248" y="37.972">InputHandler</text><line style="stroke:#181818;stroke-width:0.5;" x1="241.57" x2="392.8435" y1="48.54" y2="48.54"/><line style="stroke:#181818;stroke-width:0.5;" x1="241.57" x2="392.8435" y1="56.54" y2="56.54"/><ellipse cx="251.57" cy="71.574" fill="#84BE84" rx="3" ry="3" style="stroke:#038048;stroke-width:1;"/><text fill="#000000" font-family="sans-serif" font-size="14" lengthAdjust="spacing" textLength="127.2735" x="260.57" y="75.5059">EventAction ready()</text></g><!--class Eventloop--><g class="entity" data-entity="Eventloop" data-source-line="6" data-uid="ent0003" id="entity_Eventloop"><rect fill="#F1F1F1" height="86.1358" rx="2.5" ry="2.5" style="stroke:#181818;stroke-width:0.5;" width="198.4093" x="7" y="7"/><ellipse cx="69.1248" cy="23" fill="#ADD1B2" rx="11" ry="11" style="stroke:#181818;stroke-width:1;"/><path d="M69.2342,18.5313 Q68.3123,18.5313 67.5779,18.8438 Q66.8592,19.1563 66.3592,19.75 Q65.8592,20.3281 65.5779,21.2031 Q65.3123,22.0781 65.3123,23.1719 Q65.3123,24.6094 65.7498,25.6563 Q66.2029,26.7031 67.0467,27.25 Q67.906,27.7969 69.2185,27.7969 Q69.9998,27.7969 70.6873,27.6719 Q71.3904,27.5313 72.3904,27.2188 L72.3904,29.0938 Q71.531,29.4219 70.7654,29.5469 Q70.0154,29.6719 68.9998,29.6719 Q67.0779,29.6719 65.7654,28.875 Q64.4685,28.0625 63.8123,26.5938 Q63.156,25.1094 63.156,23.1406 Q63.156,21.7188 63.5467,20.5469 Q63.9529,19.3594 64.7342,18.4844 Q65.5154,17.6094 66.656,17.1406 Q67.7967,16.6563 69.2654,16.6563 Q70.2185,16.6563 71.1092,16.8594 Q72.0154,17.0469 72.9529,17.5156 L72.1248,19.2969 Q71.3435,18.9219 70.6873,18.7344 Q70.031,18.5313 69.2342,18.5313 Z " fill="#000000"/><text fill="#000000" font-family="sans-serif" font-size="14" lengthAdjust="spacing" textLength="65.6597" x="89.6248" y="28.432">Eventloop</text><line style="stroke:#181818;stroke-width:0.5;" x1="8" x2="204.4093" y1="39" y2="39"/><line style="stroke:#181818;stroke-width:0.5;" x1="8" x2="204.4093" y1="47" y2="47"/><ellipse cx="18" cy="62.034" fill="#84BE84" rx="3" ry="3" style="stroke:#038048;stroke-width:1;"/><text fill="#000000" font-family="sans-serif" font-size="14" lengthAdjust="spacing" textLength="172.4093" x="27" y="65.9659">register_input(fd, handler)</text><ellipse cx="18" cy="81.1019" fill="#84BE84" rx="3" ry="3" style="stroke:#038048;stroke-width:1;"/><text fill="#000000" font-family="sans-serif" font-size="14" lengthAdjust="spacing" textLength="31.4859" x="27" y="85.0339">run()</text></g><!--link Eventloop to InputHandler--><g class="link" data-entity-1="Eventloop" data-entity-2="InputHandler" data-source-line="11" data-uid="lnk4" id="link_Eventloop_InputHandler"><path codeLine="11" d="M205.52,50.07 C217.16,50.07 222.79,50.07 234.42,50.07" fill="none" id="Eventloop-to-InputHandler" style="stroke:#181818;stroke-width:1;"/><polygon fill="#181818" points="240.42,50.07,231.42,46.07,235.42,50.07,231.42,54.07,240.42,50.07" style="stroke:#181818;stroke-width:1;"/></g><!--SRC=[oymhIIrAIqnELV3CAoWjyKZCIyb9BLAevb9Gq5PmBKlDAt5CBidCprCeIarCgTJGvAhbuahEIImkXaZcvESNG1KNfQPd5WCDYyy46QIHbgAZa04nJHCYNve7qOxGg5kKcPvHeck7OZSN0000]--></g></svg>